<?xml version="1.0" encoding="UTF-8"?>
<svg width="600" height="600" version="1.1" xmlns="http://www.w3.org/2000/svg"><path transform="translate(0)" d="m0 0h600v600h-600v-600z" fill="#FEFEFE"/><path transform="translate(466,131)" d="m0 0c1.2762 0.042539 2.5523 0.085078 3.8672 0.12891 17.129 0.66748 34.21 2.8241 51.07 5.8711 0.88792 0.1538 1.7758 0.3076 2.6907 0.46606 0.81235 0.15557 1.6247 0.31115 2.4617 0.47144 1.0653 0.19916 1.0653 0.19916 2.1521 0.40234 1.7581 0.66016 1.7581 0.66016 3.7581 3.6602 3.0293 15.389 2.7857 33.429-3 48-0.44873 1.5777-0.89076 3.1574-1.3281 4.7383-1.5858 5.3756-3.9331 10.105-6.6094 15.012-0.4299 0.81082-0.8598 1.6216-1.3027 2.457-2.3755 4.4338-4.8887 8.6628-7.7598 12.793 6.9199-1.6046 11.491-4.6255 16.836-9.2578 2.1641-1.7422 2.1641-1.7422 5.1641-2.7422 0.71596-1.3075 1.371-2.6485 2-4 1.3896-2.047 2.8003-4.0591 4.25-6.0625 0.64884-0.90758 0.64884-0.90758 1.3108-1.8335 2.5553-3.5575 5.1633-7.0674 7.8259-10.545 7.9272-10.419 14.601-21.042 20.599-32.684 1.0146-1.875 1.0146-1.875 3.0146-4.875 6.3067 1.7283 12.441 3.837 18.562 6.125 0.71479 0.26571 1.4296 0.53142 2.166 0.80518 5.1455 1.9438 5.1455 1.9438 6.2715 3.0698 0.098708 2.3257 0.1318 4.6216 0.12305 6.9478 0.0011538 0.73897 0.0023077 1.4779 0.0034965 2.2393 0.0026737 2.5078-0.0018616 5.0155-0.0062898 7.5233 4.3555e-4 1.8034 0.0013102 3.6068 0.0025892 5.4102 0.0022482 4.9802-0.0017807 9.9605-0.0067781 14.941-0.0042997 5.3613-0.0028584 10.723-0.0020977 16.084 5.2554e-4 9.297-0.0026244 18.594-0.0082378 27.891-0.008111 13.442-0.01073 26.884-0.011988 40.326-0.0021912 21.806-0.008853 43.613-0.018303 65.419-0.0091725 21.189-0.016243 42.378-0.020508 63.566-2.68e-4 1.3184-5.3599e-4 2.6368-8.1211e-4 3.9951-0.0020793 10.31-0.0040363 20.62-0.0059546 30.93-0.0094416 50.576-0.029558 101.15-0.048165 151.73h-432c7.6319-7.6319 15.588-14.742 23.984-21.52 3.5623-2.9302 7.0403-5.9481 10.516-8.9805 4.282-3.7342 8.5833-7.4246 13-11 5.0335-4.0776 9.9233-8.3051 14.808-12.558 5.6561-4.922 11.37-9.7726 17.104-14.604 2.6775-2.2561 5.3521-4.5154 8.0259-6.7759 0.79857-0.67482 0.79857-0.67482 1.6133-1.3633 3.4415-2.9121 6.8661-5.8431 10.283-8.7834 4.6798-4.0264 9.3735-8.0229 14.166-11.916 6.6105-5.3716 13.048-10.94 19.5-16.5 8.6063-7.4079 17.253-14.759 26-22 4.531 1.5783 6.803 5.1539 9.625 8.8125 0.52997 0.67507 1.0599 1.3501 1.606 2.0457 1.5982 2.0408 3.1854 4.0897 4.769 6.1418 0.43119 0.55688 0.86238 1.1138 1.3066 1.6875 1.9993 2.5839 3.9892 5.1749 5.9746 7.7695 3.3425 4.3648 6.7185 8.7035 10.094 13.043 0.59539 0.76611 1.1908 1.5322 1.8042 2.3215 0.56735 0.72921 1.1347 1.4584 1.7192 2.2097 0.80196 1.0325 0.80196 1.0325 1.6201 2.0859 1.2725 1.6172 2.5807 3.2061 3.8955 4.7891 1.5859 2.0938 1.5859 2.0938 1.5859 4.0938 5.7888-4.0804 10.968-8.6528 16.168-13.453 4.1254-3.71 8.4514-7.145 12.832-10.547-3.9252-6.3526-8.4356-12.134-13.122-17.928-10.301-12.756-20.067-25.938-29.878-39.072 6.4766-6.5453 13.276-12.649 20.438-18.438 3.8034-3.0759 7.4633-6.25 11.062-9.5625 4.3677-4.0161 8.8685-7.7939 13.484-11.52 3.5623-2.9301 7.0404-5.948 10.516-8.9805 4.3821-3.8232 8.7906-7.5915 13.312-11.25 4.4124-3.5744 8.6505-7.3006 12.844-11.129 2.143-1.9394 4.3272-3.8144 6.5312-5.6836 3.3603-2.9217 6.2371-6.092 9.1094-9.4883 1.594-1.8244 3.2572-3.4728 5.0156-5.1367 9.8286-9.7844 20.851-23.404 21.312-37.875-0.67565-9.7903-1.7448-18.685-8.625-25.938-0.8366-3.5323 0.22447-5.6093 1.832-8.7031 8.0692-15.929 8.9676-29.518 8.168-47.297-0.13986 0.61295-0.27973 1.2259-0.42383 1.8574-3.3657 14.469-7.2722 27.687-15.576 40.143-2.1875 0.5625-2.1875 0.5625-5 0-1.4961-1.1719-1.4961-1.1719-3.125-2.6875-10.18-9.3413-23.718-10.453-36.875-11.312-1.5425-4.8783-2.2547-9.2436-2.625-14.375-0.85885-8.8801-4.4008-16.058-8.4922-23.876-1.1087-2.1959-2.0239-4.4446-2.8828-6.7485l-2.5625 2.5c-2.4425 1.9927-3.4689 2.506-6.6875 3.125-6.1427-1.0238-11.503-2.9856-15.629-7.832-1.1457-1.688-2.2621-3.3963-3.3516-5.1211-2.4559-3.7082-5.4198-6.824-8.4297-10.086-3.9615-4.3782-7.6429-8.9842-11.34-13.586-0.76699-0.82887-1.534-1.6577-2.3242-2.5117-1.6758-2.4883-1.6758-2.4883-1.9023-4.9805 1.9299-3.9458 5.1255-5.4795 8.8516-7.6328 0.78601-0.46575 1.572-0.93151 2.3818-1.4114 6.6047-3.8309 13.384-7.302 20.243-10.651 0.97534-0.48163 1.9507-0.96325 2.9556-1.4595 8.9203-4.2331 8.9203-4.2331 13.794-3.353 17.959 9.8534 29.153 46.281 38 64 0.10546-0.79583 0.21092-1.5917 0.31958-2.4116 0.48928-3.6556 0.99101-7.3095 1.4929-10.963 0.16564-1.2517 0.33129-2.5034 0.50195-3.793 0.77176-5.5625 1.5801-10.898 3.3223-16.246 2.6009-8.1515 1.1479-14.34-1.9492-22.148-0.30873-0.81146-0.61746-1.6229-0.93555-2.459-1.4004-3.6528-2.8659-7.2229-4.5449-10.756-1.2653-3.3783-1.3302-4.8531-0.20703-8.2227 9.1939-2.1101 17.538-3.4674 27-3z" fill="#5F83A1"/><path transform="translate(600,334)" d="m0 0v266h-311c3.5176-4.2211 6.0387-7.0584 10.188-10.312 3.7091-2.9643 7.3075-5.9843 10.812-9.1875 4.3457-3.9594 8.8455-7.6845 13.414-11.383 2.2372-1.8317 4.4218-3.7004 6.5859-5.6172 3.0601-2.7104 6.1977-5.3029 9.375-7.875 4.4994-3.6565 8.8097-7.4705 13.094-11.375 2.6197-2.3286 5.3064-4.5456 8.0312-6.75 4.526-3.6642 8.8756-7.4776 13.184-11.395 6.7339-6.1207 13.68-12.003 20.594-17.918 2.4543-2.0998 4.9047-4.204 7.3516-6.3125 5.3248-4.5845 10.661-9.139 16.121-13.562 4.3815-3.5552 8.5671-7.2802 12.738-11.078 2.5132-2.2357 5.0848-4.3682 7.6992-6.4844 6.4396-5.2152 12.667-10.663 18.916-16.104 4.6943-4.0755 9.4255-8.1083 14.149-12.149 1.7854-1.5299 3.5674-3.0638 5.3486-4.5986 5.3339-4.5922 10.679-9.1549 16.148-13.586 4.3815-3.5552 8.5671-7.2802 12.738-11.078 2.5132-2.2357 5.0848-4.3682 7.6992-6.4844 6.438-5.2139 12.664-10.66 18.912-16.099 7.9445-6.8997 15.961-13.716 24.002-20.502 4.0275-3.4018 8.0276-6.8345 12.023-10.273 4.1618-3.5813 8.3577-7.1066 12.625-10.562 4.5296-3.6719 8.8665-7.5163 13.156-11.465 4.3601-3.8477 4.3601-3.8477 6.0938-3.8477z" fill="#94CBF9"/><path transform="translate(466,131)" d="m0 0c1.2762 0.042539 2.5523 0.085078 3.8672 0.12891 17.129 0.66748 34.21 2.8241 51.07 5.8711 0.88792 0.1538 1.7758 0.3076 2.6907 0.46606 0.81235 0.15557 1.6247 0.31115 2.4617 0.47144 1.0653 0.19916 1.0653 0.19916 2.1521 0.40234 1.7581 0.66016 1.7581 0.66016 3.7581 3.6602 3.0293 15.389 2.7857 33.429-3 48-0.44873 1.5777-0.89076 3.1574-1.3281 4.7383-1.5858 5.3756-3.9331 10.105-6.6094 15.012-0.4299 0.81082-0.8598 1.6216-1.3027 2.457-2.3755 4.4338-4.8887 8.6628-7.7598 12.793 6.9199-1.6046 11.491-4.6255 16.836-9.2578 2.1641-1.7422 2.1641-1.7422 5.1641-2.7422 0.71596-1.3075 1.371-2.6485 2-4 1.3896-2.047 2.8003-4.0591 4.25-6.0625 0.64884-0.90758 0.64884-0.90758 1.3108-1.8335 2.5553-3.5575 5.1633-7.0674 7.8259-10.545 7.9272-10.419 14.601-21.042 20.599-32.684 1.0146-1.875 1.0146-1.875 3.0146-4.875 6.3067 1.7283 12.441 3.837 18.562 6.125 0.71479 0.26571 1.4296 0.53142 2.166 0.80518 5.1455 1.9438 5.1455 1.9438 6.2715 3.0698 0.072717 2.3531 0.083709 4.7083 0.0625 7.0625-0.0090234 1.2904-0.018047 2.5807-0.027344 3.9102-0.017402 1.4985-0.017402 1.4985-0.035156 3.0273-6.4232-2.0685-12.651-4.4305-18.887-7.0117-3.3972-1.0784-5.5897-1.6081-9.1133-0.98828-1.8532 1.9452-3.0957 3.5725-4.5 5.8125-0.86359 1.2906-1.7296 2.5796-2.5977 3.8672-0.46293 0.69706-0.92587 1.3941-1.4028 2.1123-2.6944 3.9675-5.5746 7.7983-8.437 11.646-3.3905 4.5629-6.7764 9.1209-10.016 13.793-11.135 15.977-28.029 28.45-47.047 33.77 0.52603-4.7796 2.7874-8.1456 5.375-12.062 15.545-24.441 25.524-46.352 23.625-75.938-0.64066-0.05551-1.2813-0.11102-1.9414-0.16821-5.1152-0.47217-10.034-1.1674-15.059-2.2693-20.016-3.991-40.678-3.8892-61-3.5625 0.19223 0.61408 0.38446 1.2282 0.58252 1.8608 0.87145 2.8313 1.707 5.6721 2.5425 8.5142 0.30293 0.96551 0.60586 1.931 0.91797 2.9258 2.0149 6.982 1.8584 11.754-0.042969 18.699-0.3137 1.5399-0.61192 3.083-0.89453 4.6289-0.22285 1.188-0.22285 1.188-0.4502 2.3999-2.9409 15.93-5.2908 31.948-7.6553 47.971-2.1647-3.247-3.3152-6.5002-4.5977-10.145-3.2407-8.9037-7.4228-17.176-11.84-25.543-0.73324-1.4065-1.4657-2.8134-2.1973-4.2207-8.6682-16.841-8.6682-16.841-18.365-33.092-4.9598 0.51776-8.7476 1.5615-13.195 3.8008-1.6919 0.84788-1.6919 0.84788-3.418 1.7129-1.1589 0.59361-2.3177 1.1872-3.5117 1.7988-1.1666 0.58201-2.3332 1.164-3.5352 1.7637-5.2023 2.6309-9.8698 5.1451-14.34 8.9238 0.3543 5.3448 3.3839 8.2112 6.8125 12 1.0697 1.2077 2.1387 2.4161 3.207 3.625 0.76377 0.86081 0.76377 0.86081 1.543 1.739 5.3422 6.0798 5.3422 6.0798 5.8125 8.8235l0.625 1.8125c4.3082 2.0515 8.285 2.6736 13 2 1.8118-1.4262 3.2514-2.9276 4.7383-4.6875 0.41637-0.43312 0.83273-0.86625 1.2617-1.3125h2c15.95 27.612 15.95 27.612 16 40 0.69094-0.17789 1.3819-0.35578 2.0938-0.53906 11.864-1.8816 25.311 3.2566 35.031 9.7891 0.6832 0.50016 1.3664 1.0003 2.0703 1.5156 1.894 1.4167 1.894 1.4167 4.8047 2.2344 2.1863-7.1551 4.2481-14.337 6.1875-21.562 0.40896-1.4647 0.40896-1.4647 0.82617-2.959 2.2912-8.5848 2.4618-15.781 0.98633-24.541-0.18562-1.1254-0.37125-2.2507-0.5625-3.4102-0.14438-0.83402-0.28875-1.668-0.4375-2.5273l2-1c1.4512 3.3712 2.8981 6.7442 4.3359 10.121 1.0237 2.4003 2.0707 4.7835 3.1406 7.1641 2.669 6.0482 4.3477 11.116 4.5234 17.715 0.12762 1.833 0.12762 1.833 0.25781 3.7031 0.47178 9.228-0.83261 16.699-4.2112 25.32-2.1078 5.3841-2.1078 5.3841-1.0466 10.977 1.2605 2.2298 1.2605 2.2298 2.8125 4.4375 5.1082 8.2149 7.5466 17.949 8.1875 27.562 0.094746 1.1292 0.094746 1.1292 0.19141 2.2812 0.35348 7.2064-1.5765 13.064-4.1914 19.719-0.4473 1.1627-0.89461 2.3255-1.3555 3.5234-4.6104 11.396-9.766 19.444-19.5 27.008-3.5888 2.8176-7.0228 5.779-10.457 8.7812-1.2862 1.1201-2.5727 2.2398-3.8594 3.3594-0.63744 0.55494-1.2749 1.1099-1.9316 1.6816-4.6943 4.0755-9.4255 8.1083-14.149 12.149-1.7854 1.5299-3.5674 3.0638-5.3486 4.5986-5.3339 4.5922-10.679 9.1549-16.148 13.586-4.3815 3.5552-8.5671 7.2802-12.738 11.078-3.3901 3.0157-6.9147 5.8496-10.441 8.7031-4.3239 3.5648-8.5464 7.2422-12.768 10.927-3.7278 3.2517-7.4898 6.452-11.302 9.6045 2.7522 5.0955 5.8136 9.4837 9.5 13.938 5.8915 7.2368 11.512 14.652 17.073 22.144 2.4648 3.3142 4.9462 6.616 7.4268 9.9185 9.1136-4.3814 16.711-12.443 24.308-19.058 4.0589-3.5333 8.1407-7.0362 12.255-10.505 4.4743-3.7732 8.9328-7.5639 13.375-11.375 0.58072-0.49822 1.1614-0.99645 1.7598-1.5098 1.7679-1.5173 3.5354-3.0349 5.3027-4.5527 7.3212-6.2874 14.653-12.56 22.031-18.781 4.2318-3.5762 8.4158-7.2054 12.594-10.844 5.1974-4.5261 10.475-8.9291 15.832-13.266 2.579-2.1392 5.0655-4.3536 7.543-6.6094 4.1973-3.8217 8.5371-7.4147 12.949-10.984 3.5713-2.9449 7.063-5.9727 10.551-9.0156 4.3821-3.8232 8.7906-7.5915 13.312-11.25 3.4899-2.8249 6.8676-5.7272 10.188-8.75 4.1857-3.8112 8.5118-7.396 12.914-10.953 4.4727-3.6533 8.7989-7.4811 13.135-11.294 0.614-0.53722 1.228-1.0744 1.8606-1.6279 0.54793-0.48211 1.0959-0.96422 1.6604-1.4609 1.4294-1.1641 1.4294-1.1641 3.4294-2.1641 1.0293 7.4788 1.0293 7.4788-1.229 10.816-1.7803 1.6994-3.6218 3.1973-5.5835 4.6836-0.68344 0.55333-1.3669 1.1067-2.071 1.6768-2.0214 1.6312-4.067 3.2276-6.1165 4.8232-1.9414 1.5786-3.8794 3.1613-5.8125 4.75-0.8727 0.70641-1.7454 1.4128-2.6445 2.1406-2.579 2.1392-5.0655 4.3536-7.543 6.6094-3.3199 3.0228-6.6976 5.9251-10.188 8.75-6.438 5.2139-12.664 10.66-18.912 16.099-7.9469 6.9018-15.968 13.718-24.009 20.509-3.9567 3.344-7.8971 6.7066-11.829 10.079-0.57919 0.49669-1.1584 0.99338-1.7551 1.5051-2.9749 2.5525-5.9471 5.1081-8.9167 7.6667-5.3318 4.589-10.674 9.1494-16.141 13.578-4.3815 3.5552-8.5671 7.2802-12.738 11.078-2.5132 2.2357-5.0848 4.3682-7.6992 6.4844-6.4396 5.2152-12.667 10.663-18.916 16.104-4.6943 4.0755-9.4255 8.1083-14.149 12.149-1.7854 1.5299-3.5674 3.0638-5.3486 4.5986-5.3339 4.5922-10.679 9.1549-16.148 13.586-4.4384 3.6041-8.7039 7.3613-12.934 11.207-7.3428 6.6742-14.931 13.074-22.47 19.525-2.3713 2.0296-4.7412 4.0609-7.1108 6.0925-1.1583 0.99294-2.3168 1.9856-3.4756 2.978-2.9714 2.5452-5.9391 5.0943-8.9009 7.6506-5.1414 4.4319-10.279 8.8412-15.609 13.047-4.2284 3.3386-8.2048 6.8973-12.184 10.527-2.6305 2.3422-5.328 4.5705-8.0664 6.7852-4.4712 3.6186-8.7735 7.3779-13.016 11.262-1.2298 1.1079-1.2298 1.1079-2.4844 2.2383-0.44729 0.49735-0.89458 0.99471-1.3554 1.5071-3.4754 3.5519-6.0887 4.9065-11.08 5.2144-2.1555 0.017299-4.3115 0.0016503-6.4667-0.040375-1.1812 8.7616e-4 -2.3624 0.0017523-3.5794 0.002655-3.2212-0.0034511-6.4408-0.033427-9.6617-0.075444-3.3725-0.037644-6.745-0.041043-10.118-0.048152-6.3785-0.018609-12.756-0.067792-19.135-0.1281-7.2647-0.067188-14.53-0.10008-21.795-0.13017-14.937-0.062626-29.873-0.16808-44.81-0.30194 7.6112-7.6414 15.593-14.747 23.984-21.52 3.5623-2.9302 7.0403-5.9481 10.516-8.9805 4.282-3.7342 8.5833-7.4246 13-11 5.0335-4.0776 9.9233-8.3051 14.808-12.558 5.6561-4.922 11.37-9.7726 17.104-14.604 2.6775-2.2561 5.3521-4.5154 8.0259-6.7759 0.79857-0.67482 0.79857-0.67482 1.6133-1.3633 3.4415-2.9121 6.8661-5.8431 10.283-8.7834 4.6798-4.0264 9.3735-8.0229 14.166-11.916 6.6105-5.3716 13.048-10.94 19.5-16.5 8.6063-7.4079 17.253-14.759 26-22 4.531 1.5783 6.803 5.1539 9.625 8.8125 0.52997 0.67507 1.0599 1.3501 1.606 2.0457 1.5982 2.0408 3.1854 4.0897 4.769 6.1418 0.43119 0.55688 0.86238 1.1138 1.3066 1.6875 1.9993 2.5839 3.9892 5.1749 5.9746 7.7695 3.3425 4.3648 6.7185 8.7035 10.094 13.043 0.59539 0.76611 1.1908 1.5322 1.8042 2.3215 0.56735 0.72921 1.1347 1.4584 1.7192 2.2097 0.80196 1.0325 0.80196 1.0325 1.6201 2.0859 1.2725 1.6172 2.5807 3.2061 3.8955 4.7891 1.5859 2.0938 1.5859 2.0938 1.5859 4.0938 5.7888-4.0804 10.968-8.6528 16.168-13.453 4.1254-3.71 8.4514-7.145 12.832-10.547-3.9252-6.3526-8.4356-12.134-13.122-17.928-10.301-12.756-20.067-25.938-29.878-39.072 6.4766-6.5453 13.276-12.649 20.438-18.438 3.8034-3.0759 7.4633-6.25 11.062-9.5625 4.3677-4.0161 8.8685-7.7939 13.484-11.52 3.5623-2.9301 7.0404-5.948 10.516-8.9805 4.3821-3.8232 8.7906-7.5915 13.312-11.25 4.4124-3.5744 8.6505-7.3006 12.844-11.129 2.143-1.9394 4.3272-3.8144 6.5312-5.6836 3.3603-2.9217 6.2371-6.092 9.1094-9.4883 1.594-1.8244 3.2572-3.4728 5.0156-5.1367 9.8286-9.7844 20.851-23.404 21.312-37.875-0.67565-9.7903-1.7448-18.685-8.625-25.938-0.8366-3.5323 0.22447-5.6093 1.832-8.7031 8.0692-15.929 8.9676-29.518 8.168-47.297-0.13986 0.61295-0.27973 1.2259-0.42383 1.8574-3.3657 14.469-7.2722 27.687-15.576 40.143-2.1875 0.5625-2.1875 0.5625-5 0-1.4961-1.1719-1.4961-1.1719-3.125-2.6875-10.18-9.3413-23.718-10.453-36.875-11.312-1.5425-4.8783-2.2547-9.2436-2.625-14.375-0.85885-8.8801-4.4008-16.058-8.4922-23.876-1.1087-2.1959-2.0239-4.4446-2.8828-6.7485l-2.5625 2.5c-2.4425 1.9927-3.4689 2.506-6.6875 3.125-6.1427-1.0238-11.503-2.9856-15.629-7.832-1.1457-1.688-2.2621-3.3963-3.3516-5.1211-2.4559-3.7082-5.4198-6.824-8.4297-10.086-3.9615-4.3782-7.6429-8.9842-11.34-13.586-0.76699-0.82887-1.534-1.6577-2.3242-2.5117-1.6758-2.4883-1.6758-2.4883-1.9023-4.9805 1.9299-3.9458 5.1255-5.4795 8.8516-7.6328 0.78601-0.46575 1.572-0.93151 2.3818-1.4114 6.6047-3.8309 13.384-7.302 20.243-10.651 0.97534-0.48163 1.9507-0.96325 2.9556-1.4595 8.9203-4.2331 8.9203-4.2331 13.794-3.353 17.959 9.8534 29.153 46.281 38 64 0.10546-0.79583 0.21092-1.5917 0.31958-2.4116 0.48928-3.6556 0.99101-7.3095 1.4929-10.963 0.16564-1.2517 0.33129-2.5034 0.50195-3.793 0.77176-5.5625 1.5801-10.898 3.3223-16.246 2.6009-8.1515 1.1479-14.34-1.9492-22.148-0.30873-0.81146-0.61746-1.6229-0.93555-2.459-1.4004-3.6528-2.8659-7.2229-4.5449-10.756-1.2653-3.3783-1.3302-4.8531-0.20703-8.2227 9.1939-2.1101 17.538-3.4674 27-3z" fill="#050506"/><path transform="translate(600,467)" d="m0 0v133h-156c3.1002-3.8753 5.4666-6.3807 9.25-9.375 4.1895-3.3482 8.2387-6.7862 12.191-10.41 1.5586-1.2148 1.5586-1.2148 3.5586-1.2148v-2c1.4669-1.3327 3.0032-2.5891 4.5625-3.8125 4.7446-3.792 9.3654-7.6895 13.938-11.688 4.3816-3.8237 8.7906-7.5916 13.312-11.25 4.4385-3.5918 8.6928-7.346 12.898-11.207 6.7709-6.043 6.7709-6.043 9.2891-6.043v-2c1.4874-1.3538 3.0443-2.6314 4.625-3.875 4.6156-3.6912 9.1472-7.4553 13.625-11.312 0.56542-0.48646 1.1308-0.97292 1.7134-1.4741 0.55349-0.47647 1.107-0.95294 1.6772-1.4438 0.54592-0.46841 1.0918-0.93683 1.6543-1.4194 1.2122-1.0487 2.4158-2.1074 3.6133-3.1729 0.62326-0.54962 1.2465-1.0992 1.8887-1.6655 0.56558-0.50443 1.1312-1.0089 1.7139-1.5286 1.4893-1.1082 1.4893-1.1082 3.4893-1.1082v-2c1.6602-1.4883 1.6602-1.4883 4.0625-3.3125 4.5385-3.5385 8.9155-7.2147 13.25-11 4.9339-4.3001 9.8814-8.5817 14.875-12.812 0.52827-0.449 1.0565-0.89799 1.6008-1.3606 7.7045-6.5144 7.7045-6.5144 9.2117-6.5144z" fill="#7F7F7F"/><path transform="translate(332,478)" d="m0 0c3.6809 3.4291 6.5388 7.2739 9.5 11.312 5.5542 7.4949 11.328 14.787 17.184 22.047 2.8168 3.5118 5.5702 7.0732 8.3159 10.641-1.2988 2.917-2.5879 4.7865-5.0195 6.8477-0.60336 0.51699-1.2067 1.034-1.8284 1.5667-0.64832 0.5439-1.2966 1.0878-1.9646 1.6482-0.67217 0.57291-1.3443 1.1458-2.0369 1.7361-2.0448 1.7403-4.097 3.4716-6.1506 5.2014-1.1306 0.9579-2.2608 1.9162-3.3906 2.875-2.1156 1.7938-4.2346 3.5835-6.3555 5.3711-3.479 2.9371-6.9281 5.9086-10.379 8.8789-4.0612 3.4932-8.1502 6.9395-12.312 10.312-6.3364 5.1472-12.47 10.521-18.626 15.881-3.1771 2.7596-6.3675 5.5036-9.561 8.2441-0.56759 0.48831-1.1352 0.97663-1.72 1.4797-1.5461 1.3258-3.1003 2.6421-4.655 3.9578-0.70904 0.70341-1.4181 1.4068-2.1486 2.1315-3.8049 2.4933-7.1009 2.4011-11.497 2.3226-1.2886 8.7616e-4 -1.2886 8.7616e-4 -2.6032 0.00177-2.8302-0.0027795-5.6593-0.033865-8.4894-0.065247-1.9658-0.0074629-3.9317-0.013156-5.8975-0.017151-5.1672-0.015253-10.334-0.054531-15.501-0.098816-5.2753-0.040961-10.551-0.059197-15.826-0.079346-10.346-0.042864-20.691-0.11111-31.037-0.19531 7.9591-7.9908 16.239-15.478 25.016-22.555 7.9353-6.502 15.645-13.294 23.234-20.195 4.2534-3.8577 8.6611-7.4917 13.129-11.098 3.1086-2.5527 6.098-5.2196 9.0625-7.9375 1.5586-1.2148 1.5586-1.2148 3.5586-1.2148v-2c1.5079-1.3749 3.0854-2.6736 4.6875-3.9375 1.0042-0.80309 2.0084-1.6062 3.043-2.4336 0.53544-0.42781 1.0709-0.85562 1.6226-1.2964 2.7561-2.2299 5.449-4.533 8.147-6.8325 4.1723-3.5392 8.3516-7.0693 12.562-10.562 1.2858-1.0693 1.2858-1.0693 2.5977-2.1602 2.0639-1.5677 3.9811-2.726 6.3398-3.7773v-2c1.4874-1.3538 3.0443-2.6314 4.625-3.875 5.3038-4.2375 10.471-8.6054 15.602-13.05 2.8556-2.4651 5.7119-4.8635 8.7729-7.0747z" fill="#6083A0"/><path transform="translate(356,193)" d="m0 0c0.54527 0.98098 1.0905 1.962 1.6523 2.9727 0.76164 1.3633 1.5234 2.7266 2.2852 4.0898 0.40098 0.72228 0.80196 1.4446 1.2151 2.1887 2.0322 3.6326 4.1062 7.2058 6.3787 10.694 4.7085 7.2861 7.0007 12.462 7.8281 21.281 0.7744 3.3526 1.8123 4.5494 4.4531 6.7109 2.854 1.7321 3.6486 2.1583 7 1.5625l2.1875-1.5c3-2 3-2 5.6875-1.625l2.3125 0.625c4.2655 16.986 3.2425 33.672 2 51-0.70383 0.12375-1.4077 0.2475-2.1328 0.375-9.1743 1.9163-19.103 5.8606-25.867 12.625-1.9883-0.11719-1.9883-0.11719-4-1-1.168-1.7578-1.168-1.7578-2.1875-4.125-9.1893-19.74-21.119-36.095-41.812-44.75-5.4633-1.825-11.31-2.3877-17-3.125-1.6685-10.488 7.6159-20.067 13.375-28.125 7.4858-10.273 14.736-19.078 25.625-25.875 0.67547-0.43441 1.3509-0.86883 2.0469-1.3164 3.3389-2.0476 4.9308-2.6836 8.9531-2.6836z" fill="#5E82A0"/><path transform="translate(315,276)" d="m0 0c18.349 5.6458 40.723 16.731 50.062 34.312 2.5252 5.4399 4.6938 11.017 6.8125 16.625 0.46612 1.2255 0.46612 1.2255 0.94165 2.4758 2.9428 8.0609 2.9428 8.0609 2.1833 11.587-1.9414 2.3594-1.9414 2.3594-4.5625 4.75-3.3368 3.1673-6.4011 6.2745-9.1875 9.9375-0.5543 0.72832-1.1086 1.4566-1.6797 2.207-1.017 1.3636-2.023 2.7356-3.0156 4.1172-3.0319 3.9514-5.8208 6.3001-10.68 7.6133-10.893 1.4208-22.424 0.24189-31.875-5.625-6.1907-4.9638-9.1367-11.412-11-19-0.61311-5.8015-0.67737-11.546-0.625-17.375 0.0023163-0.79503 0.0046326-1.5901 0.007019-2.4092 0.10308-17.896 3.5177-33.629 12.618-49.216z" fill="#5F82A0"/><path transform="translate(600,467)" d="m0 0c2.2555 26.193 2.2555 26.193-2.8242 32.309-3.2609 3.0093-7.5776 6.6914-12.176 6.6914v2c-1.4669 1.3327-3.0032 2.5891-4.5625 3.8125-5.4993 4.3951-10.83 8.952-16.133 13.581-1.765 1.5391-3.5342 3.0732-5.3044 4.6062-0.56509 0.49564-1.1302 0.99129-1.7124 1.502-4.0601 3.498-4.0601 3.498-6.2876 3.498v2c-1.4669 1.3327-3.0032 2.5891-4.5625 3.8125-5.4993 4.3951-10.83 8.952-16.133 13.581-1.765 1.5391-3.5342 3.0732-5.3044 4.6062-0.56509 0.49564-1.1302 0.99129-1.7124 1.502-4.0601 3.498-4.0601 3.498-6.2876 3.498v2c-1.6953 1.5234-1.6953 1.5234-4.125 3.375-4.3039 3.3583-8.4917 6.8115-12.625 10.375-0.58386 0.50241-1.1677 1.0048-1.7693 1.5225-1.8281 1.5745-3.6546 3.1508-5.4807 4.7275-2.5608 2.2104-5.1236 4.4183-7.6875 6.625-0.58813 0.50886-1.1763 1.0177-1.7822 1.542-5.1652 4.445-8.0564 6.1304-14.823 6.0283-0.70603-0.0028299-1.4121-0.0056598-2.1395-0.0085754-2.2519-0.011182-4.5033-0.036283-6.7551-0.061737-1.528-0.010032-3.056-0.019158-4.584-0.027344-3.743-0.022035-7.4857-0.056551-11.229-0.097656 2.8362-3.6351 5.6293-6.5095 9.25-9.375 4.1895-3.3482 8.2387-6.7862 12.191-10.41 1.5586-1.2148 1.5586-1.2148 3.5586-1.2148v-2c1.4669-1.3327 3.0032-2.5891 4.5625-3.8125 4.7446-3.792 9.3654-7.6895 13.938-11.688 4.3816-3.8237 8.7906-7.5916 13.312-11.25 4.4385-3.5918 8.6928-7.346 12.898-11.207 6.7709-6.043 6.7709-6.043 9.2891-6.043v-2c1.4874-1.3538 3.0443-2.6314 4.625-3.875 4.6156-3.6912 9.1472-7.4553 13.625-11.312 0.56542-0.48646 1.1308-0.97292 1.7134-1.4741 0.55349-0.47647 1.107-0.95294 1.6772-1.4438 0.54592-0.46841 1.0918-0.93683 1.6543-1.4194 1.2122-1.0487 2.4158-2.1074 3.6133-3.1729 0.62326-0.54962 1.2465-1.0992 1.8887-1.6655 0.56558-0.50443 1.1312-1.0089 1.7139-1.5286 1.4893-1.1082 1.4893-1.1082 3.4893-1.1082v-2c1.6602-1.4883 1.6602-1.4883 4.0625-3.3125 4.5385-3.5385 8.9155-7.2147 13.25-11 4.9339-4.3001 9.8814-8.5817 14.875-12.812 0.52827-0.449 1.0565-0.89799 1.6008-1.3606 7.7045-6.5144 7.7045-6.5144 9.2117-6.5144z" fill="#020202"/><path transform="translate(251.12 253.87)" d="m0 0c1.2788 0.0025781 2.5575 0.0051562 3.875 0.0078125 1.2788-0.0025781 2.5575-0.0051562 3.875-0.0078125 3.125 0.13281 3.125 0.13281 4.125 1.1328 0.095753 1.5055 0.12188 3.0155 0.12025 4.5241 0.0013747 0.97742 0.0027493 1.9548 0.0041656 2.9619-0.0035953 1.0811-0.0071906 2.1622-0.010895 3.276 1.4603e-4 1.1316 2.9205e-4 2.2631 4.4251e-4 3.429-6.9971e-4 3.7606-0.0084948 7.5211-0.016312 11.282-0.001864 2.5993-0.003288 5.1986-0.0042877 7.798-0.0034351 6.1553-0.011326 12.311-0.021349 18.466-0.011162 7.0059-0.016672 14.012-0.021695 21.018-0.010464 14.415-0.028263 28.831-0.050324 43.246h12c-0.55828 5.3347-2.4019 9.3304-4.8164 14.023-0.37592 0.74618-0.75184 1.4924-1.1391 2.2611-1.1948 2.3674-2.4007 4.7289-3.6069 7.0904-0.81519 1.6103-1.6297 3.221-2.4434 4.832-1.9896 3.9353-3.9892 7.8654-5.9941 11.793-2.2371-0.040039-2.2371-0.040039-5-1-1.6636-2.4664-2.9341-4.7004-4.207-7.3594-0.37026-0.74139-0.74052-1.4828-1.122-2.2466-0.77904-1.5695-1.5493-3.1433-2.3114-4.7211-1.1658-2.4098-2.3607-4.8034-3.5608-7.1963-0.75372-1.5278-1.5057-3.0564-2.2559-4.5859-0.35617-0.71477-0.71234-1.4295-1.0793-2.166-1.9219-4.0137-2.4637-6.1353-2.4637-10.725h12c-0.0022206-1.451-0.0044412-2.9021-0.0067291-4.3971-0.020228-13.642-0.035301-27.283-0.045083-40.925-0.0051628-7.0141-0.012205-14.028-0.023627-21.042-0.011007-6.7627-0.016837-13.525-0.019438-20.288-0.0018548-2.5865-0.0054764-5.173-0.010853-7.7595-0.0072064-3.6088-0.008261-7.2176-0.0077953-10.826-0.0035953-1.0811-0.0071906-2.1622-0.010895-3.276 0.0013747-0.97742 0.0027493-1.9548 0.0041656-2.9619-9.2179e-4 -0.8545-0.0018436-1.709-0.0027933-2.5894 0.20887-3.284 0.88572-2.9246 4.248-3.0675z" fill="#FC3E03"/><path transform="translate(356,193)" d="m0 0c0.54527 0.98098 1.0905 1.962 1.6523 2.9727 0.76164 1.3633 1.5234 2.7266 2.2852 4.0898 0.40098 0.72228 0.80196 1.4446 1.2151 2.1887 2.0322 3.6326 4.1062 7.2058 6.3787 10.694 4.7085 7.2861 7.0007 12.462 7.8281 21.281 0.7744 3.3526 1.8123 4.5494 4.4531 6.7109 2.854 1.7321 3.6486 2.1583 7 1.5625l2.1875-1.5c3-2 3-2 5.6875-1.625l2.3125 0.625c4.2655 16.986 3.2425 33.672 2 51-0.70383 0.12375-1.4077 0.2475-2.1328 0.375-9.1743 1.9163-19.103 5.8606-25.867 12.625-1.9883-0.11719-1.9883-0.11719-4-1-1.168-1.7578-1.168-1.7578-2.1875-4.125-9.1893-19.74-21.119-36.095-41.812-44.75-5.4633-1.825-11.31-2.3877-17-3.125-1.6685-10.488 7.6159-20.067 13.375-28.125 7.4858-10.273 14.736-19.078 25.625-25.875 0.67547-0.43441 1.3509-0.86883 2.0469-1.3164 3.3389-2.0476 4.9308-2.6836 8.9531-2.6836zm-7.8125 17.938c-0.7902 0.54527-1.5804 1.0905-2.3945 1.6523-7.2413 6.2488-12.844 13.918-18.293 21.723-0.63164 0.87979-1.2633 1.7596-1.9141 2.666-0.59555 0.84885-1.1911 1.6977-1.8047 2.5723-0.53561 0.75966-1.0712 1.5193-1.623 2.302-1.4747 2.3274-1.4747 2.3274-1.1582 6.1472 1.0274 0.49629 2.0548 0.99258 3.1133 1.5039 19.817 9.6627 31.041 19.617 40.887 39.496 6.0785-0.66427 10.212-3.2234 15.391-6.3086 4.4524-2.0864 8.7799-2.9181 13.609-3.6914 0.058837-3.4791 0.093874-6.9581 0.125-10.438 0.025137-1.4608 0.025137-1.4608 0.050781-2.9512 0.04147-6.1998-0.59978-11.611-2.1758-17.611-4.0094 0.55766-4.0094 0.55766-7.8203 1.8242-3.0122 0.24292-4.448-1.1117-6.6958-2.9846-6.0517-5.509-8.3082-8.7155-8.7964-17.136-1.4704-7.9199-6.5201-14.903-10.688-21.703-4.2675-0.35625-6.348 0.46924-9.8125 2.9375z" fill="#060707"/><path transform="translate(315,276)" d="m0 0c18.349 5.6458 40.723 16.731 50.062 34.312 2.5252 5.4399 4.6938 11.017 6.8125 16.625 0.46612 1.2255 0.46612 1.2255 0.94165 2.4758 2.9428 8.0609 2.9428 8.0609 2.1833 11.587-1.9414 2.3594-1.9414 2.3594-4.5625 4.75-3.3368 3.1673-6.4011 6.2745-9.1875 9.9375-0.5543 0.72832-1.1086 1.4566-1.6797 2.207-1.017 1.3636-2.023 2.7356-3.0156 4.1172-3.0319 3.9514-5.8208 6.3001-10.68 7.6133-10.893 1.4208-22.424 0.24189-31.875-5.625-6.1907-4.9638-9.1367-11.412-11-19-0.61311-5.8015-0.67737-11.546-0.625-17.375 0.0023163-0.79503 0.0046326-1.5901 0.007019-2.4092 0.10308-17.896 3.5177-33.629 12.618-49.216zm9 11c-0.77862 2.0804-1.5474 4.1646-2.3125 6.25-0.64389 1.7402-0.64389 1.7402-1.3008 3.5156-3.4568 10.222-4.867 19.558-4.7617 30.359-0.011602 1.1975-0.023203 2.3951-0.035156 3.6289 0.023225 7.068 0.44309 13.729 3.4102 20.246 2.143 2.1525 2.143 2.1525 5 3 0.99 0.39188 1.98 0.78375 3 1.1875 5.4419 1.4207 11.448 1.5103 17 0.8125 1.9298-1.2655 1.9298-1.2655 3-3v-2l3-1v-3h2c2.3982-2.6368 2.3982-2.6368 3-6 0.99-0.33 1.98-0.66 3-1v-2c0.99-0.33 1.98-0.66 3-1 2.2067-2.0562 3.6081-3.4142 5-6 0.11162-3.237-0.10593-4.9825-1-8-0.26812-0.91008-0.53625-1.8202-0.8125-2.7578-2.2252-6.2667-5.2756-11.041-9.6875-15.93-0.46261-0.51724-0.92522-1.0345-1.4019-1.5674-2.8575-2.992-4.9409-4.4213-9.0981-4.7451v-2h-3c-0.24234-0.61488-0.48469-1.2298-0.73438-1.8633-1.5504-2.6175-2.7358-3.166-5.5156-4.3242-0.74766-0.32355-1.4953-0.64711-2.2656-0.98047-2.8077-0.9403-5.5572-1.4133-8.4844-1.832z" fill="#050607"/><path transform="translate(334,504)" d="m0 0c3.4528 1.1509 4.3808 2.3206 6.6875 5.0625 0.93393 1.1002 0.93393 1.1002 1.8867 2.2227 0.47051 0.5659 0.94102 1.1318 1.4258 1.7148-3.845 3.8957-7.7969 7.6558-11.812 11.375-0.62455 0.57871-1.2491 1.1574-1.8926 1.7537-5.4006 4.991-10.906 9.8349-16.502 14.606-1.202 1.0258-2.4038 2.0519-3.6055 3.0781-0.60264 0.5145-1.2053 1.029-1.8262 1.5591-4.7546 4.0741-9.3916 8.2591-14.006 12.492-2.7202 2.4676-5.5032 4.8241-8.3555 7.1367 1.1733 2.8798 2.3794 4.3794 4.625 6.625 2.375 2.375 2.375 2.375 2.375 4.375-4.2672 0.98366-8.5357 1.962-12.805 2.9358-1.4492 0.33127-2.8981 0.66393-4.3467 0.99805-2.0944 0.48282-4.1899 0.96049-6.2856 1.4373-1.2568 0.28802-2.5137 0.57605-3.8086 0.8728-3.9212 0.7898-7.7812 1.3076-11.754 1.7561 0.74556-4.3806 2.0838-8.5089 3.5039-12.707 0.24274-0.72539 0.48548-1.4508 0.73558-2.1982 0.77151-2.3034 1.5472-4.6054 2.323-6.9073 0.52567-1.567 1.0511-3.134 1.5762-4.7012 1.2839-3.8298 2.5716-7.6584 3.8613-11.486 3.297 1.099 4.0467 1.946 6.1875 4.5625 0.79471 0.961 0.79471 0.961 1.6055 1.9414 0.39832 0.49371 0.79664 0.98742 1.207 1.4961 2.8672-1.3147 5.0454-2.7563 7.375-4.875 4.5316-4.0604 9.1532-8.0079 13.789-11.949 0.58153-0.49645 1.1631-0.9929 1.7622-1.5044 0.5199-0.44247 1.0398-0.88494 1.5754-1.3408 1.5551-1.3409 1.5551-1.3409 3.0659-2.998 1.4329-1.333 1.4329-1.333 3.4329-1.333v-2c1.5742-1.332 1.5742-1.332 3.6875-2.8125 3.4731-2.4397 6.3366-5.162 9.3125-8.1875 1.8431-1.7202 3.6974-3.4286 5.5625-5.125 0.92941-0.8482 1.8588-1.6964 2.8164-2.5703 4.6783-4.1135 4.6783-4.1135 6.6211-5.3047z" fill="#19171A"/><path transform="translate(251.12 253.87)" d="m0 0c1.2788 0.0025781 2.5575 0.0051562 3.875 0.0078125 1.2788-0.0025781 2.5575-0.0051562 3.875-0.0078125 3.125 0.13281 3.125 0.13281 4.125 1.1328 0.095753 1.5055 0.12188 3.0155 0.12025 4.5241 0.0013747 0.97742 0.0027493 1.9548 0.0041656 2.9619-0.0035953 1.0811-0.0071906 2.1622-0.010895 3.276 1.4603e-4 1.1316 2.9205e-4 2.2631 4.4251e-4 3.429-6.9971e-4 3.7606-0.0084948 7.5211-0.016312 11.282-0.001864 2.5993-0.003288 5.1986-0.0042877 7.798-0.0034351 6.1553-0.011326 12.311-0.021349 18.466-0.011162 7.0059-0.016672 14.012-0.021695 21.018-0.010464 14.415-0.028263 28.831-0.050324 43.246h12c-0.55828 5.3347-2.4019 9.3304-4.8164 14.023-0.37592 0.74618-0.75184 1.4924-1.1391 2.2611-1.1948 2.3674-2.4007 4.7289-3.6069 7.0904-0.81519 1.6103-1.6297 3.221-2.4434 4.832-1.9896 3.9353-3.9892 7.8654-5.9941 11.793-2.2371-0.040039-2.2371-0.040039-5-1-1.6636-2.4664-2.9341-4.7004-4.207-7.3594-0.37026-0.74139-0.74052-1.4828-1.122-2.2466-0.77904-1.5695-1.5493-3.1433-2.3114-4.7211-1.1658-2.4098-2.3607-4.8034-3.5608-7.1963-0.75372-1.5278-1.5057-3.0564-2.2559-4.5859-0.35617-0.71477-0.71234-1.4295-1.0793-2.166-1.9219-4.0137-2.4637-6.1353-2.4637-10.725h12c-0.0022206-1.451-0.0044412-2.9021-0.0067291-4.3971-0.020228-13.642-0.035301-27.283-0.045083-40.925-0.0051628-7.0141-0.012205-14.028-0.023627-21.042-0.011007-6.7627-0.016837-13.525-0.019438-20.288-0.0018548-2.5865-0.0054764-5.173-0.010853-7.7595-0.0072064-3.6088-0.008261-7.2176-0.0077953-10.826-0.0035953-1.0811-0.0071906-2.1622-0.010895-3.276 0.0013747-0.97742 0.0027493-1.9548 0.0041656-2.9619-9.2179e-4 -0.8545-0.0018436-1.709-0.0027933-2.5894 0.20887-3.284 0.88572-2.9246 4.248-3.0675zm-2.125 2.1328v117h-12c1.415 4.6156 3.2948 8.8558 5.4766 13.148 0.49517 0.98609 0.49517 0.98609 1.0003 1.9921 1.0456 2.0801 2.0967 4.1573 3.1481 6.2345 0.71391 1.4178 1.4275 2.8357 2.1406 4.2539 1.7406 3.4592 3.4861 6.9158 5.2344 10.371 3.3274-2.7568 4.9277-6.4584 6.793-10.258 0.35089-0.70366 0.70178-1.4073 1.0633-2.1323 0.73814-1.483 1.4734-2.9674 2.206-4.4532 1.126-2.2833 2.2606-4.5621 3.3967-6.8403 0.716-1.4412 1.4315-2.8826 2.1465-4.3242 0.34057-0.68539 0.68114-1.3708 1.032-2.0769 1.646-2.8306 1.646-2.8306 2.3625-5.9153h-12v-117h-12z" fill="#080504"/><path transform="translate(248,256)" d="m0 0h1v117h-12c2.4002 4.8251 4.803 9.6489 7.2083 14.471 0.81843 1.6419 1.6361 3.2841 2.4531 4.9268 1.1722 2.3565 2.3469 4.7117 3.5222 7.0667 0.55004 1.1078 0.55004 1.1078 1.1112 2.238 1.5234 3.3703 1.5234 3.3703 3.7052 6.2971l17-34h2c-0.62371 4.6061-2.5063 8.3994-4.5977 12.488-0.35372 0.7032-0.70744 1.4064-1.0719 2.1309-1.1254 2.234-2.259 4.4637-3.393 6.6933-0.76683 1.5186-1.5331 3.0375-2.2988 4.5566-1.8732 3.7135-3.7539 7.4232-5.6387 11.131-2.2371-0.037842-2.2371-0.037842-5-1-1.6631-2.4782-2.9344-4.7247-4.207-7.3945-0.37026-0.74376-0.74052-1.4875-1.122-2.2538-0.77897-1.5737-1.5492-3.1518-2.3114-4.7337-1.1671-2.42-2.3613-4.8251-3.5608-7.2292-0.75359-1.5311-1.5056-3.063-2.2559-4.5957-0.35617-0.71993-0.71234-1.4399-1.0793-2.1816-1.6841-3.5176-2.4637-5.6409-2.4637-9.6114h13v-116z" fill="#4D1C0C"/></svg>
