<?xml version="1.0" encoding="UTF-8"?>
<!-- Generator: Adobe Illustrator 16.0.0, SVG Export Plug-In . SVG Version: 6.00 Build 0)  -->
<!DOCTYPE svg  PUBLIC '-//W3C//DTD SVG 1.1//EN'  'http://www.w3.org/Graphics/SVG/1.1/DTD/svg11.dtd'>
<svg width="113.39px" height="113.39px" enable-background="new 0 0 113.39 113.39" version="1.1" viewBox="0 0 113.39 113.39" xml:space="preserve" xmlns="http://www.w3.org/2000/svg">

	<g clip-rule="evenodd" fill-rule="evenodd">
		<path d="m0.379 88.108c0-29.023 3e-3 -58.046-0.018-87.069 0-0.707 0.159-0.867 0.867-0.867 37.167 0.02 74.334 0.02 111.5 0 0.707 0 0.871 0.159 0.867 0.867-0.03 7.075-0.019 14.15-0.019 21.225-0.105 0.067-0.209 0.137-0.317 0.2-9.704 5.653-19.4 11.319-29.125 16.935-0.871 0.503-0.909 0.824-0.407 1.645 5.407 8.836 10.77 17.698 16.15 26.55 0.255 0.419 0.519 0.711-0.145 1.091-5.463 3.127-10.903 6.296-16.349 9.452-0.388-0.024-0.492-0.362-0.647-0.617-1.846-3.031-3.685-6.067-5.521-9.104-3.512-5.804-7.038-11.601-10.514-17.427-0.493-0.827-0.888-0.916-1.667-0.401-1.465 0.966-2.989 1.843-4.489 2.758-1.799 1.021-3.61 2.021-5.393 3.07-1.476 0.868-3.05 1.573-4.405 2.643-0.387-0.081-0.653 0.179-0.945 0.348-12.278 7.143-24.553 14.292-36.833 21.432-4.189 2.434-8.393 4.846-12.592 7.269z" fill="#fff"/>
		<path d="m113.58 65.279c0 15.785-5e-3 31.57 0.018 47.355 1e-3 0.646-0.126 0.773-0.772 0.772-27.294-0.021-54.587-0.018-81.881-0.018 0.103-0.355 0.456-0.407 0.711-0.556 23.232-13.508 46.467-27.011 69.706-40.508 4.065-2.36 8.145-4.697 12.218-7.045z" fill="#818181"/>
		<path d="m23.397 113.39c-7.399 0-14.798-7e-3 -22.197 0.014-0.62 2e-3 -0.863-0.051-0.845-0.792 0.063-2.632 0.024-5.266 0.024-7.899 0.36 0.105 0.576-0.173 0.834-0.323 17.861-10.385 35.723-20.77 53.573-31.174 0.656-0.382 0.991-0.467 1.448 0.301 2.871 4.821 5.783 9.618 8.73 14.392 0.43 0.696 0.223 0.919-0.368 1.254-2.586 1.468-5.151 2.974-7.723 4.468-10.961 6.37-21.924 12.741-32.88 19.124-0.238 0.139-0.708 0.138-0.596 0.635zm15.353-13.209c-0.575-0.999-1.032-1.886-1.579-2.714-0.403-0.61-0.319-0.905 0.33-1.275 6.262-3.573 12.501-7.184 18.756-10.771 0.567-0.325 0.848-0.603 0.364-1.249-0.41-0.547-0.758-1.161-1.025-1.791-0.362-0.856-0.756-0.854-1.523-0.406-6.172 3.603-12.379 7.147-18.556 10.742-0.641 0.373-0.938 0.346-1.273-0.341-0.441-0.903-1.004-1.748-1.588-2.742-2.076 3.594-4.058 7.024-6.091 10.545 4.096 2e-3 8.044 2e-3 12.185 2e-3z" fill="#6185A2"/>
		<path d="m23.397 113.39c-0.112-0.498 0.358-0.496 0.596-0.635 10.956-6.383 21.919-12.754 32.881-19.125 2.571-1.495 5.136-3 7.723-4.468 0.59-0.335 0.798-0.558 0.368-1.254-2.947-4.774-5.859-9.57-8.73-14.392-0.458-0.768-0.792-0.683-1.448-0.301-17.85 10.404-35.711 20.789-53.573 31.174-0.258 0.15-0.474 0.429-0.834 0.323v-1.321c0.307-0.149 0.624-0.279 0.917-0.45 4.052-2.353 8.1-4.712 12.15-7.069 13.577-7.903 27.15-15.814 40.743-23.689 0.779-0.451 0.794-0.763 0.353-1.463-1.519-2.408-3.013-4.832-4.428-7.301-0.439-0.767-0.756-0.687-1.4-0.312-15.394 8.977-30.798 17.936-46.205 26.888-0.694 0.403-1.33 0.926-2.131 1.133v-3.019c4.198-2.423 8.402-4.835 12.593-7.271 12.28-7.139 24.555-14.289 36.833-21.432 0.292-0.169 0.558-0.429 0.945-0.348 0.39 0.757 0.78 1.515 1.169 2.272 1.943 3.202 3.885 6.403 5.828 9.605 2.912 4.818 5.822 9.638 8.736 14.455 1.179 1.949 1.201 1.976 3.178 0.779 1.948-1.178 4.006-2.174 5.854-3.517 0.754-0.284 1.426-0.71 2.068-1.188 1.178-0.593 2.355-1.186 3.393-2.014 0.872-0.311 1.608-0.87 2.408-1.313 5.447-3.156 10.887-6.325 16.35-9.452 0.664-0.38 0.4-0.672 0.145-1.091-5.38-8.852-10.743-17.714-16.15-26.55-0.502-0.82-0.464-1.142 0.407-1.645 9.725-5.616 19.421-11.282 29.125-16.935 0.108-0.063 0.211-0.133 0.317-0.2v3.207c-0.116 0.035-0.244 0.049-0.346 0.108-8.614 5.005-17.222 10.02-25.846 15.007-0.573 0.331-0.449 0.596-0.191 1.016 1.536 2.503 3.095 4.994 4.563 7.537 0.432 0.747 0.729 0.749 1.419 0.344 6.512-3.82 13.045-7.602 19.575-11.388 0.258-0.149 0.47-0.425 0.825-0.36v1.32c-6.708 3.896-13.411 7.802-20.134 11.672-0.699 0.402-0.246 0.715-0.054 1.032 2.884 4.774 5.806 9.525 8.653 14.32 0.496 0.835 0.832 0.856 1.618 0.389 3.281-1.947 6.608-3.818 9.917-5.716v4.528c-4.073 2.348-8.153 4.685-12.219 7.046-23.238 13.497-46.474 27-69.706 40.508-0.255 0.148-0.608 0.201-0.711 0.556h-7.544z" fill="#06080B"/>
		<path d="m0.379 91.127c0.801-0.207 1.437-0.729 2.131-1.133 15.407-8.953 30.811-17.912 46.205-26.888 0.644-0.375 0.961-0.455 1.4 0.312 1.415 2.469 2.909 4.894 4.428 7.301 0.441 0.7 0.426 1.012-0.353 1.463-13.593 7.875-27.166 15.786-40.743 23.689-4.05 2.357-8.098 4.716-12.15 7.069-0.293 0.171-0.611 0.301-0.917 0.45-1e-3 -4.088-1e-3 -8.176-1e-3 -12.263z" fill="#99C9ED"/>
		<path d="m113.58 60.751c-3.31 1.898-6.636 3.769-9.917 5.716-0.786 0.467-1.122 0.446-1.618-0.389-2.847-4.795-5.769-9.546-8.653-14.32-0.191-0.317-0.645-0.629 0.054-1.032 6.723-3.87 13.425-7.776 20.134-11.672v21.697z" fill="#6185A2"/>
		<path d="m113.58 37.734c-0.354-0.065-0.567 0.21-0.825 0.36-6.53 3.787-13.063 7.568-19.575 11.388-0.69 0.405-0.987 0.403-1.419-0.344-1.469-2.542-3.028-5.033-4.563-7.537-0.258-0.42-0.381-0.685 0.191-1.016 8.624-4.987 17.232-10.002 25.846-15.007 0.102-0.059 0.23-0.073 0.346-0.108-1e-3 4.089-1e-3 8.176-1e-3 12.264z" fill="#99C9ED"/>
		<path d="m51.92 61.329c-0.39-0.757-0.78-1.515-1.169-2.272 1.354-1.07 2.929-1.775 4.405-2.643 1.782-1.049 3.594-2.049 5.393-3.07 0.668 0.594 0.971 1.448 1.517 2.129 0.113 0.223 0.213 0.453 0.342 0.667 3.612 5.988 7.239 11.967 10.836 17.963 1.465 2.443 3.029 4.828 4.342 7.36-0.643 0.478-1.315 0.904-2.069 1.188-0.176-0.216-0.381-0.414-0.523-0.65-2.458-4.073-4.895-8.16-7.368-12.224-0.658-1.081-1.157-2.271-2.077-3.182-2e-3 -0.398-0.217-0.713-0.41-1.035-1.614-2.684-3.253-5.354-4.828-8.06-0.4-0.687-0.724-0.808-1.368-0.333-0.526 0.388-1.146 0.644-1.706 0.991-1.754 1.089-3.643 1.949-5.317 3.171z" fill="#818181"/>
		<path d="m62.065 55.474c-0.546-0.681-0.849-1.535-1.517-2.129 1.5-0.915 3.023-1.792 4.489-2.758 0.78-0.514 1.174-0.426 1.667 0.401 3.476 5.826 7.002 11.623 10.514 17.427 1.837 3.037 3.675 6.073 5.521 9.104 0.155 0.255 0.259 0.593 0.647 0.617-0.8 0.444-1.536 1.003-2.408 1.314-0.204-0.042-0.313-0.192-0.413-0.356-2.739-4.533-5.479-9.065-8.218-13.598-2.238-3.704-4.49-7.399-6.701-11.119-0.396-0.666-0.756-0.687-1.342-0.289-0.724 0.494-1.491 0.927-2.239 1.386z" fill="#89A3B9"/>
		<path d="m38.75 100.18h-12.186c2.034-3.521 4.015-6.951 6.091-10.545 0.583 0.994 1.146 1.838 1.588 2.742 0.335 0.688 0.632 0.714 1.273 0.341 6.177-3.595 12.384-7.139 18.556-10.742 0.767-0.448 1.162-0.451 1.523 0.406 0.267 0.63 0.615 1.244 1.025 1.791 0.484 0.646 0.203 0.923-0.364 1.249-6.254 3.586-12.494 7.198-18.756 10.771-0.649 0.37-0.733 0.665-0.33 1.275 0.548 0.826 1.005 1.713 1.58 2.712z" fill="#06080B"/>
		<path d="m65.548 66.596c0.92 0.911 1.419 2.102 2.077 3.182 2.474 4.064 4.91 8.15 7.368 12.224 0.142 0.236 0.348 0.434 0.523 0.65-1.849 1.343-3.907 2.338-5.854 3.517-1.978 1.197-2 1.169-3.178-0.779-2.914-4.817-5.824-9.636-8.736-14.455 0.379 7e-3 0.542-0.202 0.557-0.559 0.234 0.375 0.379 0.666 0.965 0.301 1.595-0.989 3.256-1.871 4.903-2.773 0.367-0.201 0.638-0.397 0.497-0.863 0.277-0.18 0.501-0.464 0.878-0.445z" fill="#89A3B9"/>
		<path d="m62.065 55.474c0.749-0.459 1.515-0.892 2.239-1.385 0.586-0.398 0.946-0.377 1.342 0.289 2.211 3.72 4.463 7.415 6.701 11.119 2.739 4.533 5.479 9.065 8.218 13.598 0.1 0.165 0.209 0.314 0.413 0.356-1.038 0.828-2.215 1.42-3.393 2.014-1.313-2.533-2.876-4.917-4.342-7.36-3.597-5.997-7.224-11.976-10.836-17.963-0.129-0.215-0.229-0.446-0.342-0.668zm6.748 9.82c0.386-0.218 0.766-0.431 1.145-0.647 0.545-0.312 0.425-0.68 0.09-1.069-0.229-0.268-0.532-0.274-0.75-0.075-0.375 0.342-1.133 0.304-1.137 0.969-2e-3 0.318 0.211 0.714 0.652 0.822z" fill="#99C9ED"/>
		<path d="m65.548 66.596c-0.377-0.019-0.601 0.265-0.877 0.444-0.283-0.134-0.337-0.666-0.89-0.332-1.741 1.052-3.525 2.033-5.297 3.033-0.289 0.163-0.483 0.319-0.178 0.634-0.014 0.357-0.177 0.565-0.557 0.559-1.943-3.202-3.885-6.403-5.828-9.605 1.674-1.222 3.563-2.082 5.317-3.171 0.559-0.347 1.18-0.603 1.706-0.991 0.644-0.475 0.968-0.354 1.368 0.333 1.575 2.707 3.214 5.376 4.828 8.06 0.191 0.322 0.406 0.637 0.408 1.036z" fill="#99C9ED"/>
		<path d="m58.305 70.375c-0.305-0.315-0.111-0.471 0.178-0.634 1.772-1 3.557-1.981 5.297-3.033 0.553-0.334 0.607 0.197 0.89 0.332 0.141 0.466-0.13 0.663-0.497 0.863-1.647 0.903-3.309 1.785-4.903 2.773-0.586 0.365-0.731 0.074-0.965-0.301z" fill="#818181"/>
		<path d="m68.813 65.294c-0.441-0.108-0.654-0.504-0.652-0.822 4e-3 -0.666 0.762-0.627 1.137-0.969 0.219-0.2 0.521-0.193 0.75 0.075 0.335 0.39 0.455 0.757-0.09 1.069-0.379 0.216-0.759 0.429-1.145 0.647z" fill="#89A3B9"/>
	</g>



</svg>
