<?xml version="1.0" encoding="UTF-8"?>
<!-- Generator: Adobe Illustrator 16.0.0, SVG Export Plug-In . SVG Version: 6.00 Build 0)  -->
<!DOCTYPE svg  PUBLIC '-//W3C//DTD SVG 1.1//EN'  'http://www.w3.org/Graphics/SVG/1.1/DTD/svg11.dtd'>
<svg width="113.39px" height="113.39px" enable-background="new 0 0 113.39 113.39" version="1.1" viewBox="0 0 113.39 113.39" xml:space="preserve" xmlns="http://www.w3.org/2000/svg">

	<g clip-rule="evenodd" fill-rule="evenodd">
		<path d="m0.379 109.8c0-36.192 2e-3 -72.385-0.018-108.58 0-0.708 0.16-0.867 0.867-0.867 37.167 0.021 74.335 0.021 111.5 0 0.707 0 0.868 0.159 0.867 0.867-0.024 14.307-0.018 28.614-0.018 42.921-0.143 0.048-0.299 0.073-0.427 0.147-9.856 5.728-19.707 11.465-29.572 17.176-0.679 0.393-0.656 0.74-0.317 1.335 1.875 3.293 3.708 6.61 5.596 9.896 0.327 0.57 0.246 0.799-0.313 1.111-1.969 1.098-3.925 2.222-5.845 3.404-0.666 0.409-0.972 0.33-1.342-0.347-1.802-3.293-3.674-6.547-5.454-9.851-0.39-0.725-0.644-0.703-1.29-0.327-24.459 14.257-48.93 28.494-73.402 42.728-0.261 0.153-0.487 0.407-0.834 0.384zm40.116-92.973c-0.106 0.022-0.169 0.053-0.226 0.045-0.248-0.037-0.496-0.078-0.741-0.132-3.461-0.754-6.732-0.163-9.824 1.472-0.614 0.325-1.011 0.307-1.584-0.071-2.513-1.663-5.304-2.561-8.313-2.596-4.401-0.051-8.184 1.569-11.467 4.461-5.421 4.775-7.296 12.543-4.588 19.123 1.651 4.01 5.937 6.884 10.269 6.884 18.927 0 37.854 6e-3 56.781-6e-3 3.445-2e-3 6.692-0.727 9.64-2.647 3.688-2.402 5.305-6.54 3.927-10.508-0.913-2.628-2.825-4.406-5.236-5.65-0.712-0.367-0.979-0.723-0.838-1.538 0.421-2.438-0.43-4.486-2.111-6.232-1.206-1.254-2.662-2.067-4.352-2.465-0.458-0.107-0.752-0.192-0.563-0.843 0.261-0.899 0.31-1.856 0.138-2.804-0.946-5.223-4.231-8.432-9.046-10.11-3.439-1.199-7-0.844-10.498-0.044-3.438 0.786-6.348 2.462-8.513 5.303-1.882 2.467-2.83 5.266-2.855 8.358zm-8.705 41.781c0.447-0.026 0.67 0.219 0.931 0.366 0.927 0.522 1.849 1.056 2.773 1.583 0.365 0.208 0.745 0.258 0.998-0.131 0.287-0.44 0.032-0.768-0.345-1.012-0.236-0.152-0.487-0.282-0.729-0.425-0.949-0.556-1.898-1.112-2.925-1.714 0.372-0.223 0.611-0.37 0.854-0.511 0.92-0.534 1.845-1.063 2.764-1.6 0.387-0.227 0.666-0.557 0.408-0.999-0.257-0.442-0.683-0.362-1.077-0.147-0.247 0.134-0.484 0.287-0.729 0.427-0.936 0.534-1.873 1.065-2.924 1.663v-1.378c0-0.942 0.01-1.885-8e-3 -2.826-8e-3 -0.43-0.117-0.855-0.666-0.839-0.529 0.017-0.642 0.423-0.661 0.861-0.011 0.251-2e-3 0.503-2e-3 0.754v3.427c-1.19-0.685-2.26-1.312-3.341-1.917-0.453-0.254-1.008-0.67-1.375 8e-3 -0.32 0.595 0.235 0.867 0.682 1.124 1.092 0.626 2.176 1.267 3.345 1.949-0.382 0.231-0.646 0.398-0.915 0.554-0.84 0.485-1.688 0.959-2.523 1.451-0.412 0.242-0.892 0.534-0.589 1.093 0.303 0.561 0.785 0.348 1.217 0.084 0.267-0.163 0.543-0.312 0.815-0.467 0.853-0.489 1.706-0.979 2.685-1.541v1.588c1e-3 0.88-0.011 1.759 9e-3 2.639 0.01 0.436 0.172 0.855 0.682 0.832 0.492-0.022 0.65-0.419 0.645-0.877-3e-3 -0.283 1e-3 -0.565 1e-3 -0.849v-3.17zm15.53 7.211c-1.307 0.755-2.47 1.423-3.628 2.1-0.383 0.225-0.669 0.559-0.425 1.002 0.245 0.443 0.664 0.391 1.063 0.159 0.217-0.126 0.433-0.252 0.651-0.376 0.961-0.546 1.924-1.09 2.992-1.694 0 1.467-7e-3 2.754 4e-3 4.04 4e-3 0.49 0.087 1.017 0.723 0.986 0.583-0.028 0.606-0.531 0.605-0.991-3e-3 -1.006-2e-3 -2.011 0-3.016 2e-3 -1.063 4e-3 -1.063 0.966-0.507 0.732 0.423 1.453 0.865 2.2 1.26 0.489 0.258 1.089 0.894 1.543 0.146 0.463-0.761-0.374-0.976-0.849-1.264-1.008-0.609-2.033-1.191-3.141-1.837 0.367-0.229 0.62-0.395 0.881-0.546 0.921-0.533 1.848-1.057 2.766-1.596 0.35-0.205 0.619-0.519 0.413-0.929-0.229-0.455-0.656-0.417-1.062-0.222-0.225 0.107-0.434 0.248-0.651 0.372-0.969 0.557-1.938 1.113-2.906 1.669-0.257-0.355-0.151-0.677-0.155-0.976-0.017-1.099-1e-3 -2.198-0.02-3.297-7e-3 -0.373-0.16-0.676-0.603-0.702-0.446-0.026-0.616 0.28-0.688 0.632-0.055 0.272-0.026 0.563-0.027 0.846-2e-3 1.141-1e-3 2.281-1e-3 3.572-1.27-0.731-2.374-1.368-3.479-2.004-0.43-0.248-0.935-0.466-1.228 0.076-0.287 0.533 0.153 0.839 0.595 1.089 1.115 0.633 2.217 1.285 3.461 2.008zm-37.001 0.062c-1.175 0.678-2.232 1.283-3.284 1.897-0.454 0.266-1.106 0.531-0.757 1.179 0.353 0.653 0.914 0.256 1.378-7e-3 0.218-0.124 0.434-0.251 0.651-0.375 0.854-0.489 1.709-0.979 2.667-1.526 0 1.389-4e-3 2.611 2e-3 3.833 2e-3 0.53-0.061 1.186 0.701 1.188 0.746 1e-3 0.616-0.655 0.621-1.137 0.013-1.243 4e-3 -2.486 4e-3 -3.91 1.133 0.654 2.111 1.247 3.118 1.788 0.508 0.272 1.153 0.938 1.613 0.133 0.431-0.754-0.436-0.951-0.906-1.238-0.993-0.605-2.006-1.181-3.124-1.834 1.292-0.75 2.455-1.418 3.61-2.099 0.367-0.216 0.719-0.5 0.444-0.977-0.284-0.492-0.706-0.407-1.136-0.154-0.972 0.571-1.963 1.109-2.922 1.702-0.563 0.348-0.732 0.267-0.708-0.413 0.041-1.16 9e-3 -2.324 9e-3 -3.486 0-0.427-0.163-0.771-0.615-0.797-0.459-0.026-0.646 0.331-0.698 0.731-0.036 0.278-0.012 0.564-0.012 0.848v3.463c-0.377-0.207-0.593-0.319-0.803-0.44-0.895-0.517-1.788-1.036-2.683-1.554-0.425-0.245-0.918-0.485-1.217 0.077-0.286 0.539 0.139 0.859 0.584 1.098 0.22 0.118 0.434 0.25 0.65 0.376 0.912 0.528 1.824 1.059 2.813 1.634zm16.825 14.529c1.24-0.72 2.373-1.371 3.499-2.035 0.409-0.241 0.893-0.513 0.53-1.089-0.348-0.554-0.805-0.284-1.227-0.039-0.919 0.536-1.854 1.048-2.758 1.609-0.577 0.359-0.785 0.317-0.753-0.427 0.047-1.129 8e-3 -2.262 0.012-3.392 2e-3 -0.46-0.141-0.861-0.646-0.861-0.494 1e-3 -0.658 0.409-0.677 0.855-0.012 0.282-3e-3 0.565-3e-3 0.848v3.358c-1.311-0.752-2.475-1.417-3.635-2.088-0.396-0.228-0.809-0.305-1.064 0.135-0.216 0.373-0.039 0.732 0.321 0.969 0.209 0.137 0.432 0.253 0.649 0.378 0.997 0.575 1.993 1.15 3.079 1.776-1.3 0.754-2.487 1.437-3.669 2.129-0.397 0.232-0.625 0.582-0.354 1.013 0.247 0.392 0.65 0.306 1.009 0.13 0.252-0.123 0.486-0.284 0.731-0.425 0.938-0.536 1.878-1.071 2.934-1.673 0 1.402-5e-3 2.65 2e-3 3.897 3e-3 0.504-0.031 1.114 0.668 1.129 0.74 0.016 0.652-0.615 0.654-1.109 7e-3 -1.265 2e-3 -2.53 2e-3 -3.944 1.22 0.699 2.272 1.304 3.327 1.904 0.458 0.26 0.996 0.688 1.395 0.06 0.427-0.671-0.255-0.909-0.691-1.17-1.066-0.634-2.143-1.247-3.335-1.938zm43.422-24.194c0 1.5 2e-3 2.82-1e-3 4.14-1e-3 0.49 0.136 0.938 0.692 0.922 0.485-0.014 0.646-0.422 0.63-0.886-9e-3 -0.282-1e-3 -0.565-1e-3 -0.849v-3.332c1.247 0.717 2.331 1.343 3.417 1.965 0.436 0.249 0.931 0.609 1.295-0.017 0.366-0.629-0.203-0.882-0.631-1.134-1.1-0.646-2.208-1.28-3.397-1.968 1.218-0.709 2.321-1.35 3.422-1.994 0.409-0.239 0.93-0.489 0.622-1.067-0.336-0.631-0.853-0.319-1.295-0.067-1.104 0.627-2.202 1.266-3.433 1.975 0-1.255 0.034-2.346-0.013-3.433-0.025-0.592 0.338-1.563-0.627-1.584-0.984-0.022-0.645 0.952-0.667 1.543-0.042 1.109-0.012 2.222-0.012 3.477-1.263-0.729-2.366-1.373-3.475-2.005-0.418-0.239-0.906-0.499-1.232 0.057-0.33 0.563 0.138 0.837 0.561 1.082 1.121 0.649 2.239 1.303 3.471 2.021-1.223 0.707-2.33 1.347-3.437 1.986-0.456 0.264-0.949 0.575-0.568 1.165 0.344 0.532 0.821 0.228 1.238-0.014 1.103-0.64 2.21-1.274 3.441-1.983z" fill="#FFFEFF"/>
		<path d="m60.375 113.58h-37.356c0.123-0.379 0.502-0.435 0.784-0.6 2.773-1.627 5.554-3.244 8.333-4.862 19.563-11.384 39.126-22.769 58.691-34.149 7.581-4.41 15.168-8.811 22.752-13.215v21.696c-0.115 0.045-0.239 0.076-0.345 0.137-17.463 10.155-34.926 20.312-52.377 30.486-0.171 0.1-0.602 0.082-0.482 0.507z" fill="#99CAEE"/>
		<path d="m20.755 113.58c-6.543 0-13.086-0.012-19.628 0.02-0.65 3e-3 -0.886-0.139-0.748-0.774 0.524-0.051 0.902-0.407 1.328-0.655 24.404-14.193 48.807-28.392 73.201-42.604 0.536-0.313 0.785-0.354 1.117 0.257 1.466 2.701 2.967 5.384 4.501 8.047 0.293 0.509 0.037 0.64-0.299 0.835-1.703 0.994-3.403 1.993-5.108 2.984-17.884 10.402-35.769 20.802-53.644 31.219-0.266 0.156-0.768 0.147-0.72 0.671zm43.761-27.744c-0.115-0.533-0.439-0.969-0.741-1.393-0.46-0.649-0.291-0.944 0.376-1.32 3.656-2.06 7.283-4.173 10.918-6.271 1.121-0.647 1.064-0.624 0.492-1.789-0.417-0.848-0.814-1.14-1.647-0.477-0.484 0.385-1.078 0.633-1.621 0.946-3.174 1.831-6.356 3.649-9.515 5.506-0.565 0.332-0.859 0.301-1.129-0.316-0.216-0.492-0.538-0.938-0.886-1.53-1.305 2.291-2.541 4.461-3.777 6.63 0.111 0.189 0.294 0.211 0.488 0.211 2.289 1e-3 4.578 3e-3 6.866 2e-3 0.121-1e-3 0.263-4e-3 0.176-0.199z" fill="#6185A2"/>
		<path d="m113.58 86.977c0 8.615-9e-3 17.231 0.019 25.847 2e-3 0.646-0.127 0.774-0.773 0.773-14.968-0.023-29.935-0.019-44.903-0.019 0.201-0.141 0.394-0.298 0.605-0.421 10.594-6.17 21.188-12.34 31.786-18.502 4.417-2.568 8.844-5.12 13.266-7.678z" fill="#818181"/>
		<path d="m20.755 113.58c-0.048-0.524 0.454-0.516 0.72-0.671 17.875-10.417 35.76-20.817 53.644-31.22 1.705-0.991 3.405-1.99 5.108-2.984 0.335-0.195 0.592-0.326 0.299-0.835-1.534-2.663-3.036-5.346-4.501-8.047-0.332-0.61-0.581-0.569-1.117-0.257-24.394 14.212-48.796 28.41-73.201 42.604-0.426 0.248-0.803 0.604-1.328 0.655v-3.019c0.347 0.023 0.573-0.23 0.834-0.383 24.473-14.233 48.943-28.471 73.402-42.728 0.646-0.376 0.899-0.397 1.29 0.327 1.779 3.304 3.652 6.558 5.454 9.851 0.371 0.677 0.677 0.756 1.342 0.347 1.919-1.183 3.875-2.307 5.845-3.404 0.559-0.313 0.64-0.541 0.313-1.111-1.887-3.286-3.72-6.604-5.596-9.896-0.339-0.595-0.362-0.942 0.317-1.335 9.866-5.711 19.716-11.448 29.572-17.176 0.128-0.074 0.284-0.1 0.427-0.147v3.02c-0.709 0.186-1.273 0.652-1.89 1.01-8.583 4.985-17.156 9.988-25.742 14.968-0.557 0.323-0.762 0.528-0.375 1.189 1.443 2.458 2.858 4.937 4.175 7.463 0.467 0.896 0.861 0.904 1.63 0.447 3.392-2.015 6.81-3.986 10.215-5.979 3.998-2.339 7.992-4.683 11.987-7.024v1.51c-7.584 4.404-15.171 8.805-22.752 13.215-19.565 11.381-39.127 22.766-58.691 34.149-2.779 1.618-5.56 3.235-8.333 4.862-0.281 0.165-0.661 0.221-0.784 0.6-0.754-1e-3 -1.509-1e-3 -2.264-1e-3z" fill="#080B0D"/>
		<path d="m113.58 59.242c-3.996 2.342-7.99 4.686-11.987 7.024-3.405 1.992-6.823 3.964-10.215 5.979-0.769 0.457-1.163 0.449-1.63-0.447-1.316-2.526-2.732-5.005-4.175-7.463-0.388-0.661-0.183-0.866 0.375-1.189 8.586-4.979 17.159-9.982 25.742-14.968 0.617-0.357 1.181-0.824 1.89-1.01v12.074z" fill="#6185A2"/>
		<path d="m113.58 86.977c-4.422 2.559-8.849 5.11-13.266 7.679-10.598 6.162-21.192 12.332-31.786 18.502-0.212 0.123-0.404 0.28-0.605 0.421h-7.547c-0.12-0.425 0.311-0.407 0.482-0.507 17.452-10.175 34.915-20.331 52.377-30.486 0.106-0.061 0.229-0.092 0.345-0.137v4.528z" fill="#080B0D"/>
		<path d="m40.495 16.832c0.024-3.092 0.973-5.891 2.854-8.359 2.165-2.841 5.075-4.517 8.513-5.303 3.499-0.8 7.059-1.155 10.498 0.044 4.815 1.679 8.101 4.888 9.046 10.11 0.172 0.947 0.123 1.904-0.138 2.804-0.189 0.65 0.105 0.735 0.563 0.843 1.689 0.397 3.146 1.211 4.352 2.465 1.681 1.746 2.532 3.794 2.111 6.232-0.141 0.815 0.126 1.171 0.838 1.538 2.412 1.244 4.323 3.022 5.236 5.65 1.378 3.968-0.239 8.105-3.927 10.508-2.948 1.921-6.195 2.646-9.64 2.647-18.927 0.012-37.854 6e-3 -56.781 6e-3 -4.332 0-8.618-2.874-10.269-6.884-2.708-6.58-0.833-14.348 4.588-19.123 3.283-2.892 7.066-4.512 11.467-4.461 3.009 0.035 5.8 0.933 8.313 2.596 0.573 0.378 0.97 0.396 1.584 0.071 3.092-1.635 6.363-2.226 9.824-1.472 0.245 0.054 0.493 0.095 0.741 0.132 0.058 9e-3 0.121-0.022 0.227-0.044zm3.791 4.304c-0.972-0.355-1.806-0.626-2.612-0.962-3.987-1.659-7.85-1.384-11.52 0.851-1.03 0.627-1.839 0.729-2.714-0.124-0.154-0.15-0.364-0.244-0.547-0.365-2.953-1.952-6.157-2.669-9.67-2.074-8.423 1.426-14.031 10.654-11.366 18.747 1.218 3.701 4.567 6.119 8.47 6.119 18.798 0 37.596 2e-3 56.394-3e-3 2.933 0 5.708-0.556 8.227-2.194 3.886-2.526 4.358-6.919 1.018-10.113-1.035-0.99-2.277-1.642-3.605-2.153-1.701-0.653-1.704-0.667-1.025-2.389 0.757-1.921 0.387-3.615-1.006-5.107-1.53-1.639-3.523-2.047-5.644-2.13-1.484-0.059-1.563-0.113-0.875-1.396 1.546-2.878 1.169-5.554-0.708-8.093-1.216-1.645-2.802-2.854-4.67-3.7-2.361-1.071-4.855-0.934-7.317-0.718-3.842 0.336-7.319 1.604-9.686 4.86-2.005 2.76-2.946 5.79-1.676 9.19 0.194 0.52 0.325 1.066 0.532 1.754z" fill="#080B0D"/>
		<path d="m31.79 58.613v3.171c0 0.283-4e-3 0.565-1e-3 0.849 5e-3 0.458-0.153 0.854-0.645 0.877-0.51 0.023-0.672-0.396-0.682-0.832-0.02-0.88-8e-3 -1.759-9e-3 -2.639v-1.588c-0.979 0.563-1.832 1.052-2.685 1.541-0.272 0.155-0.548 0.304-0.815 0.467-0.432 0.264-0.914 0.477-1.217-0.084-0.303-0.559 0.177-0.851 0.589-1.093 0.836-0.492 1.683-0.966 2.523-1.451 0.269-0.155 0.532-0.322 0.915-0.554-1.169-0.683-2.253-1.323-3.345-1.949-0.447-0.257-1.001-0.529-0.682-1.124 0.366-0.678 0.922-0.262 1.375-8e-3 1.082 0.605 2.151 1.232 3.341 1.917v-3.427c0-0.251-8e-3 -0.503 2e-3 -0.754 0.019-0.438 0.132-0.845 0.661-0.861 0.549-0.017 0.658 0.409 0.666 0.839 0.018 0.941 7e-3 1.884 8e-3 2.826v1.378c1.051-0.598 1.988-1.129 2.924-1.663 0.245-0.14 0.481-0.293 0.729-0.427 0.394-0.215 0.819-0.295 1.077 0.147s-0.021 0.772-0.408 0.999c-0.919 0.537-1.843 1.065-2.764 1.6-0.243 0.141-0.482 0.288-0.854 0.511 1.027 0.602 1.976 1.158 2.925 1.714 0.243 0.143 0.494 0.272 0.729 0.425 0.377 0.244 0.631 0.571 0.345 1.012-0.253 0.389-0.633 0.339-0.998 0.131-0.924-0.527-1.846-1.061-2.773-1.583-0.262-0.148-0.485-0.393-0.931-0.367z" fill="#080B0D"/>
		<path d="m47.32 65.824c-1.244-0.724-2.346-1.375-3.46-2.006-0.442-0.25-0.882-0.556-0.595-1.089 0.292-0.542 0.797-0.324 1.228-0.076 1.105 0.636 2.21 1.272 3.479 2.004 0-1.291-1e-3 -2.432 1e-3 -3.572 0-0.282-0.028-0.573 0.027-0.846 0.071-0.352 0.241-0.658 0.688-0.632 0.443 0.026 0.596 0.329 0.603 0.702 0.019 1.099 3e-3 2.198 0.02 3.297 4e-3 0.299-0.102 0.62 0.155 0.976 0.969-0.556 1.938-1.112 2.906-1.669 0.217-0.124 0.426-0.265 0.651-0.372 0.406-0.195 0.833-0.233 1.062 0.222 0.206 0.41-0.063 0.724-0.413 0.929-0.918 0.539-1.845 1.063-2.766 1.596-0.261 0.151-0.514 0.317-0.881 0.546 1.107 0.646 2.133 1.228 3.141 1.837 0.475 0.288 1.312 0.503 0.849 1.264-0.454 0.747-1.054 0.111-1.543-0.146-0.747-0.395-1.468-0.837-2.2-1.26-0.962-0.556-0.963-0.556-0.966 0.507-2e-3 1.005-2e-3 2.01 0 3.016 1e-3 0.46-0.022 0.963-0.605 0.991-0.636 0.03-0.719-0.496-0.723-0.986-0.011-1.286-4e-3 -2.573-4e-3 -4.04-1.068 0.604-2.031 1.148-2.992 1.694-0.218 0.124-0.434 0.25-0.651 0.376-0.398 0.231-0.818 0.284-1.063-0.159-0.244-0.443 0.042-0.777 0.425-1.002 1.157-0.679 2.32-1.347 3.627-2.102z" fill="#080B0D"/>
		<path d="m10.319 65.886c-0.989-0.575-1.901-1.105-2.813-1.635-0.216-0.126-0.43-0.258-0.65-0.376-0.446-0.238-0.87-0.559-0.584-1.098 0.299-0.563 0.792-0.322 1.217-0.077 0.895 0.518 1.788 1.037 2.683 1.554 0.21 0.121 0.426 0.233 0.803 0.44v-3.463c0-0.283-0.024-0.569 0.012-0.848 0.051-0.4 0.239-0.758 0.698-0.731 0.452 0.025 0.615 0.37 0.615 0.797 0 1.162 0.032 2.326-9e-3 3.486-0.023 0.68 0.145 0.761 0.708 0.413 0.959-0.593 1.951-1.131 2.922-1.702 0.43-0.253 0.852-0.338 1.136 0.154 0.274 0.477-0.078 0.761-0.444 0.977-1.155 0.681-2.317 1.349-3.61 2.099 1.118 0.653 2.131 1.229 3.124 1.834 0.47 0.287 1.337 0.484 0.906 1.238-0.459 0.806-1.104 0.14-1.613-0.133-1.007-0.541-1.985-1.134-3.118-1.788 0 1.424 8e-3 2.667-4e-3 3.91-5e-3 0.481 0.125 1.138-0.621 1.137-0.762-2e-3 -0.698-0.657-0.701-1.188-6e-3 -1.222-2e-3 -2.444-2e-3 -3.833-0.958 0.548-1.813 1.037-2.667 1.526-0.217 0.124-0.433 0.251-0.651 0.375-0.464 0.263-1.025 0.66-1.378 7e-3 -0.349-0.647 0.303-0.913 0.757-1.179 1.051-0.613 2.109-1.219 3.284-1.896z" fill="#080B0D"/>
		<path d="m27.144 80.415c1.192 0.691 2.269 1.304 3.333 1.938 0.436 0.261 1.118 0.499 0.691 1.17-0.399 0.628-0.938 0.2-1.395-0.06-1.055-0.601-2.107-1.205-3.327-1.904 0 1.414 5e-3 2.68-2e-3 3.944-2e-3 0.494 0.086 1.125-0.654 1.109-0.699-0.015-0.665-0.625-0.668-1.129-7e-3 -1.247-2e-3 -2.495-2e-3 -3.897-1.056 0.602-1.995 1.137-2.934 1.673-0.245 0.141-0.479 0.302-0.731 0.425-0.359 0.176-0.762 0.262-1.009-0.13-0.271-0.431-0.042-0.78 0.354-1.013 1.182-0.692 2.369-1.375 3.669-2.129-1.086-0.626-2.083-1.201-3.079-1.776-0.217-0.125-0.44-0.241-0.649-0.378-0.36-0.236-0.538-0.596-0.321-0.969 0.255-0.439 0.669-0.362 1.064-0.135 1.161 0.671 2.325 1.336 3.635 2.088v-3.358c0-0.282-9e-3 -0.565 3e-3 -0.848 0.019-0.446 0.183-0.854 0.677-0.855 0.505 0 0.648 0.401 0.646 0.861-4e-3 1.13 0.035 2.263-0.012 3.392-0.031 0.744 0.176 0.786 0.753 0.427 0.904-0.562 1.839-1.073 2.758-1.609 0.422-0.245 0.879-0.515 1.227 0.039 0.363 0.576-0.122 0.848-0.53 1.089-1.124 0.664-2.257 1.315-3.497 2.035z" fill="#080B0D"/>
		<path d="m70.566 56.221c-1.231 0.709-2.338 1.344-3.443 1.982-0.417 0.241-0.894 0.546-1.238 0.014-0.381-0.59 0.112-0.901 0.568-1.165 1.107-0.64 2.214-1.279 3.437-1.986-1.232-0.718-2.35-1.371-3.471-2.021-0.423-0.245-0.89-0.52-0.561-1.082 0.326-0.556 0.814-0.296 1.232-0.057 1.109 0.632 2.212 1.275 3.475 2.005 0-1.255-0.03-2.367 0.012-3.477 0.022-0.591-0.317-1.565 0.667-1.543 0.966 0.021 0.602 0.992 0.627 1.584 0.047 1.087 0.013 2.178 0.013 3.433 1.231-0.709 2.329-1.348 3.433-1.975 0.442-0.252 0.959-0.563 1.295 0.067 0.308 0.578-0.213 0.828-0.622 1.067-1.101 0.645-2.204 1.285-3.422 1.994 1.189 0.688 2.297 1.321 3.397 1.968 0.428 0.252 0.997 0.505 0.631 1.134-0.364 0.626-0.859 0.266-1.295 0.017-1.086-0.622-2.169-1.248-3.417-1.965v3.332c0 0.283-8e-3 0.566 1e-3 0.849 0.016 0.464-0.146 0.872-0.63 0.886-0.556 0.016-0.693-0.432-0.692-0.922 6e-3 -1.319 3e-3 -2.639 3e-3 -4.139z" fill="#080B0D"/>
		<path d="m56.986 85.82c1.236-2.169 2.472-4.339 3.777-6.63 0.348 0.592 0.67 1.038 0.886 1.53 0.271 0.617 0.564 0.648 1.129 0.316 3.159-1.856 6.341-3.675 9.515-5.506 0.542-0.313 1.136-0.562 1.621-0.946 0.833-0.663 1.229-0.371 1.647 0.477 0.573 1.165 0.629 1.142-0.492 1.789-3.635 2.098-7.262 4.211-10.918 6.271-0.667 0.376-0.836 0.671-0.376 1.32 0.301 0.424 0.626 0.859 0.741 1.393-2.51-5e-3 -5.02-9e-3 -7.53-0.014z" fill="#080B0D"/>
		<path d="m56.986 85.82c2.51 5e-3 5.021 9e-3 7.53 0.014 0.087 0.195-0.055 0.198-0.176 0.199-2.289 1e-3 -4.578-1e-3 -6.866-2e-3 -0.194 0-0.377-0.021-0.488-0.211z" fill="#7D93A6"/>
		<path d="m44.286 21.136c-0.207-0.688-0.337-1.233-0.532-1.754-1.27-3.4-0.329-6.431 1.676-9.19 2.367-3.257 5.844-4.524 9.686-4.86 2.462-0.216 4.957-0.354 7.317 0.718 1.868 0.847 3.454 2.056 4.67 3.7 1.877 2.539 2.254 5.215 0.708 8.093-0.689 1.283-0.61 1.338 0.875 1.396 2.121 0.083 4.114 0.491 5.644 2.13 1.394 1.492 1.764 3.187 1.006 5.107-0.678 1.722-0.676 1.735 1.025 2.389 1.329 0.512 2.57 1.163 3.605 2.153 3.34 3.194 2.868 7.587-1.018 10.113-2.519 1.639-5.294 2.194-8.227 2.194-18.798 5e-3 -37.596 3e-3 -56.394 3e-3 -3.903 0-7.252-2.418-8.47-6.119-2.665-8.093 2.943-17.321 11.367-18.748 3.513-0.595 6.717 0.122 9.67 2.074 0.183 0.121 0.393 0.215 0.547 0.365 0.875 0.853 1.684 0.751 2.714 0.124 3.67-2.234 7.532-2.51 11.52-0.851 0.805 0.337 1.638 0.607 2.611 0.963z" fill="#FFFEFF"/>
	</g>



</svg>
