<?xml version="1.0" encoding="UTF-8"?>
<svg width="600" height="600" version="1.1" xmlns="http://www.w3.org/2000/svg"><path transform="translate(0)" d="m0 0h600v600h-600v-600z" fill="#FEFEFE"/><path transform="translate(600,234)" d="m0 0v366h-600c0-19 0-19 3.6914-22.723 1.7501-0.80289 3.5223-1.5585 5.3086-2.2773 2.0431-1.1635 4.0723-2.3514 6.0898-3.5586 1.6884-0.95939 3.3768-1.9187 5.0677-2.8736 2.4644-1.3919 4.9245-2.7916 7.3849-4.1907 1.2738-0.72428 2.5478-1.4482 3.8221-2.1718 6.3102-3.584 12.601-7.2022 18.885-10.83 1.0686-0.61674 2.1371-1.2335 3.238-1.8689 8.1734-4.7226 16.328-9.4771 24.478-14.239 10.56-6.1663 21.155-12.272 31.751-18.376 5.4288-3.1279 10.855-6.2597 16.282-9.3911 2.1667-1.25 4.3333-2.5 6.5-3.75l3.25-1.875c61.75-35.625 61.75-35.625 65-37.5 2.1651-1.2491 4.3301-2.4983 6.4951-3.7476 5.4406-3.1392 10.882-6.2771 16.325-9.4124 10.492-6.0454 20.975-12.106 31.43-18.215 11.547-6.747 23.129-13.433 34.718-20.109 5.4288-3.1279 10.855-6.2597 16.282-9.3911 2.1667-1.25 4.3333-2.5 6.5-3.75l3.25-1.875c87.75-50.625 87.75-50.625 91-52.5 2.1651-1.2491 4.3301-2.4983 6.4951-3.7476 5.4406-3.1392 10.882-6.2771 16.325-9.4124 10.492-6.0454 20.975-12.106 31.43-18.215 11.547-6.747 23.129-13.433 34.718-20.109 5.4288-3.1279 10.855-6.2597 16.282-9.3911 2.1667-1.25 4.3333-2.5 6.5-3.75l3.25-1.875c9.75-5.625 9.75-5.625 13.001-7.5005 2.1635-1.2482 4.3269-2.4966 6.4902-3.7451 5.4644-3.1534 10.93-6.3042 16.399-9.4497 11.637-6.6973 23.247-13.433 34.772-20.321 0.85497-0.50902 1.7099-1.018 2.5908-1.5425 0.75096-0.44916 1.5019-0.89832 2.2756-1.3611 1.7205-0.95532 1.7205-0.95532 2.7205-0.95532z" fill="#94CBF9"/><path transform="translate(600,234)" d="m0 0c0.20864 11.239 0.3685 22.478 0.46631 33.719 0.046948 5.2199 0.11061 10.439 0.21265 15.658 0.097879 5.0381 0.15162 10.075 0.17494 15.114 0.016615 1.9211 0.049063 3.8421 0.097675 5.7627 0.36534 15.033 0.36534 15.033-2.8176 19.174-2.3323 1.5881-4.4919 2.6029-7.134 3.5723-0.98339 0.59539-1.9668 1.1908-2.98 1.8042-0.87028 0.49516-1.7406 0.99032-2.6372 1.5005-1.005 0.575-2.01 1.15-3.0454 1.7424-1.0601 0.6032-2.1202 1.2064-3.2124 1.8279-2.3185 1.3281-4.6364 2.6571-6.9531 3.9883-0.59169 0.33984-1.1834 0.67969-1.793 1.0298-6.3691 3.6651-12.688 7.4132-19.004 11.169-9.3664 5.5677-18.755 11.094-28.172 16.576-7.95 4.6288-15.892 9.2717-23.828 13.924-0.61809 0.3623-1.2362 0.72459-1.873 1.0979-8.7164 5.1102-17.421 10.24-26.116 15.387-8.2429 4.8759-16.506 9.7166-24.771 14.556-7.8814 4.6161-15.756 9.2439-23.616 13.896-9.1128 5.3941-18.246 10.752-27.384 16.104-8.7586 5.1299-17.505 10.279-26.24 15.45-8.125 4.8062-16.271 9.5757-24.418 14.345-8.9403 5.2349-17.862 10.5-26.77 15.789-10.29 6.1083-20.612 12.159-30.953 18.18-6.9602 4.053-13.911 8.1222-20.859 12.195-0.61809 0.3623-1.2362 0.72459-1.873 1.0979-8.72 5.1124-17.428 10.244-26.127 15.393-8.1248 4.8062-16.271 9.5755-24.418 14.345-8.9403 5.2349-17.862 10.5-26.77 15.789-20.496 12.166-20.496 12.166-27.905 16.374-5.0164 2.8714-9.8986 5.8086-14.635 9.1242-15.444 10.478-28.117 12.291-46.524 11.734-3.4668-0.089376-6.9339-0.095883-10.402-0.11236-6.5245-0.042988-13.045-0.15711-19.568-0.29889-7.4437-0.15817-14.888-0.23387-22.333-0.30374-15.276-0.14514-30.548-0.3903-45.821-0.70453-0.10738-3.0888-0.17285-6.1772-0.23071-9.2673-0.03093-0.87502-0.06186-1.75-0.093727-2.6516-0.091424-6.4958-0.091424-6.4958 2.028-9.4789 2.3403-1.5598 4.6875-2.5524 7.2964-3.6022 2.0431-1.1635 4.0723-2.3514 6.0898-3.5586 1.6884-0.95939 3.3768-1.9187 5.0677-2.8736 2.4644-1.3919 4.9245-2.7916 7.3849-4.1907 1.2738-0.72428 2.5478-1.4482 3.8221-2.1718 6.3102-3.584 12.601-7.2022 18.885-10.83 1.0686-0.61674 2.1371-1.2335 3.238-1.8689 8.1734-4.7226 16.328-9.4771 24.478-14.239 10.56-6.1663 21.155-12.272 31.751-18.376 5.4288-3.1279 10.855-6.2597 16.282-9.3911 2.1667-1.25 4.3333-2.5 6.5-3.75l3.25-1.875c61.75-35.625 61.75-35.625 65-37.5 2.1651-1.2491 4.3301-2.4983 6.4951-3.7476 5.4406-3.1392 10.882-6.2771 16.325-9.4124 10.492-6.0454 20.975-12.106 31.43-18.215 11.547-6.747 23.129-13.433 34.718-20.109 5.4288-3.1279 10.855-6.2597 16.282-9.3911 2.1667-1.25 4.3333-2.5 6.5-3.75l3.25-1.875c87.75-50.625 87.75-50.625 91-52.5 2.1651-1.2491 4.3301-2.4983 6.4951-3.7476 5.4406-3.1392 10.882-6.2771 16.325-9.4124 10.492-6.0454 20.975-12.106 31.43-18.215 11.547-6.747 23.129-13.433 34.718-20.109 5.4288-3.1279 10.855-6.2597 16.282-9.3911 2.1667-1.25 4.3333-2.5 6.5-3.75l3.25-1.875c9.75-5.625 9.75-5.625 13.001-7.5005 2.1635-1.2482 4.3269-2.4966 6.4902-3.7451 5.4644-3.1534 10.93-6.3042 16.399-9.4497 11.637-6.6973 23.247-13.433 34.772-20.321 0.85497-0.50902 1.7099-1.018 2.5908-1.5425 0.75096-0.44916 1.5019-0.89832 2.2756-1.3611 1.7205-0.95532 1.7205-0.95532 2.7205-0.95532z" fill="#5F83A1"/><path transform="translate(600,435)" d="m0 0v165h-282c3.5209-2.8167 6.4918-4.9929 10.332-7.1797 1.55-0.88764 1.55-0.88764 3.1313-1.7932 1.1052-0.62769 2.2104-1.2554 3.3491-1.9021 1.7602-1.0063 3.5195-2.0143 5.2788-3.0223 1.2015-0.6883 2.4034-1.3761 3.6055-2.0634 5.8289-3.3339 11.631-6.7128 17.428-10.102 0.98436-0.575 1.9687-1.15 2.9829-1.7424 1.9822-1.1579 3.9643-2.3161 5.9463-3.4744 2.9197-1.7055 5.8407-3.4088 8.7622-5.1113 10.904-6.3545 21.798-12.724 32.684-19.109 11.85-6.9504 23.711-13.881 35.581-20.798 4.9739-2.8992 9.9466-5.8005 14.919-8.7017 2-1.1667 4-2.3333 6-3.5l3-1.75c9-5.25 9-5.25 11.999-6.9993 2.0041-1.1691 4.0082-2.3382 6.0122-3.5073 4.9372-2.8803 9.8748-5.7599 14.813-8.6379 10.901-6.3538 21.793-12.722 32.676-19.105 10.853-6.3657 21.714-12.717 32.586-19.051 4.2384-2.4697 8.4719-4.9477 12.703-7.4297 1.1121-0.65138 2.2241-1.3028 3.3699-1.9739 2.1483-1.2585 4.2956-2.5187 6.4419-3.7808 0.95544-0.55921 1.9109-1.1184 2.8953-1.6946 1.2712-0.74613 1.2712-0.74613 2.5681-1.5073 1.9358-1.063 1.9358-1.063 2.9358-1.063z" fill="#7F7F7F"/><path transform="translate(600,234)" d="m0 0c0.24442 2.2028 0.41827 4.4134 0.5625 6.625 0.10441 1.2298 0.20883 2.4595 0.31641 3.7266-0.98083 4.0715-1.3758 4.4434-4.6641 6.6875-1.7221 1.015-3.462 2.0001-5.2148 2.9609-0.9274 0.53383-1.8548 1.0677-2.8103 1.6177-3.0474 1.7407-6.1154 3.4396-9.1897 5.1323-7.1889 3.9918-14.366 7.9899-21.438 12.188-7.0096 4.1605-14.061 8.2458-21.125 12.312-8.4941 4.8915-16.975 9.8039-25.438 14.75-11.547 6.7472-23.129 13.433-34.718 20.109-5.4288 3.1279-10.855 6.2597-16.282 9.3911-6.5223 3.7636-13.045 7.5264-19.57 11.285-10.492 6.0454-20.975 12.106-31.43 18.215-11.547 6.747-23.129 13.433-34.718 20.109-5.4288 3.1279-10.855 6.2597-16.282 9.3911-2.1667 1.25-4.3333 2.5-6.5 3.75l-3.25 1.875c-9.75 5.625-9.75 5.625-13 7.5002-2.1651 1.2491-4.3301 2.4983-6.4951 3.7476-5.4406 3.1392-10.882 6.2771-16.325 9.4124-10.452 6.0223-20.893 12.062-31.305 18.152-8.6378 5.0509-17.308 10.043-26 15-18.418 10.505-36.784 21.099-55.091 31.796-10.56 6.1663-21.155 12.272-31.751 18.376-5.4288 3.1279-10.855 6.2597-16.282 9.3911-6.5223 3.7636-13.045 7.5264-19.57 11.285-10.492 6.0454-20.975 12.106-31.43 18.215-13.731 8.0227-27.511 15.959-41.291 23.896-13.756 7.9242-27.494 15.877-41.201 23.886-1.3318 0.7773-1.3318 0.7773-2.6904 1.5703-2.0498 1.1993-4.097 2.403-6.1426 3.6094-1.6373 0.96293-1.6373 0.96293-3.3076 1.9453-1.0018 0.59104-2.0035 1.1821-3.0356 1.791-2.3315 1.3027-2.3315 1.3027-3.3315 1.3027-0.24442-2.2028-0.41827-4.4134-0.5625-6.625-0.10441-1.2298-0.20883-2.4595-0.31641-3.7266 0.97682-4.0549 1.3366-4.4156 4.6055-6.6445 1.7429-1.0271 3.5024-2.0262 5.2734-3.0039 0.97236-0.56912 1.9447-1.1382 2.9465-1.7246 2.7256-1.5903 5.4634-3.1559 8.2111-4.7076 2.4644-1.3919 4.9245-2.7916 7.3849-4.1907 1.2738-0.72428 2.5478-1.4482 3.8221-2.1718 6.3102-3.584 12.601-7.2022 18.885-10.83 1.0686-0.61674 2.1371-1.2335 3.238-1.8689 8.1734-4.7226 16.328-9.4771 24.478-14.239 10.56-6.1663 21.155-12.272 31.751-18.376 5.4288-3.1279 10.855-6.2597 16.282-9.3911 2.1667-1.25 4.3333-2.5 6.5-3.75l3.25-1.875c61.75-35.625 61.75-35.625 65-37.5 2.1651-1.2491 4.3301-2.4983 6.4951-3.7476 5.4406-3.1392 10.882-6.2771 16.325-9.4124 10.492-6.0454 20.975-12.106 31.43-18.215 11.547-6.747 23.129-13.433 34.718-20.109 5.4288-3.1279 10.855-6.2597 16.282-9.3911 2.1667-1.25 4.3333-2.5 6.5-3.75l3.25-1.875c87.75-50.625 87.75-50.625 91-52.5 2.1651-1.2491 4.3301-2.4983 6.4951-3.7476 5.4406-3.1392 10.882-6.2771 16.325-9.4124 10.492-6.0454 20.975-12.106 31.43-18.215 11.547-6.747 23.129-13.433 34.718-20.109 5.4288-3.1279 10.855-6.2597 16.282-9.3911 2.1667-1.25 4.3333-2.5 6.5-3.75l3.25-1.875c9.75-5.625 9.75-5.625 13.001-7.5005 2.1635-1.2482 4.3269-2.4966 6.4902-3.7451 5.4644-3.1534 10.93-6.3042 16.399-9.4497 11.637-6.6973 23.247-13.433 34.772-20.321 0.85497-0.50902 1.7099-1.018 2.5908-1.5425 0.75096-0.44916 1.5019-0.89832 2.2756-1.3611 1.7205-0.95532 1.7205-0.95532 2.7205-0.95532z" fill="#030303"/><path transform="translate(600,435)" d="m0 0c1.5233 7.9233 2.708 16.235 0 24-5.2951 6.1461-13.374 9.1454-20.622 12.416-5.2981 2.4851-10.244 5.5065-15.253 8.522-1.9993 1.1714-4.0006 2.3394-6.0039 3.5039-1.0031 0.58411-2.0061 1.1682-3.0396 1.77-5.2892 3.0699-10.593 6.1146-15.894 9.1636-8.9362 5.1416-17.827 10.355-26.688 15.625-14.164 8.423-28.439 16.648-42.729 24.854-13.233 7.6025-26.411 15.287-39.524 23.094-8.0341 4.7708-16.123 9.4354-24.246 14.051-12.82 7.2846-25.514 14.768-38.171 22.331-0.93352 0.55075-1.867 1.1015-2.8289 1.6689-1.6141 1.0809-1.6141 1.0809-3.2607 2.1836-4.3048 2.4383-8.3261 2.3263-13.173 2.207-0.87794-0.0056598-1.7559-0.01132-2.6604-0.017151-2.7817-0.022246-5.5621-0.072418-8.3435-0.12347-1.8952-0.02008-3.7903-0.038328-5.6855-0.054688-4.6262-0.04391-9.2513-0.11285-13.877-0.19531 3.3015-2.7446 6.6029-5.0562 10.332-7.1797 1.55-0.88764 1.55-0.88764 3.1313-1.7932 1.1052-0.62769 2.2104-1.2554 3.3491-1.9021 1.7602-1.0063 3.5195-2.0143 5.2788-3.0223 1.2015-0.6883 2.4034-1.3761 3.6055-2.0634 5.8289-3.3339 11.631-6.7128 17.428-10.102 0.98436-0.575 1.9687-1.15 2.9829-1.7424 1.9822-1.1579 3.9643-2.3161 5.9463-3.4744 2.9197-1.7055 5.8407-3.4088 8.7622-5.1113 10.904-6.3545 21.798-12.724 32.684-19.109 11.85-6.9504 23.711-13.881 35.581-20.798 4.9739-2.8992 9.9466-5.8005 14.919-8.7017 2-1.1667 4-2.3333 6-3.5l3-1.75c9-5.25 9-5.25 11.999-6.9993 2.0041-1.1691 4.0082-2.3382 6.0122-3.5073 4.9372-2.8803 9.8748-5.7599 14.813-8.6379 10.901-6.3538 21.793-12.722 32.676-19.105 10.853-6.3657 21.714-12.717 32.586-19.051 4.2384-2.4697 8.4719-4.9477 12.703-7.4297 1.1121-0.65138 2.2241-1.3028 3.3699-1.9739 2.1483-1.2585 4.2956-2.5187 6.4419-3.7808 0.95544-0.55921 1.9109-1.1184 2.8953-1.6946 1.2712-0.74613 1.2712-0.74613 2.5681-1.5073 1.9358-1.063 1.9358-1.063 2.9358-1.063z" fill="#010101"/><path transform="translate(600,313)" d="m0 0c0.77605 5.0012 0.77605 5.0012 0 8-1.6062 1.498-1.6062 1.498-3.793 2.8438-1.2323 0.76691-1.2323 0.76691-2.4895 1.5493-1.3452 0.79543-1.3452 0.79543-2.7175 1.6069-1.3577 0.8051-1.3577 0.8051-2.7429 1.6265-3.0324 1.7705-6.0801 3.512-9.1321 5.2485-2.3185 1.3281-4.6364 2.6571-6.9531 3.9883-0.88753 0.50977-0.88753 0.50977-1.793 1.0298-6.3691 3.6651-12.688 7.4132-19.004 11.169-9.3664 5.5677-18.755 11.094-28.172 16.576-7.95 4.6288-15.892 9.2717-23.828 13.924-0.61809 0.3623-1.2362 0.72459-1.873 1.0979-8.7164 5.1102-17.421 10.24-26.116 15.387-8.2429 4.8759-16.506 9.7166-24.771 14.556-7.8814 4.6161-15.756 9.2439-23.616 13.896-9.1128 5.3941-18.246 10.752-27.384 16.104-8.7586 5.1299-17.505 10.279-26.24 15.45-8.125 4.8062-16.271 9.5757-24.418 14.345-8.9403 5.2349-17.862 10.5-26.77 15.789-10.29 6.1083-20.612 12.159-30.953 18.18-6.9602 4.053-13.911 8.1222-20.859 12.195-0.61809 0.3623-1.2362 0.72459-1.873 1.0979-8.72 5.1124-17.428 10.244-26.127 15.393-8.1248 4.8062-16.271 9.5755-24.418 14.345-8.9403 5.2349-17.862 10.5-26.77 15.789-9.4152 5.5889-18.833 11.173-28.323 16.634-5.1176 2.9506-10.157 5.9792-15.134 9.1628-11.397 7.18-19.967 12.566-33.73 10.016 3.322-2.7639 6.6474-5.0802 10.402-7.2148 1.5649-0.89501 1.5649-0.89501 3.1614-1.8081 1.1133-0.6318 2.2267-1.2636 3.3738-1.9146 2.3684-1.3533 4.735-2.7099 7.1016-4.0664 0.59386-0.33991 1.1877-0.67982 1.7996-1.03 5.3527-3.0668 10.669-6.1926 15.974-9.3411 8.4029-4.982 16.821-9.9373 25.25-14.875 0.61026-0.35753 1.2205-0.71507 1.8493-1.0834 3.1167-1.8259 6.2335-3.6516 9.3504-5.4771 5.4788-3.209 10.956-6.4205 16.434-9.6318 1.8054-1.0584 3.6109-2.1168 5.4164-3.1751 5.4849-3.215 10.97-6.4304 16.454-9.6471 12.774-7.4929 25.554-14.977 38.349-22.434 11.472-6.6887 22.925-13.409 34.38-20.128 6.6697-3.9121 13.341-7.8218 20.012-11.732 1.8081-1.0599 3.6163-2.1197 5.4244-3.1796 0.59712-0.35002 1.1942-0.70004 1.8094-1.0607 3.6756-2.1547 7.3509-4.3099 11.026-6.4655 12.774-7.4929 25.554-14.977 38.349-22.434 7.7642-4.5268 15.52-9.0676 23.273-13.614 0.60533-0.35495 1.2107-0.70989 1.8343-1.0756 4.3263-2.5369 8.6523-5.0744 12.978-7.6119 4.9373-2.8962 9.8747-5.7921 14.812-8.6875 0.60573-0.35519 1.2115-0.71037 1.8355-1.0763 8.1113-4.7558 16.228-9.5013 24.352-14.236 8.776-5.1162 17.547-10.24 26.312-15.375 0.60921-0.35689 1.2184-0.71378 1.8461-1.0815 8.861-5.1927 17.7-10.421 26.529-15.669 8.7344-5.1897 17.503-10.313 26.312-15.375 8.9547-5.1453 17.869-10.354 26.75-15.625 1.6686-0.99 1.6686-0.99 3.3708-2 5.4714-3.2492 10.937-6.5071 16.399-9.7734 1.0206-0.60828 2.0412-1.2166 3.0928-1.8433 1.9234-1.1464 3.8448-2.2963 5.7637-3.4502 0.84659-0.50386 1.6932-1.0077 2.5654-1.5269 0.73936-0.44279 1.4787-0.88559 2.2405-1.3418 1.8181-0.93945 1.8181-0.93945 3.8181-0.93945z" fill="#030404"/></svg>
