<?xml version="1.0" encoding="UTF-8"?>
<!-- Generator: Adobe Illustrator 16.0.0, SVG Export Plug-In . SVG Version: 6.00 Build 0)  -->
<!DOCTYPE svg  PUBLIC '-//W3C//DTD SVG 1.1//EN'  'http://www.w3.org/Graphics/SVG/1.1/DTD/svg11.dtd'>
<svg width="113.39px" height="113.39px" enable-background="new 0 0 113.39 113.39" version="1.1" viewBox="0 0 113.39 113.39" xml:space="preserve" xmlns="http://www.w3.org/2000/svg">

	<g clip-rule="evenodd" fill-rule="evenodd">
		<path d="m0.243 88.384c0-29.059 3e-3 -58.117-0.018-87.175-1e-3 -0.708 0.159-0.868 0.868-0.868 37.212 0.021 74.424 0.021 111.64 0 0.708 0 0.872 0.159 0.869 0.868-0.03 7.146-0.019 14.293-0.019 21.439-0.351-0.037-0.575 0.225-0.836 0.376-6.212 3.605-12.416 7.226-18.628 10.831-5.126 2.975-10.262 5.934-15.395 8.898-1.078 0.623-1.082 0.623-0.441 1.709 3.792 6.43 7.568 12.868 11.4 19.273 0.462 0.772 0.402 1.116-0.358 1.554-2.362 1.359-4.708 2.748-7.022 4.188-0.721 0.449-0.993 0.277-1.389-0.403-3.585-6.172-7.207-12.324-10.831-18.475-0.393-0.666-0.615-1.706-1.263-1.875-0.663-0.174-1.35 0.647-2.022 1.039-21.934 12.759-43.865 25.521-65.8 38.279-0.236 0.139-0.437 0.371-0.751 0.342zm58.201-77.733c0.013-1.035 0.186-2.077-0.078-3.103-0.64-2.487-2.982-4.033-5.5-3.646-2.555 0.393-4.273 2.555-4.155 5.224 0.152 3.427 0.3 6.854 0.454 10.281 0.256 5.69 0.489 11.383 0.79 17.07 0.084 1.598 0.776 2.924 2.401 3.514 2.438 0.884 4.789-0.823 4.918-3.592 0.402-8.581 0.782-17.165 1.17-25.748zm-4.837 43.544c2.697 0 5.013-2.318 4.988-4.994-0.024-2.698-2.365-5.001-5.034-4.952-2.689 0.049-4.924 2.288-4.942 4.951-0.018 2.683 2.291 4.995 4.988 4.995z" fill="#fff"/>
		<path d="m113.58 65.527v48.168c-27.18 0-54.359 0-81.539-2e-3 -0.408 0-0.815-0.028-1.223-0.043 0.148-0.112 0.287-0.241 0.446-0.334 3.8-2.213 7.602-4.424 11.405-6.632 17.876-10.381 35.75-20.764 53.626-31.143 5.759-3.343 11.523-6.676 17.285-10.014z" fill="#818181"/>
		<path d="m0.243 106.52v-15.112c0.386 0.051 0.635-0.234 0.922-0.4 4.175-2.421 8.345-4.852 12.516-7.279 18.176-10.578 36.355-21.151 54.521-31.747 0.711-0.414 1.056-0.4 1.496 0.368 1.804 3.157 3.658 6.286 5.547 9.392 0.435 0.715 0.341 1.03-0.37 1.444-22.195 12.893-44.377 25.809-66.565 38.715-2.678 1.558-5.378 3.08-8.067 4.619zm50.409-41.049c-1.17 2.005-2.313 3.959-3.449 5.917-0.228 0.394-0.087 0.567 0.361 0.566 2.251-7e-3 4.502-4e-3 6.919-4e-3 -0.353-0.612-0.608-1.104-0.909-1.566-0.32-0.491-0.278-0.764 0.287-1.083 3.637-2.053 7.249-4.148 10.868-6.233 1.375-0.791 1.337-0.774 0.544-2.215-0.317-0.577-0.506-0.654-1.101-0.303-3.354 1.982-6.742 3.91-10.123 5.847-0.645 0.37-1.345 1.026-1.96 0.964-0.68-0.069-0.783-1.156-1.241-1.73-0.019-0.025-0.048-0.041-0.196-0.16z" fill="#6185A2"/>
		<path d="m113.58 52.871v8.123c-0.394 0.039-0.675 0.312-0.995 0.497-26.775 15.556-53.549 31.112-80.32 46.676-3.127 1.818-6.305 3.552-9.352 5.508-4.613-0.01-9.227-0.02-13.84-0.029 0.306-0.211 0.599-0.445 0.919-0.632 27.082-15.762 54.165-31.521 81.25-47.276 5.785-3.365 11.574-6.725 17.371-10.071 1.645-0.95 3.218-2.029 4.967-2.796z" fill="#99C9ED"/>
		<path d="m113.58 52.871c-1.749 0.767-3.322 1.846-4.967 2.795-5.797 3.347-11.586 6.706-17.371 10.071-27.085 15.756-54.168 31.515-81.25 47.276-0.32 0.187-0.613 0.421-0.919 0.632-0.876 0.09-1.753 0.083-2.629 7e-3 1.262-0.753 2.518-1.519 3.789-2.258 23.137-13.457 46.273-26.913 69.42-40.353 0.583-0.339 0.755-0.565 0.354-1.197-0.971-1.536-1.859-3.125-2.784-4.689-0.829-1.403-0.834-1.407-2.286-0.563-24.898 14.478-49.796 28.958-74.693 43.436v-1.511c2.689-1.539 5.389-3.061 8.067-4.618 22.188-12.906 44.37-25.822 66.565-38.717 0.711-0.414 0.805-0.729 0.37-1.444-1.889-3.105-3.743-6.234-5.547-9.392-0.439-0.769-0.785-0.782-1.496-0.368-18.166 10.596-36.345 21.169-54.521 31.748-4.171 2.427-8.341 4.858-12.516 7.279-0.288 0.166-0.536 0.451-0.922 0.4v-3.021c0.314 0.029 0.516-0.203 0.752-0.34 21.935-12.758 43.866-25.521 65.8-38.279 0.672-0.392 1.359-1.213 2.022-1.039 0.648 0.169 0.871 1.209 1.263 1.875 3.624 6.15 7.245 12.303 10.831 18.475 0.396 0.681 0.667 0.853 1.389 0.403 2.313-1.44 4.66-2.829 7.022-4.188 0.76-0.438 0.82-0.781 0.358-1.554-3.832-6.405-7.608-12.844-11.4-19.273-0.641-1.086-0.637-1.086 0.441-1.709 5.132-2.965 10.268-5.924 15.395-8.898 6.213-3.605 12.416-7.226 18.628-10.831 0.261-0.151 0.486-0.413 0.836-0.376v3.022c-0.117 0.04-0.244 0.063-0.349 0.124-10.862 6.316-21.719 12.641-32.592 18.938-0.6 0.348-0.385 0.609-0.154 1.002 1.828 3.089 3.652 6.181 5.468 9.277 0.741 1.264 0.728 1.267 2.003 0.525 8.261-4.807 16.523-9.61 24.787-14.411 0.26-0.151 0.482-0.418 0.838-0.345v1.322c-8.503 4.946-17.002 9.897-25.516 14.825-0.573 0.332-0.738 0.548-0.345 1.177 1.078 1.723 2.119 3.473 3.08 5.263 0.4 0.745 0.724 0.762 1.395 0.366 4.426-2.61 8.869-5.192 13.316-7.767 2.681-1.552 5.378-3.073 8.069-4.608-1e-3 0.504-1e-3 1.007-1e-3 1.511z" fill="#211A1B"/>
		<path d="m0.243 108.03c24.897-14.478 49.795-28.958 74.693-43.436 1.452-0.844 1.457-0.84 2.286 0.563 0.925 1.564 1.813 3.153 2.784 4.689 0.4 0.632 0.229 0.858-0.354 1.197-23.146 13.439-46.283 26.896-69.42 40.353-1.271 0.739-2.526 1.505-3.789 2.258-2.067 0.015-4.133 0.028-6.2 0.043v-5.667zm27.407-8.883c2.874 0.022 2.624 0.147 2.629-2.646 6e-3 -2.852 0.167-2.626-2.649-2.629-2.815-3e-3 -2.627-0.185-2.63 2.65-3e-3 2.876-0.139 2.63 2.65 2.625zm18.115-11.572c0-0.534-0.014-1.069 3e-3 -1.604 0.023-0.726-0.319-1.027-1.034-0.993-0.565 0.027-1.132-2e-3 -1.698 7e-3 -2.544 0.043-2.504-0.488-2.496 2.463 9e-3 3.191-0.165 2.659 2.659 2.671 2.909 0.014 2.543 0.362 2.566-2.544zm-33.622 15.32c-0.504 0-1.009 0.027-1.511-7e-3 -0.795-0.054-1.167 0.263-1.141 1.085 0.031 1.006 0.019 2.015 4e-3 3.021-0.011 0.761 0.333 1.075 1.097 1.049 1.038-0.035 2.078-0.034 3.116 0 0.729 0.023 1.05-0.311 1.054-1.001 7e-3 -1.038 1e-3 -2.077 2e-3 -3.116 1e-3 -0.744-0.344-1.093-1.11-1.037-0.502 0.035-1.008 7e-3 -1.511 6e-3zm59.496-33.28c0 0.564 0.022 1.129-6e-3 1.691-0.034 0.686 0.31 0.987 0.948 0.994 1.097 0.013 2.194 0.02 3.291-5e-3 0.574-0.013 0.938-0.284 0.913-0.935-0.022-0.563 2e-3 -1.128-4e-3 -1.692-0.034-2.877 0.408-2.62-2.583-2.63-2.975-8e-3 -2.531-0.152-2.559 2.577zm-10.377 9.034c0-0.565-0.021-1.132 5e-3 -1.695 0.029-0.646-0.27-0.92-0.895-0.916-1.099 7e-3 -2.198 0.01-3.297-3e-3 -0.658-9e-3 -0.982 0.248-0.958 0.95 0.033 0.972 5e-3 1.946 9e-3 2.92 4e-3 1.257 0.05 1.299 1.353 1.302 0.408 0 0.816 2e-3 1.225-1e-3 2.913-0.016 2.536 0.318 2.558-2.557zm-41.61 21.085c0.518 1.212 0.942 2.244 1.403 3.26 0.167 0.367 0.4 0.788 0.921 0.535 0.478-0.23 0.403-0.615 0.218-1.041-0.614-1.405-1.196-2.824-1.801-4.233-0.149-0.346-0.323-0.729-0.781-0.702-0.397 0.022-0.548 0.355-0.688 0.688-0.568 1.356-1.154 2.705-1.724 4.062-0.182 0.433-0.446 0.976 0.134 1.231 0.667 0.295 0.823-0.36 1.02-0.797 0.418-0.928 0.81-1.87 1.298-3.003zm33.673-14.823c1e-3 5e-3 5e-3 -0.096-0.03-0.179-0.662-1.55-1.294-3.113-2.01-4.639-0.293-0.625-0.906-0.596-1.203 0.049-0.693 1.501-1.329 3.03-1.971 4.554-0.157 0.372-0.16 0.792 0.259 0.979 0.429 0.191 0.706-0.102 0.873-0.482 0.351-0.8 0.692-1.604 1.046-2.404 0.096-0.217 0.105-0.579 0.371-0.585 0.331-9e-3 0.348 0.375 0.456 0.619 0.367 0.827 0.722 1.66 1.101 2.482 0.142 0.309 0.392 0.512 0.756 0.391 0.317-0.105 0.383-0.381 0.352-0.785zm12.895-12.018c0.498 1.167 0.899 2.114 1.307 3.06 0.189 0.44 0.401 0.973 0.996 0.721 0.596-0.252 0.345-0.771 0.161-1.204-0.563-1.322-1.135-2.641-1.694-3.965-0.161-0.38-0.289-0.832-0.786-0.813-0.478 0.019-0.621 0.474-0.781 0.844-0.569 1.319-1.133 2.643-1.688 3.968-0.179 0.426-0.474 0.931 0.191 1.177 0.631 0.234 0.784-0.309 0.971-0.742 0.404-0.942 0.814-1.88 1.323-3.046zm-31.044 17.904c0.52 1.213 0.941 2.206 1.371 3.196 0.188 0.434 0.467 0.829 0.993 0.56 0.471-0.242 0.313-0.679 0.145-1.074-0.602-1.409-1.191-2.825-1.8-4.232-0.134-0.309-0.271-0.66-0.708-0.661-0.432-1e-3 -0.58 0.338-0.715 0.65-0.595 1.38-1.176 2.764-1.756 4.149-0.184 0.438-0.426 0.965 0.197 1.196 0.615 0.229 0.772-0.332 0.959-0.769 0.399-0.933 0.81-1.862 1.314-3.015zm-31.044 17.885c0.518 1.199 0.957 2.232 1.412 3.259 0.171 0.385 0.401 0.787 0.909 0.546 0.461-0.218 0.425-0.602 0.231-1.039-0.622-1.4-1.207-2.817-1.813-4.225-0.147-0.341-0.264-0.736-0.762-0.699-0.41 0.031-0.563 0.33-0.704 0.662-0.6 1.41-1.211 2.815-1.818 4.223-0.19 0.44-0.276 0.907 0.274 1.104 0.494 0.177 0.712-0.236 0.882-0.629 0.433-1.003 0.869-2.005 1.389-3.202z" fill="#E64820"/>
		<path d="m113.58 40.782c-0.356-0.073-0.578 0.193-0.838 0.345-8.264 4.801-16.526 9.604-24.787 14.411-1.275 0.741-1.262 0.738-2.003-0.525-1.816-3.097-3.64-6.188-5.468-9.277-0.231-0.393-0.446-0.654 0.154-1.002 10.873-6.298 21.73-12.622 32.592-18.938 0.105-0.062 0.232-0.084 0.349-0.124 1e-3 5.036 1e-3 10.073 1e-3 15.11z" fill="#6185A2"/>
		<path d="m22.913 113.68c3.046-1.956 6.224-3.689 9.352-5.508 26.771-15.563 53.545-31.12 80.32-46.676 0.32-0.186 0.601-0.458 0.995-0.497v4.533c-5.762 3.338-11.526 6.671-17.285 10.014-17.876 10.379-35.75 20.762-53.625 31.144-3.803 2.208-7.605 4.419-11.405 6.632-0.16 0.093-0.298 0.222-0.446 0.334-2.637 7e-3 -5.272 0.016-7.906 0.024z" fill="#211A1B"/>
		<path d="m113.58 51.36c-2.69 1.535-5.388 3.057-8.069 4.608-4.447 2.574-8.89 5.156-13.316 7.767-0.671 0.396-0.995 0.379-1.395-0.366-0.961-1.79-2.002-3.54-3.08-5.263-0.393-0.629-0.229-0.845 0.345-1.177 8.514-4.928 17.013-9.879 25.516-14.825-1e-3 3.085-1e-3 6.171-1e-3 9.256zm-4.437 0.567c2.883-0.013 2.727 0.345 2.724-2.65-1e-3 -2.784 0.18-2.591-2.603-2.594-2.983-3e-3 -2.659-0.157-2.674 2.708-0.016 2.808-0.128 2.537 2.553 2.536zm-15.436 3.767c-0.535 0-1.071 0.024-1.604-6e-3 -0.736-0.041-1.021 0.3-1.007 1.011 0.021 1.037 0.023 2.076 0 3.113-0.016 0.708 0.257 1.044 0.997 1.023 1.068-0.03 2.139-0.038 3.207 2e-3 0.75 0.028 1.022-0.333 1.022-1.014 0-1.038-4e-3 -2.076 1e-3 -3.113 4e-3 -0.752-0.342-1.086-1.108-1.024-0.499 0.042-1.005 8e-3 -1.508 8e-3zm7.528-3.167c0.534 1.258 0.969 2.326 1.445 3.375 0.154 0.34 0.411 0.705 0.875 0.449 0.375-0.207 0.459-0.524 0.265-0.96-0.664-1.485-1.296-2.985-1.926-4.486-0.137-0.325-0.327-0.524-0.693-0.521-0.38 4e-3 -0.534 0.259-0.664 0.565-0.612 1.44-1.238 2.874-1.848 4.315-0.182 0.43-0.278 0.911 0.274 1.117 0.512 0.19 0.705-0.253 0.871-0.631 0.44-0.999 0.872-2.003 1.401-3.223z" fill="#E64820"/>
		<path d="m58.444 10.651c-0.388 8.583-0.768 17.167-1.169 25.749-0.13 2.769-2.48 4.476-4.918 3.592-1.625-0.59-2.317-1.916-2.401-3.514-0.301-5.688-0.534-11.38-0.79-17.07-0.154-3.427-0.302-6.854-0.454-10.281-0.118-2.669 1.601-4.831 4.155-5.224 2.518-0.388 4.86 1.158 5.5 3.646 0.263 1.025 0.09 2.067 0.077 3.102zm-0.569-0.2c0-0.851 0.051-1.484-9e-3 -2.107-0.174-1.788-1.116-3.049-2.806-3.652-2.975-1.064-5.84 1.098-5.729 4.355 0.137 4.022 0.368 8.042 0.542 12.063 0.154 3.551 0.245 7.104 0.448 10.651 0.104 1.817 5e-3 3.655 0.36 5.451 0.353 1.783 2.034 2.762 3.784 2.273 1.374-0.385 2.188-1.63 2.253-3.431 0.078-2.17 0.146-4.339 0.247-6.507 0.299-6.438 0.612-12.877 0.91-19.096z" fill="#211A1B"/>
		<path d="m53.607 54.195c-2.697 0-5.006-2.313-4.988-4.995 0.018-2.663 2.253-4.902 4.942-4.951 2.668-0.049 5.009 2.254 5.034 4.952 0.025 2.676-2.29 4.994-4.988 4.994zm0.066-9.3c-2.44-0.024-4.371 1.824-4.454 4.264-0.079 2.297 1.957 4.396 4.323 4.46 2.3 0.061 4.423-2.001 4.459-4.331 0.037-2.383-1.921-4.369-4.328-4.393z" fill="#211A1B"/>
		<path d="m50.652 65.469c0.148 0.119 0.177 0.136 0.196 0.159 0.458 0.574 0.561 1.661 1.241 1.73 0.615 0.063 1.315-0.594 1.96-0.964 3.381-1.937 6.768-3.864 10.123-5.847 0.595-0.352 0.784-0.274 1.101 0.303 0.793 1.44 0.831 1.424-0.544 2.215-3.619 2.085-7.231 4.181-10.868 6.233-0.565 0.319-0.607 0.592-0.287 1.083 0.301 0.462 0.557 0.954 0.909 1.566-2.417 0-4.668-3e-3 -6.919 4e-3 -0.448 1e-3 -0.589-0.173-0.361-0.566 1.136-1.957 2.279-3.911 3.449-5.916z" fill="#211A1B"/>
		<path d="m27.65 99.145c-2.789 6e-3 -2.653 0.251-2.65-2.625 3e-3 -2.835-0.185-2.653 2.63-2.65 2.816 3e-3 2.655-0.223 2.649 2.629-6e-3 2.793 0.244 2.668-2.629 2.646zm1.304-2.565c0-1.396 0-1.396-1.083-1.396-1.561-1e-3 -1.561-1e-3 -1.562 1.106-1e-3 1.537-1e-3 1.537 1.13 1.538 1.515 1e-3 1.515 1e-3 1.515-1.248z" fill="#211A1B"/>
		<path d="m45.765 87.573c-0.023 2.905 0.343 2.558-2.565 2.544-2.824-0.012-2.649 0.521-2.659-2.671-9e-3 -2.951-0.049-2.42 2.496-2.463 0.566-9e-3 1.133 0.021 1.698-7e-3 0.715-0.034 1.057 0.268 1.034 0.993-0.018 0.535-4e-3 1.07-4e-3 1.604zm-1.275 0.013c-0.021-1.521 0.209-1.394-1.21-1.396-1.714-3e-3 -1.479-0.105-1.475 1.227 5e-3 1.733-0.228 1.509 1.256 1.523 1.429 0.014 1.429 3e-3 1.429-1.354z" fill="#211A1B"/>
		<path d="m12.143 102.89c0.503 1e-3 1.009 0.029 1.51-6e-3 0.766-0.056 1.111 0.293 1.11 1.037-1e-3 1.039 5e-3 2.078-2e-3 3.116-4e-3 0.69-0.326 1.024-1.054 1.001-1.038-0.034-2.078-0.035-3.116 0-0.763 0.026-1.108-0.288-1.097-1.049 0.015-1.007 0.027-2.016-4e-3 -3.021-0.025-0.822 0.346-1.139 1.141-1.085 0.503 0.034 1.008 7e-3 1.512 7e-3zm1.322 2.601c-0.023-1.613 0.202-1.401-1.169-1.415-1.485-0.015-1.485-5e-3 -1.485 1.188-1e-3 1.568-1e-3 1.576 1.399 1.566 1.479-9e-3 1.231 0.152 1.255-1.339z" fill="#211A1B"/>
		<path d="m71.638 69.613c0.028-2.729-0.415-2.585 2.558-2.576 2.991 0.01 2.55-0.247 2.583 2.63 6e-3 0.564-0.018 1.129 4e-3 1.692 0.026 0.65-0.338 0.922-0.913 0.935-1.097 0.024-2.194 0.018-3.291 5e-3 -0.638-7e-3 -0.982-0.309-0.948-0.994 0.03-0.563 8e-3 -1.127 7e-3 -1.692zm2.634 1.393c1.51-0.024 1.31 0.2 1.322-1.271 0.012-1.384 3e-3 -1.384-1.198-1.384-1.567-1e-3 -1.567-1e-3 -1.567 1.215 1e-3 1.44 1e-3 1.44 1.443 1.44z" fill="#211A1B"/>
		<path d="m61.262 78.647c-0.022 2.875 0.355 2.541-2.559 2.557-0.408 3e-3 -0.816 1e-3 -1.225 1e-3 -1.302-3e-3 -1.348-0.045-1.353-1.302-3e-3 -0.974 0.024-1.948-9e-3 -2.92-0.023-0.702 0.301-0.959 0.958-0.95 1.099 0.013 2.198 0.01 3.297 3e-3 0.625-4e-3 0.924 0.271 0.895 0.916-0.024 0.564-4e-3 1.13-4e-3 1.695zm-2.589 1.287c0.725 9e-3 1.522 0.273 1.432-1.022-0.126-1.807 0.17-1.674-1.17-1.666-1.801 0.01-1.613-0.236-1.625 1.169-0.013 1.523-4e-3 1.523 1.363 1.519z" fill="#211A1B"/>
		<path d="m19.652 99.732c-0.488 1.133-0.88 2.074-1.299 3.003-0.197 0.437-0.352 1.092-1.02 0.797-0.58-0.256-0.316-0.799-0.134-1.231 0.57-1.356 1.156-2.705 1.724-4.062 0.14-0.333 0.291-0.666 0.688-0.688 0.458-0.026 0.632 0.356 0.781 0.702 0.605 1.409 1.187 2.828 1.801 4.233 0.186 0.426 0.26 0.811-0.218 1.041-0.521 0.253-0.754-0.168-0.921-0.535-0.46-1.015-0.884-2.048-1.402-3.26z" fill="#211A1B"/>
		<path d="m53.325 84.909c0.031 0.403-0.035 0.68-0.354 0.785-0.364 0.121-0.614-0.082-0.756-0.391-0.378-0.822-0.734-1.655-1.101-2.482-0.108-0.244-0.125-0.628-0.456-0.619-0.265 6e-3 -0.275 0.368-0.371 0.585-0.354 0.8-0.695 1.604-1.046 2.404-0.167 0.381-0.444 0.674-0.873 0.482-0.419-0.188-0.417-0.607-0.259-0.979 0.643-1.523 1.278-3.053 1.971-4.554 0.297-0.645 0.91-0.674 1.203-0.049 0.716 1.525 1.349 3.089 2.01 4.639 0.038 0.083 0.033 0.184 0.032 0.179z" fill="#211A1B"/>
		<path d="m66.22 72.891c-0.508 1.166-0.918 2.104-1.324 3.044-0.188 0.434-0.34 0.977-0.971 0.742-0.666-0.246-0.37-0.751-0.191-1.177 0.556-1.325 1.119-2.648 1.688-3.968 0.16-0.37 0.303-0.825 0.781-0.844 0.497-0.019 0.625 0.434 0.786 0.813 0.56 1.324 1.132 2.643 1.694 3.965 0.184 0.433 0.436 0.952-0.161 1.204-0.594 0.252-0.807-0.28-0.996-0.721-0.407-0.944-0.808-1.891-1.306-3.058z" fill="#211A1B"/>
		<path d="m35.176 90.795c-0.504 1.153-0.915 2.082-1.314 3.016-0.187 0.437-0.344 0.997-0.959 0.769-0.623-0.231-0.381-0.758-0.197-1.196 0.58-1.386 1.162-2.77 1.756-4.149 0.135-0.313 0.283-0.651 0.715-0.65 0.437 1e-3 0.574 0.353 0.708 0.661 0.609 1.407 1.198 2.823 1.8 4.232 0.168 0.396 0.327 0.832-0.145 1.074-0.526 0.27-0.805-0.126-0.993-0.56-0.43-0.991-0.852-1.984-1.371-3.197z" fill="#211A1B"/>
		<path d="m4.132 108.68c-0.52 1.197-0.956 2.199-1.388 3.202-0.169 0.393-0.388 0.806-0.882 0.629-0.55-0.197-0.464-0.664-0.274-1.104 0.607-1.407 1.218-2.813 1.818-4.223 0.141-0.332 0.294-0.631 0.704-0.662 0.498-0.037 0.615 0.358 0.762 0.699 0.606 1.407 1.19 2.824 1.813 4.225 0.194 0.438 0.229 0.821-0.231 1.039-0.508 0.241-0.738-0.161-0.909-0.546-0.456-1.027-0.895-2.06-1.413-3.259z" fill="#211A1B"/>
		<path d="m109.14 51.927c-2.68 1e-3 -2.568 0.272-2.553-2.536 0.015-2.865-0.309-2.711 2.674-2.708 2.783 3e-3 2.602-0.19 2.603 2.594 2e-3 2.994 0.158 2.637-2.724 2.65zm0.106-3.967c-1.341 0-1.341 0-1.342 1.127-1e-3 1.54-1e-3 1.54 1.123 1.541 1.528 1e-3 1.528 1e-3 1.528-1.229 0-1.439 0-1.439-1.309-1.439z" fill="#211A1B"/>
		<path d="m93.706 55.694c0.503 0 1.009 0.033 1.509-8e-3 0.766-0.062 1.112 0.272 1.108 1.024-5e-3 1.037-1e-3 2.075-1e-3 3.113 0 0.681-0.272 1.042-1.022 1.014-1.068-0.04-2.139-0.032-3.207-2e-3 -0.74 0.021-1.013-0.315-0.997-1.023 0.023-1.037 0.022-2.076 0-3.113-0.015-0.711 0.271-1.052 1.007-1.011 0.532 0.031 1.068 6e-3 1.603 6e-3zm1.361 2.613c-0.021-1.505 0.223-1.438-1.086-1.43-1.791 0.012-1.591-0.229-1.59 1.199 1e-3 1.796-0.216 1.564 1.217 1.566 1.672 3e-3 1.435 0.207 1.459-1.335z" fill="#211A1B"/>
		<path d="m101.23 52.527c-0.529 1.22-0.961 2.224-1.401 3.225-0.166 0.378-0.359 0.821-0.871 0.631-0.552-0.206-0.456-0.688-0.274-1.117 0.61-1.441 1.235-2.875 1.848-4.315 0.13-0.307 0.284-0.562 0.664-0.565 0.366-4e-3 0.556 0.195 0.693 0.521 0.63 1.501 1.262 3.001 1.926 4.486 0.195 0.436 0.11 0.753-0.265 0.96-0.464 0.256-0.72-0.109-0.875-0.449-0.476-1.05-0.91-2.119-1.445-3.377z" fill="#211A1B"/>
		<path d="m57.875 10.451c-0.297 6.219-0.611 12.658-0.91 19.098-0.101 2.168-0.168 4.337-0.247 6.507-0.065 1.801-0.879 3.046-2.253 3.431-1.75 0.488-3.431-0.49-3.784-2.273-0.355-1.796-0.256-3.634-0.36-5.451-0.204-3.547-0.294-7.101-0.448-10.651-0.175-4.021-0.405-8.041-0.542-12.063-0.111-3.258 2.754-5.42 5.729-4.355 1.69 0.604 2.632 1.864 2.806 3.652 0.06 0.621 9e-3 1.255 9e-3 2.105z" fill="#E64820"/>
		<path d="m53.673 44.895c2.407 0.024 4.365 2.011 4.328 4.393-0.036 2.33-2.159 4.392-4.459 4.331-2.366-0.063-4.401-2.163-4.323-4.46 0.083-2.44 2.013-4.289 4.454-4.264z" fill="#E64820"/>
		<path d="m28.954 96.58c0 1.249 0 1.249-1.515 1.248-1.131-1e-3 -1.131-1e-3 -1.13-1.538 0-1.107 0-1.107 1.562-1.106 1.084 1e-3 1.084 1e-3 1.083 1.396z" fill="#E64820"/>
		<path d="m44.49 87.586c0 1.357 0 1.368-1.429 1.354-1.484-0.015-1.251 0.21-1.256-1.523-4e-3 -1.332-0.239-1.229 1.475-1.227 1.419 2e-3 1.189-0.126 1.21 1.396z" fill="#E64820"/>
		<path d="m13.465 105.49c-0.024 1.491 0.224 1.33-1.255 1.339-1.4 0.01-1.4 2e-3 -1.399-1.566 0-1.192 0-1.202 1.485-1.188 1.371 0.014 1.146-0.198 1.169 1.415z" fill="#E64820"/>
		<path d="m74.272 71.006c-1.443 0-1.443 0-1.443-1.439 0-1.216 0-1.216 1.567-1.215 1.201 0 1.21 0 1.198 1.384-0.012 1.47 0.189 1.245-1.322 1.27z" fill="#E64820"/>
		<path d="m58.673 79.934c-1.367 5e-3 -1.376 5e-3 -1.363-1.52 0.012-1.405-0.176-1.159 1.625-1.169 1.34-8e-3 1.044-0.141 1.17 1.666 0.091 1.296-0.707 1.031-1.432 1.023z" fill="#E64820"/>
		<path d="m109.25 47.96c1.31 0 1.31 0 1.309 1.439 0 1.229 0 1.229-1.528 1.229-1.124-1e-3 -1.124-1e-3 -1.123-1.541 1e-3 -1.127 1e-3 -1.127 1.342-1.127z" fill="#E64820"/>
		<path d="m95.067 58.307c-0.024 1.542 0.212 1.338-1.459 1.336-1.433-2e-3 -1.216 0.229-1.217-1.566-1e-3 -1.429-0.2-1.188 1.59-1.199 1.309-9e-3 1.065-0.076 1.086 1.429z" fill="#E64820"/>
	</g>



</svg>
