<?xml version="1.0" encoding="UTF-8"?>
<!-- Generator: Adobe Illustrator 16.0.0, SVG Export Plug-In . SVG Version: 6.00 Build 0)  -->
<!DOCTYPE svg  PUBLIC '-//W3C//DTD SVG 1.1//EN'  'http://www.w3.org/Graphics/SVG/1.1/DTD/svg11.dtd'>
<svg width="113.39px" height="113.39px" enable-background="new 0 0 113.39 113.39" version="1.1" viewBox="0 0 113.39 113.39" xml:space="preserve" xmlns="http://www.w3.org/2000/svg">

	<g clip-rule="evenodd" fill-rule="evenodd">
		<path d="m0.19 109.8c0-36.253 2e-3 -72.507-0.018-108.76 0-0.708 0.16-0.868 0.868-0.868 37.229 0.021 74.458 0.021 111.69 0 0.708 0 0.87 0.16 0.869 0.868-0.024 14.269-0.018 28.536-0.018 42.805-4.167 2.44-8.316 4.912-12.517 7.294-0.82 0.465-0.968 0.747-0.464 1.57 1.984 3.239 3.884 6.529 5.841 9.785 0.305 0.507 0.322 0.745-0.257 1.069-2.179 1.224-4.336 2.487-6.466 3.795-0.706 0.435-1.019 0.313-1.418-0.389-1.867-3.276-3.803-6.513-5.684-9.782-0.342-0.595-0.563-0.765-1.254-0.357-6.353 3.745-12.734 7.44-19.108 11.149-2.462 1.433-2.463 1.432-2.291 4.362-0.012 2.893-0.024 5.784-0.034 8.676-1e-3 0.247-0.02 0.487 0.235 0.669 0.686 0.488 1.353 1.003 2.027 1.507 0.234 0.39 0.568 0.684 0.918 0.963 0.479 0.732 1.02 1.433 1.427 2.203 2.113 3.992 2.455 8.075 0.722 12.328-2.273 5.582-8.943 9.36-14.732 8.273-4.243-0.796-7.535-2.956-9.839-6.633-0.468-0.747-0.646-1.636-1.23-2.312 0.085-0.466-0.399-0.776-0.34-1.235 7e-3 -0.063 0.032-0.127 0.021-0.186-1.22-6.339 0.662-11.43 6.085-15.083 0.291-0.195 0.384-0.38 0.291-0.691v-2.994c-0.335-0.01-0.54 0.21-0.776 0.348-17.875 10.398-35.75 20.8-53.627 31.195-0.29 0.169-0.541 0.444-0.919 0.431zm68.4-49.323c0-6.93 4e-3 -13.858-2e-3 -20.787-2e-3 -2.606-1.309-4.547-3.553-5.181-1.508-0.426-3.061-0.426-4.569 1e-3 -2.274 0.643-3.555 2.579-3.556 5.277-3e-3 13.89-6e-3 27.778 0.012 41.668 0 0.635-0.181 1-0.733 1.345-4.348 2.72-6.583 8.03-5.462 12.873 1.215 5.255 5.326 9 10.568 9.628 5.769 0.691 11.108-2.656 13.064-8.188 1.872-5.295-0.24-11.325-5.053-14.318-0.555-0.345-0.732-0.711-0.73-1.344 0.022-6.991 0.014-13.983 0.014-20.974zm-40.618-21.7c5.858 0 11.717-0.012 17.575 6e-3 1.823 6e-3 3.545-0.31 5.187-1.145 3.11-1.581 4.886-4.935 4.265-8.27-0.414-2.222-1.689-3.886-3.555-5.112-0.364-0.238-0.586-0.426-0.518-0.955 0.362-2.791-1.034-5.34-3.628-6.514-0.703-0.318-0.842-0.664-0.805-1.375 0.198-3.799-1.565-6.646-4.7-8.527-3.53-2.118-7.234-1.6-10.695 0.229-3.309 1.748-4.862 4.773-5.229 8.44-0.036 0.36 0.087 0.808-0.564 0.662-2.099-0.467-4.056-8e-3 -5.89 1.018-0.437 0.244-0.679 0.194-1.063-0.076-3.462-2.439-7.829-2.365-11.249 0.159-4.695 3.466-6.738 9.832-5.051 15.404 1.001 3.306 3.995 6.244 8.252 6.104 5.883-0.194 11.778-0.048 17.668-0.048zm46.452-24.51c-0.016 6.769 5.462 12.297 12.237 12.347 6.707 0.05 12.325-5.519 12.361-12.252 0.036-6.798-5.508-12.367-12.312-12.368-6.786-1e-3 -12.27 5.477-12.286 12.273zm-62.933 33.913c-0.908 1.942-1.773 3.752-2.597 5.581-0.347 0.769-0.693 1.557-0.885 2.372-0.348 1.479-0.203 2.9 1.016 3.989 1.073 0.958 2.331 1.199 3.687 0.721 1.948-0.687 2.909-2.748 2.078-4.982-0.958-2.577-2.161-5.062-3.299-7.681zm29.166 0.737c-1.147 2.528-2.189 4.775-3.187 7.042-0.464 1.055-0.647 2.18-0.338 3.313 0.52 1.905 2.395 2.982 4.331 2.537 1.922-0.441 3.157-2.395 2.652-4.44-0.715-2.907-2.456-5.394-3.458-8.452zm-19.607 10.667c-1.175 2.65-2.265 5.076-3.324 7.516-0.25 0.577-0.333 1.212-0.333 1.846 0 1.792 1.355 3.369 3.098 3.611 1.787 0.249 3.5-0.834 3.988-2.575 0.317-1.132 0.126-2.252-0.333-3.31-0.998-2.298-2.148-4.529-3.096-7.088zm5.427-18.519c-1.197 2.668-2.314 5.066-3.343 7.502-0.379 0.897-0.448 1.898-0.18 2.864 0.527 1.891 2.465 3.021 4.318 2.553 1.95-0.493 3.177-2.394 2.682-4.418-0.717-2.925-2.471-5.427-3.477-8.501zm60.887-7.81c0-1.256-4e-3 -2.511 2e-3 -3.766 2e-3 -0.456-0.132-0.872-0.625-0.889-0.541-0.018-0.718 0.416-0.719 0.9-5e-3 2.447-9e-3 4.895-2e-3 7.343 1e-3 0.464 0.127 0.937 0.689 0.936 0.579-1e-3 0.658-0.474 0.657-0.947-3e-3 -1.192-1e-3 -2.385-2e-3 -3.577zm-20.301-31.031c-0.417-0.011-0.667 0.091-0.762 0.413-0.148 0.502 0.165 0.748 0.542 0.966 2.064 1.189 4.125 2.385 6.189 3.572 0.443 0.255 0.957 0.555 1.299-0.067 0.356-0.648-0.241-0.867-0.665-1.113-2.005-1.166-4.014-2.326-6.023-3.483-0.214-0.124-0.443-0.222-0.58-0.288zm31.722 31.763c-0.042-0.105-0.091-0.291-0.183-0.451-1.22-2.119-2.449-4.233-3.669-6.354-0.245-0.426-0.582-0.753-1.058-0.49-0.562 0.312-0.329 0.792-0.081 1.222 1.178 2.034 2.353 4.072 3.537 6.104 0.124 0.212 0.292 0.403 0.465 0.581 0.172 0.178 0.392 0.184 0.607 0.067 0.238-0.128 0.385-0.317 0.382-0.679zm-23.499 0.756c0.352-0.063 0.565-0.302 0.747-0.621 1.181-2.068 2.374-4.129 3.567-6.19 0.247-0.426 0.505-0.907-0.043-1.227-0.525-0.307-0.854 0.086-1.11 0.538-0.709 1.255-1.434 2.501-2.153 3.751-0.5 0.868-1.022 1.726-1.496 2.608-0.3 0.562-0.041 1.128 0.488 1.141zm-8.163-8.431c0.081-0.038 0.312-0.127 0.525-0.248 0.871-0.494 1.735-0.999 2.603-1.499 1.22-0.702 2.446-1.394 3.656-2.112 0.363-0.215 0.689-0.527 0.392-0.997-0.273-0.431-0.667-0.388-1.063-0.147-0.053 0.032-0.115 0.05-0.169 0.081-2.031 1.176-4.062 2.351-6.09 3.531-0.187 0.108-0.361 0.242-0.526 0.382-0.229 0.194-0.2 0.469-0.11 0.696 0.099 0.249 0.335 0.362 0.782 0.313zm40.031-0.619c-0.056-0.387-0.332-0.574-0.64-0.751-2.063-1.188-4.124-2.382-6.186-3.573-0.436-0.252-0.929-0.439-1.231 0.1-0.272 0.486 0.101 0.8 0.516 1.039 2.063 1.188 4.121 2.387 6.186 3.571 0.211 0.121 0.46 0.224 0.698 0.241 0.41 0.03 0.632-0.213 0.657-0.627zm-7.435-18.216c0.157-0.07 0.393-0.153 0.606-0.276 2.066-1.188 4.125-2.389 6.194-3.574 0.442-0.254 0.87-0.55 0.553-1.095-0.317-0.546-0.801-0.309-1.229-0.061-2.063 1.193-4.128 2.385-6.19 3.581-0.188 0.109-0.383 0.229-0.525 0.388-0.183 0.206-0.166 0.478-0.042 0.709 0.107 0.202 0.316 0.294 0.633 0.328zm5.92 7.481c1.196 0 2.393-5e-3 3.588 2e-3 0.508 3e-3 1.008-0.047 0.987-0.703-0.019-0.575-0.471-0.653-0.95-0.652-2.424 6e-3 -4.848 0.011-7.271-4e-3 -0.534-3e-3 -1.015 0.125-1.004 0.708 9e-3 0.52 0.463 0.664 0.968 0.655 1.227-0.02 2.455-6e-3 3.682-6e-3zm-37.796-0.015c1.197 0 2.394-3e-3 3.59 1e-3 0.477 1e-3 0.947-0.077 0.943-0.661-4e-3 -0.572-0.466-0.67-0.944-0.67-2.425 1e-3 -4.85 2e-3 -7.275-3e-3 -0.49-2e-3 -0.947 0.144-0.947 0.674 0 0.533 0.445 0.673 0.948 0.665 1.228-0.017 2.457-6e-3 3.685-6e-3z" fill="#FEFEFE"/>
		<path d="m49.456 98.016c0.583 0.676 0.762 1.564 1.23 2.312 2.304 3.677 5.596 5.837 9.839 6.633 5.789 1.087 12.458-2.691 14.732-8.273 1.733-4.253 1.391-8.336-0.722-12.328-0.407-0.771-0.948-1.471-1.426-2.203 0.194-0.103 0.393-0.197 0.582-0.309 8.316-4.854 16.626-9.721 24.949-14.563 4.969-2.892 9.959-5.748 14.94-8.62v21.733c-0.196 0.094-0.399 0.176-0.586 0.284-15.335 8.917-30.673 17.828-45.996 26.765-2.314 1.35-4.697 2.587-6.905 4.117-10.122 5e-3 -20.243 0.012-30.364 0.014-2.294 1e-3 -4.589-0.018-6.883-0.027 0.184-0.322 0.535-0.411 0.825-0.58 5.293-3.083 10.586-6.167 15.885-9.241 3.294-1.915 6.599-3.811 9.9-5.714z" fill="#99CAEE"/>
		<path d="m113.58 86.932v26.646c-11.792 0-23.583 1e-3 -35.375-1e-3 -3.458-1e-3 -6.917-0.015-10.375-0.022 0.181-0.121 0.355-0.252 0.543-0.361 10.639-6.192 21.277-12.387 31.919-18.573 4.425-2.572 8.859-5.127 13.288-7.689z" fill="#818181"/>
		<path d="m55.511 80.82c0.093 0.312 0 0.496-0.291 0.691-5.423 3.653-7.305 8.744-6.085 15.083 0.011 0.059-0.013 0.123-0.021 0.186-2.202 1.26-4.413 2.506-6.605 3.782-7.418 4.319-14.83 8.65-22.245 12.978-0.376 0.013-0.752 0.036-1.128 0.036-6.315 2e-3 -12.631 2e-3 -18.946 2e-3v-0.756c0.344 0.022 0.577-0.218 0.841-0.371 14.794-8.606 29.583-17.22 44.378-25.823 3.358-1.952 6.735-3.872 10.102-5.808z" fill="#6185A2"/>
		<path d="m113.58 86.932c-4.429 2.563-8.863 5.117-13.287 7.688-10.643 6.187-21.28 12.381-31.919 18.573-0.188 0.109-0.362 0.24-0.543 0.361-2.579 3e-3 -5.159 5e-3 -7.738 8e-3 2.208-1.53 4.591-2.768 6.905-4.117 15.323-8.937 30.661-17.848 45.996-26.765 0.187-0.108 0.391-0.19 0.586-0.284v4.536z" fill="#040507"/>
		<path d="m113.58 60.663c-4.98 2.872-9.971 5.729-14.94 8.62-8.323 4.843-16.633 9.709-24.949 14.563-0.189 0.111-0.388 0.206-0.582 0.309-0.351-0.279-0.685-0.573-0.918-0.964 0.119-0.035 0.25-0.047 0.354-0.107 8.262-4.812 16.518-9.635 24.792-14.427 0.596-0.346 0.407-0.611 0.168-1.01-1.483-2.475-3.013-4.924-4.404-7.449-0.488-0.886-0.832-0.867-1.607-0.412-7.165 4.206-14.352 8.375-21.532 12.555-0.172-2.931-0.172-2.93 2.291-4.362 6.374-3.709 12.755-7.404 19.108-11.149 0.691-0.407 0.913-0.237 1.254 0.357 1.881 3.27 3.817 6.506 5.684 9.782 0.4 0.702 0.713 0.823 1.418 0.389 2.129-1.308 4.287-2.571 6.466-3.795 0.579-0.324 0.562-0.563 0.257-1.069-1.958-3.256-3.857-6.546-5.841-9.785-0.504-0.823-0.355-1.105 0.464-1.57 4.2-2.382 8.35-4.854 12.517-7.294v3.213c-0.093 9e-3 -0.203-0.011-0.276 0.032-3.497 2.031-6.984 4.078-10.49 6.094-0.548 0.315-0.269 0.583-0.082 0.9 1.312 2.219 2.622 4.439 3.939 6.654 0.351 0.591 0.663 1.573 1.11 1.645 0.558 0.09 1.228-0.594 1.864-0.915 1.332-0.672 2.494-1.656 3.934-2.126 1e-3 0.439 1e-3 0.881 1e-3 1.321z" fill="#0A0E10"/>
		<path d="m55.511 80.82c-3.368 1.936-6.745 3.855-10.102 5.808-14.795 8.604-29.584 17.217-44.378 25.823-0.264 0.153-0.497 0.394-0.841 0.371v-3.023c0.378 0.013 0.629-0.262 0.918-0.43 17.878-10.395 35.752-20.797 53.627-31.195 0.236-0.138 0.441-0.357 0.776-0.348v2.994z" fill="#0B0C0C"/>
		<path d="m113.58 59.341c-1.44 0.47-2.603 1.454-3.934 2.126-0.636 0.321-1.307 1.005-1.864 0.915-0.447-0.071-0.759-1.054-1.11-1.645-1.318-2.215-2.627-4.436-3.939-6.654-0.187-0.317-0.466-0.585 0.082-0.9 3.505-2.016 6.993-4.063 10.49-6.094 0.073-0.043 0.183-0.023 0.276-0.032-1e-3 4.094-1e-3 8.189-1e-3 12.284z" fill="#6084A1"/>
		<path d="m68.59 60.476c0 6.991 8e-3 13.983-0.014 20.975-1e-3 0.633 0.176 0.999 0.73 1.344 4.813 2.993 6.925 9.023 5.053 14.318-1.956 5.531-7.296 8.879-13.064 8.188-5.242-0.628-9.354-4.373-10.568-9.628-1.12-4.843 1.115-10.153 5.462-12.873 0.553-0.345 0.734-0.71 0.733-1.345-0.018-13.89-0.016-27.778-0.012-41.668 1e-3 -2.698 1.281-4.635 3.556-5.277 1.508-0.427 3.061-0.427 4.569-1e-3 2.245 0.634 3.551 2.574 3.553 5.181 6e-3 6.927 2e-3 13.856 2e-3 20.786zm-6.807-19.265c0.626-0.097 0.791 0.172 0.788 0.785-7e-3 1.831 0.02 1.831-1.815 1.832-0.283 0-0.566 0-0.85 5e-3 -0.157 4e-3 -0.365 0.018-0.372 0.199-0.022 0.627-0.128 1.291 0.038 1.871 0.122 0.425 0.72 0.164 1.104 0.195 0.438 0.036 0.881 0.023 1.322 5e-3 0.392-0.018 0.534 0.122 0.57 0.535 0.168 1.973 0.183 1.971-1.787 1.972-0.283 1e-3 -0.567 0-0.85 6e-3 -0.157 3e-3 -0.371 0.013-0.38 0.192-0.03 0.626-0.138 1.284 0.015 1.87 0.12 0.462 0.715 0.221 1.093 0.225 2.095 0.023 2.081 0.011 1.91 2.048-0.035 0.414-0.175 0.548-0.568 0.536-0.66-0.018-1.322 6e-3 -1.983-7e-3 -0.339-7e-3 -0.532 0.468-0.532 0.468s-0.115 1.817 1.548 1.817c0.346 0 0.692 7e-3 1.039 0 0.289-7e-3 0.435 0.072 0.492 0.406 0.326 1.897 0.083 2.207-1.812 2.208-0.126 0-0.255 0.019-0.377-3e-3 -1.047-0.188-0.879 0.532-0.886 1.153-7e-3 0.641-0.118 1.295 0.909 1.143 0.523-0.078 1.069 1e-3 1.604-0.019 0.396-0.014 0.532 0.129 0.566 0.539 0.165 1.969 0.179 1.968-1.789 1.97-0.094 0-0.191 0.015-0.283-3e-3 -0.872-0.162-1.024 0.251-1.02 1.047 0.032 5.981-0.023 11.964 0.05 17.944 0.016 1.254-0.308 1.917-1.469 2.505-3.766 1.906-5.729 6.426-4.838 10.512 0.967 4.435 5.223 7.979 10.131 7.675 4.924-0.305 9.257-4.506 9.145-9.795-0.085-4.002-2.051-6.979-5.676-8.754-0.648-0.317-0.824-0.675-0.822-1.358 0.024-7.241 0.015-14.482 0.015-21.723 0-7.053 0-14.104-2e-3 -21.156 0-0.409 5e-3 -0.821-0.042-1.227-0.114-1.001-1.084-1.936-2.087-1.985-0.754-0.037-1.513-0.045-2.266 0-1.499 0.091-2.268 1.364-2.104 3.682" fill="#261D1F"/>
		<path d="m27.972 38.776c-5.89 0-11.785-0.146-17.668 0.049-4.257 0.141-7.25-2.798-8.252-6.104-1.688-5.572 0.355-11.938 5.051-15.404 3.42-2.524 7.787-2.599 11.249-0.159 0.385 0.271 0.627 0.32 1.063 0.076 1.834-1.025 3.791-1.484 5.89-1.018 0.651 0.146 0.528-0.302 0.564-0.662 0.367-3.667 1.921-6.692 5.229-8.44 3.461-1.829 7.166-2.348 10.695-0.229 3.134 1.881 4.898 4.729 4.7 8.527-0.037 0.711 0.102 1.057 0.805 1.375 2.594 1.174 3.99 3.723 3.628 6.514-0.068 0.529 0.154 0.717 0.518 0.955 1.866 1.227 3.141 2.891 3.555 5.112 0.621 3.335-1.155 6.688-4.265 8.27-1.641 0.835-3.364 1.15-5.187 1.145-5.859-0.018-11.717-7e-3 -17.575-7e-3zm1.063-18.509c-1.053-0.407-1.979-0.768-2.907-1.123-1.972-0.758-3.856-0.583-5.662 0.52-1.741 1.063-1.72 1.023-3.345-0.152-2.453-1.775-5.048-2.074-7.738-0.536-4.903 2.804-6.53 9.564-4.265 14.26 0.837 1.736 2.235 2.891 4.282 2.893 12.092 0.014 24.184 4e-3 36.276 0.011 1.336 1e-3 2.617-0.188 3.816-0.813 2.928-1.525 3.882-4.841 2.102-7.374-0.647-0.921-1.533-1.559-2.545-2.031-1.381-0.646-1.381-0.647-0.916-2.062 0.229-0.696 0.338-1.396 0.148-2.125-0.515-1.978-1.866-2.909-4.413-3.025-1.045-0.048-1.071-0.059-0.66-1.034 0.583-1.386 0.944-2.787 0.51-4.287-0.979-3.388-3.583-5.196-7.46-5.069-6.038 0.197-8.471 5.567-7.655 9.669 0.145 0.721 0.275 1.447 0.432 2.278z" fill="#0B0C0C"/>
		<path d="m69.961 72.341c7.181-4.18 14.367-8.349 21.532-12.555 0.775-0.455 1.119-0.474 1.607 0.412 1.391 2.525 2.921 4.975 4.404 7.449 0.238 0.398 0.428 0.664-0.168 1.01-8.274 4.792-16.53 9.615-24.792 14.427-0.104 0.061-0.235 0.072-0.354 0.107-0.674-0.503-1.341-1.018-2.027-1.506-0.255-0.182-0.236-0.422-0.235-0.669 9e-3 -2.891 0.022-5.783 0.033-8.675zm11.207 4.018c-0.335-0.594-0.523-1.031-0.802-1.399-0.475-0.628-0.319-0.949 0.351-1.327 3.55-2.003 7.072-4.056 10.604-6.093 1.504-0.867 1.471-0.85 0.607-2.387-0.344-0.613-0.632-0.582-1.167-0.27-3.493 2.042-7.003 4.053-10.506 6.075-1.61 0.93-1.608 0.931-2.583-0.723-0.089-0.151-0.193-0.294-0.369-0.559-1.208 2.091-2.366 4.09-3.518 6.091-0.222 0.386-0.101 0.592 0.352 0.592h7.031z" fill="#6084A1"/>
		<path d="m74.424 14.266c0.016-6.796 5.5-12.274 12.286-12.273 6.804 1e-3 12.348 5.57 12.312 12.367-0.036 6.733-5.654 12.302-12.361 12.252-6.775-0.049-12.253-5.578-12.237-12.346zm2.645 0.013c-0.016 5.273 4.326 9.671 9.584 9.708 5.211 0.036 9.708-4.396 9.727-9.587 0.019-5.355-4.428-9.854-9.698-9.812-5.279 0.044-9.597 4.397-9.613 9.691z" fill="#0B0C0C"/>
		<path d="m22.845 113.55-2.58-9e-3c7.415-4.327 14.826-8.658 22.245-12.978 2.192-1.276 4.403-2.522 6.605-3.782-0.059 0.459 0.425 0.77 0.34 1.235-3.3 1.903-6.605 3.8-9.901 5.712-5.298 3.074-10.591 6.158-15.885 9.241-0.29 0.17-0.64 0.259-0.824 0.581z" fill="#0A0E10"/>
		<path d="m11.491 48.179c1.138 2.619 2.341 5.104 3.299 7.681 0.831 2.234-0.13 4.296-2.078 4.982-1.355 0.479-2.614 0.237-3.687-0.721-1.219-1.089-1.363-2.511-1.016-3.989 0.192-0.815 0.538-1.604 0.885-2.372 0.824-1.829 1.689-3.639 2.597-5.581zm-7e-3 3.153c-0.603 1.266-1.095 2.275-1.566 3.295-0.37 0.8-0.688 1.618-0.769 2.511-0.139 1.53 0.957 2.695 2.486 2.626 1.588-0.071 2.518-1.421 2.098-3.187-0.422-1.778-1.434-3.312-2.249-5.245z" fill="#282629"/>
		<path d="m40.657 48.916c1.001 3.058 2.743 5.545 3.458 8.451 0.504 2.046-0.73 3.999-2.652 4.44-1.937 0.445-3.812-0.632-4.331-2.537-0.309-1.133-0.125-2.258 0.338-3.313 0.998-2.266 2.04-4.513 3.187-7.041zm-0.069 3.362c-0.554 1.146-1.005 2.038-1.418 2.947-0.427 0.94-0.851 1.884-0.902 2.945-0.083 1.729 1.396 2.938 3.029 2.462 1.243-0.362 1.909-1.579 1.55-3.104-0.424-1.802-1.429-3.366-2.259-5.25z" fill="#282629"/>
		<path d="m21.05 59.583c0.947 2.559 2.098 4.79 3.096 7.088 0.46 1.058 0.651 2.178 0.333 3.31-0.488 1.741-2.201 2.824-3.988 2.575-1.742-0.242-3.098-1.819-3.098-3.611 0-0.634 0.082-1.269 0.333-1.846 1.059-2.44 2.149-4.866 3.324-7.516zm-2.421 9.274c-0.03 1.491 0.986 2.493 2.469 2.433 1.401-0.057 2.328-1.163 2.2-2.602-0.128-1.448-0.877-2.663-1.469-3.935-0.256-0.551-0.383-1.508-0.878-1.516-0.514-8e-3 -0.629 0.953-0.89 1.492-0.636 1.316-1.386 2.604-1.432 4.128z" fill="#282629"/>
		<path d="m26.477 41.064c1.006 3.073 2.76 5.575 3.477 8.501 0.496 2.024-0.731 3.925-2.682 4.418-1.853 0.469-3.791-0.662-4.318-2.553-0.269-0.966-0.2-1.967 0.18-2.864 1.029-2.435 2.146-4.834 3.343-7.502zm-0.063 3.331c-0.506 1.037-0.933 1.866-1.318 2.714-0.454 0.999-0.938 1.988-0.997 3.12-0.076 1.441 0.891 2.539 2.278 2.553 1.445 0.015 2.435-0.99 2.378-2.446-0.016-0.404-0.065-0.825-0.198-1.203-0.547-1.566-1.341-3.019-2.143-4.738z" fill="#282629"/>
		<path d="m87.365 33.254c0 1.192-1e-3 2.385 1e-3 3.577 1e-3 0.474-0.078 0.946-0.657 0.947-0.562 1e-3 -0.688-0.472-0.689-0.936-7e-3 -2.448-3e-3 -4.896 2e-3 -7.343 1e-3 -0.484 0.178-0.918 0.719-0.9 0.493 0.017 0.627 0.433 0.625 0.889-6e-3 1.255-2e-3 2.51-1e-3 3.766z" fill="#282629"/>
		<path d="m67.063 2.223c0.137 0.066 0.366 0.164 0.58 0.287 2.01 1.157 4.018 2.317 6.023 3.483 0.423 0.246 1.021 0.465 0.665 1.113-0.342 0.622-0.855 0.322-1.299 0.067-2.065-1.188-4.125-2.383-6.189-3.572-0.376-0.218-0.689-0.464-0.542-0.966 0.095-0.322 0.345-0.423 0.762-0.412z" fill="#252326"/>
		<path d="m98.785 33.986c3e-3 0.361-0.144 0.551-0.381 0.679-0.215 0.116-0.435 0.11-0.607-0.067-0.172-0.178-0.341-0.369-0.465-0.581-1.185-2.031-2.359-4.069-3.537-6.104-0.249-0.43-0.481-0.91 0.081-1.222 0.476-0.263 0.813 0.064 1.058 0.49 1.22 2.12 2.449 4.234 3.669 6.354 0.091 0.16 0.14 0.346 0.182 0.451z" fill="#282629"/>
		<path d="m75.286 34.742c-0.529-0.013-0.789-0.579-0.487-1.141 0.474-0.883 0.996-1.74 1.496-2.608 0.719-1.25 1.444-2.496 2.153-3.751 0.255-0.452 0.585-0.845 1.11-0.538 0.548 0.319 0.29 0.801 0.043 1.227-1.193 2.062-2.387 4.122-3.567 6.19-0.183 0.319-0.396 0.558-0.748 0.621z" fill="#252326"/>
		<path d="m67.123 26.311c-0.447 0.05-0.683-0.063-0.781-0.313-0.09-0.228-0.119-0.502 0.11-0.696 0.165-0.14 0.339-0.273 0.526-0.382 2.028-1.181 4.059-2.355 6.09-3.531 0.054-0.031 0.116-0.049 0.169-0.081 0.396-0.24 0.79-0.283 1.063 0.147 0.297 0.47-0.029 0.782-0.392 0.997-1.21 0.719-2.437 1.41-3.656 2.112-0.868 0.5-1.732 1.005-2.603 1.499-0.214 0.121-0.445 0.209-0.526 0.248z" fill="#252326"/>
		<path d="m107.15 25.692c-0.025 0.414-0.248 0.656-0.657 0.627-0.238-0.018-0.487-0.12-0.698-0.241-2.065-1.185-4.123-2.384-6.186-3.571-0.415-0.239-0.788-0.553-0.516-1.039 0.303-0.539 0.795-0.352 1.231-0.1 2.062 1.191 4.122 2.385 6.186 3.573 0.308 0.177 0.585 0.365 0.64 0.751z" fill="#252326"/>
		<path d="m99.719 7.476c-0.317-0.033-0.526-0.126-0.634-0.328-0.124-0.231-0.14-0.503 0.042-0.709 0.142-0.159 0.337-0.278 0.525-0.388 2.062-1.196 4.126-2.388 6.19-3.581 0.428-0.248 0.912-0.485 1.229 0.061 0.317 0.545-0.11 0.841-0.553 1.095-2.068 1.186-4.128 2.386-6.194 3.574-0.212 0.122-0.448 0.205-0.605 0.276z" fill="#252326"/>
		<path d="m105.64 14.957c-1.228 0-2.456-0.014-3.683 6e-3 -0.504 9e-3 -0.958-0.136-0.968-0.655-0.01-0.583 0.47-0.711 1.004-0.708 2.424 0.015 4.847 0.01 7.271 4e-3 0.479-1e-3 0.931 0.077 0.95 0.652 0.021 0.656-0.479 0.706-0.987 0.703-1.194-7e-3 -2.391-2e-3 -3.587-2e-3z" fill="#211A1C"/>
		<path d="m67.843 14.942c-1.229 0-2.457-0.012-3.685 6e-3 -0.503 8e-3 -0.948-0.132-0.948-0.665 0-0.53 0.457-0.676 0.947-0.674 2.425 5e-3 4.85 4e-3 7.275 3e-3 0.479 0 0.94 0.098 0.944 0.67 4e-3 0.584-0.466 0.662-0.943 0.661-1.196-4e-3 -2.393-1e-3 -3.59-1e-3z" fill="#211A1C"/>
		<path d="m59.471 40.526c-0.164-2.317 0.645-3.591 2.144-3.682 0.753-0.045 1.512-0.037 2.266 0 1.002 0.05 1.973 0.984 2.087 1.985 0.046 0.405 0.042 0.817 0.042 1.227 2e-3 7.052 2e-3 14.104 2e-3 21.156 0 7.24 9e-3 14.481-0.015 21.723-2e-3 0.684 0.173 1.041 0.822 1.358 3.625 1.774 5.591 4.752 5.676 8.754 0.113 5.289-4.221 9.49-9.145 9.795-4.909 0.304-9.164-3.24-10.131-7.675-0.891-4.086 1.073-8.605 4.838-10.512 1.161-0.588 1.485-1.251 1.469-2.505-0.074-5.98-0.023-11.963-0.055-17.944m4.956 11.572v-7.465c0-2.369 0-2.335-2.407-2.379-0.792-0.015-0.983 0.214-0.979 0.992 0.034 5.89 0 11.779 0.041 17.669 6e-3 0.778-0.248 1.045-0.951 1.281-3.923 1.318-6.01 5.679-4.701 9.704 1.256 3.864 5.555 6.125 9.423 4.956 3.321-1.005 5.547-3.86 5.624-7.216 0.079-3.476-1.981-6.354-5.416-7.525-0.498-0.17-0.652-0.42-0.647-0.946 0.027-3.023 0.012-6.047 0.013-9.071z" fill="#E7461F"/>
		<path d="m29.035 20.267c-0.156-0.831-0.287-1.557-0.431-2.28-0.815-4.102 1.617-9.472 7.655-9.669 3.877-0.127 6.481 1.682 7.46 5.069 0.434 1.5 0.073 2.901-0.51 4.287-0.411 0.976-0.385 0.986 0.66 1.034 2.546 0.116 3.898 1.048 4.413 3.025 0.19 0.729 0.081 1.429-0.148 2.125-0.466 1.414-0.466 1.416 0.916 2.062 1.012 0.473 1.898 1.11 2.545 2.031 1.78 2.533 0.826 5.849-2.102 7.374-1.2 0.625-2.48 0.813-3.816 0.813-12.093-7e-3 -24.185 3e-3 -36.277-0.011-2.047-2e-3 -3.444-1.156-4.282-2.893-2.266-4.695-0.638-11.456 4.265-14.26 2.689-1.538 5.285-1.239 7.738 0.536 1.625 1.176 1.604 1.215 3.345 0.152 1.806-1.103 3.69-1.277 5.662-0.52 0.928 0.357 1.854 0.717 2.907 1.125z" fill="#E1E2E7"/>
		<path d="m81.168 76.359c-2.458 0-4.745 0-7.032 1e-3 -0.452 0-0.573-0.206-0.352-0.592 1.152-2.001 2.31-4 3.518-6.091 0.176 0.265 0.28 0.407 0.369 0.559 0.975 1.653 0.973 1.652 2.583 0.723 3.503-2.022 7.014-4.033 10.506-6.075 0.535-0.313 0.823-0.344 1.167 0.27 0.864 1.537 0.897 1.52-0.607 2.387-3.532 2.037-7.054 4.09-10.604 6.093-0.67 0.378-0.826 0.699-0.351 1.327 0.281 0.367 0.468 0.805 0.803 1.398z" fill="#211A1C"/>
		<path d="m77.069 14.279c0.016-5.294 4.334-9.647 9.613-9.69 5.27-0.043 9.717 4.456 9.698 9.812-0.019 5.19-4.516 9.623-9.727 9.587-5.258-0.038-9.6-4.435-9.584-9.709z" fill="#FBE009"/>
		<path d="m11.484 51.332c0.815 1.933 1.827 3.467 2.249 5.245 0.419 1.766-0.51 3.115-2.098 3.187-1.529 0.069-2.625-1.096-2.486-2.626 0.081-0.893 0.399-1.711 0.769-2.511 0.471-1.02 0.963-2.029 1.566-3.295z" fill="#DEDFE4"/>
		<path d="m40.588 52.278c0.83 1.884 1.835 3.447 2.259 5.25 0.359 1.525-0.307 2.742-1.55 3.104-1.632 0.477-3.112-0.733-3.029-2.462 0.051-1.062 0.475-2.005 0.902-2.945 0.413-0.909 0.865-1.8 1.418-2.947z" fill="#DEDFE4"/>
		<path d="m18.628 68.857c0.046-1.524 0.797-2.813 1.433-4.127 0.261-0.539 0.375-1.5 0.89-1.492 0.495 8e-3 0.622 0.965 0.878 1.516 0.591 1.271 1.34 2.486 1.469 3.935 0.128 1.438-0.799 2.545-2.2 2.602-1.483 0.06-2.499-0.942-2.47-2.434z" fill="#DEDFE4"/>
		<path d="m26.414 44.395c0.803 1.72 1.596 3.173 2.144 4.737 0.132 0.378 0.182 0.799 0.198 1.203 0.057 1.456-0.933 2.461-2.378 2.446-1.388-0.014-2.354-1.111-2.278-2.553 0.06-1.132 0.543-2.121 0.997-3.12 0.384-0.847 0.811-1.676 1.317-2.713z" fill="#DEDFE4"/>
		<path d="m64.427 75.778c0 3.023 0.014 6.048-0.014 9.071-5e-3 0.526 0.149 0.776 0.647 0.946 3.435 1.171 5.495 4.05 5.416 7.525-0.076 3.355-2.302 6.211-5.624 7.216-3.868 1.169-8.167-1.092-9.423-4.956-1.309-4.025 0.778-8.386 4.701-9.704 0.704-0.236 0.957-0.503 0.951-1.281-0.041-5.89-7e-3 -11.779-0.041-17.669-4e-3 -0.778 0.187-1.007 0.979-0.992 2.407 0.044 2.407 0.01 2.407 2.379 1e-3 2.489 1e-3 4.977 1e-3 7.465zm0.341 20.001c1.542 3e-3 2.92-1.057 3.393-2.553 0.503-1.593-0.096-3.387-1.452-4.341-1.218-0.857-2.898-0.922-3.88-0.148 2.208 1.669 3.164 4.013 1.939 7.042z" fill="#211A1C"/>
		<path d="m64.768 95.779c1.225-3.029 0.269-5.373-1.939-7.042 0.982-0.773 2.662-0.709 3.88 0.148 1.356 0.954 1.956 2.748 1.452 4.341-0.473 1.497-1.851 2.556-3.393 2.553z" fill="#FEFEFE"/>
	</g>

<g clip-rule="evenodd" fill="#261D1F" fill-rule="evenodd">
	<rect x="59.176" y="55.765" width="3.469" height="2.547"/>
	<rect x="59.176" y="60.601" width="3.469" height="2.547"/>
	<rect x="59.176" y="50.905" width="3.469" height="2.547"/>
	<rect x="59.176" y="46.093" width="3.469" height="2.547"/>
	<rect x="59.176" y="41.21" width="3.469" height="2.547"/>
</g>

</svg>
