<?xml version="1.0" encoding="UTF-8"?>
<!-- Generator: Adobe Illustrator 16.0.0, SVG Export Plug-In . SVG Version: 6.00 Build 0)  -->
<!DOCTYPE svg  PUBLIC '-//W3C//DTD SVG 1.1//EN'  'http://www.w3.org/Graphics/SVG/1.1/DTD/svg11.dtd'>
<svg width="113.39px" height="113.39px" enable-background="new 0 0 113.39 113.39" version="1.1" viewBox="0 0 113.39 113.39" xml:space="preserve" xmlns="http://www.w3.org/2000/svg">

	<g clip-rule="evenodd" fill-rule="evenodd">
		<path d="m0.189 106.96c0-35.308 2e-3 -70.616-0.018-105.92 0-0.708 0.16-0.869 0.868-0.868 37.229 0.02 74.459 0.02 111.69 0 0.708 0 0.87 0.159 0.869 0.868-0.024 14.331-0.018 28.662-0.018 42.994-0.319-0.048-0.518 0.193-0.752 0.33-9.684 5.625-19.36 11.264-29.056 16.87-0.726 0.421-0.833 0.745-0.412 1.474 1.9 3.288 3.747 6.606 5.606 9.917 0.167 0.297 0.493 0.574-0.067 0.892-2.279 1.288-4.535 2.619-6.829 3.951-2.005-3.567-3.994-7.08-5.95-10.61-0.333-0.603-0.647-0.725-1.311-0.47-2.17 0.833-4.312 1.734-6.47 2.596-6.006 2.396-12.081 4.613-18.04 7.135-10.894 4.609-21.626 9.533-31.699 15.782-4.498 2.79-8.75 5.915-12.709 9.438-1.999 1.775-3.809 3.74-5.7 5.625zm70.171-92.972c0.057 0.027 0.114 0.055 0.171 0.082v15.112c0 1.498 0.438 2.177 1.38 2.147 0.92-0.029 1.313-0.658 1.313-2.115 1e-3 -6.014 0-12.028 0-18.042 0-0.221 0.013-0.442-8e-3 -0.661-0.113-1.159-0.911-1.664-1.967-1.2-0.328 0.144-0.588 0.105-0.899 0.03-4.298-1.046-8.62-2.006-12.887-3.167-1.458-0.397-2.612-0.211-3.929 0.42-14.253 6.826-28.534 13.602-42.806 20.394-1.475 0.702-2.008 1.741-1.748 3.359 0.035 0.217 0.057 0.436 0.097 0.652 0.48 2.552 1.511 4.845 3.248 6.792 0.778 0.871 1.689 1.12 2.883 0.791 15.598-4.309 31.207-8.582 46.815-12.852 0.622-0.17 1.07-0.504 1.387-1.039 1.826-3.082 3.902-6.002 5.828-9.02 0.363-0.569 0.748-1.123 1.122-1.683zm1.741 31.39c-2.169 0.096-4.308 0.438-6.434 0.831-12.397 2.295-24.376 5.952-35.89 11.106-1.004 0.45-1.989 0.942-2.976 1.43-0.403 0.199-0.836 0.453-0.594 0.997 0.271 0.607 0.755 0.404 1.203 0.197 0.085-0.039 0.173-0.076 0.257-0.118 6.724-3.317 13.731-5.905 20.901-8.063 6.765-2.036 13.599-3.785 20.616-4.722 1.118-0.149 2.246-0.224 3.37-0.315 0.462-0.037 0.837-0.184 0.802-0.707-0.033-0.507-0.421-0.649-0.879-0.638-0.124 4e-3 -0.25 2e-3 -0.376 2e-3zm2.414 5.037c-2.009 0.165-3.963 0.629-5.907 1.124-7.991 2.034-15.731 4.79-23.236 8.2-1.373 0.624-2.693 1.362-4.032 2.059-0.394 0.205-0.697 0.518-0.44 0.982 0.242 0.438 0.654 0.418 1.065 0.207 0.28-0.144 0.56-0.286 0.839-0.429 9.278-4.728 19.03-8.126 29.184-10.4 0.95-0.213 1.908-0.357 2.88-0.428 0.478-0.035 1.016-0.135 0.94-0.789-0.066-0.576-0.542-0.607-1.013-0.554-0.093 0.011-0.187 0.019-0.28 0.028zm-56.72 9.225c1.222-0.706 2.334-1.351 3.449-1.993 0.424-0.245 0.902-0.539 0.61-1.087-0.327-0.614-0.844-0.334-1.3-0.072-1.105 0.637-2.213 1.271-3.444 1.976v-1.066c0-0.944 9e-3 -1.89-4e-3 -2.834-7e-3 -0.495 0.063-1.129-0.649-1.144-0.696-0.015-0.702 0.583-0.706 1.103-2e-3 0.252 0 0.504 0 0.756v3.183c-1.322-0.762-2.481-1.44-3.652-2.099-0.383-0.215-0.818-0.292-1.071 0.167-0.212 0.385-0.034 0.727 0.34 0.951 0.188 0.113 0.377 0.226 0.567 0.336 1.014 0.59 2.029 1.18 3.122 1.815-0.396 0.242-0.685 0.426-0.981 0.599-0.895 0.521-1.796 1.033-2.688 1.561-0.36 0.212-0.588 0.547-0.367 0.943 0.241 0.434 0.646 0.441 1.06 0.195 0.27-0.16 0.544-0.313 0.817-0.468 0.912-0.52 1.823-1.038 2.854-1.625 0 1.469-6e-3 2.756 2e-3 4.043 3e-3 0.496 0.097 1.022 0.719 0.996 0.55-0.022 0.642-0.505 0.639-0.982-6e-3 -0.977-2e-3 -1.952-1e-3 -2.929 1e-3 -1.153 1e-3 -1.15 0.967-0.596 0.925 0.53 1.855 1.055 2.781 1.586 0.389 0.223 0.757 0.188 0.983-0.194 0.236-0.396 0.017-0.722-0.325-0.957-0.206-0.142-0.429-0.261-0.646-0.387-0.996-0.576-1.994-1.152-3.076-1.777zm71.063-16.364c-0.208-0.391-0.113-0.739-0.118-1.072-0.016-1.039 2e-3 -2.079-0.017-3.118-7e-3 -0.399-0.144-0.784-0.623-0.797-0.519-0.014-0.69 0.363-0.718 0.815-0.018 0.282-5e-3 0.566-5e-3 0.85v3.391c-1.228-0.709-2.304-1.339-3.39-1.954-0.437-0.248-0.966-0.593-1.315 0.011-0.34 0.588 0.171 0.887 0.628 1.149 1.106 0.632 2.206 1.277 3.385 1.962-0.383 0.234-0.673 0.417-0.969 0.59-0.895 0.521-1.797 1.032-2.687 1.562-0.388 0.231-0.631 0.572-0.339 1.013 0.252 0.38 0.625 0.361 0.999 0.141 0.271-0.16 0.548-0.309 0.82-0.464 0.912-0.521 1.824-1.044 2.869-1.642 0 1.373-5e-3 2.562 2e-3 3.751 3e-3 0.557-0.084 1.29 0.704 1.285 0.73-5e-3 0.652-0.705 0.653-1.238 2e-3 -1.04 0.017-2.08-7e-3 -3.118-0.014-0.588 0.165-0.638 0.638-0.348 0.883 0.542 1.786 1.051 2.689 1.558 0.451 0.253 0.994 0.71 1.389 0.049 0.387-0.648-0.226-0.922-0.691-1.192-1.083-0.629-2.164-1.262-3.326-1.94 1.202-0.695 2.313-1.338 3.424-1.982 0.448-0.26 0.961-0.554 0.586-1.155-0.336-0.539-0.818-0.262-1.242-0.018-1.108 0.634-2.218 1.268-3.339 1.911zm-56.203 27.89c-1.305 0.76-2.471 1.437-3.634 2.117-0.389 0.228-0.666 0.555-0.41 1.001 0.252 0.438 0.664 0.399 1.068 0.164 0.949-0.553 1.913-1.084 2.847-1.661 0.582-0.359 0.864-0.401 0.814 0.438-0.055 0.91-0.025 1.826-8e-3 2.739 0.01 0.572-0.166 1.397 0.653 1.426 0.86 0.03 0.684-0.801 0.698-1.373 0.017-0.661 3e-3 -1.323 3e-3 -1.984v-1.671c0.51 0.28 0.836 0.453 1.158 0.636 0.873 0.497 1.744 0.997 2.616 1.496 0.396 0.228 0.755 0.156 0.975-0.225 0.205-0.355 0.013-0.676-0.283-0.9-0.223-0.17-0.483-0.292-0.728-0.434-0.987-0.572-1.974-1.145-3.049-1.767 1.214-0.705 2.297-1.338 3.385-1.964 0.449-0.258 0.988-0.544 0.658-1.141-0.334-0.604-0.862-0.293-1.311-0.035-1.103 0.634-2.205 1.268-3.42 1.967 0-1.479 7e-3 -2.8-5e-3 -4.12-3e-3 -0.34-0.015-0.7-0.403-0.885-0.227-0.108-0.444-0.07-0.625 0.059-0.318 0.228-0.328 0.584-0.327 0.936 1e-3 1.285 0 2.57 0 3.997-1.217-0.697-2.322-1.334-3.43-1.963-0.445-0.253-0.965-0.561-1.295 0.067-0.287 0.547 0.172 0.842 0.604 1.089 1.116 0.636 2.227 1.285 3.449 1.991zm-19.891 2.039v-1.052c0-1.04 0.01-2.079-6e-3 -3.118-6e-3 -0.426-0.098-0.874-0.635-0.884-0.577-0.012-0.704 0.431-0.718 0.91-8e-3 0.283-1e-3 0.567-1e-3 0.851v3.284c-1.147-0.655-2.149-1.228-3.151-1.799-0.218-0.124-0.434-0.254-0.66-0.36-0.356-0.169-0.718-0.138-0.905 0.22-0.231 0.44-5e-3 0.777 0.398 1.011 1.184 0.686 2.366 1.372 3.627 2.104-0.386 0.235-0.676 0.419-0.972 0.592-0.895 0.522-1.795 1.035-2.688 1.561-0.359 0.212-0.598 0.536-0.385 0.938 0.232 0.436 0.632 0.463 1.051 0.214 0.27-0.16 0.546-0.31 0.819-0.466 0.912-0.521 1.824-1.042 2.866-1.638 0 1.403-3e-3 2.625 1e-3 3.846 2e-3 0.539-0.025 1.201 0.708 1.192 0.67-8e-3 0.653-0.634 0.651-1.15-3e-3 -1.071 0.017-2.143-8e-3 -3.213-0.013-0.6 0.175-0.626 0.64-0.344 0.912 0.555 1.847 1.07 2.772 1.603 0.44 0.253 0.946 0.608 1.31 3e-3 0.359-0.598-0.172-0.896-0.613-1.154-1.108-0.646-2.222-1.285-3.415-1.975 1.208-0.699 2.32-1.345 3.434-1.986 0.423-0.243 0.909-0.527 0.629-1.081-0.315-0.622-0.832-0.356-1.291-0.092-1.106 0.639-2.216 1.271-3.458 1.983z" fill="#FEFEFE"/>
		<path d="m113.58 60.663v21.733c-0.144 0.057-0.297 0.097-0.43 0.174-17.468 10.158-34.935 20.318-52.391 30.497-0.17 0.099-0.607 0.081-0.472 0.512h-37.419c0.125-0.336 0.472-0.393 0.727-0.541 10.573-6.164 21.152-12.315 31.729-18.473 11.823-6.883 23.642-13.771 35.465-20.653 7.594-4.42 15.193-8.833 22.791-13.249z" fill="#99CAEE"/>
		<path d="m20.599 113.58c-6.429 0-12.857-0.027-19.286 0.028-0.975 9e-3 -1.333-0.206-1.124-1.163 0.868-0.353 1.05-1.277 1.588-1.906 3.051-3.56 6.228-6.993 9.855-9.984 5.186-4.276 10.81-7.914 16.7-11.11 7.521-4.081 15.23-7.794 23.161-11.031 2.966-1.21 5.846-2.657 8.867-3.701 4.967-1.717 9.741-3.903 14.633-5.797 0.73-0.283 0.897-0.058 1.167 0.428 1.353 2.438 2.709 4.875 4.066 7.312 0.82 1.472 0.82 1.468-0.621 2.225-0.334 0.175-0.654 0.376-0.98 0.567-4.789 2.813-9.571 5.637-14.369 8.436-14.195 8.278-28.398 16.544-42.588 24.833-0.384 0.222-0.953 0.283-1.069 0.863zm35.15-32.689c-1.184 2.052-2.304 4-3.432 5.944-0.208 0.359-0.33 0.666 0.274 0.668 2.285 5e-3 4.569 2e-3 6.996 2e-3 -0.323-0.575-0.539-1.058-0.844-1.475-0.417-0.571-0.319-0.85 0.314-1.206 3.625-2.046 7.222-4.142 10.824-6.228 1.353-0.783 1.323-0.778 0.542-2.176-0.317-0.567-0.547-0.753-1.201-0.366-3.34 1.978-6.712 3.9-10.077 5.835-0.648 0.373-1.361 1.062-1.961 0.981-0.711-0.095-0.828-1.202-1.287-1.813-0.019-0.023-0.041-0.044-0.148-0.166z" fill="#6085A2"/>
		<path d="m113.58 86.932c0 8.631-9e-3 17.261 0.019 25.891 2e-3 0.647-0.127 0.775-0.774 0.774-14.993-0.023-29.985-0.018-44.978-0.018 0.177-0.125 0.346-0.263 0.533-0.371 9.145-5.326 18.29-10.652 27.438-15.972 5.916-3.44 11.841-6.87 17.762-10.304z" fill="#818181"/>
		<path d="m20.599 113.58c0.116-0.58 0.685-0.641 1.069-0.865 14.19-8.289 28.393-16.555 42.588-24.833 4.798-2.799 9.58-5.623 14.369-8.436 0.326-0.191 0.646-0.393 0.98-0.567 1.44-0.757 1.44-0.753 0.621-2.225-1.356-2.437-2.713-4.873-4.066-7.312-0.27-0.485-0.436-0.711-1.167-0.428-4.892 1.894-9.666 4.08-14.633 5.797-3.021 1.044-5.901 2.491-8.867 3.701-7.931 3.237-15.639 6.95-23.161 11.031-5.89 3.196-11.514 6.834-16.7 11.11-3.627 2.991-6.804 6.425-9.855 9.984-0.539 0.629-0.721 1.554-1.588 1.906v-5.48c1.891-1.885 3.701-3.85 5.7-5.628 3.959-3.522 8.211-6.647 12.709-9.438 10.073-6.249 20.805-11.173 31.699-15.782 5.959-2.521 12.034-4.739 18.04-7.135 2.158-0.861 4.3-1.763 6.47-2.596 0.663-0.255 0.977-0.133 1.311 0.47 1.956 3.53 3.945 7.043 5.95 10.61 2.294-1.332 4.55-2.663 6.829-3.951 0.561-0.317 0.234-0.595 0.067-0.892-1.86-3.311-3.707-6.629-5.606-9.917-0.421-0.729-0.314-1.053 0.412-1.474 9.695-5.605 19.372-11.244 29.056-16.87 0.235-0.137 0.434-0.377 0.752-0.33v3.023c-0.062 9e-3 -0.134 1e-3 -0.185 0.03-9.186 5.343-18.368 10.693-27.561 16.025-0.507 0.294-0.442 0.531-0.199 0.959 1.485 2.618 2.958 5.243 4.399 7.887 0.32 0.586 0.583 0.619 1.141 0.287 2.612-1.556 5.255-3.06 7.881-4.593 4.844-2.829 9.683-5.666 14.524-8.5v1.512c-7.597 4.416-15.197 8.829-22.792 13.249-11.824 6.882-23.643 13.771-35.465 20.653-10.577 6.157-21.156 12.309-31.729 18.473-0.255 0.148-0.602 0.205-0.727 0.541-0.754 4e-3 -1.51 4e-3 -2.266 4e-3z" fill="#242124"/>
		<path d="m113.58 59.151c-4.841 2.834-9.681 5.671-14.524 8.5-2.625 1.533-5.269 3.037-7.881 4.593-0.557 0.332-0.821 0.299-1.141-0.287-1.44-2.644-2.914-5.269-4.399-7.887-0.243-0.428-0.308-0.665 0.199-0.959 9.193-5.332 18.375-10.682 27.561-16.025 0.05-0.029 0.123-0.021 0.185-0.03v12.095z" fill="#6085A2"/>
		<path d="m113.58 86.932c-5.921 3.435-11.845 6.864-17.763 10.305-9.149 5.319-18.293 10.646-27.438 15.972-0.187 0.108-0.355 0.246-0.533 0.371h-7.559c-0.135-0.431 0.302-0.413 0.472-0.512 17.457-10.179 34.923-20.339 52.391-30.497 0.132-0.077 0.286-0.117 0.43-0.174v4.535z" fill="#242124"/>
		<path d="m70.36 13.992c-0.374 0.561-0.759 1.114-1.122 1.682-1.926 3.018-4.002 5.938-5.828 9.02-0.317 0.535-0.765 0.869-1.387 1.039-15.608 4.271-31.217 8.543-46.815 12.852-1.194 0.33-2.105 0.081-2.883-0.791-1.737-1.946-2.768-4.24-3.248-6.792-0.041-0.216-0.063-0.436-0.097-0.652-0.26-1.618 0.273-2.657 1.748-3.359 14.272-6.791 28.553-13.567 42.808-20.394 1.317-0.631 2.471-0.817 3.929-0.42 4.267 1.161 8.588 2.121 12.887 3.167 0.311 0.076 0.571 0.114 0.899-0.03 1.056-0.464 1.854 0.041 1.967 1.2 0.021 0.219 8e-3 0.44 8e-3 0.661v18.042c0 1.457-0.393 2.086-1.313 2.115-0.942 0.029-1.38-0.65-1.38-2.147v-15.112c-0.059-0.027-0.116-0.054-0.173-0.081zm-50.531 10.192c-0.063 0-0.135-0.022-0.187 1e-3 -2.982 1.384-5.962 2.774-8.945 4.157-0.315 0.146-0.369 0.413-0.365 0.702 0.047 3.13 0.861 5.945 3.304 8.105 0.268 0.236 0.52 0.341 0.846 0.25 3.133-0.871 6.266-1.747 9.398-2.621 2.87-0.771 5.739-1.542 8.608-2.313 0.211-0.048 0.425-0.088 0.634-0.147 3.153-0.887 6.352-1.61 9.464-2.64 2.848-0.783 5.695-1.565 8.542-2.348 1.892-0.263 3.682-0.928 5.519-1.406 1.027-0.268 2.084-0.453 2.97-0.854-4.508-4.715-6.559-10.286-6.496-16.74-2.555 1.207-5.155 2.435-7.756 3.663-2.706 1.275-5.454 2.463-8.09 3.882-3.18 1.354-6.279 2.881-9.386 4.39-2.686 1.307-5.373 2.613-8.06 3.919zm34.736-14.006c0.37 4.61 1.846 8.813 4.667 12.513 0.438 0.576 0.972 1.076 1.595 1.46 0.645 0.398 1.152 0.34 1.516-0.418 0.413-0.861 0.454-1.768 0.378-2.674-0.35-4.221-1.751-8.077-4.171-11.549-0.625-0.898-1.308-1.753-2.39-2.197-0.668-0.274-1.001-0.044-1.248 0.542-0.313 0.743-0.324 1.526-0.347 2.323zm9.554 10.855c2.122-3.231 4.13-6.301 6.153-9.361 0.405-0.613 0.325-0.918-0.437-1.088-1.804-0.403-3.593-0.867-5.39-1.301-1.69-0.408-3.383-0.808-5.268-1.257 2.86 3.961 4.41 8.2 4.942 13.007z" fill="#242124"/>
		<path d="m72.101 45.382c0.126 0 0.251 2e-3 0.377 0 0.458-0.011 0.846 0.131 0.879 0.638 0.035 0.523-0.34 0.669-0.802 0.707-1.125 0.091-2.252 0.166-3.37 0.315-7.017 0.938-13.851 2.687-20.616 4.722-7.17 2.158-14.177 4.745-20.901 8.063-0.084 0.042-0.172 0.079-0.257 0.118-0.448 0.207-0.932 0.41-1.203-0.197-0.242-0.544 0.191-0.798 0.594-0.997 0.986-0.487 1.971-0.98 2.976-1.43 11.513-5.155 23.492-8.811 35.89-11.106 2.125-0.396 4.264-0.737 6.433-0.833z" fill="#242124"/>
		<path d="m74.515 50.419c0.093-9e-3 0.187-0.017 0.28-0.028 0.47-0.054 0.946-0.022 1.013 0.554 0.076 0.654-0.462 0.754-0.94 0.789-0.973 0.071-1.93 0.215-2.88 0.428-10.153 2.274-19.905 5.673-29.184 10.4-0.28 0.143-0.56 0.285-0.839 0.429-0.411 0.211-0.823 0.231-1.065-0.207-0.257-0.465 0.046-0.777 0.44-0.982 1.339-0.696 2.659-1.435 4.032-2.059 7.505-3.41 15.245-6.167 23.236-8.2 1.943-0.495 3.898-0.959 5.907-1.124z" fill="#242124"/>
		<path d="m17.795 59.644c1.082 0.625 2.08 1.201 3.076 1.778 0.217 0.126 0.44 0.245 0.646 0.387 0.342 0.235 0.561 0.561 0.325 0.957-0.227 0.382-0.594 0.417-0.983 0.194-0.926-0.531-1.856-1.056-2.781-1.586-0.966-0.555-0.966-0.558-0.967 0.596-1e-3 0.977-5e-3 1.952 1e-3 2.929 3e-3 0.478-0.089 0.96-0.639 0.982-0.623 0.026-0.716-0.5-0.719-0.996-8e-3 -1.287-2e-3 -2.574-2e-3 -4.043-1.031 0.587-1.942 1.105-2.854 1.625-0.273 0.155-0.547 0.308-0.817 0.468-0.414 0.246-0.819 0.238-1.06-0.195-0.221-0.396 7e-3 -0.731 0.367-0.943 0.892-0.527 1.793-1.039 2.688-1.561 0.296-0.173 0.586-0.356 0.981-0.599-1.092-0.635-2.107-1.225-3.122-1.815-0.19-0.111-0.379-0.223-0.567-0.336-0.374-0.225-0.552-0.566-0.34-0.951 0.252-0.459 0.688-0.382 1.071-0.167 1.171 0.659 2.33 1.337 3.652 2.099v-3.183c0-0.252-2e-3 -0.504 0-0.756 4e-3 -0.52 0.01-1.118 0.706-1.103 0.713 0.015 0.643 0.649 0.649 1.144 0.013 0.944 4e-3 1.89 4e-3 2.834v1.066c1.231-0.706 2.339-1.339 3.444-1.976 0.456-0.262 0.973-0.542 1.3 0.072 0.292 0.548-0.186 0.842-0.61 1.087-1.115 0.641-2.227 1.286-3.449 1.992z" fill="#242124"/>
		<path d="m88.858 43.28c1.122-0.643 2.231-1.276 3.338-1.914 0.424-0.244 0.906-0.521 1.242 0.018 0.375 0.601-0.139 0.896-0.586 1.155-1.111 0.645-2.223 1.287-3.424 1.982 1.162 0.678 2.243 1.311 3.326 1.94 0.465 0.27 1.078 0.544 0.691 1.192-0.395 0.661-0.938 0.204-1.389-0.049-0.903-0.506-1.806-1.016-2.689-1.558-0.473-0.29-0.651-0.24-0.638 0.348 0.023 1.039 9e-3 2.079 7e-3 3.118-1e-3 0.533 0.077 1.233-0.653 1.238-0.789 5e-3 -0.701-0.728-0.704-1.285-7e-3 -1.189-2e-3 -2.378-2e-3 -3.751-1.044 0.598-1.957 1.121-2.869 1.642-0.272 0.156-0.549 0.305-0.82 0.464-0.374 0.22-0.746 0.239-0.999-0.141-0.292-0.441-0.049-0.781 0.339-1.013 0.89-0.53 1.792-1.041 2.687-1.562 0.296-0.172 0.585-0.356 0.969-0.59-1.179-0.685-2.278-1.331-3.385-1.962-0.458-0.262-0.969-0.561-0.628-1.149 0.35-0.604 0.879-0.258 1.315-0.011 1.085 0.615 2.162 1.245 3.39 1.954v-3.391c0-0.283-0.012-0.567 5e-3 -0.85 0.028-0.452 0.199-0.829 0.718-0.815 0.479 0.013 0.616 0.398 0.623 0.797 0.02 1.039 1e-3 2.079 0.017 3.118 6e-3 0.336-0.089 0.684 0.119 1.075z" fill="#242124"/>
		<path d="m32.655 71.17c-1.222-0.706-2.333-1.354-3.449-1.991-0.432-0.247-0.891-0.542-0.604-1.089 0.33-0.628 0.85-0.32 1.295-0.067 1.108 0.629 2.213 1.266 3.43 1.963 0-1.427 1e-3 -2.712 0-3.997 0-0.352 9e-3 -0.708 0.327-0.936 0.181-0.129 0.397-0.167 0.625-0.059 0.388 0.185 0.4 0.545 0.403 0.885 0.013 1.32 5e-3 2.641 5e-3 4.12 1.215-0.699 2.317-1.333 3.42-1.967 0.449-0.258 0.977-0.569 1.311 0.035 0.331 0.597-0.209 0.883-0.658 1.141-1.087 0.626-2.171 1.259-3.385 1.964 1.075 0.622 2.062 1.194 3.049 1.767 0.245 0.142 0.505 0.264 0.728 0.434 0.295 0.225 0.488 0.545 0.283 0.9-0.219 0.381-0.579 0.452-0.975 0.225-0.872-0.499-1.743-0.999-2.616-1.496-0.321-0.183-0.648-0.355-1.158-0.636v1.671c0 0.661 0.013 1.323-3e-3 1.984-0.014 0.572 0.162 1.403-0.698 1.373-0.819-0.028-0.643-0.854-0.653-1.426-0.017-0.913-0.046-1.829 8e-3 -2.739 0.05-0.839-0.232-0.797-0.814-0.438-0.934 0.577-1.897 1.108-2.847 1.661-0.404 0.235-0.816 0.274-1.068-0.164-0.256-0.446 0.021-0.773 0.41-1.001 1.163-0.681 2.329-1.357 3.634-2.117z" fill="#242124"/>
		<path d="m12.764 73.209c1.242-0.712 2.352-1.344 3.458-1.983 0.459-0.265 0.976-0.53 1.291 0.092 0.28 0.554-0.206 0.838-0.629 1.081-1.114 0.642-2.225 1.287-3.434 1.986 1.193 0.689 2.307 1.328 3.415 1.975 0.441 0.258 0.973 0.557 0.613 1.154-0.363 0.605-0.869 0.25-1.31-3e-3 -0.925-0.532-1.86-1.048-2.772-1.603-0.464-0.282-0.653-0.256-0.64 0.344 0.024 1.07 4e-3 2.142 8e-3 3.213 2e-3 0.517 0.019 1.143-0.651 1.15-0.733 9e-3 -0.706-0.653-0.708-1.192-4e-3 -1.221-1e-3 -2.442-1e-3 -3.846-1.042 0.596-1.954 1.117-2.866 1.638-0.273 0.156-0.549 0.306-0.819 0.466-0.419 0.249-0.819 0.222-1.051-0.214-0.213-0.402 0.026-0.727 0.385-0.938 0.893-0.525 1.793-1.038 2.688-1.561 0.296-0.173 0.585-0.356 0.972-0.592-1.261-0.732-2.444-1.419-3.627-2.104-0.403-0.233-0.629-0.57-0.398-1.011 0.188-0.357 0.549-0.389 0.905-0.22 0.226 0.106 0.442 0.236 0.66 0.36 1.002 0.571 2.004 1.144 3.151 1.799v-3.284c0-0.283-6e-3 -0.567 1e-3 -0.851 0.014-0.479 0.141-0.922 0.718-0.91 0.537 0.01 0.628 0.458 0.635 0.884 0.016 1.039 5e-3 2.078 6e-3 3.118v1.052z" fill="#242124"/>
		<path d="m55.749 80.89c0.108 0.122 0.129 0.144 0.148 0.168 0.459 0.61 0.576 1.718 1.287 1.813 0.6 0.08 1.313-0.608 1.961-0.981 3.365-1.935 6.737-3.857 10.077-5.835 0.653-0.387 0.883-0.201 1.201 0.366 0.782 1.397 0.811 1.393-0.542 2.176-3.602 2.086-7.199 4.182-10.824 6.228-0.633 0.356-0.731 0.635-0.314 1.206 0.305 0.417 0.521 0.899 0.844 1.475-2.427 0-4.711 3e-3 -6.996-2e-3 -0.604-2e-3 -0.482-0.309-0.274-0.668 1.127-1.946 2.248-3.895 3.432-5.946z" fill="#242124"/>
		<path d="m45.367 11.995c2.601-1.228 5.201-2.456 7.756-3.663-0.063 6.455 1.987 12.025 6.496 16.74-0.885 0.401-1.942 0.585-2.97 0.854-1.837 0.479-3.627 1.143-5.52 1.406-0.156-0.192-0.292-0.405-0.47-0.573-1.504-1.406-2.621-3.085-3.531-4.918-1.547-3.112-1.953-6.424-1.761-9.846z" fill="#E7461E"/>
		<path d="m45.367 11.995c-0.192 3.421 0.214 6.734 1.761 9.846 0.911 1.833 2.027 3.512 3.531 4.918 0.179 0.167 0.314 0.381 0.47 0.573-2.847 0.783-5.694 1.565-8.542 2.348-1.804-1.504-3.197-3.315-4.175-5.457-1.221-2.673-1.428-5.473-1.135-8.346 2.636-1.419 5.384-2.607 8.09-3.882z" fill="#FEFEFE"/>
		<path d="m37.276 15.877c-0.293 2.874-0.085 5.673 1.135 8.346 0.978 2.142 2.372 3.953 4.175 5.457-3.113 1.029-6.312 1.753-9.464 2.64-0.208 0.059-0.422 0.099-0.634 0.147-0.108-0.152-0.196-0.324-0.327-0.453-2.076-2.042-3.306-4.533-3.953-7.347-0.334-1.454-0.188-2.936-0.318-4.4 3.108-1.509 6.207-3.036 9.386-4.39z" fill="#E7461E"/>
		<path d="m27.89 20.267c0.13 1.464-0.016 2.946 0.318 4.4 0.647 2.813 1.877 5.304 3.953 7.347 0.131 0.128 0.219 0.3 0.327 0.453-2.869 0.771-5.738 1.542-8.608 2.313-0.57-0.667-1.228-1.248-1.75-1.964-1.886-2.585-2.501-5.497-2.301-8.631 2.687-1.307 5.374-2.613 8.061-3.918z" fill="#FEFEFE"/>
		<path d="m19.829 24.184c-0.2 3.135 0.416 6.046 2.301 8.631 0.522 0.716 1.181 1.297 1.75 1.964-3.132 0.874-6.265 1.75-9.398 2.621-0.326 0.091-0.578-0.014-0.846-0.25-2.443-2.16-3.257-4.975-3.304-8.105-4e-3 -0.29 0.05-0.556 0.365-0.702 2.983-1.383 5.963-2.773 8.945-4.157 0.052-0.025 0.124-3e-3 0.187-2e-3z" fill="#E7461E"/>
		<path d="m54.565 10.178c0.023-0.796 0.034-1.58 0.347-2.324 0.247-0.586 0.58-0.816 1.248-0.542 1.082 0.444 1.765 1.299 2.39 2.197 2.42 3.473 3.821 7.328 4.171 11.549 0.076 0.907 0.035 1.813-0.378 2.674-0.364 0.759-0.871 0.816-1.516 0.418-0.623-0.384-1.156-0.884-1.595-1.46-2.821-3.699-4.297-7.902-4.667-12.512z" fill="#FEFEFE"/>
		<path d="m64.119 21.033c-0.532-4.807-2.082-9.045-4.941-13.007 1.884 0.449 3.577 0.849 5.268 1.257 1.797 0.434 3.586 0.898 5.39 1.301 0.761 0.17 0.841 0.475 0.437 1.088-2.024 3.059-4.032 6.129-6.154 9.361z" fill="#FEFEFE"/>
	</g>



</svg>
