<?xml version="1.0" encoding="UTF-8"?>
<svg viewBox="0 0 2268 1664" xmlns="http://www.w3.org/2000/svg"><path d="m-870 2302v-2480c1170.7-1e-3 2341.3-1e-3 3512-1e-3 1e-3 826.67 1e-3 1653.3 2e-3 2480-1170.7 1e-3 -2341.3 1e-3 -3512 2e-3zm2205.2-1759.5c-1.629-1.548-2.854-2.662-4.024-3.832-28.761-28.75-57.491-57.53-86.276-86.256-129.99-129.72-259.3-260.12-390.09-389.04-0.949-0.936-1.892-1.879-2.818-2.837-7.04-7.276-15.749-8.096-24.958-6.078-5.763 1.262-9.653 5.556-13.679 9.582-156.72 156.76-313.4 313.56-470.24 470.2-47.866 47.805-95.461 95.879-143.83 143.19-47.893 46.847-94.866 94.634-142.24 142.01-2.819 2.819-5.561 5.618-6.984 9.554-4.27 11.808-0.631 21.183 7.944 29.689 62.695 62.193 125.41 124.37 187.88 186.79 189.33 189.2 378.56 378.51 567.83 567.78 14.499 14.499 27.771 14.58 42.263 0.238 19.886-19.681 39.979-39.162 59.771-58.925 226.92-226.57 453.6-453.38 680.36-680.1 4.938-4.938 9.73-10.011 15.188-14.455 4.965-4.043 9.245-9.341 9.846-15.737 0.545-5.813 3.302-6.266 7.692-5.935 1.989 0.149 3.998 0.025 5.998 0.025 147.67 0 295.33 0.243 443-0.141 48.038-0.124 87.767-19.721 118.18-56.75 28.116-34.229 39.594-73.894 34.226-118.01-4.063-33.401-18.058-62.34-41.124-86.771-15.511-16.429-33.902-28.701-54.943-37.115-9.261-3.704-7.657-1.082-7.883-12.161-0.103-4.986 0.095-10.081-0.846-14.933-9.423-48.634-56.753-81.34-107.09-68.077-7.944 2.093-7.997 2.049-10.378-6.009-7.803-26.41-21.316-49.599-41.517-68.191-33.439-30.778-73.054-45.299-118.66-40.429-59.282 6.33-100.66 37.874-125.77 91.481-4.354 9.297-3.157 8.304-11.077 4.512-31.704-15.179-64.69-20.656-99.578-14.185-48.285 8.957-84.773 34.701-110.55 76.165-7.209 11.596-11.838 24.388-16.713 37.224-54.09-32.282-103.23-25.575-148.9 17.533zm-1248.5-145.51c-0.428-5.443-0.399-9.813 0.457-14.406 0.842-4.516 0.432-9.271 0.503-13.922 0.136-8.85 0.116-8.915 8.624-8.951 13.32-0.057 26.642 0.076 39.961-0.048 8.733-0.081 11.056-2.465 11.396-11.299 0.153-3.99 0.181-7.999-7e-3 -11.986-0.374-7.969-3.021-10.644-11.009-10.674-24.644-0.096-49.287-0.087-73.93-9e-3 -9.161 0.029-12.271 2.724-12.298 11.642-0.078 25.918-1.764 51.771-2.855 77.646-0.302 7.141 2.12 11.209 8.363 15.114 10.92 6.83 19.663 8.238 31.233-0.216 14.316-10.459 29.462-2.927 32.397 14.618 1.813 10.841 1.587 21.886-1.505 32.608-3.273 11.354-10.83 17.1-22.631 17.142-3.278 0.012-6.572-0.731-9.835-1.272-8.588-1.427-16.399-5.174-24.465-8.192-6.448-2.414-8.292-1.638-10.777 4.563-2.34 5.842-4.284 11.852-6.203 17.851-2.334 7.3-1.64 8.86 5.351 12.39 18.292 9.232 37.633 12.898 57.988 10.247 19.731-2.571 35.836-11.426 43.426-30.506 10.688-26.864 11.45-54.494 0.604-81.56-5.465-13.635-16.361-22.212-30.826-25.976-11.761-3.06-22.81-1.278-33.962 5.196zm-9.434-218.67c7.173-19.331 13.866-37.306 20.513-55.298 6.901-18.678 13.788-37.361 20.623-56.063 3.359-9.193 1.948-11.174-7.942-11.28-6.662-0.072-13.325-0.035-19.987-0.01-12.044 0.048-12.695 0.482-16.399 11.649-10.662 32.147-20.969 64.417-32.091 96.404-4.343 12.491-6.333 24.948-5.735 38.064 0.475 10.406 1.643 11.863 12.448 11.894 16.323 0.044 32.649 0.189 48.967-0.094 5.062-0.088 7.048 1.135 6.777 6.567-0.448 8.972-0.347 17.99-0.049 26.975 0.277 8.365 3.287 11.046 11.757 11.204 5.994 0.111 11.998 0.186 17.987-0.021 7.589-0.262 9.962-2.671 10.159-10.409 0.195-7.657 0.042-15.322 0.045-22.984 4e-3 -10.85 5e-3 -10.85 11.028-11.227 7.557-0.258 9.963-2.526 10.263-10.167 0.196-4.989 0.189-9.998 1e-3 -14.987-0.28-7.441-2.815-9.831-10.41-10.197-1.662-0.08-3.355-0.199-4.992 0.021-5.12 0.688-6.399-1.868-5.938-6.411 0.269-2.638 0.049-5.325 0.048-7.99 0-9.994 0.158-19.991-0.053-29.98-0.162-7.727-2.628-10.048-10.188-10.293-3.661-0.118-7.329-0.071-10.993-0.011-8.647 0.144-10.09 1.214-11.436 10.15-1.97 13.078-3.771 26.188-5.24 39.33-0.428 3.828-1.739 5.272-5.48 5.204-7.31-0.135-14.623-0.04-23.683-0.04z" clip-rule="evenodd" fill="none" fill-rule="evenodd"/><path d="m1335.2 542.48c45.669-43.108 94.813-49.815 148.9-17.531 4.875-12.836 9.504-25.628 16.713-37.224 25.776-41.464 62.265-67.208 110.55-76.165 34.888-6.472 67.874-0.994 99.578 14.185 7.92 3.792 6.723 4.785 11.077-4.512 25.108-53.607 66.488-85.151 125.77-91.481 45.604-4.87 85.219 9.65 118.66 40.429 20.2 18.593 33.714 41.781 41.517 68.191 2.381 8.058 2.434 8.102 10.378 6.009 50.338-13.263 97.668 19.443 107.09 68.077 0.94 4.852 0.743 9.946 0.846 14.933 0.226 11.079-1.378 8.457 7.883 12.161 21.041 8.414 39.433 20.687 54.943 37.115 23.066 24.432 37.061 53.37 41.124 86.771 5.368 44.12-6.109 83.785-34.226 118.01-30.417 37.029-70.146 56.626-118.18 56.75-147.66 0.384-295.33 0.141-443 0.141-2 0-4.009 0.124-5.998-0.025-4.391-0.331-7.147 0.122-7.692 5.935-0.601 6.396-4.881 11.694-9.846 15.737-5.458 4.444-10.25 9.518-15.188 14.455-226.76 226.72-453.44 453.53-680.36 680.1-19.792 19.763-39.885 39.244-59.771 58.925-14.491 14.342-27.764 14.261-42.263-0.238-189.27-189.26-378.49-378.58-567.83-567.78-62.466-62.423-125.18-124.6-187.88-186.79-8.575-8.507-12.214-17.882-7.944-29.689 1.423-3.936 4.165-6.734 6.984-9.554 47.374-47.378 94.347-95.165 142.24-142.01 48.365-47.311 95.96-95.385 143.83-143.19 156.84-156.64 313.52-313.44 470.24-470.2 4.025-4.026 7.916-8.32 13.679-9.582 9.209-2.018 17.918-1.198 24.958 6.078 0.927 0.958 1.869 1.901 2.818 2.837 130.79 128.92 260.1 259.32 390.09 389.04 28.785 28.726 57.516 57.506 86.276 86.256 1.17 1.17 2.395 2.285 4.024 3.832zm159.44 16.187c-24.995-26.58-53.718-39.979-88.877-34.524-34.895 5.414-58.652 26.064-74.13 59.378-3.06-3.663-4.989-6.379-7.313-8.699-159.25-158.91-317.68-318.64-477.58-476.9-0.711-0.704-1.409-1.419-2.126-2.116-8.333-8.096-11.888-8.129-20.104-0.182-0.958 0.928-1.892 1.88-2.834 2.822-139.06 139.06-278.12 278.11-417.18 417.17-2.356 2.356-4.7 4.726-7.015 7.123-0.995 1.031-1.306 2.197 0.181 4.022 3.055-0.096 5.577-2.396 8.279-3.926 71.544-40.537 143.12-81.018 214.47-121.9 7.056-4.043 11.863-3.63 18.557 0.559 39.517 24.729 79.441 48.806 118.98 73.506 6.029 3.767 10.101 3.46 15.894-0.302 28.488-18.496 57.353-36.413 85.928-54.778 4.352-2.797 6.993-2.978 10.883 0.951 15.462 15.615 31.473 30.685 47.023 46.214 76.182 76.075 152.29 152.22 228.39 228.38 4.707 4.71 9.22 9.623 13.666 14.582 31.575 35.215 66.322 66.558 108.66 88.511 25.438 13.188 52.184 21.612 81.211 21.607 242.32-0.04 484.65 0.039 726.97-0.06 74.369-0.03 134.97-59.323 137.04-133.6 1.635-58.571-35.012-112.36-90.105-132.19-3.127-1.125-6.325-2.08-9.535-2.944-5.119-1.379-7.612-3.639-6.654-9.85 1.466-9.508 1.969-19.208-0.33-28.813-10.493-43.826-57.684-65.892-98.197-45.931-3.721 1.833-7.063 4.866-11.623 4.82-10.273-80.233-67.266-117.95-114.47-122.95-81.333-8.614-130.78 31.714-154.96 107.18-88.059-65.297-217.32-15.819-233.1 102.82zm86.67 279.92c-37.589-2.355-1486.1-1.323-1494.4 1.06 0.359 4.517 4.1 6.663 6.831 9.374 40.207 39.896 80.322 79.886 120.42 119.88 201.27 200.73 402.13 401.88 603.14 602.89 2.355 2.356 4.679 4.747 7.066 7.071 7.961 7.75 12.102 7.756 20.173-0.169 23.528-23.101 47.053-46.217 70.387-69.5 213.49-213.02 426.65-426.38 639.9-639.64 7.304-7.305 14.597-14.623 21.767-22.059 2.184-2.266 5.456-4.074 4.696-8.906z" clip-rule="evenodd" fill="#020202" fill-rule="evenodd"/><path d="m1494.7 558.67c15.774-118.64 145.04-168.12 233.1-102.82 24.185-75.471 73.632-115.8 154.96-107.18 47.207 4.999 104.2 42.718 114.47 122.95 4.561 0.046 7.902-2.987 11.623-4.82 40.514-19.961 87.704 2.104 98.197 45.931 2.299 9.604 1.796 19.305 0.33 28.813-0.958 6.211 1.535 8.471 6.654 9.85 3.21 0.864 6.408 1.819 9.535 2.944 55.094 19.83 91.74 73.615 90.105 132.19-2.074 74.272-62.674 133.56-137.04 133.6-242.32 0.099-484.65 0.02-726.97 0.06-29.027 5e-3 -55.773-8.419-81.211-21.607-42.342-21.953-77.089-53.296-108.66-88.511-4.446-4.959-8.959-9.872-13.666-14.582-76.1-76.156-152.21-152.31-228.39-228.38-15.551-15.529-31.562-30.599-47.023-46.214-3.89-3.929-6.531-3.748-10.883-0.951-28.575 18.365-57.439 36.282-85.928 54.778-5.793 3.762-9.864 4.068-15.894 0.302-39.536-24.7-79.461-48.776-118.98-73.506-6.693-4.188-11.501-4.602-18.557-0.559-71.346 40.884-142.92 81.364-214.47 121.9-2.702 1.53-6.116 5.395-8.279 3.926-1.993-1.354-1.176-2.991-0.181-4.022 2.314-2.397 4.658-4.767 7.015-7.123 139.06-139.06 278.12-278.12 417.18-417.18 0.942-0.942 1.876-1.895 2.834-2.822 8.217-7.947 11.771-7.914 20.104 0.182 0.717 0.697 1.415 1.412 2.126 2.116 159.9 158.26 318.33 317.99 477.58 476.9 2.324 2.32 4.254 5.036 7.313 8.699 15.478-33.313 39.235-53.964 74.13-59.378 35.16-5.455 63.883 7.945 88.878 34.525zm-513.46-214.85c2.386 2.515 3.917 4.203 5.525 5.813 118.98 119.07 237.97 238.14 356.97 357.2 10.603 10.608 21.201 21.224 31.962 31.67 6.058 5.881 12.072 6.684 18.049 2.979 7.509-4.655 8.882-14.534 2.436-21.549-5.396-5.873-11.582-11.011-17.232-16.66-121.88-121.83-243.73-243.69-365.59-365.55-1.885-1.886-3.874-3.68-5.633-5.676-2.154-2.443-4.164-2.569-6.899-0.723-6.054 4.086-12.305 7.879-19.588 12.497zm-68.646 43.647c3.047 3.233 5.447 5.916 7.989 8.458 113.3 113.32 226.62 226.63 339.94 339.94 2.118 2.118 4.149 4.363 6.488 6.211 3.542 2.797 7.543 3.99 12.141 2.721 10.498-2.901 14.058-14.524 6.48-22.87-5.804-6.394-12.49-11.977-18.609-18.095-107.68-107.64-215.33-215.31-322.99-322.97-1.884-1.883-3.86-3.678-5.658-5.639-1.975-2.155-3.92-1.937-6.162-0.462-6.301 4.142-12.654 8.206-19.619 12.711zm774.04 162.33c4.874-0.216 12.459 0.766 19.99 2.258 6.207 1.23 12.289 2.919 18.174 5.272 35.06 14.022 61.303 38.392 80.526 70.313 13.146 21.828 17.137 45.805 13.3 71.158-2.512 16.591-7.569 32.317-13.941 47.739-0.896 2.169-4.114 5.053-1.109 7.022 2.902 1.901 4.426-1.905 6.059-3.739 2.207-2.477 4.219-5.164 6.043-7.938 17.416-26.484 22.389-55.601 15.223-86.039-13.943-59.228-51.236-97.823-109.14-114.88-39.323-11.581-76.599-5.471-108.38 22.567-2.345 2.067-8.537 3.632-5.72 7.549 2.445 3.399 6.489-1.138 9.522-2.741 20.874-11.036 42.744-18.362 69.459-18.544zm-80.323 183.67c-0.171 3.356-0.463 8.343-0.657 13.333-0.052 1.326 0.197 2.66 1.856 3.035 1.413 0.319 2.841-0.012 3.58-1.104 1.106-1.635 1.95-3.492 2.648-5.351 6.679-17.765 6.269-35.716-2.169-52.396-13.572-26.831-35.051-45.093-64.673-52.254-26.286-6.355-50.951-2.872-72.391 14.992-5.949 4.957-10.622 11.017-14.145 17.917-0.597 1.17-0.764 2.634 0.414 3.683 1.192 1.061 2.51 0.665 3.556-0.222 2.539-2.153 4.921-4.493 7.479-6.62 18.599-15.461 39.513-22.605 63.917-18.664 43.144 6.969 71.285 39.448 70.585 83.651z" clip-rule="evenodd" fill="#fff" fill-rule="evenodd"/><path d="m1581.3 838.59c0.76 4.832-2.512 6.641-4.696 8.906-7.17 7.436-14.463 14.754-21.767 22.059-213.25 213.26-426.41 426.62-639.9 639.64-23.334 23.283-46.858 46.399-70.387 69.5-8.071 7.925-12.212 7.919-20.173 0.169-2.388-2.324-4.711-4.715-7.066-7.071-201-201-401.86-402.15-603.14-602.89-40.103-39.996-80.218-79.986-120.42-119.88-2.731-2.711-6.472-4.857-6.831-9.374 8.237-2.383 1456.8-3.416 1494.4-1.06zm-646.88 288.01c0.664-0.445 2.24-1.181 3.411-2.33 43.992-43.171 87.97-86.357 131.88-129.61 7.585-7.471 7.525-8.673 0.131-16.082-28.479-28.539-56.99-57.048-85.527-85.53-7.79-7.775-9.277-7.734-16.945 3e-3 -37.753 38.092-75.495 76.193-113.24 114.3-5.393 5.444-10.707 10.968-16.155 16.355-5.203 5.145-5.261 5.089-10.792-0.26-0.719-0.694-1.422-1.406-2.121-2.119-33.363-34.012-66.729-68.021-100.09-102.04-8.63-8.801-17.214-17.647-25.856-26.437-7.366-7.489-9.329-7.453-17.05 0.114-0.714 0.699-1.411 1.415-2.118 2.122-26.859 26.862-53.719 53.723-80.576 80.586-1.649 1.648-3.403 3.208-4.914 4.977-3.834 4.488-3.857 6.941-0.107 11.288 1.519 1.761 3.274 3.319 4.938 4.953 41.358 40.624 82.791 81.173 124.03 121.92 11.579 11.438 11.599 8.027 0.235 19.249-41.958 41.438-84.105 82.685-126.17 124.02-7.937 7.798-7.974 9.115-0.279 16.86 27.706 27.895 55.441 55.762 83.168 83.636 1.41 1.417 2.762 2.907 4.276 4.203 5.093 4.358 7.177 4.351 11.982 0.028 1.236-1.111 2.346-2.364 3.514-3.553 42.271-43.01 84.524-86.035 126.83-129.01 5.831-5.924 6.015-5.881 11.592-0.343 25.518 25.338 50.017 51.675 76.004 76.566 18.276 17.506 35.557 36.051 53.332 54.084 7.409 7.516 8.714 7.543 16.115 0.157 28.539-28.479 57.044-56.994 85.523-85.533 7.956-7.973 7.956-8.952 0.02-16.759-26.602-26.168-53.446-52.093-79.813-78.494-18.355-18.377-36.079-37.383-55.241-57.311z" clip-rule="evenodd" fill="#FE0000" fill-rule="evenodd"/><path d="m981.22 343.82c7.283-4.618 13.534-8.411 19.587-12.496 2.735-1.847 4.745-1.721 6.899 0.723 1.759 1.996 3.748 3.79 5.633 5.676 121.86 121.85 243.71 243.72 365.59 365.55 5.65 5.649 11.836 10.787 17.232 16.66 6.446 7.015 5.073 16.894-2.436 21.549-5.977 3.705-11.991 2.902-18.049-2.979-10.761-10.446-21.359-21.062-31.962-31.67-119-119.06-237.98-238.13-356.97-357.2-1.607-1.611-3.138-3.299-5.524-5.814z" clip-rule="evenodd" fill="#020202" fill-rule="evenodd"/><path d="m912.57 387.47c6.965-4.505 13.317-8.568 19.619-12.71 2.242-1.475 4.188-1.693 6.162 0.462 1.798 1.961 3.774 3.756 5.658 5.639 107.66 107.66 215.31 215.33 322.99 322.97 6.119 6.118 12.806 11.701 18.609 18.095 7.577 8.346 4.018 19.969-6.48 22.87-4.598 1.27-8.599 0.076-12.141-2.721-2.339-1.848-4.37-4.093-6.488-6.211-113.32-113.31-226.64-226.62-339.94-339.94-2.542-2.542-4.943-5.225-7.99-8.458z" clip-rule="evenodd" fill="#020202" fill-rule="evenodd"/><path d="m1686.6 549.8c-26.715 0.183-48.585 7.508-69.459 18.544-3.033 1.604-7.077 6.141-9.522 2.741-2.817-3.917 3.375-5.481 5.72-7.549 31.784-28.038 69.06-34.148 108.38-22.567 57.906 17.054 95.199 55.649 109.14 114.88 7.166 30.438 2.193 59.555-15.223 86.039-1.824 2.774-3.836 5.462-6.043 7.938-1.633 1.834-3.156 5.641-6.059 3.739-3.005-1.97 0.214-4.854 1.109-7.022 6.372-15.422 11.43-31.148 13.941-47.739 3.837-25.354-0.154-49.33-13.3-71.158-19.224-31.921-45.467-56.29-80.526-70.313-5.885-2.354-11.967-4.042-18.174-5.272-7.531-1.493-15.116-2.474-19.99-2.258z" clip-rule="evenodd" fill="#020202" fill-rule="evenodd"/><path d="m1606.3 733.47c0.7-44.203-27.441-76.682-70.583-83.649-24.404-3.941-45.318 3.203-63.917 18.664-2.559 2.127-4.94 4.467-7.479 6.62-1.046 0.887-2.363 1.282-3.556 0.222-1.178-1.049-1.011-2.513-0.414-3.683 3.522-6.9 8.195-12.96 14.145-17.917 21.439-17.864 46.104-21.348 72.391-14.992 29.622 7.161 51.101 25.423 64.673 52.254 8.438 16.68 8.848 34.631 2.169 52.396-0.698 1.858-1.542 3.716-2.648 5.351-0.739 1.092-2.167 1.423-3.58 1.104-1.659-0.375-1.908-1.709-1.856-3.035 0.192-4.992 0.484-9.979 0.655-13.335z" clip-rule="evenodd" fill="#020202" fill-rule="evenodd"/><path d="m934.46 1126.6c19.162 19.929 36.886 38.935 55.239 57.313 26.367 26.401 53.212 52.326 79.813 78.494 7.937 7.807 7.937 8.786-0.02 16.759-28.479 28.539-56.984 57.054-85.523 85.533-7.401 7.386-8.706 7.358-16.115-0.157-17.775-18.033-35.056-36.578-53.332-54.084-25.987-24.892-50.486-51.229-76.004-76.566-5.577-5.538-5.761-5.581-11.592 0.343-42.305 42.976-84.559 86.001-126.83 129.01-1.168 1.188-2.277 2.441-3.514 3.553-4.806 4.322-6.89 4.33-11.982-0.028-1.515-1.296-2.866-2.786-4.276-4.203-27.727-27.874-55.462-55.741-83.168-83.636-7.694-7.745-7.657-9.063 0.279-16.86 42.064-41.331 84.212-82.578 126.17-124.02 11.363-11.222 11.344-7.811-0.235-19.249-41.242-40.742-82.675-81.291-124.03-121.92-1.664-1.634-3.42-3.192-4.938-4.953-3.75-4.347-3.727-6.8 0.107-11.288 1.511-1.769 3.265-3.328 4.914-4.977 26.857-26.863 53.717-53.724 80.576-80.586 0.707-0.707 1.404-1.423 2.118-2.122 7.721-7.567 9.684-7.604 17.05-0.114 8.643 8.789 17.227 17.636 25.856 26.437 33.357 34.017 66.724 68.026 100.09 102.04 0.699 0.713 1.402 1.425 2.121 2.119 5.531 5.349 5.589 5.404 10.792 0.26 5.448-5.388 10.763-10.911 16.155-16.355 37.742-38.103 75.484-76.204 113.24-114.3 7.668-7.737 9.155-7.778 16.945-3e-3 28.537 28.482 57.048 56.991 85.527 85.53 7.395 7.409 7.454 8.611-0.131 16.082-43.915 43.251-87.893 86.438-131.88 129.61-1.169 1.147-2.745 1.882-3.409 2.328z" clip-rule="evenodd" fill="#020202" fill-rule="evenodd"/></svg>
