<?xml version="1.0" encoding="UTF-8"?>
<svg viewBox="0 0 1656.2 1653.2" xmlns="http://www.w3.org/2000/svg"><path d="m-867.14 2299.9v-2480h3512c1e-3 826.67 1e-3 1653.3 1e-3 2480-1170.7 1e-3 -2341.3 1e-3 -3512 2e-3zm2067.4-1893.1c-2.48-3.181-4.643-6.644-7.454-9.458-110.72-110.82-221.5-221.59-332.29-332.34-2.816-2.816-5.715-5.602-8.867-8.021-10.366-7.961-22.969-7.658-32.957 0.701-2.293 1.918-4.318 4.159-6.439 6.28-250.06 250.06-500.12 500.12-750.18 750.17-1.885 1.886-3.928 3.645-5.609 5.697-5.935 7.245-8.059 15.639-4.372 24.244 2.273 5.306 6.036 10.317 10.153 14.438 250.2 250.39 500.5 500.68 750.81 750.96 2.352 2.352 4.665 4.808 7.322 6.774 10.999 8.142 23.602 7.316 33.572-2.027 1.702-1.595 3.315-3.284 4.965-4.934 250.08-250.08 500.15-500.15 750.22-750.23 2.121-2.121 4.367-4.139 6.306-6.416 7.119-8.36 7.957-20.609 1.76-29.692-2.416-3.542-5.467-6.703-8.511-9.758-25.88-25.97-51.829-51.87-77.742-77.808-2.543-2.545-4.979-5.196-7.354-7.682 34.3-32.123 49.342-70.055 37.954-115.82-11.337-45.56-42.302-72.146-86.924-83.729 21.699-47.592 4.192-87.526-23.444-111.31-14.028-12.07-30.787-18.717-49.014-20.441-25.166-2.382-48.014 4.686-67.944 20.327-32.369-46.137-95.31-49.677-133.96-9.938zm-1099.3-188.61c13.577-16.768 26.502-31.546 38.076-47.315 15.35-20.917 24.086-44.375 21.419-70.847-2.074-20.592-11.3-37.428-31.067-45.265-26.845-10.643-52.9-6.29-77.305 8.55-5.565 3.384-6.442 6.713-3.787 12.635 1.898 4.233 4.293 8.25 6.56 12.312 5.095 9.13 7.652 9.852 16.399 4.522 8.657-5.272 17.795-8.964 28.119-8.908 12.776 0.069 21.761 7.54 22.937 20.182 0.639 6.866 0.085 13.943-0.751 20.825-1.828 15.043-9.473 27.697-18.628 39.153-13.055 16.336-26.596 32.338-40.777 47.7-7.984 8.649-12.473 17.533-11.042 29.46 0.944 7.866 3.033 10.877 11.004 10.918 29.294 0.152 58.591 0.14 87.886-4e-3 6.742-0.033 9.715-2.879 10.358-9.554 0.445-4.618 0.446-9.34 0.05-13.964-0.604-7.041-3.857-10.083-10.901-10.331-6.982-0.246-13.979-0.066-20.971-0.068-8.855-3e-3 -17.71-1e-3 -27.579-1e-3z" clip-rule="evenodd" fill="none" fill-rule="evenodd"/><path d="m1200.2 406.85c38.654-39.738 101.6-36.198 133.96 9.939 19.931-15.642 42.778-22.709 67.944-20.327 18.227 1.725 34.985 8.371 49.014 20.441 27.637 23.779 45.144 63.714 23.444 111.31 44.622 11.584 75.587 38.17 86.924 83.729 11.388 45.764-3.654 83.695-37.954 115.82 2.375 2.485 4.812 5.137 7.354 7.682 25.913 25.938 51.862 51.838 77.742 77.808 3.044 3.055 6.095 6.216 8.511 9.758 6.197 9.083 5.359 21.332-1.76 29.692-1.938 2.277-4.185 4.295-6.306 6.416-250.07 250.08-500.15 500.15-750.22 750.23-1.649 1.649-3.263 3.339-4.965 4.934-9.971 9.344-22.573 10.169-33.572 2.027-2.657-1.967-4.971-4.423-7.322-6.774-250.31-250.28-500.61-500.57-750.81-750.96-4.117-4.121-7.88-9.133-10.153-14.438-3.687-8.605-1.563-16.999 4.372-24.244 1.682-2.053 3.724-3.812 5.609-5.697 250.06-250.06 500.12-500.12 750.18-750.18 2.121-2.121 4.146-4.362 6.439-6.28 9.988-8.359 22.591-8.662 32.957-0.701 3.152 2.42 6.051 5.205 8.867 8.021 110.79 110.75 221.57 221.52 332.29 332.34 2.813 2.814 4.975 6.277 7.455 9.458zm-1112.3 430.29c4.055 4.514 6.509 7.516 9.236 10.243 242.02 242.06 484.07 484.11 726.12 726.14 2.118 2.118 4.187 4.336 6.556 6.143 3.904 2.979 8.043 2.94 11.916-0.166 1.812-1.453 3.412-3.175 5.063-4.82 32.571-32.475 65.172-64.921 97.696-97.442 208.36-208.34 416.7-416.69 625.05-625.04 3.063-3.063 6.221-6.045 9.121-9.256 1.215-1.346 1.874-3.192 3.345-5.804-497.84-1e-3 -994.56-1e-3 -1494.1-1e-3zm915.2-510.41c4.938 4.333 9.629 8.005 13.812 12.184 89.598 89.507 179.14 179.07 268.69 268.62 32.282 32.282 64.534 64.593 96.859 96.832 16.332 16.289 35.81 26.514 58.85 29.191 51.767 6.016 98.79-31.004 104.92-83.546 6.252-53.583-32.331-97.948-80.336-104.5-6.764-0.923-13.557-1.622-22.317-2.659 14.64-17.844 24.083-36.376 22.726-58.443-1.38-22.437-10.926-40.991-28.785-54.901-13.329-10.382-28.569-15.511-45.484-15.43-26.673 0.127-46.67 13.216-63.568 34.821-11.704-30.988-30.969-51.045-64.305-51.26-33.096-0.214-53.51 18.131-64.805 49.4-3.514-3.422-6.35-6.12-9.115-8.888-106.25-106.32-212.49-212.65-318.74-318.96-8.48-8.485-17.017-16.916-25.58-25.318-8.493-8.333-12.13-8.262-20.861 0.23-0.239 0.232-0.475 0.469-0.71 0.704-142.11 142.11-284.21 284.21-426.3 426.33-1.719 1.719-3.192 3.685-4.78 5.535 0.36 0.451 0.72 0.903 1.08 1.354 78.909-44.757 157.82-89.515 236.51-134.15 45.922 28.181 91.024 55.857 136.26 83.616 78.596-50.217 156.61-100.06 235.98-150.78z" clip-rule="evenodd" fill-rule="evenodd"/><path d="m100.93 218.24c9.869 0 18.725-2e-3 27.58 1e-3 6.991 2e-3 13.988-0.178 20.971 0.068 7.044 0.248 10.298 3.29 10.901 10.331 0.396 4.624 0.396 9.346-0.05 13.964-0.644 6.675-3.616 9.521-10.358 9.554-29.295 0.144-58.592 0.156-87.886 4e-3 -7.971-0.041-10.06-3.052-11.004-10.918-1.431-11.927 3.058-20.811 11.042-29.46 14.181-15.362 27.722-31.364 40.777-47.7 9.155-11.456 16.8-24.11 18.628-39.153 0.836-6.882 1.39-13.959 0.751-20.825-1.176-12.642-10.16-20.112-22.937-20.182-10.324-0.056-19.462 3.636-28.119 8.908-8.748 5.329-11.304 4.607-16.399-4.522-2.267-4.062-4.662-8.078-6.56-12.312-2.655-5.922-1.778-9.251 3.787-12.635 24.405-14.84 50.46-19.192 77.305-8.55 19.768 7.837 28.993 24.673 31.067 45.265 2.667 26.472-6.069 49.93-21.419 70.847-11.575 15.769-24.5 30.548-38.077 47.315z" clip-rule="evenodd" fill-rule="evenodd"/><path d="m87.899 837.14h1494.1c-1.471 2.611-2.13 4.458-3.345 5.804-2.9 3.211-6.058 6.192-9.121 9.256-208.35 208.35-416.69 416.7-625.05 625.04-32.524 32.521-65.125 64.968-97.696 97.442-1.65 1.646-3.251 3.367-5.063 4.82-3.873 3.106-8.012 3.145-11.916 0.166-2.369-1.807-4.438-4.024-6.556-6.143-242.05-242.04-484.1-484.08-726.12-726.14-2.727-2.727-5.181-5.729-9.236-10.242zm748.18 85.16c-12.25 1.082-24.551 1.771-36.735 3.357-12.568 1.637-24.816 4.819-36.069 11.007-10.654 5.858-15.538 14.126-14.373 26.96 3.579 39.435 6.315 78.944 9.349 118.43 2.6 33.843 5.577 67.666 7.509 101.55 0.689 12.104 6.678 19.025 16.63 23.75 4.184 1.986 8.596 3.642 13.064 4.854 22.195 6.02 44.773 6.629 67.292 2.847 9.714-1.631 19.302-4.938 28.465-8.667 9.224-3.754 14.43-10.995 15.067-21.597 1.34-22.254 3.263-44.473 4.965-66.705 1.753-22.894 3.558-45.783 5.285-68.679 2.229-29.533 4.229-59.086 6.694-88.6 0.858-10.28-3.272-17.631-11.738-22.386-6.325-3.554-13.129-6.552-20.064-8.661-17.979-5.468-36.55-6.957-55.341-7.456zm-0.156 482.5c40.814 1.405 79.504-33.095 79.488-78.93-0.016-43.813-35.485-79.506-79.242-79.558-43.776-0.052-79.603 35.593-79.509 79.314 0.101 47.469 39.675 80.498 79.263 79.174z" clip-rule="evenodd" fill="#ff0" fill-rule="evenodd"/><path d="m1003.1 326.73c-79.368 50.712-157.38 100.56-235.98 150.78-45.234-27.759-90.337-55.436-136.26-83.616-78.692 44.633-157.6 89.391-236.51 134.15-0.36-0.451-0.72-0.903-1.08-1.354 1.588-1.851 3.062-3.816 4.78-5.535 142.09-142.12 284.19-284.23 426.3-426.34 0.235-0.235 0.471-0.472 0.71-0.704 8.731-8.492 12.368-8.563 20.861-0.23 8.563 8.402 17.1 16.833 25.58 25.318 106.25 106.31 212.49 212.64 318.74 318.96 2.766 2.768 5.602 5.466 9.115 8.888 11.295-31.27 31.709-49.614 64.805-49.4 33.336 0.215 52.601 20.271 64.305 51.26 16.898-21.605 36.896-34.694 63.568-34.821 16.915-0.081 32.155 5.048 45.484 15.43 17.859 13.91 27.405 32.465 28.785 54.901 1.357 22.067-8.086 40.6-22.726 58.443 8.761 1.037 15.554 1.736 22.317 2.659 48.005 6.548 86.588 50.913 80.336 104.5-6.131 52.542-53.154 89.562-104.92 83.546-23.04-2.678-42.518-12.902-58.85-29.191-32.325-32.239-64.577-64.55-96.859-96.832-89.553-89.553-179.09-179.12-268.69-268.62-4.181-4.18-8.872-7.851-13.81-12.184zm382.57 215.15c9.917 5.419 18.728 11.734 24.656 21.322 5.835 9.435 7.434 19.817 6.569 30.685-0.893 11.208-3.401 22.343-12.137 29.752-8.038 6.817-17.774 11.635-26.435 17.126 21.385 3.242 42.554-16.772 46.069-44.136 3.652-28.41-13.604-53.398-38.722-54.749z" clip-rule="evenodd" fill="#fff" fill-rule="evenodd"/><path d="m836.08 922.3c18.791 0.499 37.361 1.988 55.34 7.456 6.936 2.109 13.739 5.107 20.064 8.661 8.466 4.755 12.597 12.105 11.738 22.386-2.465 29.514-4.466 59.066-6.694 88.6-1.728 22.896-3.532 45.785-5.285 68.679-1.702 22.232-3.625 44.451-4.965 66.705-0.638 10.602-5.844 17.843-15.067 21.597-9.163 3.729-18.751 7.036-28.465 8.667-22.519 3.782-45.097 3.173-67.292-2.847-4.469-1.212-8.881-2.867-13.064-4.854-9.952-4.725-15.94-11.646-16.63-23.75-1.932-33.882-4.909-67.705-7.509-101.55-3.033-39.483-5.77-78.993-9.349-118.43-1.165-12.834 3.719-21.102 14.373-26.96 11.253-6.188 23.501-9.37 36.069-11.007 12.185-1.587 24.486-2.275 36.736-3.357z" clip-rule="evenodd" fill-rule="evenodd"/><path d="m835.92 1404.8c-39.588 1.324-79.162-31.705-79.263-79.173-0.094-43.722 35.732-79.366 79.509-79.314 43.757 0.052 79.227 35.744 79.242 79.558 0.016 45.834-38.674 80.334-79.488 78.929z" clip-rule="evenodd" fill-rule="evenodd"/><path d="m1385.7 541.88c25.118 1.351 42.374 26.339 38.724 54.749-3.516 27.363-24.685 47.378-46.069 44.136 8.66-5.491 18.396-10.309 26.435-17.126 8.735-7.409 11.244-18.544 12.137-29.752 0.864-10.867-0.734-21.25-6.569-30.685-5.93-9.588-14.741-15.903-24.658-21.322z" clip-rule="evenodd" fill-rule="evenodd"/></svg>
