<?xml version="1.0" encoding="UTF-8"?>
<svg viewBox="0 0 1968.2 1653.2" xmlns="http://www.w3.org/2000/svg"><path d="m2641.9 2296.9h-3511.8v-2479.7h3511.8v2479.7zm-1138.5-1741.5c-3.43-1.358-6.441-2.584-9.479-3.746-41.313-15.818-79.514-8.996-115.03 16.136-9.057 6.409-8.844 6.736-16.852-1.271-168.27-168.27-336.54-336.55-504.84-504.79-3.282-3.28-6.806-6.352-10.441-9.238-3.471-2.757-7.583-3.632-12.069-3.996-10.432-0.845-17.483 4.535-24.322 11.377-250.71 250.81-501.47 501.56-752.23 752.32-1.414 1.414-2.883 2.778-4.225 4.258-4.19 4.621-6.199 10.04-6.379 16.319-0.286 9.951 5.239 16.614 11.793 23.166 250.12 250 500.17 500.08 750.23 750.14 17.499 17.498 29.18 17.555 46.505 0.229 250.05-250.05 500.1-500.1 750.15-750.16 1.649-1.649 3.227-3.382 4.974-4.922 2.847-2.509 5.405-5.763 5.714-9.16 0.688-7.555 5.093-7.931 10.908-7.502 4.641 0.343 9.328 0.126 13.993 0.061 57.599-0.802 115.22 1.628 172.81-1.305 33.036-1.682 61.38-14.524 84.651-37.437 29.64-29.183 43.595-64.842 41.116-106.86-2.016-34.144-15.006-63.519-39.202-86.94-31.521-30.513-69.369-44.677-113.8-37.455-7.747 1.259-7.829 1.143-10.485-6.243-7.672-21.335-19.432-40.234-35.919-55.65-28.859-26.984-62.916-41.122-103.02-40.23-53.575 1.191-93.874 25.065-122.7 69.611-4.701 7.262-7.673 15.39-11.847 23.286zm-1376.4-418.25c17.816-13.085 25.151-28.885 21.271-49.42-3.77-19.949-14.626-33.779-33.979-40.608-12.885-4.546-25.979-4.918-39.155-1.707-8.7 2.12-17.443 4.317-25.276 8.888-6.448 3.763-7.162 6.211-3.977 13.005 2.399 5.116 4.927 10.183 7.636 15.142 2.65 4.852 5.563 5.969 10.626 4.131 2.482-0.901 4.792-2.307 7.128-3.578 5.986-3.26 12.318-4.6 19.17-4.439 12.983 0.303 20.237 7.704 19.793 20.716-0.365 10.687-8.706 19.162-21.332 21.535-3.896 0.731-7.825 1.479-11.768 1.707-4.963 0.286-7.342 2.896-7.46 7.525-0.17 6.653-0.196 13.326 0.113 19.973 0.211 4.537 2.545 7.232 7.623 7.35 4.941 0.115 9.932 0.555 14.789 1.455 11.858 2.198 22.826 7.553 24.575 22.103 2.286 19.021-9.993 34.813-30.208 30.864-9.549-1.866-18.575-4.755-27.437-8.544-6.92-2.959-8.145-2.47-11.054 4.771-2.226 5.541-4.154 11.208-6.03 16.88-2.78 8.404-1.929 10.49 5.901 13.823 16.705 7.112 34.019 11.569 52.314 9.819 14.073-1.346 27.364-5.182 37.991-15.37 17.965-17.225 20.664-38.83 16.554-61.684-2.775-15.457-12.438-26.715-27.808-34.337z" clip-rule="evenodd" fill="#fff" fill-rule="evenodd"/><path d="m1503.3 555.36c4.174-7.896 7.146-16.024 11.847-23.288 28.827-44.546 69.126-68.42 122.7-69.611 40.107-0.892 74.164 13.246 103.02 40.23 16.487 15.416 28.247 34.315 35.919 55.65 2.656 7.386 2.738 7.502 10.485 6.243 44.432-7.222 82.279 6.942 113.8 37.455 24.196 23.422 37.187 52.797 39.202 86.94 2.479 42.015-11.477 77.674-41.116 106.86-23.271 22.912-51.615 35.755-84.651 37.437-57.586 2.933-115.21 0.503-172.81 1.305-4.665 0.065-9.353 0.282-13.993-0.061-5.815-0.429-10.22-0.053-10.908 7.502-0.309 3.397-2.867 6.651-5.714 9.16-1.747 1.54-3.324 3.272-4.974 4.922-250.05 250.05-500.1 500.1-750.15 750.16-17.325 17.326-29.006 17.27-46.505-0.229-250.06-250.06-500.11-500.13-750.23-750.13-6.555-6.552-12.079-13.215-11.793-23.166 0.181-6.279 2.189-11.698 6.379-16.319 1.342-1.479 2.811-2.844 4.225-4.258 250.76-250.76 501.52-501.51 752.23-752.32 6.839-6.842 13.891-12.222 24.322-11.377 4.486 0.364 8.599 1.239 12.069 3.996 3.636 2.887 7.159 5.958 10.441 9.238 168.3 168.25 336.56 336.52 504.84 504.79 8.008 8.007 7.795 7.68 16.852 1.271 35.516-25.132 73.716-31.954 115.03-16.136 3.037 1.162 6.049 2.388 9.479 3.746zm-1417.7 278.58c1.376 5.617 5.422 8.288 8.614 11.479 241.72 241.78 483.48 483.53 725.24 725.28 2.119 2.119 4.143 4.385 6.504 6.202 4.59 3.533 9.144 3.377 13.613-0.295 1.795-1.474 3.34-3.252 4.991-4.899 32.561-32.477 65.153-64.921 97.674-97.438 208.32-208.3 416.63-416.62 624.94-624.93 2.121-2.12 4.347-4.147 6.333-6.388 1.89-2.132 5.685-3.86 4.485-7.046-1.285-3.41-5.256-1.792-8.019-1.821-53.306-0.559-106.62-0.819-159.92-0.883-437.9-0.518-875.8-0.294-1313.7-0.26-3.254 2e-3 -6.593-0.622-10.755 1.001zm1277.1-221.94c-2.995-3.518-5.169-6.459-7.726-9.017-169.63-169.68-339.34-339.29-508.87-509.07-12.344-12.361-15.696-11.332-27.335 0.324-137.98 138.2-276.12 276.26-414.21 414.35-2.591 2.591-5.198 5.167-7.719 7.826-1.251 1.318-3.479 2.437-1.001 5.584 2.885-1.505 6.024-3.024 9.053-4.74 71.816-40.706 143.67-81.354 215.34-122.31 5.732-3.275 9.646-3.097 15.141 0.325 39.851 24.813 80.034 49.091 119.81 74.014 6.598 4.134 10.962 4.193 17.598-0.072 50.974-32.769 102.25-65.068 153.47-97.448 6.355-4.018 5.524-5.628 12.301 1.205 13.377 13.486 26.885 26.843 40.286 40.305 112.15 112.66 225.39 224.22 336.62 337.8 19.164 19.568 39.799 37.441 64.271 50.326 17.052 8.978 34.949 14.186 54.469 14.162 123.31-0.151 246.62-0.067 369.92-0.102 7.322-2e-3 14.638-0.209 21.885-1.646 66.133-13.104 107.33-74.842 93.896-140.8-12.2-59.913-71.845-100.82-132.15-90.557-7.06 1.201-14.042 2.854-21.484 4.384-5.861-28.531-18.225-52.774-39.188-72.226-20.958-19.446-45.665-31.799-74.139-33.44-72.452-4.179-117.33 31.804-139.77 99.915-24.859-16.417-51.632-23.534-80.863-17.729-29.592 5.876-52.143 22.523-69.609 48.642z" clip-rule="evenodd" fill="#020201" fill-rule="evenodd"/><path d="m126.94 137.11c15.369 7.622 25.032 18.88 27.812 34.335 4.11 22.854 1.411 44.459-16.554 61.684-10.627 10.188-23.918 14.024-37.991 15.37-18.295 1.75-35.609-2.707-52.314-9.819-7.83-3.333-8.681-5.419-5.901-13.823 1.876-5.672 3.804-11.339 6.03-16.88 2.909-7.24 4.134-7.729 11.054-4.771 8.862 3.789 17.887 6.678 27.437 8.544 20.214 3.949 32.494-11.844 30.208-30.864-1.749-14.55-12.717-19.904-24.575-22.103-4.857-0.9-9.847-1.34-14.789-1.455-5.078-0.117-7.412-2.813-7.623-7.35-0.309-6.646-0.284-13.319-0.113-19.973 0.119-4.629 2.497-7.239 7.46-7.525 3.943-0.228 7.872-0.976 11.768-1.707 12.626-2.373 20.967-10.849 21.332-21.535 0.444-13.012-6.81-20.413-19.793-20.716-6.853-0.16-13.184 1.18-19.17 4.439-2.336 1.271-4.646 2.677-7.128 3.578-5.063 1.838-7.977 0.721-10.626-4.131-2.709-4.959-5.237-10.025-7.636-15.142-3.185-6.794-2.472-9.242 3.977-13.005 7.833-4.57 16.576-6.768 25.276-8.888 13.176-3.211 26.271-2.839 39.155 1.707 19.353 6.829 30.209 20.659 33.979 40.608 3.877 20.538-3.458 36.337-21.275 49.422z" clip-rule="evenodd" fill="#020201" fill-rule="evenodd"/><path d="m85.661 833.94c4.163-1.623 7.501-0.999 10.756-0.999 437.9-0.034 875.8-0.258 1313.7 0.26 53.297 0.063 106.62 0.324 159.92 0.883 2.763 0.029 6.733-1.589 8.019 1.821 1.199 3.186-2.596 4.914-4.485 7.046-1.986 2.24-4.212 4.268-6.333 6.388-208.31 208.31-416.62 416.63-624.94 624.93-32.521 32.517-65.113 64.961-97.674 97.438-1.651 1.647-3.196 3.426-4.991 4.899-4.47 3.672-9.023 3.828-13.613 0.295-2.361-1.817-4.385-4.083-6.504-6.202-241.76-241.75-483.51-483.5-725.24-725.28-3.193-3.193-7.239-5.863-8.615-11.481zm869.94 54.648c-10.78-0.173-22.742 0.357-34.608 2.339-13.505 2.256-26.818 5.135-38.759 12.302-8.719 5.232-13.461 12.371-12.194 23.126 1.206 10.24 1.596 20.576 2.375 30.868 3.215 42.491 6.426 84.983 9.67 127.47 1.622 21.244 3.864 42.459 4.758 63.732 0.512 12.209 6.887 18.97 16.901 23.547 4.513 2.062 9.29 3.656 14.084 4.967 19.904 5.439 40.22 5.402 60.491 3.32 12.246-1.257 24.355-3.968 35.172-10.413 6.83-4.07 11.864-9.271 12.5-17.993 3.072-42.168 6.414-84.316 9.611-126.48 2.518-33.197 4.781-66.414 7.565-99.588 0.72-8.575-2.053-14.961-8.546-20.033-5.303-4.143-11.373-6.847-17.736-8.956-19.513-6.467-39.631-8.458-61.284-8.217zm-248.59 0.014c-12.802-0.161-24.77 0.377-36.624 2.407-13.492 2.31-26.813 5.236-38.654 12.591-8.298 5.154-12.784 12.179-11.627 22.474 1.151 10.249 1.625 20.573 2.407 30.864 3.152 41.493 6.303 82.985 9.468 124.48 1.671 21.907 3.992 43.788 4.829 65.727 0.529 13.875 7.796 21.248 19.493 25.933 3.696 1.479 7.481 2.807 11.325 3.835 20.25 5.422 40.871 5.505 61.479 3.251 11.908-1.303 23.68-3.947 34.219-10.168 6.835-4.035 12.056-9.148 12.692-17.869 2.421-33.201 5.094-66.385 7.622-99.578 3.211-42.155 6.24-84.324 9.662-126.46 0.725-8.922-2.167-15.586-9.143-20.76-6.792-5.039-14.557-8.033-22.604-10.263-18.099-5.014-36.593-6.877-54.544-6.46zm249.26 480.62c43.641 0.127 79.056-34.826 79.271-78.238 0.215-43.28-34.846-78.592-78.608-79.169-43.048-0.568-78.974 35.104-79.062 78.505-0.089 43.785 34.677 78.775 78.399 78.902zm-250.52-1e-3c43.737 0.356 79.335-34.273 79.801-77.632 0.466-43.438-34.144-78.855-77.926-79.748-43.039-0.878-79.316 34.556-79.731 77.878-0.419 43.729 34.263 79.145 77.856 79.502z" clip-rule="evenodd" fill="#FE9800" fill-rule="evenodd"/><path d="m1362.7 612c17.466-26.119 40.017-42.766 69.606-48.642 29.231-5.805 56.004 1.313 80.863 17.729 22.44-68.111 67.316-104.09 139.77-99.915 28.474 1.642 53.181 13.994 74.139 33.44 20.964 19.451 33.327 43.694 39.188 72.226 7.442-1.53 14.425-3.183 21.484-4.384 60.308-10.262 119.95 30.644 132.15 90.557 13.432 65.963-27.763 127.7-93.896 140.8-7.247 1.437-14.563 1.644-21.885 1.646-123.31 0.034-246.62-0.05-369.92 0.102-19.52 0.023-37.417-5.185-54.469-14.162-24.473-12.885-45.107-30.758-64.271-50.326-111.23-113.57-224.47-225.14-336.62-337.8-13.401-13.462-26.909-26.818-40.286-40.305-6.776-6.833-5.945-5.223-12.301-1.205-51.224 32.38-102.5 64.68-153.47 97.448-6.636 4.266-11 4.206-17.598 0.072-39.78-24.923-79.964-49.201-119.81-74.014-5.494-3.422-9.408-3.601-15.141-0.325-71.676 40.952-143.52 81.6-215.34 122.31-3.028 1.716-6.168 3.235-9.053 4.74-2.478-3.147-0.25-4.266 1.001-5.584 2.521-2.659 5.128-5.235 7.719-7.826 138.1-138.09 276.23-276.15 414.21-414.35 11.639-11.656 14.991-12.686 27.335-0.324 169.54 169.78 339.24 339.39 508.87 509.07 2.557 2.558 4.731 5.499 7.726 9.017zm-383.34-273.84c1.357 3.992 4.023 5.607 6.077 7.672 45.359 45.601 90.705 91.216 136.17 136.71 55.128 55.164 110.36 110.23 165.56 165.32 29.722 29.665 59.462 59.31 89.213 88.944 2.116 2.108 4.179 4.369 6.625 6.029 5.529 3.753 12.791 2.827 17.359-1.858 4.472-4.587 5.271-12.114 1.463-17.427-1.921-2.68-4.441-4.946-6.795-7.296-62.246-62.183-124.49-124.36-186.77-186.52-66.522-66.39-133.08-132.75-199.61-199.12-0.943-0.94-1.969-1.82-2.786-2.862-2.479-3.158-4.971-3.613-8.465-1.156-5.705 4.012-11.735 7.56-18.038 11.564zm566.8 292.6c-6.832-0.319-13.431 0.7-19.908 2.265-18.205 4.396-33.065 13.768-43.087 29.949-1.275 2.06-4.188 4.505-1.743 6.941 2.905 2.895 4.5-0.938 6.402-2.377 1.589-1.2 2.957-2.688 4.486-3.973 11.145-9.361 23.535-16.337 38.049-18.708 29.648-4.844 54.256 6.064 75.737 25.387 11.538 10.378 17.671 23.883 20.025 39.221 1.532 9.976 1.724 19.873 0.146 29.842-0.284 1.796-1.055 4.339 1.445 5.183 3.143 1.06 3.822-1.763 4.724-3.827 0.93-2.129 1.836-4.288 2.499-6.509 6.1-20.421 2.768-39.751-8.228-57.498-18.444-29.773-46.145-43.94-80.547-45.896z" clip-rule="evenodd" fill="#fff" fill-rule="evenodd"/><path d="m955.6 888.59c21.653-0.241 41.771 1.75 61.284 8.217 6.363 2.109 12.434 4.813 17.736 8.956 6.493 5.072 9.266 11.458 8.546 20.033-2.784 33.174-5.048 66.391-7.565 99.588-3.197 42.158-6.539 84.307-9.611 126.48-0.636 8.723-5.67 13.923-12.5 17.993-10.816 6.445-22.926 9.156-35.172 10.413-20.271 2.082-40.587 2.119-60.491-3.32-4.794-1.311-9.571-2.905-14.084-4.967-10.015-4.577-16.39-11.338-16.901-23.547-0.894-21.273-3.136-42.488-4.758-63.732-3.244-42.49-6.455-84.982-9.67-127.47-0.779-10.292-1.169-20.628-2.375-30.868-1.267-10.755 3.476-17.894 12.194-23.126 11.94-7.167 25.254-10.046 38.759-12.302 11.865-1.982 23.827-2.512 34.608-2.339z" clip-rule="evenodd" fill="#020201" fill-rule="evenodd"/><path d="m707 888.6c17.951-0.418 36.445 1.445 54.546 6.459 8.047 2.229 15.812 5.224 22.604 10.263 6.976 5.174 9.867 11.838 9.143 20.76-3.422 42.138-6.451 84.307-9.662 126.46-2.528 33.193-5.201 66.377-7.622 99.578-0.637 8.721-5.857 13.834-12.692 17.869-10.539 6.221-22.311 8.865-34.219 10.168-20.608 2.254-41.229 2.171-61.479-3.251-3.844-1.028-7.629-2.355-11.325-3.835-11.697-4.685-18.964-12.058-19.493-25.933-0.837-21.938-3.158-43.819-4.829-65.727-3.165-41.492-6.315-82.984-9.468-124.48-0.782-10.291-1.256-20.615-2.407-30.864-1.157-10.295 3.329-17.319 11.627-22.474 11.841-7.354 25.162-10.281 38.654-12.591 11.852-2.029 23.82-2.567 36.622-2.406z" clip-rule="evenodd" fill="#020201" fill-rule="evenodd"/><path d="m956.26 1369.2c-43.722-0.128-78.487-35.117-78.398-78.902 0.088-43.4 36.014-79.073 79.062-78.505 43.763 0.577 78.823 35.889 78.608 79.169-0.217 43.412-35.632 78.365-79.272 78.238z" clip-rule="evenodd" fill="#020201" fill-rule="evenodd"/><path d="m705.74 1369.2c-43.593-0.356-78.275-35.772-77.856-79.502 0.415-43.322 36.692-78.756 79.731-77.878 43.782 0.893 78.392 36.311 77.926 79.748-0.466 43.358-36.064 77.988-79.801 77.632z" clip-rule="evenodd" fill="#020201" fill-rule="evenodd"/><path d="m979.41 338.16c6.303-4.004 12.333-7.552 18.038-11.563 3.494-2.457 5.985-2.002 8.465 1.156 0.817 1.042 1.843 1.922 2.786 2.862 66.538 66.374 133.09 132.73 199.61 199.12 62.276 62.152 124.52 124.34 186.77 186.52 2.354 2.35 4.874 4.616 6.795 7.296 3.808 5.313 3.009 12.84-1.463 17.427-4.568 4.686-11.83 5.611-17.359 1.858-2.446-1.66-4.509-3.921-6.625-6.029-29.751-29.635-59.491-59.279-89.213-88.944-55.198-55.094-110.43-110.16-165.56-165.32-45.466-45.495-90.812-91.11-136.17-136.71-2.053-2.065-4.719-3.681-6.077-7.673z" clip-rule="evenodd" fill="#020201" fill-rule="evenodd"/><path d="m1546.2 630.76c34.402 1.956 62.103 16.123 80.548 45.896 10.995 17.747 14.327 37.077 8.228 57.498-0.663 2.221-1.569 4.38-2.499 6.509-0.901 2.064-1.581 4.887-4.724 3.827-2.5-0.844-1.729-3.387-1.445-5.183 1.578-9.969 1.387-19.866-0.146-29.842-2.354-15.338-8.487-28.843-20.025-39.221-21.481-19.322-46.089-30.23-75.737-25.387-14.514 2.371-26.904 9.347-38.049 18.708-1.529 1.284-2.897 2.772-4.486 3.973-1.902 1.438-3.497 5.271-6.402 2.377-2.445-2.437 0.468-4.882 1.743-6.941 10.021-16.182 24.882-25.553 43.087-29.949 6.476-1.565 13.075-2.585 19.907-2.265z" clip-rule="evenodd" fill="#020201" fill-rule="evenodd"/></svg>
