<?xml version="1.0" encoding="UTF-8"?>
<svg viewBox="0 0 1666 1624" xmlns="http://www.w3.org/2000/svg"><path d="m-862 2284v-2480h3512c1e-3 826.67 1e-3 1653.3 1e-3 2480-1170.7 1e-3 -2341.3 1e-3 -3512 2e-3zm2488.3-1463.4c0.149-10.758-6.541-17.322-13.193-23.975-249.15-249.12-498.27-498.26-747.43-747.37-3.285-3.285-6.544-6.864-10.486-9.15-3.854-2.235-8.477-3.616-12.924-4.267-10.415-1.522-17.389 4.695-24.184 11.492-250.49 250.58-501.04 501.11-751.57 751.65-1.414 1.414-2.891 2.772-4.223 4.26-8.746 9.768-9.064 23.658-0.643 33.758 2.339 2.806 5.095 5.267 7.688 7.859 248.9 248.9 497.79 497.8 746.69 746.69 1.886 1.886 3.724 3.821 5.663 5.649 12.631 11.904 26.489 11.825 38.794-0.2 1.43-1.398 2.829-2.827 4.243-4.241l748.81-748.81c2.121-2.122 4.274-4.212 6.342-6.385 4.602-4.84 6.634-10.66 6.424-16.962zm-1504-612.84v-12.51c0-47.638 4e-3 -95.276-0.012-142.92-1e-3 -2.994 0.177-6.046-0.326-8.969-0.988-5.746-5.275-8.498-10.963-7.058-2.539 0.643-4.927 1.972-7.302 3.153-16.987 8.446-33.955 16.931-50.927 25.409-1.489 0.743-3.029 1.41-4.433 2.291-5.821 3.649-6.913 7.068-3.897 13.314 2.166 4.486 4.548 8.893 7.154 13.138 4.685 7.629 6.925 8.234 14.47 4.106 5.424-2.968 10.725-6.163 16.959-9.765v119.75c-4.177 0-7.756 0.141-11.321-0.023-17.72-0.813-18.474 2.656-18.1 17.807 0.295 11.966 2.187 14.14 13.896 14.195 14.991 0.071 29.982 0.02 44.974 0.018 7.329-1e-3 14.665 0.187 21.985-0.063 8.674-0.297 10.942-2.806 11.153-11.661 0.096-3.996 0.212-8.009-0.051-11.989-0.36-5.441-2.556-7.754-8.042-8.161-4.577-0.341-9.201-0.07-15.217-0.07z" clip-rule="evenodd" fill="#fff" fill-rule="evenodd"/><path d="m1626.3 820.56c0.21 6.303-1.822 12.122-6.425 16.963-2.067 2.173-4.221 4.263-6.342 6.385l-748.81 748.81c-1.414 1.414-2.813 2.843-4.243 4.241-12.305 12.025-26.163 12.104-38.794 0.2-1.939-1.828-3.777-3.764-5.663-5.649-248.9-248.9-497.8-497.8-746.69-746.69-2.592-2.593-5.348-5.054-7.688-7.859-8.421-10.1-8.103-23.99 0.643-33.758 1.332-1.487 2.809-2.846 4.223-4.26 250.54-250.54 501.08-501.07 751.57-751.65 6.795-6.797 13.769-13.015 24.184-11.492 4.447 0.65 9.069 2.031 12.924 4.267 3.942 2.286 7.201 5.865 10.486 9.15 249.16 249.11 498.29 498.25 747.43 747.37 6.652 6.652 13.343 13.217 13.193 23.975zm-1530.7 0.261c-0.521 0.592-1.043 1.183-1.564 1.774 2.746 3.079 5.345 6.304 8.256 9.216 242.02 242.07 484.07 484.11 726.12 726.15 2.119 2.118 4.174 4.366 6.575 6.118 3.918 2.856 8.103 2.867 11.951-0.253 2.063-1.672 3.886-3.646 5.772-5.526 31.629-31.537 63.285-63.048 94.87-94.629 210.02-210 420.02-420.01 630.03-630.02 2.121-2.121 4.403-4.112 6.292-6.425 1.321-1.617 2.101-3.677 3.593-6.396-498.12-1e-3 -995.01-1e-3 -1491.9-1e-3zm676.64-359.23c78.671-50.257 156.92-100.24 235.98-150.75 5.021 4.423 9.942 8.304 14.347 12.704 105.62 105.53 211.19 211.12 316.78 316.7 2.355 2.355 4.612 4.847 7.188 6.939 10.399 8.449 25.203 7.871 34.694-1.21 9.827-9.403 10.83-24.588 2.139-35.376-2.497-3.1-5.487-5.81-8.313-8.636-161.66-161.67-323.33-323.34-484.99-485-13.432-13.432-26.781-26.947-40.327-40.262-6.72-6.604-11.031-6.442-18.011-0.014-1.225 1.128-2.364 2.348-3.543 3.525-141.16 141.17-282.33 282.33-423.48 423.5-2.235 2.235-4.316 4.625-6.47 6.943 0.375 0.516 0.751 1.03 1.126 1.546 78.896-44.746 157.79-89.493 236.64-134.21 45.742 28.07 90.846 55.746 136.25 83.608z" clip-rule="evenodd" fill-rule="evenodd"/><path d="m122.33 207.72c6.016 0 10.64-0.271 15.217 0.069 5.486 0.407 7.682 2.72 8.042 8.161 0.263 3.98 0.146 7.993 0.051 11.989-0.211 8.855-2.479 11.364-11.153 11.661-7.32 0.25-14.656 0.063-21.985 0.063-14.991 2e-3 -29.983 0.054-44.974-0.018-11.709-0.056-13.601-2.229-13.896-14.195-0.374-15.15 0.38-18.62 18.1-17.807 3.565 0.164 7.144 0.023 11.321 0.023v-119.75c-6.234 3.602-11.535 6.797-16.959 9.765-7.544 4.128-9.785 3.522-14.47-4.106-2.606-4.245-4.988-8.651-7.154-13.138-3.015-6.246-1.923-9.665 3.897-13.314 1.404-0.881 2.944-1.548 4.433-2.291 16.972-8.478 33.939-16.963 50.927-25.408 2.375-1.182 4.763-2.511 7.302-3.153 5.688-1.44 9.975 1.312 10.963 7.058 0.503 2.923 0.325 5.975 0.326 8.969 0.016 47.639 0.012 95.277 0.012 142.92v12.51z" clip-rule="evenodd" fill-rule="evenodd"/><path d="m95.618 820.82h1491.9c-1.492 2.72-2.271 4.779-3.593 6.396-1.889 2.313-4.171 4.304-6.292 6.425-210.01 210.01-420.01 420.02-630.03 630.02-31.585 31.581-63.241 63.092-94.87 94.629-1.887 1.881-3.71 3.854-5.772 5.526-3.849 3.12-8.033 3.109-11.951 0.253-2.401-1.752-4.456-4-6.575-6.118-242.05-242.04-484.1-484.08-726.12-726.15-2.911-2.912-5.511-6.137-8.256-9.216 0.52-0.59 1.041-1.181 1.563-1.773zm732.02 436.94c-3.104-2.755-5.582-4.902-8.004-7.111-38.594-35.21-80.593-65.594-127.06-89.629-30.894-15.98-63.107-28.501-97.003-36.473-13.002-3.058-23.572 2.023-28.049 13-4.338 10.639-0.688 21.56 10.254 28.272 21.445 13.157 40.373 29.408 58.497 46.674 29.729 28.321 57.439 58.588 82.871 90.748 32.854 41.546 65.021 83.665 96.425 126.32 12.105 16.442 33.314 14.712 41.945-2.494 26.029-51.895 56.636-101.14 89.036-149.25 64.42-95.672 137-184.58 220.22-264.62 34.38-33.069 70.456-64.165 108.32-93.201 11.106-8.518 13.578-20.17 7.207-30.757-6.009-9.983-17.315-13.326-29.711-8.253-8.621 3.529-17.114 7.435-25.431 11.635-57.684 29.137-110.48 65.676-160.4 106.5-88.257 72.194-164.14 155.96-231.17 247.95-2.514 3.45-5.089 6.857-7.94 10.693z" clip-rule="evenodd" fill="#BAD37C" fill-rule="evenodd"/><path d="m772.26 461.59c-45.405-27.861-90.509-55.538-136.25-83.607-78.844 44.717-157.74 89.464-236.64 134.21-0.375-0.516-0.751-1.03-1.126-1.546 2.153-2.318 4.234-4.708 6.47-6.943 141.15-141.18 282.32-282.34 423.48-423.5 1.179-1.178 2.318-2.397 3.543-3.525 6.979-6.429 11.291-6.591 18.011 0.014 13.546 13.314 26.896 26.83 40.327 40.262 161.66 161.67 323.33 323.33 484.99 485 2.826 2.826 5.816 5.536 8.313 8.636 8.691 10.788 7.688 25.973-2.139 35.376-9.491 9.081-24.295 9.659-34.694 1.21-2.575-2.093-4.832-4.584-7.188-6.939-105.58-105.57-211.15-211.16-316.78-316.7-4.404-4.4-9.326-8.281-14.347-12.704-79.062 50.507-157.31 100.5-235.98 150.75z" clip-rule="evenodd" fill="#fff" fill-rule="evenodd"/><path d="m827.64 1257.8c2.852-3.836 5.427-7.242 7.94-10.692 67.035-91.995 142.92-175.76 231.17-247.95 49.912-40.828 102.71-77.367 160.4-106.5 8.316-4.2 16.81-8.105 25.431-11.635 12.396-5.073 23.702-1.73 29.711 8.253 6.371 10.587 3.899 22.239-7.207 30.757-37.862 29.036-73.938 60.132-108.32 93.201-83.215 80.042-155.8 168.95-220.22 264.62-32.4 48.117-63.007 97.359-89.036 149.25-8.631 17.206-29.84 18.937-41.945 2.494-31.403-42.652-63.57-84.771-96.425-126.32-25.432-32.16-53.142-62.427-82.871-90.748-18.124-17.266-37.052-33.517-58.497-46.674-10.941-6.713-14.592-17.634-10.254-28.272 4.477-10.977 15.047-16.058 28.049-13 33.896 7.972 66.109 20.492 97.003 36.473 46.471 24.035 88.47 54.419 127.06 89.629 2.422 2.207 4.899 4.355 8.004 7.11z" clip-rule="evenodd" fill-rule="evenodd"/></svg>
