<?xml version="1.0" encoding="UTF-8"?>
<svg viewBox="0 0 2144 1640" xmlns="http://www.w3.org/2000/svg"><path d="m-858-186c1170.7-1e-3 2341.3-1e-3 3512-1e-3 1e-3 826.67 1e-3 1653.3 2e-3 2480-1170.7 1e-3 -2341.3 1e-3 -3512 2e-3 0-826.67 0-1653.3-1e-3 -2480zm1703.1 231.74c-6.684-0.819-12.265 1.964-17.274 6.121-2.301 1.908-4.322 4.155-6.443 6.276-250.08 250.07-500.16 500.15-750.24 750.23-1.886 1.885-3.943 3.634-5.607 5.698-5.869 7.278-7.997 15.671-4.249 24.268 2.309 5.296 6.072 10.294 10.191 14.416 250.22 250.41 500.54 500.71 750.88 750.99 3.041 3.041 6.245 6.1 9.875 8.336 10.195 6.279 21.437 4.947 30.295-3.133 1.723-1.57 3.314-3.284 4.964-4.934 250.55-250.55 501.1-501.1 751.65-751.64 1.649-1.649 3.373-3.235 4.917-4.979 7.942-8.974 8.676-21.468 1.575-31.24-2.525-3.477-5.58-6.607-8.631-9.659-249.1-249.14-498.22-498.26-747.36-747.36-2.816-2.816-5.865-5.403-8.844-8.055-4.442-3.953-9.593-5.913-15.704-5.325zm1022.6 214.35c0 49.961-0.206 99.924 0.212 149.88 0.067 7.98-2.341 13.571-7.519 19.318-23.63 26.23-27.609 65.537-9.871 95.611 19.268 32.668 52.188 47.13 88.407 40.175 32.718-6.281 54.692-27 63.734-59.223 8.58-30.579 0.944-58.063-21.352-80.691-5.211-5.289-7.085-10.164-7.072-17.237 0.177-99.59 0.069-199.18 0.197-298.77 0.013-9.89-1.943-19.127-6.128-27.971-14.441-30.515-49.946-41.007-76.109-21.96-16.369 11.916-24.401 28.729-24.455 48.982-0.132 50.628-0.042 101.26-0.044 151.88zm-1780.5-42.422c-4.236 0-7.805-5e-3 -11.373 1e-3 -17.749 0.032-18.385 0.692-18.1 18.739 0.173 10.925 2.454 13.184 13.815 13.238 14.658 0.071 29.316 0.021 43.975 0.017 7.995-2e-3 16.001 0.242 23.982-0.103 7.533-0.325 9.879-2.987 10.18-10.582 0.158-3.991 0.171-8-7e-3 -11.99-0.3-6.724-2.34-8.825-9.023-9.268-4.51-0.297-9.039-0.286-14.263-0.434v-12.035c0-47.639 4e-3 -95.277-0.012-142.92-1e-3 -2.994 0.177-6.045-0.318-8.969-0.978-5.761-5.25-8.533-10.931-7.108-2.54 0.637-4.931 1.963-7.306 3.145-14.602 7.264-29.18 14.574-43.765 21.87-3.87 1.936-7.866 3.658-11.579 5.857-5.921 3.508-6.925 7.024-3.977 13.272 1.843 3.907 3.853 7.754 6.044 11.477 5.772 9.805 7.646 10.271 17.287 4.801 4.806-2.728 9.619-5.443 15.37-8.697 1e-3 40.18 1e-3 79.006 1e-3 119.68zm1979.2-45.344v11.883c0 38.624-6e-3 77.248 0.011 115.87 1e-3 2.992-0.203 6.048 0.314 8.964 1.265 7.131 6.425 11.371 13.094 11.219 6.511-0.149 11.152-4.924 11.827-12.402 0.239-2.644 0.072-5.324 0.072-7.988 2e-3 -38.624 2e-3 -77.248 2e-3 -115.87v-11.672c7.124 0 13.04 0.036 18.955-8e-3 11.639-0.085 12.486-1.223 9.043-11.97-0.304-0.948-0.689-1.871-1.019-2.813-9.094-26.039-18.175-52.083-27.286-78.116-2.085-5.958-3.991-12.006-6.56-17.753-0.938-2.099-3.495-4.665-5.438-4.771-1.768-0.098-3.793 2.761-5.516 4.503-0.639 0.646-0.753 1.818-1.086 2.758-11.535 32.577-23.138 65.131-34.551 97.751-2.803 8.008-1.079 10.213 7.392 10.389 6.568 0.136 13.139 0.026 20.746 0.026z" clip-rule="evenodd" fill="#fff" fill-rule="evenodd"/><path d="m845.06 45.738c6.111-0.588 11.263 1.372 15.705 5.325 2.979 2.651 6.027 5.238 8.844 8.055 249.14 249.1 498.26 498.22 747.36 747.36 3.051 3.052 6.105 6.183 8.631 9.659 7.101 9.772 6.367 22.267-1.575 31.24-1.544 1.744-3.268 3.33-4.917 4.979-250.55 250.55-501.1 501.1-751.65 751.64-1.649 1.649-3.241 3.363-4.964 4.934-8.858 8.08-20.1 9.412-30.295 3.133-3.63-2.236-6.834-5.295-9.875-8.336-250.34-250.28-500.66-500.58-750.88-750.99-4.12-4.122-7.883-9.12-10.191-14.416-3.748-8.597-1.62-16.989 4.249-24.268 1.665-2.064 3.722-3.813 5.607-5.698 250.08-250.08 500.16-500.15 750.23-750.22 2.121-2.121 4.143-4.368 6.443-6.276 5.01-4.158 10.591-6.941 17.275-6.122zm-745.71 785.28c-0.413 0.597-0.825 1.194-1.238 1.792 2.845 3.128 5.564 6.38 8.551 9.365 241.8 241.84 483.63 483.67 725.46 725.49 1.885 1.885 3.675 3.896 5.742 5.562 4.98 4.01 9.294 3.848 14.278-0.43 1.767-1.516 3.339-3.257 4.991-4.904 31.624-31.541 63.281-63.05 94.865-94.63 209.78-209.76 419.54-419.53 629.31-629.3 2.356-2.357 4.824-4.621 6.994-7.141 1.19-1.383 1.866-3.209 3.314-5.802-498.17 1e-3 -995.21 1e-3 -1492.3 1e-3zm912.87-510.17c4.984 4.379 9.912 8.248 14.313 12.645 105.62 105.53 211.19 211.12 316.78 316.7 2.355 2.355 4.609 4.85 7.181 6.947 10.397 8.479 25.178 7.942 34.7-1.119 9.849-9.371 10.893-24.571 2.229-35.369-2.49-3.104-5.479-5.815-8.306-8.643-161.42-161.43-322.84-322.86-484.27-484.28-13.667-13.667-27.254-27.415-41.03-40.973-6.747-6.64-11.071-6.513-18.014-0.139-1.227 1.126-2.364 2.349-3.542 3.526-141.16 141.16-282.33 282.33-423.48 423.5-2.258 2.259-4.375 4.657-6.559 6.991 0.371 0.528 0.742 1.057 1.113 1.585 78.887-44.741 157.77-89.483 236.67-134.23 45.679 28.029 90.781 55.705 136.25 83.606 78.617-50.222 156.87-100.21 235.97-150.74z" clip-rule="evenodd" fill-rule="evenodd"/><path d="m1867.7 260.09c1e-3 -50.628-0.089-101.26 0.044-151.88 0.054-20.254 8.086-37.066 24.455-48.982 26.163-19.047 61.668-8.555 76.109 21.96 4.185 8.844 6.141 18.081 6.128 27.971-0.128 99.59-0.021 199.18-0.197 298.77-0.013 7.073 1.861 11.948 7.072 17.237 22.296 22.628 29.932 50.112 21.352 80.691-9.042 32.223-31.017 52.941-63.734 59.223-36.219 6.955-69.14-7.507-88.407-40.175-17.738-30.074-13.759-69.381 9.871-95.611 5.178-5.747 7.586-11.338 7.519-19.318-0.419-49.959-0.213-99.922-0.212-149.88zm65.826-56.403h-47.763c0.063 11.569-0.405 21.99 0.209 32.247h71.727v-11.481c0-34.643 0.09-69.285-0.074-103.93-0.033-6.939-0.588-13.944-1.674-20.798-2.677-16.897-17.484-31.325-32.322-32.046-19.799-0.961-37.591 15.991-37.85 36.852-0.338 27.31-0.1 54.627-0.024 81.941 5e-3 1.846 9e-3 5.476 9e-3 6.101 12.416 0 32.142 4e-3 47.763 4e-3 -1e-3 2.918-1e-3 8.356-1e-3 11.107z" clip-rule="evenodd" fill-rule="evenodd"/><path d="m1957.7 423.53c0.012-6.266-6e-3 -12.531 0-18.797h-71.936c0.025 6.806-0.059 13.612 0 20.418 0.053 6.32-8.288 10.749-12.39 15.3-18.715 20.774-21.867 51.905-7.817 75.724 15.26 25.873 41.332 37.327 70.018 31.818 25.913-4.975 43.316-21.384 50.479-46.904 6.794-24.219 0.748-45.986-16.911-63.908-4.128-4.188-11.453-8.049-11.443-13.651z" clip-rule="evenodd" fill="#E32322" fill-rule="evenodd"/><path d="m87.145 217.67v-119.68c-5.751 3.254-10.564 5.97-15.37 8.697-9.641 5.471-11.515 5.004-17.287-4.801-2.192-3.723-4.201-7.569-6.044-11.477-2.948-6.248-1.944-9.765 3.977-13.272 3.713-2.199 7.709-3.922 11.579-5.857 14.585-7.296 29.164-14.606 43.765-21.87 2.375-1.182 4.766-2.508 7.306-3.145 5.681-1.425 9.953 1.348 10.931 7.108 0.495 2.924 0.317 5.975 0.318 8.969 0.016 47.639 0.012 95.277 0.012 142.92v12.035c5.224 0.147 9.753 0.137 14.263 0.434 6.684 0.442 8.724 2.544 9.023 9.268 0.178 3.99 0.165 7.999 7e-3 11.99-0.301 7.595-2.646 10.257-10.18 10.582-7.981 0.345-15.987 0.101-23.982 0.103-14.658 5e-3 -29.317 0.055-43.975-0.017-11.361-0.055-13.642-2.313-13.815-13.238-0.285-18.047 0.351-18.707 18.1-18.739 3.567-6e-3 7.136-1e-3 11.372-1e-3z" clip-rule="evenodd" fill-rule="evenodd"/><path d="m2066.3 172.33c-7.606 0-14.178 0.109-20.744-0.027-8.471-0.176-10.194-2.381-7.392-10.389 11.413-32.62 23.016-65.174 34.551-97.751 0.333-0.939 0.447-2.112 1.086-2.758 1.723-1.742 3.748-4.601 5.516-4.503 1.942 0.106 4.499 2.673 5.438 4.771 2.568 5.747 4.475 11.795 6.56 17.753 9.111 26.033 18.192 52.077 27.286 78.116 0.329 0.941 0.715 1.864 1.019 2.813 3.443 10.747 2.596 11.885-9.043 11.97-5.915 0.044-11.831 8e-3 -18.955 8e-3v11.672c0 38.624 0 77.248-2e-3 115.87 0 2.664 0.167 5.345-0.072 7.988-0.675 7.479-5.316 12.253-11.827 12.402-6.669 0.152-11.829-4.088-13.094-11.219-0.518-2.916-0.313-5.972-0.314-8.964-0.017-38.624-0.011-77.248-0.011-115.87-2e-3 -3.573-2e-3 -7.146-2e-3 -11.882z" clip-rule="evenodd" fill-rule="evenodd"/><path d="m99.357 831.02h1492.3c-1.448 2.593-2.124 4.419-3.314 5.802-2.17 2.52-4.638 4.783-6.994 7.141-209.77 209.77-419.53 419.54-629.31 629.3-31.584 31.58-63.241 63.089-94.865 94.63-1.652 1.647-3.225 3.389-4.991 4.904-4.984 4.277-9.298 4.439-14.278 0.43-2.067-1.665-3.857-3.677-5.742-5.562-241.83-241.82-483.65-483.64-725.46-725.49-2.986-2.985-5.706-6.237-8.551-9.365 0.412-0.599 0.824-1.197 1.237-1.793zm732.32 436.68c-2.437-2.104-4.224-3.563-5.918-5.123-30.252-27.84-62.731-52.737-97.921-74.041-40.146-24.305-82.588-43.206-128.4-54.012-12.978-3.061-23.535 2.117-27.963 13.154-4.275 10.658-0.573 21.463 10.412 28.216 18.842 11.583 35.773 25.555 51.925 40.532 32.08 29.748 61.618 61.953 88.766 96.162 32.926 41.488 65.195 83.537 96.432 126.3 12.438 17.03 33.504 15.508 43.189-2.733 18.263-34.396 37.462-68.39 58.091-101.41 72.526-116.1 157.09-222.62 256.36-317.16 32.366-30.826 66.292-59.835 101.75-87.057 11.45-8.789 14.253-19.729 8.308-30.527-5.986-10.875-17.633-14.237-31.175-8.591-8.292 3.459-16.479 7.221-24.499 11.273-57.68 29.146-110.47 65.692-160.38 106.53-88.249 72.204-164.12 155.97-231.15 247.98-2.512 3.447-5.089 6.843-7.824 10.519z" clip-rule="evenodd" fill="#BAD37C" fill-rule="evenodd"/><path d="m1012.2 320.85c-79.1 50.531-157.35 100.52-235.97 150.74-45.472-27.901-90.574-55.577-136.25-83.606-78.898 44.748-157.78 89.49-236.67 134.23-0.371-0.528-0.742-1.057-1.113-1.585 2.184-2.334 4.301-4.732 6.559-6.991 141.15-141.18 282.32-282.34 423.48-423.5 1.178-1.178 2.315-2.4 3.542-3.526 6.942-6.374 11.267-6.501 18.014 0.139 13.776 13.558 27.363 27.306 41.03 40.973 161.43 161.42 322.85 322.85 484.27 484.28 2.826 2.827 5.815 5.538 8.306 8.643 8.663 10.798 7.619 25.998-2.229 35.369-9.522 9.062-24.303 9.599-34.7 1.119-2.571-2.098-4.825-4.592-7.181-6.947-105.58-105.57-211.15-211.16-316.78-316.7-4.402-4.398-9.33-8.267-14.314-12.646z" clip-rule="evenodd" fill="#fff" fill-rule="evenodd"/><path d="m1933.5 203.69v-11.107h-47.767v-88.046c0-20.847 9.535-36.852 35.968-36.852 27.401 0 35.968 16.505 35.968 36.852 0.164 34.642 0 127.1 0 131.4h-71.936v-32.247h47.767z" clip-rule="evenodd" display="none" fill="#848484" fill-rule="evenodd"/><path d="m831.68 1267.7c2.735-3.676 5.313-7.072 7.823-10.519 67.024-92.003 142.9-175.77 231.15-247.98 49.908-40.834 102.7-77.381 160.38-106.53 8.02-4.053 16.207-7.814 24.499-11.273 13.542-5.646 25.188-2.284 31.175 8.591 5.945 10.799 3.143 21.738-8.308 30.527-35.46 27.222-69.386 56.23-101.75 87.057-99.27 94.547-183.83 201.06-256.36 317.16-20.629 33.024-39.828 67.019-58.091 101.41-9.686 18.241-30.751 19.764-43.189 2.733-31.236-42.768-63.506-84.816-96.432-126.3-27.147-34.209-56.686-66.414-88.766-96.162-16.151-14.978-33.083-28.949-51.925-40.532-10.985-6.753-14.688-17.558-10.412-28.216 4.428-11.037 14.985-16.215 27.963-13.154 45.814 10.806 88.257 29.707 128.4 54.012 35.189 21.304 67.669 46.201 97.921 74.041 1.695 1.56 3.482 3.02 5.919 5.123z" clip-rule="evenodd" fill-rule="evenodd"/><path d="m1957.7 235.94v185.44c0 5.711 0.85 10.836 6.455 15.234 21.794 17.098 29.667 45.216 20.927 70.853-9.095 26.674-33.176 44.367-61.108 44.896-25.665 0.485-50.596-15.836-60.742-39.768-10.475-24.707-5.249-53.393 14.432-71.663 6.604-6.13 8.541-12.141 8.541-20.73 0-10.611-0.439-41.05-0.439-46.74h47.763v-11.107h-47.763v-73.778h47.763v-11.107h-47.763v-41.53h71.934z" clip-rule="evenodd" display="none" fill="#E32322" fill-rule="evenodd"/><path d="m1885.7 373.46c0 4.81-0.098 27.288 0 40.541h71.936v-178.06h-71.936v41.53h47.763v11.107h-47.763v73.778h47.763v11.107h-47.763z" clip-rule="evenodd" fill="#E32322" fill-rule="evenodd"/></svg>
