<?xml version="1.0" encoding="UTF-8"?>
<svg viewBox="0 0 2224 1676" xmlns="http://www.w3.org/2000/svg"><path d="m-854-170c0 826.67 0 1653.3 1e-3 2480 1170.7 0 2341.3 0 3512-1e-3v-2480h-3512zm911.72 409.64c2.098-6.646 4.196-13.314 6.781-19.777 2.234-5.584 4.349-6.255 10.028-3.829 9.169 3.916 18.452 7.124 28.381 8.862 21.252 3.722 31.993-12.781 30.053-30.213-1.628-14.623-10.584-20.052-24.959-22.818-4.847-0.933-9.845-1.279-14.79-1.453-5.137-0.18-7.208-3.15-7.39-7.608-0.271-6.649-0.251-13.323-0.047-19.977 0.127-4.118 2.25-6.757 6.718-7.189 3.942-0.383 7.869-0.987 11.778-1.645 14.4-2.422 23.23-12.478 21.968-24.932-1.146-11.3-7.631-16.969-19.003-17.457-8.327-0.357-15.594 2.162-22.814 5.941-9.79 5.123-11.638 4.286-16.768-5.849-1.803-3.561-3.715-7.069-5.424-10.675-3.601-7.599-2.742-10.284 4.812-14.319 7.677-4.102 16.071-6.256 24.446-8.323 12.855-3.174 25.674-2.754 38.224 1.512 19.359 6.58 30.539 20.284 34.552 40.177 4.204 20.84-3.23 36.97-20.726 49.869 34.681 21.712 39.145 70.466 9.895 97.168-10.29 9.394-23.009 13.129-36.355 14.458-18.965 1.89-36.948-2.643-54.174-10.352-6.466-2.893-7.295-4.891-5.186-11.571zm1860.2 567.54c-22.962 23.596-51.478 37.088-84.887 39.201-44.251 2.8-88.54 0.646-132.81 1.259-19.659 0.271-39.326 0.095-58.99 7e-3 -4.033-0.019-6.79 0.271-7.252 5.561-0.402 4.606-3.476 8.545-6.688 12-1.813 1.951-3.752 3.788-5.637 5.673-249.33 249.33-498.66 498.66-747.99 747.99-1.179 1.179-2.339 2.375-3.537 3.533-14.156 13.687-27.626 13.589-41.648-0.433-251.7-251.68-503.33-503.44-755.28-754.88-11.978-11.953-11.719-29.505-0.063-41.141 251.92-251.47 503.57-503.2 755.21-754.95 7.811-7.813 16.233-12.209 27.531-9.168 4.026 1.084 7.248 3.257 10.273 5.858 2.016 1.733 3.799 3.738 5.684 5.623 168.5 168.5 337 337.01 505.53 505.48 2.803 2.803 5.063 7.225 8.839 7.716 3.83 0.498 6.296-4.053 9.458-6.25 35.416-24.61 73.35-31.07 114.28-15.872 3.074 1.142 6.088 2.444 9.34 3.757 4.344-6.154 6.344-13.285 10.042-19.592 23.729-40.457 58.818-65.006 104.84-71.759 46.868-6.876 88.542 5.921 123.35 39.151 16.47 15.724 28.069 34.413 36.196 55.465 2.855 7.396 2.825 7.542 10.567 6.229 38.054-6.457 71.869 3.767 101.73 27.116 28.444 22.242 45.521 51.593 50.269 87.629 5.856 44.446-7.437 83.013-38.371 114.8zm259.84-618.83c-1.998 3e-3 -3.996-0.019-5.993 4e-3 -13.024 0.143-11.392-1.553-11.413 11.932-0.061 38.952-0.021 77.904-0.023 116.86 0 2.663 0.162 5.345-0.093 7.985-0.643 6.663-5.467 11.174-11.722 11.2-6.572 0.027-11.494-3.932-12.573-10.465-0.429-2.601-0.285-5.308-0.288-7.967-0.02-19.976-0.01-39.951-0.01-59.927-2e-3 -20.974-0.147-41.95 0.102-62.922 0.063-5.214-1.541-7.175-6.792-6.777-4.966 0.376-9.985 0.19-14.975 0.054-7.813-0.216-9.475-2.436-6.961-9.921 4.435-13.205 9.074-26.344 13.747-39.468 6.898-19.376 13.898-38.715 20.859-58.067 0.672-1.867 1.089-3.899 2.112-5.552 2.419-3.903 6.124-4.004 8.822-0.235 1.132 1.58 1.799 3.542 2.455 5.408 11.015 31.289 22.073 62.563 32.945 93.901 4.577 13.188 3.885 13.942-10.199 13.96z" clip-rule="evenodd" fill="none" fill-rule="evenodd"/><path d="m1519.3 568.14c4.344-6.154 6.344-13.285 10.042-19.592 23.729-40.457 58.818-65.006 104.84-71.759 46.868-6.876 88.542 5.921 123.35 39.151 16.47 15.724 28.069 34.413 36.196 55.465 2.855 7.396 2.825 7.542 10.567 6.229 38.054-6.457 71.869 3.767 101.73 27.116 28.444 22.242 45.521 51.593 50.269 87.629 5.855 44.445-7.438 83.012-38.372 114.8-22.962 23.596-51.478 37.088-84.887 39.201-44.251 2.8-88.54 0.646-132.81 1.259-19.659 0.271-39.326 0.095-58.99 7e-3 -4.033-0.019-6.79 0.271-7.252 5.561-0.402 4.606-3.476 8.545-6.688 12-1.813 1.951-3.752 3.788-5.637 5.673-249.33 249.33-498.66 498.66-747.99 747.99-1.179 1.179-2.339 2.375-3.537 3.533-14.156 13.687-27.626 13.589-41.648-0.433-251.7-251.68-503.33-503.44-755.28-754.88-11.978-11.953-11.719-29.505-0.063-41.141 251.92-251.47 503.57-503.2 755.21-754.95 7.811-7.813 16.233-12.209 27.531-9.168 4.026 1.084 7.248 3.257 10.273 5.858 2.016 1.733 3.799 3.738 5.684 5.623 168.5 168.5 337 337.01 505.53 505.48 2.803 2.803 5.063 7.225 8.839 7.716 3.83 0.498 6.296-4.053 9.458-6.25 35.416-24.61 73.35-31.07 114.28-15.872 3.075 1.142 6.089 2.445 9.341 3.758zm77.001 279.1c-498.6-2.563-996.19-0.506-1494.4-1.393 0.362 6.601 4.701 9.114 7.816 12.23 242.24 242.32 484.52 484.6 726.8 726.88 1.178 1.178 2.314 2.401 3.544 3.523 6.711 6.128 11.318 6.057 18.11-0.281 1.461-1.364 2.837-2.818 4.25-4.232 102.05-102.05 204.1-204.1 306.15-306.15 139.76-139.76 279.52-279.52 419.25-419.3 2.935-2.935 6.652-5.39 8.465-11.275zm-217.21-222.71c-3.044-3.431-5.342-6.309-7.93-8.897-169.42-169.46-338.86-338.9-508.3-508.33-2.355-2.355-4.577-4.884-7.151-6.974-4.435-3.604-9.131-3.525-13.606 0.104-2.061 1.671-3.823 3.71-5.708 5.595-35.823 35.817-71.645 71.636-107.46 107.46-103.21 103.22-206.43 206.45-309.64 309.67-2.118 2.119-4.197 4.277-6.261 6.45-0.798 0.841-0.52 1.893-0.04 2.695 0.528 0.884 1.581 1.325 2.548 0.854 2.683-1.304 5.336-2.677 7.93-4.148 70.64-40.083 141.34-80.056 211.79-120.48 6.873-3.943 11.418-3.349 17.749 0.601 39.549 24.668 79.455 48.762 118.98 73.461 6.271 3.919 10.519 3.84 16.747-0.156 50.16-32.191 100.54-64.034 150.97-95.813 11.325-7.137 7.903-7.847 17.656 1.899 109.38 109.31 218.76 218.62 328.01 328.06 17.651 17.681 34.487 36.169 52.525 53.479 17.119 16.429 35.062 31.802 55.99 43.243 16.848 9.211 34.592 15.329 54.159 15.317 125.3-0.072 250.59-0.146 375.89 0.012 58.556 0.073 116.27-48.362 115.49-119.63-0.83-75.713-72.065-129.62-145.44-111.34-10.689 2.662-10.689 2.662-13.488-7.914-14.949-56.489-62.813-94.735-120.53-96.312-57.679-1.575-107.92 34.157-125.88 89.441-1.178 3.625-1.335 7.785-4.27 10.739-52.561-34.117-114.84-21.236-150.73 30.913z" clip-rule="evenodd" fill="#020202" fill-rule="evenodd"/><path d="m2043.7 276.08c0 50.297 0.061 100.59-0.089 150.89-0.016 5.302 1.393 8.977 5.396 12.836 23.329 22.494 30.839 50.332 22.873 81.167-8.36 32.355-30.277 53.368-62.912 59.92-51.977 10.437-92.385-24.706-99.223-67.81-4.158-26.205 2.793-49.325 20.675-68.871 4.563-4.987 6.093-10.017 6.079-16.707-0.216-100.59-0.236-201.19-0.077-301.78 0.032-20.362 7.52-37.828 24.226-50.056 27.402-20.058 61.568-8.993 76.749 21.632 4.451 8.98 6.411 18.68 6.378 28.889-0.165 49.962-0.075 99.927-0.075 149.89zm-88.833-23.96c-0.125 10.988-0.197 21.978-0.405 32.964-0.063 3.288 1.095 5.024 4.575 4.911 2.664-0.088 5.332 0.013 7.999 0.015 10.333 0.011 20.669-0.133 30.998 0.084 5.09 0.107 6.206 1.917 5.962 6.889-0.234 4.793-3.375 5.008-6.923 5.003-12-0.019-24.005 0.215-35.997-0.092-5.354-0.137-6.855 1.915-6.691 6.985 0.313 9.656 0.088 19.33 0.088 28.996 1e-3 9.333 0.235 18.675-0.089 27.996-0.173 4.98 1.838 6.574 6.445 6.17 2.315-0.203 4.663-0.031 6.997-0.029 9.999 6e-3 20.002-0.132 29.998 0.075 5.324 0.11 6.824 2.475 6.1 7.686-0.591 4.248-3.598 4.184-6.641 4.191-12 0.03-24.004 0.2-35.998-0.06-5.068-0.109-7.029 1.396-6.92 6.764 0.313 15.326-0.117 30.669 0.214 45.994 0.14 6.43-1.623 10.871-6.666 15.431-21.407 19.356-27.083 49.213-15.194 74.905 11.402 24.643 38.601 41.578 67.935 36.903 27.288-4.349 45.595-19.901 53.28-46.346 7.582-26.095 0.469-48.949-19.945-66.741-6.215-5.418-8.475-10.496-8.436-18.525 0.293-59.994 0.104-119.99 0.066-179.99 0.242-1.293 0.693-2.586 0.695-3.879 0.039-39.969 0.053-79.937 0.014-119.9-6e-3 -5.987-0.713-11.927-2.519-17.663-4.754-15.104-17.972-26.138-31.166-27.267-21.761-1.862-38.027 19.612-38.205 37.798-0.264 26.977 0.065 53.958-0.185 80.935-0.048 5.115 1.891 6.146 6.41 6.068 12.319-0.213 24.646-0.149 36.969-0.035 5.645 0.053 6.813 1.809 6.083 7.214-0.581 4.306-3.549 4.112-6.604 4.112-12.323-4e-3 -24.648 0.105-36.97-0.058-4.096-0.054-6.063 1.022-5.847 5.577 0.426 8.962 0.408 17.945 0.573 26.92z" clip-rule="evenodd" fill="#020202" fill-rule="evenodd"/><path d="m143.54 149.93c34.681 21.712 39.145 70.466 9.895 97.168-10.29 9.394-23.009 13.129-36.355 14.458-18.965 1.89-36.948-2.643-54.174-10.352-6.465-2.893-7.294-4.891-5.186-11.571 2.098-6.646 4.196-13.314 6.781-19.777 2.234-5.584 4.349-6.255 10.028-3.829 9.169 3.916 18.452 7.124 28.381 8.862 21.252 3.722 31.993-12.781 30.053-30.213-1.628-14.623-10.584-20.052-24.959-22.818-4.847-0.933-9.845-1.279-14.79-1.453-5.137-0.18-7.208-3.15-7.39-7.608-0.271-6.649-0.251-13.323-0.047-19.977 0.127-4.118 2.25-6.757 6.718-7.189 3.942-0.383 7.869-0.987 11.778-1.645 14.4-2.422 23.23-12.478 21.968-24.932-1.146-11.3-7.631-16.969-19.003-17.457-8.327-0.357-15.594 2.162-22.814 5.941-9.79 5.123-11.638 4.286-16.768-5.849-1.803-3.561-3.715-7.069-5.424-10.675-3.601-7.599-2.742-10.284 4.812-14.319 7.677-4.102 16.071-6.256 24.446-8.323 12.855-3.174 25.674-2.754 38.224 1.512 19.359 6.58 30.539 20.284 34.552 40.177 4.204 20.839-3.231 36.969-20.726 49.869z" clip-rule="evenodd" fill="#020202" fill-rule="evenodd"/><path d="m2135.7 257.96c-1e-3 -20.974-0.146-41.95 0.103-62.922 0.063-5.214-1.541-7.175-6.792-6.777-4.966 0.376-9.985 0.19-14.975 0.054-7.813-0.216-9.475-2.436-6.961-9.921 4.435-13.205 9.074-26.344 13.747-39.468 6.898-19.376 13.898-38.715 20.859-58.067 0.672-1.867 1.089-3.899 2.112-5.552 2.419-3.903 6.124-4.004 8.822-0.235 1.132 1.58 1.799 3.542 2.455 5.408 11.015 31.289 22.073 62.563 32.945 93.901 4.575 13.188 3.884 13.941-10.2 13.959-1.998 3e-3 -3.996-0.019-5.993 4e-3 -13.024 0.143-11.392-1.553-11.413 11.932-0.061 38.952-0.021 77.904-0.023 116.86 0 2.663 0.162 5.345-0.093 7.985-0.643 6.663-5.467 11.174-11.722 11.2-6.572 0.027-11.494-3.932-12.573-10.465-0.429-2.601-0.285-5.308-0.288-7.967-0.019-19.975-9e-3 -39.951-0.01-59.926z" clip-rule="evenodd" fill="#020202" fill-rule="evenodd"/><path d="m1596.3 847.24c-1.813 5.885-5.529 8.34-8.464 11.275-139.73 139.79-279.49 279.55-419.25 419.3-102.05 102.05-204.1 204.1-306.15 306.15-1.413 1.414-2.789 2.868-4.25 4.232-6.792 6.338-11.399 6.409-18.11 0.281-1.229-1.122-2.366-2.346-3.544-3.523-242.28-242.28-484.56-484.56-726.8-726.88-3.115-3.116-7.454-5.63-7.816-12.23 498.19 0.887 995.78-1.17 1494.4 1.393zm-874.05 54.489c-11.243-0.195-23.211 0.463-35.077 2.403-12.851 2.1-25.468 4.995-37.04 11.347-10.44 5.731-14.857 13.907-13.743 26.26 3.529 39.137 6.306 78.342 9.313 117.52 2.675 34.867 5.448 69.729 7.771 104.62 0.573 8.618 4.535 14.292 11.446 18.623 5.706 3.577 11.914 5.897 18.381 7.596 21.604 5.674 43.48 5.717 65.439 2.855 10.274-1.34 20.244-3.972 29.496-8.86 8.886-4.696 14.078-11.316 14.324-22.082 0.289-12.628 2.039-25.218 2.998-37.836 4.689-61.77 9.25-123.55 14.068-185.31 0.698-8.963-2.535-15.523-9.548-20.589-6.849-4.947-14.618-7.928-22.677-10.135-17.793-4.871-35.969-6.69-55.151-6.418zm250.46 0.409c-5.995 0-12.024-0.418-17.979 0.077-18.636 1.552-37.084 4.07-53.984 12.976-10.893 5.74-15.476 14.053-14.306 26.888 3.629 39.798 6.364 79.678 9.419 119.53 2.546 33.208 5.555 66.393 7.321 99.643 0.672 12.648 6.971 19.558 17.335 24.294 3.918 1.79 8.041 3.235 12.197 4.381 21.221 5.849 42.822 5.838 64.445 3.322 10.923-1.271 21.626-3.938 31.431-9.295 8.418-4.6 13.45-10.853 13.979-21.25 1.101-21.611 3.38-43.16 5.025-64.745 4.027-52.804 7.861-105.62 12.043-158.41 0.773-9.768-2.723-16.74-10.629-22.018-6.739-4.498-14.172-7.348-21.905-9.462-17.8-4.868-35.988-6.579-54.392-5.926zm0.475 323.29c-43.738-0.106-78.955 34.837-79.019 78.403-0.063 43.783 34.758 78.675 78.585 78.742 43.832 0.066 78.979-34.735 79.084-78.309 0.105-43.592-34.95-78.731-78.65-78.836zm-250.6 157.14c43.88 0.126 79.098-34.608 79.251-78.165 0.154-43.615-34.839-78.81-78.528-78.979-43.769-0.172-79.035 34.705-79.14 78.263-0.104 43.868 34.576 78.754 78.417 78.881z" clip-rule="evenodd" fill="#FE9800" fill-rule="evenodd"/><path d="m1379.1 624.53c35.89-52.149 98.166-65.03 150.73-30.911 2.935-2.954 3.092-7.114 4.27-10.739 17.965-55.284 68.202-91.017 125.88-89.441 57.72 1.576 105.58 39.822 120.53 96.312 2.799 10.576 2.799 10.576 13.488 7.914 73.378-18.277 144.61 35.63 145.44 111.34 0.782 71.265-56.932 119.7-115.49 119.63-125.3-0.158-250.59-0.084-375.89-0.012-19.567 0.012-37.312-6.106-54.159-15.317-20.929-11.441-38.871-26.814-55.99-43.243-18.038-17.31-34.874-35.798-52.525-53.479-109.26-109.44-218.63-218.75-328.01-328.06-9.753-9.746-6.331-9.036-17.656-1.899-50.423 31.778-100.81 63.621-150.97 95.813-6.229 3.996-10.476 4.075-16.747 0.156-39.528-24.699-79.435-48.793-118.98-73.461-6.331-3.949-10.876-4.544-17.749-0.601-70.446 40.42-141.15 80.393-211.79 120.48-2.594 1.472-5.247 2.845-7.93 4.148-0.967 0.471-2.02 0.029-2.548-0.854-0.479-0.803-0.758-1.854 0.04-2.695 2.063-2.173 4.143-4.331 6.261-6.45 103.21-103.23 206.42-206.45 309.64-309.67 35.818-35.821 71.64-71.64 107.46-107.46 1.885-1.885 3.647-3.924 5.708-5.595 4.476-3.63 9.172-3.708 13.606-0.104 2.574 2.09 4.796 4.618 7.151 6.974 169.44 169.44 338.88 338.87 508.3 508.33 2.587 2.587 4.885 5.465 7.929 8.895zm-384.2-272.84c2.865 3.002 4.855 5.171 6.933 7.253 50.13 50.229 100.23 100.49 150.42 150.66 79.875 79.862 159.8 159.67 239.72 239.5 2.12 2.117 4.132 4.401 6.51 6.188 5.808 4.363 13.292 3.859 18.257-0.949 5.192-5.029 5.617-12.968 0.835-19.017-1.643-2.078-3.678-3.852-5.565-5.732-21.712-21.637-43.438-43.26-65.146-64.901-87.775-87.506-175.55-175.01-263.31-262.53-19.347-19.293-38.645-38.634-57.966-57.952-1.412-1.412-2.947-2.722-4.223-4.249-2.113-2.531-4.152-2.6-6.879-0.767-6.066 4.076-12.31 7.884-19.578 12.497zm649.24 389.91c-0.382 3.974-0.759 7.947-1.147 11.921-0.165 1.691-0.318 3.595 1.576 4.259 2.564 0.898 3.457-1.282 4.223-3.071 1.174-2.746 2.381-5.516 3.158-8.388 4.626-17.094 2.871-33.648-4.693-49.581-16.385-34.514-56.254-56.782-94.461-52.351-21.055 2.442-38.881 11.211-51.311 29.115-1.503 2.165-2.729 4.552-3.814 6.957-0.319 0.708-0.014 2.095 0.528 2.71 0.941 1.066 2.325 1.124 3.488 0.088 1.741-1.55 3.419-3.168 5.156-4.722 7.752-6.937 16.507-12.183 25.958-16.581 39.82-18.534 116.24 12.528 111.34 79.644z" clip-rule="evenodd" fill="#fff" fill-rule="evenodd"/><path d="m2025.6 252.3c-23.584-0.062-47.169-0.122-70.753-0.183-0.164-8.975-0.146-17.958-0.57-26.92-0.216-4.555 1.751-5.631 5.847-5.577 12.321 0.163 24.646 0.054 36.97 0.058 3.055 0 6.022 0.193 6.604-4.112 0.729-5.405-0.438-7.161-6.083-7.214-12.322-0.114-24.649-0.178-36.969 0.035-4.52 0.078-6.458-0.953-6.41-6.068 0.25-26.977-0.079-53.958 0.185-80.935 0.178-18.186 16.444-39.66 38.205-37.798 13.194 1.129 26.412 12.162 31.166 27.267 1.806 5.736 2.513 11.676 2.519 17.663 0.039 39.969 0.025 79.937-0.014 119.9-4e-3 1.293-0.455 2.586-0.697 3.879z" clip-rule="evenodd" fill="#fff" fill-rule="evenodd"/><path d="m722.26 901.73c19.182-0.272 37.358 1.547 55.151 6.419 8.059 2.207 15.828 5.188 22.677 10.135 7.013 5.065 10.246 11.626 9.548 20.589-4.818 61.76-9.379 123.54-14.068 185.31-0.959 12.618-2.709 25.208-2.998 37.836-0.246 10.766-5.438 17.386-14.324 22.082-9.252 4.889-19.222 7.521-29.496 8.86-21.959 2.861-43.836 2.818-65.439-2.855-6.467-1.698-12.675-4.019-18.381-7.596-6.911-4.331-10.873-10.005-11.446-18.623-2.322-34.892-5.096-69.753-7.771-104.62-3.007-39.184-5.783-78.389-9.313-117.52-1.114-12.353 3.303-20.528 13.743-26.26 11.572-6.352 24.189-9.247 37.04-11.347 11.866-1.941 23.834-2.599 35.077-2.404z" clip-rule="evenodd" fill="#020202" fill-rule="evenodd"/><path d="m972.71 902.14c18.404-0.652 36.592 1.059 54.394 5.926 7.733 2.114 15.166 4.964 21.905 9.462 7.906 5.277 11.402 12.25 10.629 22.018-4.182 52.791-8.016 105.61-12.043 158.41-1.646 21.585-3.925 43.134-5.025 64.745-0.529 10.397-5.562 16.65-13.979 21.25-9.805 5.357-20.508 8.024-31.431 9.295-21.623 2.516-43.225 2.526-64.445-3.322-4.156-1.146-8.279-2.591-12.197-4.381-10.364-4.736-16.663-11.646-17.335-24.294-1.767-33.25-4.775-66.435-7.321-99.643-3.055-39.85-5.79-79.729-9.419-119.53-1.17-12.835 3.413-21.147 14.306-26.888 16.9-8.905 35.349-11.424 53.984-12.976 5.953-0.495 11.982-0.077 17.977-0.077z" clip-rule="evenodd" fill="#020202" fill-rule="evenodd"/><path d="m973.19 1225.4c43.7 0.105 78.756 35.244 78.65 78.837-0.105 43.573-35.252 78.375-79.084 78.309-43.827-0.067-78.648-34.959-78.585-78.742 0.063-43.567 35.28-78.511 79.019-78.404z" clip-rule="evenodd" fill="#020202" fill-rule="evenodd"/><path d="m722.58 1382.6c-43.841-0.127-78.521-35.013-78.417-78.882 0.104-43.558 35.371-78.435 79.14-78.263 43.689 0.17 78.683 35.364 78.528 78.979-0.153 43.558-35.371 78.292-79.251 78.166z" clip-rule="evenodd" fill="#020202" fill-rule="evenodd"/><path d="m994.9 351.69c7.268-4.613 13.512-8.422 19.576-12.498 2.727-1.833 4.766-1.765 6.879 0.767 1.275 1.527 2.811 2.837 4.223 4.249 19.321 19.318 38.619 38.659 57.966 57.952 87.764 87.518 175.54 175.02 263.31 262.53 21.708 21.642 43.435 43.265 65.146 64.901 1.888 1.881 3.923 3.654 5.565 5.732 4.782 6.049 4.357 13.987-0.835 19.017-4.965 4.809-12.449 5.313-18.257 0.949-2.378-1.786-4.39-4.07-6.51-6.188-79.913-79.825-159.84-159.63-239.72-239.5-50.184-50.176-100.29-100.43-150.42-150.66-2.075-2.081-4.065-4.25-6.931-7.252z" clip-rule="evenodd" fill="#020202" fill-rule="evenodd"/><path d="m1644.1 741.6c4.905-67.115-71.519-98.178-111.34-79.644-9.451 4.398-18.206 9.645-25.958 16.581-1.737 1.554-3.415 3.172-5.156 4.722-1.163 1.036-2.547 0.979-3.488-0.088-0.542-0.615-0.848-2.002-0.528-2.71 1.086-2.405 2.312-4.792 3.814-6.957 12.43-17.904 30.256-26.673 51.311-29.115 38.207-4.432 78.076 17.837 94.461 52.351 7.564 15.933 9.319 32.487 4.693 49.581-0.777 2.872-1.984 5.642-3.158 8.388-0.766 1.789-1.658 3.97-4.223 3.071-1.895-0.664-1.741-2.567-1.576-4.259 0.388-3.974 0.765-7.948 1.147-11.921z" clip-rule="evenodd" fill="#020202" fill-rule="evenodd"/><path d="m1936.3 276.42c1e-3 -50.628-0.089-101.26 0.044-151.88 0.054-20.254 8.086-37.066 24.455-48.982 26.163-19.047 61.668-8.555 76.109 21.96 4.185 8.844 6.141 18.081 6.128 27.971-0.128 99.59-0.021 199.18-0.197 298.77-0.013 7.073 1.861 11.948 7.072 17.237 22.296 22.628 29.932 50.112 21.352 80.691-9.042 32.223-31.017 52.941-63.734 59.223-36.219 6.955-69.14-7.507-88.407-40.175-17.738-30.074-13.759-69.381 9.871-95.611 5.178-5.747 7.586-11.338 7.519-19.318-0.419-49.959-0.213-99.922-0.212-149.88zm65.826-56.403h-47.763c0.063 11.569-0.405 21.99 0.209 32.247h71.727v-11.481c0-34.643 0.09-69.285-0.074-103.93-0.033-6.939-0.588-13.944-1.674-20.798-2.677-16.897-17.484-31.325-32.322-32.046-19.799-0.961-37.591 15.991-37.85 36.852-0.338 27.31-0.1 54.627-0.024 81.941 5e-3 1.846 9e-3 5.476 9e-3 6.101 12.416 0 32.142 4e-3 47.763 4e-3 -1e-3 2.918-1e-3 8.356-1e-3 11.107z" clip-rule="evenodd" fill-rule="evenodd"/><path d="m2026.3 439.86c0.012-6.266-6e-3 -12.531 0-18.797h-71.936c0.025 6.806-0.059 13.612 0 20.418 0.053 6.32-8.288 10.749-12.39 15.3-18.715 20.774-21.867 51.905-7.817 75.724 15.26 25.873 41.332 37.327 70.018 31.818 25.913-4.975 43.316-21.384 50.479-46.904 6.794-24.219 0.748-45.986-16.911-63.908-4.128-4.188-11.453-8.049-11.443-13.651z" clip-rule="evenodd" fill="#E32322" fill-rule="evenodd"/><path d="m1954.4 389.79c0 4.81-0.098 27.288 0 40.541h71.936v-178.06h-71.936v41.53h47.763v11.107h-47.763v73.778h47.763v11.107h-47.763z" clip-rule="evenodd" fill="#E32322" fill-rule="evenodd"/></svg>
