<?xml version="1.0" encoding="UTF-8"?>
<svg viewBox="0 0 2199.2 1626.2" xmlns="http://www.w3.org/2000/svg"><path d="m-867.73-198.72c1170.7-1e-3 2341.3-1e-3 3512-1e-3 1e-3 826.67 1e-3 1653.3 2e-3 2480-1170.7 1e-3 -2341.3 1e-3 -3512 2e-3 0-826.67 0-1653.3-1e-3 -2480zm2067.8 587.01c-3.027-3.66-5.345-6.977-8.161-9.795-110.73-110.81-221.51-221.58-332.29-332.35-2.356-2.356-4.604-4.849-7.146-6.987-10.502-8.835-24.227-8.758-34.69 0.186-2.527 2.16-4.778 4.645-7.135 7.001-249.6 249.59-499.19 499.18-748.78 748.78-2.121 2.12-4.41 4.104-6.317 6.403-7.907 9.528-7.65 23.66 0.529 33 1.534 1.752 3.262 3.335 4.912 4.984 250.77 250.77 501.54 501.54 752.31 752.31 1.649 1.649 3.226 3.383 4.969 4.928 9.834 8.72 22.391 9.288 32.829 1.324 3.158-2.409 6.045-5.212 8.861-8.028 249.37-249.33 498.72-498.69 748.07-748.04 2.121-2.121 4.355-4.15 6.283-6.437 4.207-4.987 6.318-10.609 6.383-17.365 0.084-8.82-4.08-15.118-9.932-20.951-26.675-26.59-53.293-53.237-79.907-79.888-2.521-2.524-4.872-5.219-7.838-8.411 35.077-31.104 49.071-69.539 38.493-114.47-10.738-45.604-41.364-73.017-87.22-84.564 19.06-44.162 11.604-83.33-25.987-112.8-37.357-29.283-77.082-25.312-115.25 0.708-34.281-47.365-96.352-47.986-132.98-9.537zm-1099.8-188.68c13.565-16.752 26.492-31.528 38.065-47.299 15.349-20.915 24.096-44.368 21.434-70.842-2.07-20.592-11.284-37.437-31.048-45.276-26.839-10.646-52.898-6.309-77.308 8.526-5.569 3.385-6.46 6.724-3.815 12.628 1.897 4.234 4.294 8.25 6.561 12.312 5.097 9.135 7.672 9.869 16.39 4.556 8.656-5.275 17.794-8.965 28.115-8.918 12.786 0.059 21.769 7.515 22.955 20.157 0.645 6.865 0.096 13.943-0.74 20.825-1.828 15.042-9.466 27.701-18.62 39.157-13.055 16.337-26.597 32.337-40.774 47.702-7.978 8.646-12.493 17.52-11.06 29.453 0.947 7.879 3.025 10.898 10.983 10.939 29.294 0.154 58.591 0.14 87.886-3e-3 6.761-0.033 9.731-2.862 10.379-9.532 0.448-4.617 0.447-9.339 0.054-13.964-0.601-7.048-3.852-10.083-10.882-10.354-6.315-0.244-12.648-0.064-18.974-0.066-9.523-3e-3 -19.047-1e-3 -29.601-1e-3zm2077.2-40.252c-1.53-6.391-2.166-10.586-3.538-14.525-8.964-25.734-18.089-51.411-27.155-77.11-2.211-6.268-4.119-12.664-6.744-18.752-0.911-2.111-3.512-4.717-5.447-4.808-1.812-0.084-3.864 2.764-5.602 4.526-0.62 0.628-0.59 1.872-0.922 2.812-11.411 32.27-22.888 64.516-34.21 96.815-3.239 9.243-1.75 11.08 8.145 11.293 6.483 0.14 12.968 0.314 19.917 0.485v12.272c0 38.625-0.012 77.25 0.023 115.88 3e-3 3.315-0.094 6.719 0.582 9.929 1.256 5.965 6.272 9.5 12.435 9.376 5.79-0.116 10.642-4.41 11.442-10.453 0.348-2.623 0.171-5.319 0.172-7.981 8e-3 -39.291 5e-3 -78.582 6e-3 -117.87v-11.881h30.896z" clip-rule="evenodd" fill="none" fill-rule="evenodd"/><path d="m1200.1 388.29c36.634-38.449 98.704-37.828 132.99 9.537 38.171-26.02 77.896-29.991 115.25-0.708 37.592 29.468 45.047 68.636 25.987 112.8 45.855 11.548 76.481 38.961 87.22 84.564 10.578 44.931-3.416 83.365-38.493 114.47 2.966 3.192 5.317 5.887 7.838 8.411 26.614 26.65 53.232 53.298 79.907 79.888 5.852 5.833 10.016 12.131 9.932 20.951-0.064 6.756-2.176 12.378-6.383 17.365-1.928 2.286-4.162 4.315-6.283 6.437-249.35 249.35-498.7 498.71-748.07 748.04-2.816 2.816-5.703 5.619-8.861 8.028-10.438 7.964-22.995 7.396-32.829-1.324-1.743-1.545-3.319-3.278-4.969-4.928-250.77-250.77-501.54-501.54-752.31-752.31-1.65-1.649-3.377-3.232-4.912-4.984-8.179-9.34-8.437-23.472-0.529-33 1.908-2.299 4.196-4.283 6.317-6.403 249.59-249.59 499.18-499.19 748.78-748.78 2.356-2.356 4.607-4.841 7.135-7.001 10.464-8.943 24.188-9.021 34.69-0.186 2.542 2.139 4.79 4.631 7.146 6.987 110.78 110.77 221.56 221.54 332.29 332.35 2.817 2.818 5.134 6.135 8.162 9.795zm-1111.8 431.62c3.413 3.73 6.334 7.186 9.523 10.374 241.32 241.35 482.65 482.69 723.99 724.02 12.711 12.71 14.206 12.691 27.209-0.312l723.31-723.31c1.886-1.886 3.916-3.653 5.597-5.707 1.326-1.62 2.218-3.597 3.456-5.675-11.703-2.126-1484.7-1.693-1493.1 0.612zm914.38-511.76c4.937 4.379 9.587 8.092 13.771 12.272 120.22 120.14 240.4 240.33 360.58 360.52 2.121 2.121 4.193 4.295 6.376 6.351 22.633 21.32 49.327 31.345 80.395 27.605 46.846-5.639 82.407-46.02 82.626-93.124 0.225-48.34-34.117-88.293-81.611-94.872-6.479-0.897-12.997-1.511-20.996-2.427 3.224-4.724 5.736-8.502 8.347-12.212 8.672-12.323 13.443-26.018 13.873-41.055 0.879-30.766-17.952-58.989-46.703-70.408-29.02-11.526-61.116-3.982-82.147 19.291-2.764 3.058-5.59 6.06-9.245 10.017-12.466-32.974-33.485-52.699-68.72-50.904-30.846 1.571-49.663 19.798-60.136 49.146-3.353-3.201-6.224-5.834-8.976-8.585-114.31-114.29-228.6-228.59-342.9-342.87-10.325-10.324-13.417-10.478-22.969-0.933-142.16 142.05-284.3 284.12-426.42 426.2-1.874 1.873-3.466 4.029-5.189 6.054 0.403 0.423 0.807 0.846 1.21 1.269 78.695-44.642 157.39-89.284 236.44-134.13 45.61 27.979 90.976 55.806 136.34 83.634 78.656-50.262 156.68-100.12 236.06-150.84z" clip-rule="evenodd" fill-rule="evenodd"/><path d="m2029.9 246.64c0 50.332 0.096 100.66-0.13 150.99-0.026 5.796 1.643 9.691 5.81 13.78 23.174 22.735 30.526 50.641 22.304 81.495-8.516 31.949-30.303 52.694-62.587 59.221-52.191 10.552-92.592-24.893-99.357-67.938-4.079-25.948 2.799-48.809 20.299-68.197 4.824-5.345 6.487-10.679 6.474-17.716-0.193-99.995-0.114-199.99-0.152-299.99-5e-3 -13.327 3.091-25.839 10.548-36.839 11.257-16.604 26.912-25.909 47.364-24.201 20.415 1.705 34.191 13.717 43.124 31.447 4.526 8.983 6.403 18.731 6.372 28.947-0.151 49.665-0.069 99.33-0.069 148.99zm-88.797-23.417h70.389c0.478-1.333 0.883-1.938 0.884-2.542 0.066-41.295 0.189-82.59 0.065-123.88-0.025-8.752-2.413-17.068-7.082-24.624-13.914-22.515-42.092-23.369-57.071-1.611-4.995 7.256-7.811 15.265-7.764 24.283 0.132 25.312 0.03 50.624 0.071 75.936 4e-3 2.581 0.343 5.161 0.608 8.891h48.798c-0.367 4.354-0.627 7.436-0.966 11.471h-47.933c1e-3 11.193 1e-3 21.34 1e-3 32.08z" clip-rule="evenodd" display="none" fill-rule="evenodd"/><path d="m100.34 199.62c10.555 0 20.078-2e-3 29.602 1e-3 6.325 2e-3 12.658-0.178 18.974 0.066 7.03 0.271 10.281 3.307 10.882 10.354 0.394 4.625 0.395 9.347-0.054 13.964-0.647 6.67-3.618 9.499-10.379 9.532-29.295 0.143-58.592 0.157-87.886 3e-3 -7.958-0.041-10.036-3.061-10.983-10.939-1.434-11.934 3.082-20.807 11.06-29.453 14.177-15.365 27.72-31.365 40.774-47.702 9.154-11.456 16.792-24.115 18.62-39.157 0.836-6.882 1.385-13.96 0.74-20.825-1.187-12.643-10.169-20.099-22.955-20.157-10.321-0.047-19.459 3.643-28.115 8.918-8.717 5.313-11.292 4.579-16.39-4.556-2.267-4.062-4.664-8.077-6.561-12.312-2.645-5.904-1.754-9.243 3.815-12.628 24.409-14.835 50.469-19.172 77.308-8.526 19.764 7.84 28.978 24.685 31.048 45.276 2.662 26.474-6.085 49.927-21.434 70.842-11.574 15.771-24.501 30.547-38.066 47.299z" clip-rule="evenodd" fill-rule="evenodd"/><path d="m2177.5 159.36h-30.896v11.881c-1e-3 39.291 2e-3 78.582-6e-3 117.87-1e-3 2.662 0.176 5.358-0.172 7.981-0.801 6.043-5.652 10.337-11.442 10.453-6.162 0.124-11.179-3.411-12.435-9.376-0.676-3.21-0.579-6.613-0.582-9.929-0.035-38.625-0.023-77.25-0.023-115.88v-12.272c-6.949-0.171-13.434-0.346-19.917-0.485-9.895-0.213-11.384-2.05-8.145-11.293 11.322-32.3 22.799-64.546 34.21-96.815 0.332-0.939 0.302-2.184 0.922-2.812 1.737-1.763 3.79-4.61 5.602-4.526 1.936 0.091 4.536 2.696 5.447 4.808 2.625 6.088 4.533 12.484 6.744 18.752 9.066 25.699 18.191 51.376 27.155 77.11 1.372 3.939 2.008 8.135 3.538 14.525z" clip-rule="evenodd" fill-rule="evenodd"/><path d="m88.31 819.92c8.349-2.305 1481.4-2.738 1493.1-0.611-1.238 2.078-2.13 4.055-3.456 5.675-1.681 2.054-3.711 3.821-5.597 5.707-241.1 241.1-482.21 482.21-723.31 723.31-13.003 13.003-14.498 13.021-27.209 0.312-241.34-241.33-482.67-482.67-723.99-724.02-3.187-3.189-6.109-6.644-9.522-10.375zm741.63 379.69c22.979-1.195 40.552-2.354 57.118-9.481 11.676-5.021 18.64-12.833 19.228-26.407 0.95-21.943 2.909-43.845 4.551-65.756 1.615-21.576 3.41-43.139 5.046-64.713 2.289-30.208 4.333-60.435 6.844-90.624 0.851-10.229-3.021-17.729-11.576-22.462-6.638-3.674-13.693-7.124-20.993-8.981-36.146-9.2-72.507-9.357-108.65-0.084-7.913 2.03-15.569 5.836-22.698 9.943-8.145 4.692-11.585 12.335-10.478 22.038 1.056 9.254 1.49 18.58 2.195 27.874 3.17 41.823 6.322 83.647 9.514 125.47 1.849 24.23 3.842 48.45 5.586 72.688 0.469 6.526 3.307 11.771 8.546 15.039 5.865 3.659 12.126 7.472 18.728 8.998 13.868 3.207 28.073 4.961 37.042 6.459zm5.068 28.791c-43.948 0.157-79.366 35.742-78.905 79.669 0.438 41.744 32.897 78.782 79.995 78.895 43.961 0.105 78.664-35.947 78.787-79.983 0.121-43.216-36.574-79.933-79.877-78.581z" clip-rule="evenodd" fill="#ff0" fill-rule="evenodd"/><path d="m1002.7 308.15c-79.38 50.722-157.4 100.58-236.06 150.84-45.367-27.828-90.732-55.655-136.34-83.634-79.048 44.842-157.74 89.484-236.44 134.13-0.403-0.423-0.807-0.846-1.21-1.269 1.724-2.024 3.315-4.181 5.189-6.054 142.12-142.08 284.27-284.15 426.42-426.2 9.552-9.545 12.644-9.392 22.969 0.933 114.31 114.29 228.6 228.59 342.9 342.87 2.752 2.751 5.623 5.384 8.976 8.585 10.473-29.349 29.29-47.575 60.136-49.146 35.234-1.795 56.254 17.931 68.72 50.904 3.655-3.957 6.481-6.959 9.245-10.017 21.031-23.273 53.128-30.817 82.147-19.291 28.751 11.419 47.582 39.643 46.703 70.408-0.43 15.037-5.201 28.731-13.873 41.055-2.61 3.71-5.123 7.488-8.347 12.212 7.999 0.916 14.518 1.529 20.996 2.427 47.494 6.579 81.836 46.532 81.611 94.872-0.219 47.104-35.78 87.485-82.626 93.124-31.067 3.739-57.762-6.285-80.395-27.605-2.183-2.056-4.255-4.229-6.376-6.351-120.18-120.18-240.36-240.37-360.58-360.52-4.183-4.181-8.833-7.894-13.77-12.273zm371.79 313.38c15.996 2.96 30.33-3.506 39.471-17.223 13.104-19.664 14.355-40.414 3.014-61.312-7.221-13.306-19.721-20.711-33.132-19.405 15.068 6.944 26.206 16.047 30.583 31.066 4.158 14.268 3.091 28.34-3.472 41.744-6.906 14.105-20.258 19.971-36.464 25.13z" clip-rule="evenodd" fill="#fff" fill-rule="evenodd"/><path d="m1941.1 223.22v-32.081h47.933c0.339-4.035 0.599-7.116 0.966-11.471h-48.798c-0.266-3.729-0.604-6.31-0.608-8.891-0.041-25.312 0.061-50.624-0.071-75.936-0.047-9.019 2.769-17.027 7.764-24.283 14.979-21.758 43.157-20.903 57.071 1.611 4.669 7.556 7.057 15.872 7.082 24.624 0.124 41.294 1e-3 82.589-0.065 123.88-1e-3 0.604-0.406 1.209-0.884 2.542-23.111 1e-3 -46.482 1e-3 -70.39 1e-3z" clip-rule="evenodd" fill="#fff" fill-rule="evenodd"/><path d="m829.94 1199.6c-8.969-1.498-23.174-3.253-37.044-6.46-6.602-1.526-12.862-5.339-18.728-8.998-5.239-3.269-8.077-8.513-8.546-15.039-1.744-24.237-3.737-48.457-5.586-72.688-3.191-41.821-6.344-83.646-9.514-125.47-0.705-9.294-1.14-18.62-2.195-27.874-1.107-9.703 2.333-17.346 10.478-22.038 7.129-4.107 14.785-7.913 22.698-9.943 36.146-9.273 72.507-9.116 108.65 0.084 7.3 1.857 14.355 5.308 20.993 8.981 8.555 4.733 12.427 12.232 11.576 22.462-2.511 30.189-4.555 60.416-6.844 90.624-1.636 21.574-3.431 43.137-5.046 64.713-1.642 21.911-3.601 43.813-4.551 65.756-0.588 13.574-7.552 21.386-19.228 26.407-16.565 7.128-34.138 8.287-57.116 9.482z" clip-rule="evenodd" fill-rule="evenodd"/><path d="m835.01 1228.4c43.303-1.352 79.998 35.365 79.877 78.58-0.123 44.036-34.826 80.089-78.787 79.983-47.098-0.112-79.558-37.15-79.995-78.895-0.461-43.926 34.957-79.511 78.905-79.668z" clip-rule="evenodd" fill-rule="evenodd"/><path d="m1374.5 621.53c16.205-5.159 29.558-11.025 36.464-25.129 6.563-13.404 7.63-27.477 3.472-41.744-4.377-15.02-15.515-24.122-30.583-31.066 13.411-1.306 25.911 6.1 33.132 19.405 11.342 20.897 10.091 41.647-3.014 61.312-9.14 13.716-23.474 20.182-39.471 17.222z" clip-rule="evenodd" fill-rule="evenodd"/><path d="m1922.7 247.63c1e-3 -50.628-0.089-101.26 0.044-151.88 0.054-20.254 8.086-37.066 24.455-48.982 26.163-19.047 61.668-8.555 76.109 21.96 4.185 8.844 6.141 18.081 6.128 27.971-0.128 99.59-0.021 199.18-0.197 298.77-0.013 7.073 1.861 11.948 7.072 17.237 22.296 22.628 29.932 50.112 21.352 80.691-9.042 32.223-31.017 52.941-63.734 59.223-36.219 6.955-69.14-7.507-88.407-40.175-17.738-30.074-13.759-69.381 9.871-95.611 5.178-5.747 7.586-11.338 7.519-19.318-0.419-49.959-0.213-99.922-0.212-149.88zm65.827-56.402h-47.763c0.063 11.569-0.405 21.99 0.209 32.247h71.727v-11.481c0-34.643 0.09-69.285-0.074-103.93-0.033-6.939-0.588-13.944-1.674-20.798-2.677-16.897-17.484-31.325-32.322-32.046-19.799-0.961-37.591 15.991-37.85 36.852-0.338 27.31-0.1 54.627-0.024 81.941 5e-3 1.846 9e-3 5.476 9e-3 6.101 12.416 0 32.142 4e-3 47.763 4e-3 -1e-3 2.917-1e-3 8.355-1e-3 11.107z" clip-rule="evenodd" fill-rule="evenodd"/><path d="m2012.7 411.06c0.012-6.266-6e-3 -12.531 0-18.797h-71.936c0.025 6.806-0.059 13.612 0 20.418 0.053 6.32-8.288 10.749-12.39 15.3-18.715 20.774-21.867 51.905-7.817 75.724 15.26 25.873 41.332 37.327 70.018 31.818 25.913-4.975 43.316-21.384 50.479-46.904 6.794-24.219 0.748-45.986-16.911-63.908-4.127-4.189-11.452-8.049-11.443-13.651z" clip-rule="evenodd" fill="#E32322" fill-rule="evenodd"/><path d="m1940.8 360.99c0 4.81-0.098 27.288 0 40.541h71.936v-178.06h-71.936v41.53h47.763v11.107h-47.763v73.778h47.763v11.107h-47.763z" clip-rule="evenodd" fill="#E32322" fill-rule="evenodd"/></svg>
