<?xml version="1.0" encoding="UTF-8"?>
<svg viewBox="0 0 2452 1776" xmlns="http://www.w3.org/2000/svg"><path d="m2730 2398h-3511.8v-2479.7h3511.8v2479.7zm-1157.8-1777.2c-6.687-3.495-12.723-6.829-18.911-9.85-14.574-7.111-30.294-10.723-46.23-10.307-28.078 0.734-53.187 10.36-74.39 29.361-3.103 2.78-5.542 8.425-9.724 7.439-3.632-0.855-6.432-5.45-9.491-8.501-157.15-156.75-313.44-314.37-471.39-470.33-1.186-1.17-2.355-2.356-3.543-3.524-3.47-3.413-7.672-4.864-12.492-5.489-10.28-1.333-17.526 3.266-24.522 10.248-205.48 205.07-409.91 411.18-616.18 615.46-46.655 46.204-92.903 92.819-139.32 139.27-13.325 13.335-13.432 26.696-0.227 39.779 52.784 52.301 105.35 104.82 157.99 157.26 198.36 197.6 396.11 395.8 594.09 593.78 2.356 2.357 4.689 4.738 7.084 7.057 11.446 11.087 24.775 11.157 36.14-0.059 21.572-21.291 43.307-42.428 64.75-63.839 225.51-225.18 450.79-450.59 676.16-675.92 5.882-5.882 11.559-11.968 18.051-17.242 4.984-4.05 9.127-8.991 9.852-15.676 0.457-4.22 2.268-5.786 6.372-5.366 2.31 0.236 4.662 0.042 6.995 0.042 146.99 0 293.98-0.041 440.98 0.025 43.419 0.02 80.185-15.312 111-45.991 55.951-55.712 61.833-149.94 6.405-211.55-6.218-6.911-13.557-12.563-19.988-19.54 1.763-1.496-112.28-118.68-121.21-119.25-10.96-0.701-21.888-1.081-32.682 2.021-8.574 2.464-8.775 2.234-11.504-6.846-7.529-25.055-20.552-46.676-39.364-64.947-36.959-35.897-81.465-49.872-131.55-41.396-54.218 9.177-92.851 40.488-115.48 90.934-3.385 7.545-3.311 7.607-10.511 4.104-31.646-15.394-64.604-20.745-99.53-14.386-48.75 8.876-85.366 34.876-111.24 76.713-6.987 11.299-11.478 23.75-16.373 36.507zm777.45-272.34c0 22.304-5e-3 44.607 8e-3 66.911 1e-3 2.661-0.183 5.363 0.204 7.975 1.079 7.296 8.484 11.52 15.556 9.064 6.682-2.32 8.877-5.704 8.896-14.72 0.068-30.959 0.026-61.918 0.027-92.877 0-14.98 9e-3 -29.961-4e-3 -44.94-8e-3 -10.369-0.619-9.453 9.908-9.468 4.993-7e-3 9.993 0.162 14.979-0.043 8.016-0.331 9.069-2.152 7.049-9.874-2.281-8.713-6.612-16.596-9.613-24.992-8.596-24.048-16.904-48.197-25.35-72.299-0.657-1.877-1.309-3.799-2.293-5.511-2.739-4.765-7.339-4.813-9.893-0.114-0.779 1.434-1.047 3.138-1.601 4.699-7.432 20.94-14.869 41.879-22.31 62.815-4.221 11.875-8.637 23.686-12.605 35.644-2.205 6.645-0.166 9.271 6.832 9.629 4.316 0.221 8.654-0.021 12.98 0.06 7.034 0.132 7.181 0.172 7.201 7.135 0.072 23.635 0.029 47.271 0.029 70.906z" clip-rule="evenodd" display="none" fill="#fff" fill-rule="evenodd"/><path d="m1572.2 620.74c4.895-12.757 9.386-25.208 16.372-36.507 25.871-41.837 62.487-67.837 111.24-76.713 34.926-6.359 67.884-1.008 99.53 14.386 7.2 3.503 7.126 3.44 10.511-4.104 22.633-50.445 61.266-81.757 115.48-90.934 50.086-8.477 94.592 5.498 131.55 41.396 18.813 18.271 31.835 39.893 39.364 64.947 2.729 9.08 2.93 9.31 11.504 6.846 10.794-3.102 21.722-2.722 32.682-2.021 8.933 0.571 165.58 83.91 125.96 115.23-1.531 1.211-2.984 2.52-4.747 4.016 6.432 6.977 13.771 12.629 19.988 19.54 55.428 61.609 49.546 155.84-6.405 211.55-30.811 30.68-67.576 46.011-111 45.991-146.99-0.066-293.98-0.025-440.98-0.025-2.333 0-4.686 0.194-6.995-0.042-4.104-0.42-5.915 1.146-6.372 5.366-0.725 6.685-4.867 11.626-9.852 15.676-6.492 5.274-12.169 11.36-18.051 17.242-225.36 225.33-450.64 450.74-676.16 675.92-21.443 21.411-43.178 42.548-64.75 63.839-11.364 11.216-24.693 11.146-36.14 0.059-2.395-2.318-4.728-4.699-7.084-7.057-197.98-197.98-395.73-396.19-594.09-593.78-52.643-52.439-105.21-104.96-157.99-157.26-13.205-13.083-13.098-26.444 0.227-39.779 46.413-46.449 92.661-93.064 139.32-139.27 206.27-204.27 410.7-410.39 616.18-615.46 6.996-6.982 14.242-11.581 24.522-10.248 4.82 0.625 9.022 2.076 12.492 5.489 1.188 1.168 2.357 2.354 3.543 3.524 157.95 155.95 314.24 313.57 471.39 470.33 3.06 3.051 5.859 7.646 9.491 8.501 4.182 0.985 6.621-4.659 9.724-7.439 21.203-19.001 46.312-28.627 74.39-29.361 15.937-0.416 31.656 3.195 46.23 10.307 6.19 3.02 12.226 6.354 18.912 9.849zm-1094.8 3.914c0.79 0.74 1.581 1.479 2.372 2.22 4.343-2.389 8.715-4.727 13.025-7.175 72.361-41.093 144.76-82.118 216.99-123.45 6.031-3.452 10.244-3.159 15.986 0.419 40.124 25.002 80.544 49.531 120.66 74.539 5.59 3.484 9.438 3.596 15.072-0.065 28.753-18.689 57.905-36.765 86.745-55.322 4.494-2.892 7.124-2.551 10.858 1.208 14.781 14.879 30.057 29.266 44.897 44.088 76.4 76.299 152.73 152.67 229.05 229.05 5.411 5.416 10.587 11.077 15.714 16.767 31.198 34.625 65.45 65.521 107.08 87.316 26.305 13.772 53.971 22.154 84.068 22.139 241.28-0.131 482.57-0.068 723.85-0.093 8.322-1e-3 16.62-0.153 24.865-1.838 57.052-11.655 94.464-45.658 108.95-101.56 14.558-56.192-2.934-103.64-47.076-141.33-4.743-4.05-9.107-4.863-15.278-3.335-58.878 14.585-112.12-35.566-101.48-95.372 0.978-5.494 2.563-10.882 3.921-16.55-18.793-3.294-35.038 2.974-51.75 12.822-4.117-35.082-16.867-65.151-42.035-89.088-25.248-24.012-55.601-37.677-90.177-37.063-72.683 1.291-116.77 40.487-137.07 109.57-45.73-31.987-94.77-39.483-145.94-17.483-51.377 22.091-78.656 63.568-87.05 120.08-24.714-26.313-53.206-40.23-88.393-35.072-35.386 5.188-59.471 25.804-74.279 57.81-4.021-1.894-6.154-4.982-8.707-7.536-60.077-60.104-120.1-120.27-180.16-180.38-58.89-58.938-117.76-117.9-176.76-176.72-39.869-39.755-80.11-79.139-119.82-119.05-11.264-11.32-15.378-10.345-25.953 0.249-141.03 141.28-282.22 282.4-423.43 423.51-2.575 2.573-5.816 4.48-8.747 6.699zm-302.68 310.47c0.685 5.539 4.656 7.912 7.625 10.864 40.886 40.64 81.758 81.297 122.57 122.01 201.52 201 402.63 402.4 603.89 603.65 2.356 2.356 4.63 4.817 7.167 6.965 4.097 3.47 8.533 3.446 12.827 0.354 1.878-1.353 3.505-3.069 5.167-4.701 22.352-21.936 44.608-43.977 66.764-66.101 221.22-220.91 442.18-442.09 663.18-663.24 2.492-2.495 7.187-4.751 5.877-8.549-1.469-4.261-6.458-1.947-9.788-1.955-77.992-0.186-155.98-0.248-233.98-0.251-413.63-0.015-827.26-9e-3 -1240.9 0.025-3.256 1e-3 -6.606-0.657-10.412 0.93z" clip-rule="evenodd" fill-rule="evenodd"/><path d="m174.84 492.99c12.119-7.3 24.232-8.407 36.814-4.35 16.636 5.365 26.806 17.301 31.084 33.564 6.39 24.29 6.195 48.839-3.378 72.35-8.036 19.736-24.409 29.065-44.991 31.418-20.005 2.286-39.038-1.29-56.986-10.449-6.896-3.52-7.581-5.086-5.229-12.444 1.716-5.366 3.521-10.716 5.568-15.963 3.333-8.549 4.395-8.902 13.317-5.507 7.427 2.827 14.716 6.099 22.635 7.397 3.264 0.536 6.565 1.253 9.844 1.229 11.817-0.087 19.273-5.82 22.545-17.248 3.071-10.729 3.309-21.776 1.463-32.609-2.98-17.496-18.205-24.987-32.469-14.449-11.639 8.599-20.465 6.974-31.208 0.048-5.597-3.608-8.588-7.146-8.313-14.119 1.035-26.21 2.821-52.392 2.876-78.645 0.019-8.897 3.127-11.504 12.403-11.532 24.31-0.074 48.63 0.368 72.924-0.247 8.101-0.205 12.561 4.665 11.987 12.043-0.283 3.641 0.076 7.327-0.076 10.984-0.364 8.753-2.71 11.114-11.506 11.192-13.319 0.117-26.641-0.014-39.961 0.047-8.331 0.038-8.88 0.145-8.364 8.051 0.623 9.483-2.606 18.837-0.979 29.239z" clip-rule="evenodd" fill-rule="evenodd"/><path d="m165.33 274.32h14.429c14.356 0 14.265-0.011 15.945-14.797 1.158-10.189 2.442-20.371 3.997-30.506 1.202-7.841 3.067-9.194 11.208-9.349 3.663-0.068 7.331-0.1 10.992 7e-3 7.734 0.227 10.22 2.436 10.379 10.098 0.229 10.988 0.06 21.985 0.061 32.979 0 2.332 0.137 4.673-0.025 6.993-0.245 3.505 1.438 4.384 4.708 4.647 16.655 1.343 16.648 1.434 16.647 17.933 0 1.999 0.048 3.999-8e-3 5.996-0.252 8.989-2.391 11.171-11.095 11.36-1.331 0.028-2.681 0.137-3.994-0.019-4.618-0.547-6.564 1.012-6.344 6.059 0.395 8.977 0.208 17.985 0.083 26.978-0.131 9.463-2.265 11.481-11.976 11.634-5.329 0.084-10.662 0.095-15.99-3e-3 -8.896-0.163-11.753-2.904-11.979-12.008-0.217-8.655-0.31-17.332 0.05-25.979 0.211-5.062-1.128-6.904-6.557-6.788-16.649 0.357-33.311 0.182-49.967 0.11-9.772-0.042-11.188-1.827-11.637-11.688-0.597-13.104 1.322-25.573 5.672-38.072 11.132-31.983 21.436-64.255 32.093-96.403 3.746-11.301 4.437-11.789 16.253-11.84 6.996-0.031 13.993-0.097 20.987 0.018 9.098 0.148 10.477 2.224 7.219 11.088-10.301 28.035-20.684 56.04-31.03 84.059-3.198 8.665-6.382 17.336-10.121 27.493z" clip-rule="evenodd" fill-rule="evenodd"/><path d="m2349.7 348.4c0-23.636 0.043-47.271-0.027-70.906-0.021-6.963-0.167-7.003-7.201-7.135-4.326-0.081-8.664 0.161-12.98-0.06-6.998-0.357-9.037-2.984-6.832-9.629 3.969-11.958 8.385-23.769 12.605-35.644 7.44-20.937 14.878-41.875 22.31-62.815 0.554-1.562 0.821-3.266 1.601-4.699 2.554-4.699 7.153-4.65 9.893 0.114 0.984 1.712 1.636 3.634 2.293 5.511 8.445 24.102 16.754 48.251 25.35 72.299 3.001 8.396 7.332 16.279 9.613 24.992 2.021 7.722 0.967 9.543-7.049 9.874-4.985 0.205-9.985 0.036-14.979 0.043-10.527 0.015-9.916-0.901-9.908 9.468 0.013 14.979 4e-3 29.96 4e-3 44.94-1e-3 30.959 0.041 61.918-0.027 92.877-0.02 9.016-2.215 12.399-8.896 14.72-7.071 2.455-14.477-1.769-15.556-9.064-0.387-2.611-0.203-5.313-0.204-7.975-0.015-22.303-0.01-44.607-0.01-66.911z" clip-rule="evenodd" fill-rule="evenodd"/><path d="m477.37 624.66c2.931-2.219 6.172-4.126 8.747-6.699 141.21-141.11 282.4-282.23 423.43-423.51 10.575-10.594 14.689-11.569 25.953-0.249 39.713 39.911 79.954 79.295 119.82 119.05 58.998 58.829 117.87 117.79 176.76 176.72 60.067 60.114 120.09 120.28 180.16 180.38 2.553 2.554 4.687 5.643 8.707 7.536 14.809-32.006 38.894-52.622 74.279-57.81 35.187-5.158 63.679 8.76 88.393 35.072 8.394-56.51 35.673-97.987 87.05-120.08 51.168-22 100.21-14.504 145.94 17.483 20.293-69.085 64.385-108.28 137.07-109.57 34.576-0.614 64.929 13.051 90.177 37.063 25.168 23.937 37.918 54.006 42.035 89.088 16.712-9.849 32.957-16.116 51.75-12.822-1.357 5.668-2.943 11.056-3.921 16.55-10.643 59.806 42.603 109.96 101.48 95.372 6.171-1.528 10.535-0.715 15.278 3.335 44.143 37.687 61.634 85.136 47.076 141.33-14.482 55.902-51.895 89.905-108.95 101.56-8.245 1.685-16.543 1.837-24.865 1.838-241.28 0.024-482.57-0.038-723.85 0.093-30.098 0.016-57.764-8.366-84.068-22.139-41.629-21.796-75.881-52.691-107.08-87.316-5.127-5.689-10.303-11.351-15.714-16.767-76.316-76.384-152.65-152.75-229.05-229.05-14.841-14.822-30.116-29.209-44.897-44.088-3.734-3.759-6.364-4.1-10.858-1.208-28.84 18.558-57.992 36.633-86.745 55.322-5.634 3.661-9.482 3.55-15.072 0.065-40.12-25.008-80.54-49.537-120.66-74.539-5.742-3.578-9.955-3.871-15.986-0.419-72.226 41.332-144.63 82.357-216.99 123.45-4.311 2.448-8.683 4.786-13.025 7.175-0.794-0.74-1.585-1.48-2.375-2.22zm592.08-184.83c2.223 2.349 3.542 3.811 4.933 5.202 116.35 116.44 232.7 232.87 349.06 349.29 13.19 13.197 26.508 26.269 39.676 39.487 4.522 4.541 9.415 7.465 16.028 5.209 9.696-3.307 12.814-14.864 5.646-22.728-6.041-6.629-12.992-12.417-19.348-18.77-121.36-121.32-242.7-242.67-364.04-364.01-1.649-1.649-3.397-3.214-4.923-4.97-2.275-2.62-4.374-3.417-7.633-1.137-5.963 4.177-12.252 7.887-19.4 12.422zm-67.933 44.392c2.231 2.365 4.627 5.037 7.161 7.572 113.36 113.38 226.73 226.74 340.1 340.1 1.414 1.414 2.794 2.864 4.26 4.224 7.433 6.896 15.179 7.252 21.126 1.005 5.539-5.82 5.197-13.685-1.334-20.383-5.809-5.957-12.102-11.439-17.988-17.323-104.67-104.62-209.29-209.3-314.02-313.86-5.58-5.571-10.21-15.215-17.494-15.201-7.468 0.015-14.277 7.606-21.096 12.327-0.215 0.147-0.263 0.538-0.714 1.538zm694.13 182.84c2.672 2.463 4.814 0.209 7.077-0.901 6.564-3.224 12.961-6.852 19.708-9.626 32.166-13.225 64.656-15.273 96.87-0.625 33.821 15.38 59.333 40.034 77.163 72.537 8.313 15.156 11.881 31.559 11.943 48.896 0.078 21.383-5.565 41.392-13.344 60.991-1.103 2.778-2.292 5.523-3.355 8.316-0.486 1.278-0.639 2.623 0.962 3.34 1.04 0.465 1.998 0.063 2.677-0.689 1.782-1.973 3.571-3.951 5.184-6.061 18.855-24.672 25.092-52.834 20.508-82.952-9.439-62.021-57.271-112.49-118.73-125.41-39.241-8.25-74.646 0.04-104.52 27.966-1.271 1.189-2.409 2.259-2.148 4.222zm-0.824 163.07c-0.232 3.594-0.563 8.24-0.813 12.891-0.074 1.381 0.367 2.626 1.932 2.983 1.355 0.309 2.78 0.145 3.596-1 0.954-1.339 1.702-2.871 2.297-4.413 7.226-18.73 6.785-37.649-2.484-55.114-13.683-25.781-34.799-43.429-63.635-50.569-24.037-5.951-46.908-3.406-67.706 10.94-8.062 5.562-14.378 12.81-19.016 21.479-0.865 1.616-1.171 3.236 0.534 4.351 1.188 0.776 2.581 0.359 3.661-0.575 1.004-0.869 1.903-1.856 2.894-2.742 31.122-27.827 64.859-31.063 100.78-9.904 26.998 15.9 39.301 39.582 37.961 71.673z" clip-rule="evenodd" fill="#fff" fill-rule="evenodd"/><path d="m174.68 935.12c3.806-1.587 7.156-0.929 10.413-0.93 413.63-0.034 827.26-0.04 1240.9-0.025 77.992 3e-3 155.98 0.065 233.98 0.251 3.33 8e-3 8.319-2.306 9.788 1.955 1.31 3.798-3.385 6.054-5.877 8.549-220.99 221.14-441.95 442.32-663.18 663.24-22.155 22.124-44.412 44.165-66.764 66.101-1.662 1.632-3.289 3.349-5.167 4.701-4.294 3.093-8.73 3.116-12.827-0.354-2.537-2.147-4.811-4.608-7.167-6.965-201.26-201.25-402.38-402.65-603.89-603.65-40.814-40.709-81.687-81.366-122.57-122.01-2.97-2.952-6.941-5.325-7.626-10.864zm846.49 288.76c4.833-4.18 9.062-7.458 12.855-11.179 41.396-40.592 82.738-81.238 124.06-121.91 7.578-7.458 7.606-8.595 0.159-16.064-28.705-28.789-57.448-57.54-86.24-86.242-6.818-6.797-8.859-6.787-15.576-6e-3 -38.205 38.573-76.316 77.239-114.57 115.77-6.771 6.82-12.969 14.27-20.514 20.128-3.612-1.368-5.509-4.221-7.814-6.571-41.996-42.815-83.957-85.666-125.98-128.45-7.778-7.92-9.447-7.905-17.002-0.365-28.54 28.483-57.051 56.995-85.533 85.536-7.313 7.328-7.26 8.858-0.036 16.231 2.565 2.618 5.19 5.177 7.806 7.745 39.467 38.752 78.952 77.484 118.39 116.26 10.493 10.316 10.371 10.318-0.229 20.694-42.383 41.484-84.738 82.999-127.07 124.54-5.757 5.649-5.851 8.418-0.101 14.192 29.158 29.277 58.382 58.491 87.652 87.656 6.225 6.202 8.893 6.107 14.914-0.023 32.916-33.521 65.811-67.062 98.703-100.6 10.497-10.705 21.048-21.359 31.391-32.212 3.174-3.329 5.793-4.189 8.854-0.175 0.601 0.788 1.403 1.42 2.107 2.13 30.712 30.987 61.433 61.967 92.133 92.966 12.661 12.785 25.205 25.686 37.95 38.386 5.595 5.573 7.611 5.434 13.344 0.147 1.469-1.354 2.845-2.81 4.259-4.223 26.864-26.86 53.729-53.72 80.589-80.584 10.632-10.633 10.635-10.645 0.066-21.011-34.017-33.362-68.068-66.689-102.04-100.1-10.435-10.259-20.66-20.73-32.534-32.665z" clip-rule="evenodd" fill="#FE0000" fill-rule="evenodd"/><path d="m2249.4 273.39c-23.754 1e-3 -47.51 2e-3 -71.265 2e-3 -0.1-21.281-0.438-42.566-0.193-63.844 0.115-9.951 4.216-18.762 10.78-26.226 13.875-15.776 35.868-15.719 49.805 0.017 7.125 8.045 10.939 17.65 11.1 28.2 0.312 20.61-0.109 41.232-0.227 61.851z" clip-rule="evenodd" fill="#fff" fill-rule="evenodd"/><path d="m1069.4 439.83c7.147-4.535 13.437-8.245 19.401-12.42 3.259-2.28 5.357-1.483 7.633 1.137 1.525 1.756 3.273 3.32 4.923 4.97 121.34 121.34 242.68 242.69 364.04 364.01 6.355 6.353 13.307 12.141 19.348 18.77 7.168 7.863 4.05 19.421-5.646 22.728-6.613 2.256-11.506-0.668-16.028-5.209-13.168-13.219-26.485-26.29-39.676-39.487-116.36-116.42-232.72-232.86-349.06-349.29-1.392-1.393-2.711-2.855-4.934-5.204z" clip-rule="evenodd" fill-rule="evenodd"/><path d="m1001.5 484.22c0.451-1 0.499-1.391 0.714-1.539 6.818-4.721 13.628-12.313 21.096-12.327 7.284-0.014 11.914 9.63 17.494 15.201 104.73 104.56 209.35 209.24 314.02 313.86 5.887 5.884 12.18 11.366 17.988 17.323 6.531 6.698 6.873 14.563 1.334 20.383-5.947 6.247-13.693 5.891-21.126-1.005-1.466-1.359-2.846-2.81-4.26-4.224-113.37-113.36-226.74-226.73-340.1-340.1-2.534-2.534-4.93-5.206-7.161-7.571z" clip-rule="evenodd" fill-rule="evenodd"/><path d="m1695.6 667.07c-0.261-1.964 0.877-3.033 2.148-4.223 29.871-27.926 65.275-36.216 104.52-27.966 61.456 12.92 109.29 63.394 118.73 125.41 4.584 30.118-1.652 58.28-20.508 82.952-1.612 2.109-3.401 4.088-5.184 6.061-0.679 0.752-1.637 1.154-2.677 0.689-1.601-0.717-1.448-2.062-0.962-3.34 1.063-2.793 2.253-5.538 3.355-8.316 7.778-19.6 13.422-39.608 13.344-60.991-0.063-17.337-3.63-33.739-11.943-48.896-17.83-32.503-43.342-57.157-77.163-72.537-32.214-14.648-64.704-12.6-96.87 0.625-6.747 2.774-13.144 6.402-19.708 9.626-2.263 1.111-4.405 3.365-7.077 0.902z" clip-rule="evenodd" fill-rule="evenodd"/><path d="m1694.8 830.14c1.34-32.091-10.964-55.772-37.962-71.674-35.92-21.158-69.657-17.923-100.78 9.904-0.99 0.886-1.89 1.873-2.894 2.742-1.08 0.935-2.473 1.352-3.661 0.575-1.705-1.114-1.399-2.734-0.534-4.351 4.638-8.67 10.954-15.918 19.016-21.479 20.798-14.347 43.669-16.892 67.706-10.94 28.836 7.141 49.952 24.788 63.635 50.569 9.27 17.465 9.71 36.384 2.484 55.114-0.595 1.542-1.343 3.074-2.297 4.413-0.815 1.145-2.24 1.309-3.596 1-1.564-0.357-2.006-1.603-1.932-2.983 0.251-4.65 0.582-9.297 0.814-12.89z" clip-rule="evenodd" fill-rule="evenodd"/><path d="m1021.2 1223.9c11.874 11.936 22.1 22.406 32.532 32.665 33.973 33.406 68.024 66.733 102.04 100.1 10.568 10.366 10.565 10.378-0.066 21.011-26.86 26.864-53.725 53.724-80.589 80.584-1.414 1.413-2.79 2.868-4.259 4.223-5.732 5.286-7.749 5.426-13.344-0.147-12.745-12.7-25.289-25.601-37.95-38.386-30.7-30.999-61.421-61.979-92.133-92.966-0.704-0.71-1.507-1.342-2.107-2.13-3.062-4.015-5.681-3.154-8.854 0.175-10.343 10.853-20.894 21.507-31.391 32.212-32.893 33.544-65.787 67.085-98.703 100.6-6.021 6.131-8.689 6.226-14.914 0.023-29.271-29.165-58.494-58.379-87.652-87.656-5.75-5.774-5.656-8.543 0.101-14.192 42.33-41.539 84.686-83.054 127.07-124.54 10.601-10.376 10.723-10.378 0.229-20.694-39.44-38.778-78.926-77.511-118.39-116.26-2.615-2.568-5.24-5.127-7.806-7.745-7.224-7.373-7.276-8.903 0.036-16.231 28.482-28.541 56.993-57.053 85.533-85.536 7.555-7.54 9.224-7.555 17.002 0.365 42.023 42.787 83.984 85.638 125.98 128.45 2.306 2.351 4.202 5.203 7.814 6.571 7.545-5.858 13.743-13.308 20.514-20.128 38.25-38.529 76.361-77.195 114.57-115.77 6.717-6.781 8.758-6.791 15.576 6e-3 28.792 28.702 57.535 57.453 86.24 86.242 7.447 7.47 7.419 8.606-0.159 16.064-41.32 40.669-82.662 81.315-124.06 121.91-3.792 3.721-8.02 6.999-12.853 11.179z" clip-rule="evenodd" fill-rule="evenodd"/><path d="m2160 363.84c1e-3 -50.628-0.089-101.26 0.044-151.88 0.054-20.254 8.086-37.066 24.455-48.982 26.163-19.047 61.668-8.555 76.109 21.96 4.185 8.844 6.141 18.081 6.128 27.971-0.128 99.59-0.021 199.18-0.197 298.77-0.013 7.073 1.861 11.948 7.072 17.237 22.296 22.628 29.932 50.112 21.352 80.691-9.042 32.223-31.017 52.941-63.734 59.223-36.219 6.955-69.14-7.507-88.407-40.175-17.738-30.074-13.759-69.381 9.871-95.611 5.178-5.747 7.586-11.338 7.519-19.318-0.419-49.959-0.213-99.922-0.212-149.88zm65.826-56.403h-47.763c0.063 11.569-0.405 21.99 0.209 32.247h71.727v-11.481c0-34.643 0.09-69.285-0.074-103.93-0.033-6.939-0.588-13.944-1.674-20.798-2.677-16.897-17.484-31.325-32.322-32.046-19.799-0.961-37.591 15.991-37.85 36.852-0.338 27.31-0.1 54.627-0.024 81.941 5e-3 1.846 9e-3 5.476 9e-3 6.101 12.416 0 32.142 4e-3 47.763 4e-3 -1e-3 2.918-1e-3 8.356-1e-3 11.107z" clip-rule="evenodd" fill-rule="evenodd"/><path d="m2250 527.28c0.012-6.266-6e-3 -12.531 0-18.797h-71.936c0.025 6.806-0.059 13.612 0 20.418 0.053 6.32-8.288 10.749-12.39 15.3-18.715 20.774-21.867 51.905-7.817 75.724 15.26 25.873 41.332 37.327 70.018 31.818 25.913-4.975 43.316-21.384 50.479-46.904 6.794-24.219 0.748-45.986-16.911-63.908-4.128-4.188-11.453-8.049-11.443-13.651z" clip-rule="evenodd" fill="#E32322" fill-rule="evenodd"/><path d="m2178.1 477.21c0 4.81-0.098 27.288 0 40.541h71.936v-178.06h-71.936v41.53h47.763v11.107h-47.763v73.778h47.763v11.107h-47.763z" clip-rule="evenodd" fill="#E32322" fill-rule="evenodd"/></svg>
