<?xml version="1.0" encoding="UTF-8"?>
<svg version="1.1" xmlns="http://www.w3.org/2000/svg" width="600" height="600">
<path d="M0 0 C198 0 396 0 600 0 C600 198 600 396 600 600 C402 600 204 600 0 600 C0 402 0 204 0 0 Z " fill="#FEFEFE" transform="translate(0,0)"/>
<path d="M0 0 C0 120.78 0 241.56 0 366 C-198 366 -396 366 -600 366 C-600 347 -600 347 -596.30859375 343.27734375 C-594.55848781 342.47445834 -592.7862848 341.71880623 -591 341 C-588.9569325 339.83654427 -586.92771577 338.6485548 -584.91015625 337.44140625 C-583.22177109 336.48201784 -581.53331937 335.52273765 -579.84240723 334.56781006 C-577.37796927 333.17586994 -574.91792948 331.77623384 -572.45755005 330.37713623 C-571.18372882 329.65285568 -569.90970036 328.92893948 -568.63546753 328.2053833 C-562.32526264 324.62134127 -556.0349124 321.00320165 -549.75 317.375 C-548.68144775 316.75826416 -547.61289551 316.14152832 -546.51196289 315.50610352 C-538.33856367 310.78354336 -530.18408943 306.02895892 -522.03369141 301.2668457 C-511.47352916 295.1005487 -500.87857454 288.99494961 -490.28222656 282.89111328 C-484.85340058 279.76319852 -479.42680719 276.63141552 -474 273.5 C-471.83334417 272.24998121 -469.6666775 270.99998122 -467.5 269.75 C-466.4275 269.13125 -465.355 268.5125 -464.25 267.875 C-402.5 232.25 -402.5 232.25 -399.24951172 230.37475586 C-397.08442929 229.12564482 -394.91939018 227.87645871 -392.75439453 226.62719727 C-387.31384294 223.48797691 -381.87252784 220.35009437 -376.4296875 217.21484375 C-365.93767906 211.16944841 -355.45518324 205.10889781 -345 199 C-333.45270484 192.25298806 -321.87097973 185.56660682 -310.28222656 178.89111328 C-304.85340058 175.76319852 -299.42680719 172.63141552 -294 169.5 C-291.83334417 168.24998121 -289.6666775 166.99998122 -287.5 165.75 C-286.4275 165.13125 -285.355 164.5125 -284.25 163.875 C-196.50000001 113.25 -196.50000001 113.25 -193.24951172 111.37475586 C-191.08442929 110.12564482 -188.91939018 108.87645871 -186.75439453 107.62719727 C-181.31384294 104.48797691 -175.87252784 101.35009437 -170.4296875 98.21484375 C-159.93767906 92.16944841 -149.45518324 86.10889781 -139 80 C-127.45270484 73.25298806 -115.87097973 66.56660682 -104.28222656 59.89111328 C-98.85340058 56.76319852 -93.42680719 53.63141552 -88 50.5 C-85.83334417 49.24998121 -83.6666775 47.99998122 -81.5 46.75 C-80.4275 46.13125 -79.355 45.5125 -78.25 44.875 C-68.5 39.25 -68.5 39.25 -65.24902344 37.37451172 C-63.08552524 36.12628966 -60.92211357 34.87791761 -58.75878906 33.62939453 C-53.29434983 30.47594744 -47.82836355 27.32523904 -42.359375 24.1796875 C-30.72234912 17.48238349 -19.11239792 10.74693283 -7.58691406 3.85888672 C-6.73194336 3.34986816 -5.87697266 2.84084961 -4.99609375 2.31640625 C-4.24513428 1.86724854 -3.4941748 1.41809082 -2.72045898 0.95532227 C-1 0 -1 0 0 0 Z " fill="#FEFEFE" transform="translate(600,234)"/>
<path d="M0 0 C0.20863947 11.23940657 0.36849883 22.47835176 0.46630955 33.71930122 C0.51325791 38.93921483 0.5769192 44.15780265 0.67895508 49.37695312 C0.77683388 54.41506821 0.83057534 59.45190941 0.85389519 64.49090195 C0.87051002 66.41199682 0.90295782 68.3330228 0.95157051 70.25357437 C1.31683829 85.28372498 1.31683829 85.28372498 -1.85984802 89.42399597 C-4.19340605 91.01330379 -6.3571584 92.02741244 -9 93 C-10.00957764 93.61109619 -11.01915527 94.22219238 -12.05932617 94.85180664 C-12.96142822 95.36606201 -13.86353027 95.88031738 -14.79296875 96.41015625 C-16.3385144 97.29550049 -16.3385144 97.29550049 -17.9152832 98.19873047 C-18.99511475 98.81377441 -20.07494629 99.42881836 -21.1875 100.0625 C-23.51876302 101.39882176 -25.84960095 102.73585017 -28.1796875 104.07421875 C-28.76118057 104.40794495 -29.34267365 104.74167114 -29.94178772 105.08551025 C-35.25732094 108.13966189 -40.53994642 111.24739801 -45.8125 114.375 C-54.35953209 119.44326776 -62.92501879 124.47922992 -71.5 129.5 C-80.00984066 134.48343505 -88.51361955 139.47667166 -97 144.5 C-106.11275928 149.89409966 -115.2464719 155.25201516 -124.38427734 160.60351562 C-132.26571213 165.21963816 -140.13999759 169.84744252 -148 174.5 C-157.11275928 179.89409966 -166.2464719 185.25201516 -175.38427734 190.60351562 C-183.26571213 195.21963816 -191.13999759 199.84744252 -199 204.5 C-208.11275928 209.89409966 -217.2464719 215.25201516 -226.38427734 220.60351562 C-234.26571245 225.21963835 -242.13995128 229.84752041 -250 234.5 C-258.34227071 239.43702507 -266.69884253 244.34932757 -275.0625 249.25 C-275.67070587 249.6063855 -276.27891174 249.962771 -276.9055481 250.32995605 C-281.89834093 253.25532466 -286.8917276 256.1796791 -291.88513184 259.10400391 C-296.23619339 261.65220484 -300.58702961 264.20078989 -304.9375 266.75 C-305.85065475 267.28506165 -305.85065475 267.28506165 -306.78225708 267.83093262 C-315.40460451 272.88397183 -324.0147601 277.9572476 -332.61499023 283.04785156 C-340.85752496 287.92348331 -349.1205614 292.76392038 -357.38427734 297.60351562 C-365.26571213 302.21963816 -373.13999759 306.84744252 -381 311.5 C-390.11275928 316.89409966 -399.2464719 322.25201516 -408.38427734 327.60351562 C-416.26571251 332.21963838 -424.13994532 336.84753034 -432 341.5 C-440.24407308 346.3787616 -448.49982475 351.23738883 -456.76269531 356.08422852 C-458.08053229 356.85728399 -459.39824204 357.6305564 -460.71582031 358.40405273 C-462.55494195 359.48358809 -464.39457564 360.56224515 -466.234375 361.640625 C-467.29881836 362.26485352 -468.36326172 362.88908203 -469.45996094 363.53222656 C-473.0567996 365.61067658 -474.87711403 366.12437663 -479.0239563 366.12025452 C-480.08688904 366.12162918 -481.14982178 366.12300385 -482.2449646 366.12442017 C-484.00146835 366.11902725 -484.00146835 366.11902725 -485.79345703 366.11352539 C-487.02269897 366.11367142 -488.25194092 366.11381744 -489.51843262 366.1139679 C-492.89426342 366.11338954 -496.27003348 366.10836537 -499.64585352 366.10139394 C-503.17193073 366.09515358 -506.6980087 366.09455606 -510.22409058 366.09336853 C-516.90348324 366.09025723 -523.58285959 366.08204655 -530.26224506 366.07201904 C-537.86553025 366.06085166 -545.46881621 366.05534588 -553.07210755 366.05032361 C-568.71474783 366.03986378 -584.35737181 366.02226822 -600 366 C-600.10738015 362.91115937 -600.17284915 359.82279967 -600.23071289 356.73266602 C-600.26164284 355.85764687 -600.29257278 354.98262772 -600.32444 354.08109283 C-600.41586424 347.58532835 -600.41586424 347.58532835 -598.29640198 344.60218811 C-595.95605405 343.04238133 -593.60890339 342.04983036 -591 341 C-588.9569325 339.83654427 -586.92771577 338.6485548 -584.91015625 337.44140625 C-583.22177109 336.48201784 -581.53331937 335.52273765 -579.84240723 334.56781006 C-577.37796927 333.17586994 -574.91792948 331.77623384 -572.45755005 330.37713623 C-571.18372882 329.65285568 -569.90970036 328.92893948 -568.63546753 328.2053833 C-562.32526264 324.62134127 -556.0349124 321.00320165 -549.75 317.375 C-548.68144775 316.75826416 -547.61289551 316.14152832 -546.51196289 315.50610352 C-538.33856367 310.78354336 -530.18408943 306.02895892 -522.03369141 301.2668457 C-511.47352916 295.1005487 -500.87857454 288.99494961 -490.28222656 282.89111328 C-484.85340058 279.76319852 -479.42680719 276.63141552 -474 273.5 C-471.83334417 272.24998121 -469.6666775 270.99998122 -467.5 269.75 C-466.4275 269.13125 -465.355 268.5125 -464.25 267.875 C-402.5 232.25 -402.5 232.25 -399.24951172 230.37475586 C-397.08442929 229.12564482 -394.91939018 227.87645871 -392.75439453 226.62719727 C-387.31384294 223.48797691 -381.87252784 220.35009437 -376.4296875 217.21484375 C-365.93767906 211.16944841 -355.45518324 205.10889781 -345 199 C-333.45270484 192.25298806 -321.87097973 185.56660682 -310.28222656 178.89111328 C-304.85340058 175.76319852 -299.42680719 172.63141552 -294 169.5 C-291.83334417 168.24998121 -289.6666775 166.99998122 -287.5 165.75 C-286.4275 165.13125 -285.355 164.5125 -284.25 163.875 C-196.50000001 113.25 -196.50000001 113.25 -193.24951172 111.37475586 C-191.08442929 110.12564482 -188.91939018 108.87645871 -186.75439453 107.62719727 C-181.31384294 104.48797691 -175.87252784 101.35009437 -170.4296875 98.21484375 C-159.93767906 92.16944841 -149.45518324 86.10889781 -139 80 C-127.45270484 73.25298806 -115.87097973 66.56660682 -104.28222656 59.89111328 C-98.85340058 56.76319852 -93.42680719 53.63141552 -88 50.5 C-85.83334417 49.24998121 -83.6666775 47.99998122 -81.5 46.75 C-80.4275 46.13125 -79.355 45.5125 -78.25 44.875 C-68.5 39.25 -68.5 39.25 -65.24902344 37.37451172 C-63.08552524 36.12628966 -60.92211357 34.87791761 -58.75878906 33.62939453 C-53.29434983 30.47594744 -47.82836355 27.32523904 -42.359375 24.1796875 C-30.72234912 17.48238349 -19.11239792 10.74693283 -7.58691406 3.85888672 C-6.73194336 3.34986816 -5.87697266 2.84084961 -4.99609375 2.31640625 C-4.24513428 1.86724854 -3.4941748 1.41809082 -2.72045898 0.95532227 C-1 0 -1 0 0 0 Z " fill="#FEFEFE" transform="translate(600,234)"/>
<path d="M0 0 C0 54.45 0 108.9 0 165 C-93.06 165 -186.12 165 -282 165 C-278.32568898 162.06055118 -275.19150164 159.83514692 -271.16015625 157.56640625 C-269.45907715 156.60323486 -269.45907715 156.60323486 -267.72363281 155.62060547 C-267.12699829 155.28526794 -266.53036377 154.94993042 -265.91564941 154.60443115 C-262.74687266 152.82279002 -259.58664372 151.02610177 -256.42578125 149.23046875 C-255.79034393 148.86987366 -255.15490662 148.50927856 -254.50021362 148.13775635 C-248.88076207 144.9439797 -243.3067295 141.6766983 -237.75 138.375 C-230.22572953 133.90718431 -222.68594451 129.46801766 -215.125 125.0625 C-214.12331787 124.47879639 -213.12163574 123.89509277 -212.08959961 123.29370117 C-210.06325998 122.11325699 -208.03681134 120.93299991 -206.01025391 119.75292969 C-192.16173212 111.68866477 -178.3230783 103.60778892 -164.5 95.5 C-152.65008551 88.54955067 -140.78874751 81.61894228 -128.91943359 74.70166016 C-123.94548821 71.80247975 -118.97280372 68.90113805 -114 66 C-108.05919266 62.5341278 -102.11817575 59.06861915 -96.17578125 55.60546875 C-85.27520956 49.25165958 -74.38323043 42.88345043 -63.5 36.5 C-52.64700396 30.13428325 -41.78601821 23.78252199 -30.9140625 17.44921875 C-26.67562827 14.97954048 -22.44219843 12.50147866 -18.2109375 10.01953125 C-17.09887939 9.36815186 -15.98682129 8.71677246 -14.84106445 8.0456543 C-12.69275374 6.7871272 -10.54541822 5.52693362 -8.39916992 4.26489258 C-7.44373291 3.70568115 -6.4882959 3.14646973 -5.50390625 2.5703125 C-4.23268921 1.82418701 -4.23268921 1.82418701 -2.93579102 1.06298828 C-1 0 -1 0 0 0 Z " fill="#7F7F7F" transform="translate(600,435)"/>
<path d="M0 0 C0.24441588 2.20276037 0.41826648 4.41341933 0.5625 6.625 C0.66691406 7.85476562 0.77132812 9.08453125 0.87890625 10.3515625 C-0.10872424 14.45132641 -0.5514784 14.82728356 -3.875 17.0859375 C-5.56803517 18.08371684 -7.27736817 19.05423509 -9 20 C-9.82830322 20.48162598 -10.65660645 20.96325195 -11.51000977 21.45947266 C-14.17857593 23.00235295 -16.86753141 24.50375605 -19.5625 26 C-27.68945844 30.55256826 -35.77427911 35.16747852 -43.8125 39.875 C-52.15135842 44.75603444 -60.5036455 49.61238348 -68.875 54.4375 C-70.49281372 55.37009644 -70.49281372 55.37009644 -72.14331055 56.3215332 C-76.52545836 58.84692169 -80.90825037 61.37119109 -85.29101562 63.89550781 C-96.87681766 70.56956312 -108.45553353 77.25464084 -120 84 C-131.54729516 90.74701194 -143.12902027 97.43339318 -154.71777344 104.10888672 C-160.14659938 107.23680146 -165.57322007 110.36853731 -171 113.5 C-177.52233275 117.26363919 -184.04513762 121.02644622 -190.5703125 124.78515625 C-201.06232094 130.83055159 -211.54481676 136.89110219 -222 143 C-235.73055188 151.02267511 -249.51077966 158.95858259 -263.29101562 166.89550781 C-274.87681901 173.56956389 -286.45543049 180.25481554 -298 187 C-314.48112095 196.62679121 -330.99250445 206.19922206 -347.625 215.5625 C-356.40264936 220.50464572 -365.11971893 225.54325032 -373.81347656 230.63134766 C-381.15246948 234.9260439 -388.50789289 239.19121582 -395.875 243.4375 C-396.95354248 244.05923096 -398.03208496 244.68096191 -399.14331055 245.3215332 C-403.52545836 247.84692169 -407.90825037 250.37119109 -412.29101562 252.89550781 C-423.87681766 259.56956312 -435.45553353 266.25464084 -447 273 C-458.54729516 279.74701194 -470.12902027 286.43339318 -481.71777344 293.10888672 C-487.14659938 296.23680146 -492.57322007 299.36853731 -498 302.5 C-504.52233275 306.26363919 -511.04513762 310.02644622 -517.5703125 313.78515625 C-529.04425169 320.39633074 -540.50207585 327.03357053 -551.93505859 333.71533203 C-560.5789613 338.76343976 -569.24692913 343.76916794 -577.921875 348.76367188 C-578.9325 349.34568359 -579.943125 349.92769531 -580.984375 350.52734375 C-581.96728516 351.09308105 -582.95019531 351.65881836 -583.96289062 352.24169922 C-588.2254001 354.7094318 -592.46770167 357.21137425 -596.70800781 359.71704102 C-599 361 -599 361 -600 361 C-600.24441588 358.79723963 -600.41826648 356.58658067 -600.5625 354.375 C-600.66691406 353.14523437 -600.77132812 351.91546875 -600.87890625 350.6484375 C-599.90208235 346.59353294 -599.54230976 346.23280157 -596.2734375 344.00390625 C-594.53056646 342.97681756 -592.77105408 341.97769018 -591 341 C-590.02764404 340.43087891 -589.05528809 339.86175781 -588.0534668 339.27539062 C-585.3278939 337.68513792 -582.59006216 336.11952374 -579.84240723 334.56781006 C-577.37796927 333.17586994 -574.91792948 331.77623384 -572.45755005 330.37713623 C-571.18372882 329.65285568 -569.90970036 328.92893948 -568.63546753 328.2053833 C-562.32526264 324.62134127 -556.0349124 321.00320165 -549.75 317.375 C-548.68144775 316.75826416 -547.61289551 316.14152832 -546.51196289 315.50610352 C-538.33856367 310.78354336 -530.18408943 306.02895892 -522.03369141 301.2668457 C-511.47352916 295.1005487 -500.87857454 288.99494961 -490.28222656 282.89111328 C-484.85340058 279.76319852 -479.42680719 276.63141552 -474 273.5 C-471.83334417 272.24998121 -469.6666775 270.99998122 -467.5 269.75 C-466.4275 269.13125 -465.355 268.5125 -464.25 267.875 C-402.5 232.25 -402.5 232.25 -399.24951172 230.37475586 C-397.08442929 229.12564482 -394.91939018 227.87645871 -392.75439453 226.62719727 C-387.31384294 223.48797691 -381.87252784 220.35009437 -376.4296875 217.21484375 C-365.93767906 211.16944841 -355.45518324 205.10889781 -345 199 C-333.45270484 192.25298806 -321.87097973 185.56660682 -310.28222656 178.89111328 C-304.85340058 175.76319852 -299.42680719 172.63141552 -294 169.5 C-291.83334417 168.24998121 -289.6666775 166.99998122 -287.5 165.75 C-286.4275 165.13125 -285.355 164.5125 -284.25 163.875 C-196.50000001 113.25 -196.50000001 113.25 -193.24951172 111.37475586 C-191.08442929 110.12564482 -188.91939018 108.87645871 -186.75439453 107.62719727 C-181.31384294 104.48797691 -175.87252784 101.35009437 -170.4296875 98.21484375 C-159.93767906 92.16944841 -149.45518324 86.10889781 -139 80 C-127.45270484 73.25298806 -115.87097973 66.56660682 -104.28222656 59.89111328 C-98.85340058 56.76319852 -93.42680719 53.63141552 -88 50.5 C-85.83334417 49.24998121 -83.6666775 47.99998122 -81.5 46.75 C-80.4275 46.13125 -79.355 45.5125 -78.25 44.875 C-68.5 39.25 -68.5 39.25 -65.24902344 37.37451172 C-63.08552524 36.12628966 -60.92211357 34.87791761 -58.75878906 33.62939453 C-53.29434983 30.47594744 -47.82836355 27.32523904 -42.359375 24.1796875 C-30.72234912 17.48238349 -19.11239792 10.74693283 -7.58691406 3.85888672 C-6.73194336 3.34986816 -5.87697266 2.84084961 -4.99609375 2.31640625 C-4.24513428 1.86724854 -3.4941748 1.41809082 -2.72045898 0.95532227 C-1 0 -1 0 0 0 Z " fill="#040404" transform="translate(600,234)"/>
<path d="M0 0 C1.52333666 7.92330363 2.70801202 16.23498068 0 24 C-5.29511912 30.14612041 -13.37353535 33.14539614 -20.62207031 36.41552734 C-25.92013999 38.90067277 -30.86632911 41.92201169 -35.875 44.9375 C-37.87428686 46.10891499 -39.8756133 47.27685552 -41.87890625 48.44140625 C-42.88195801 49.0255127 -43.88500977 49.60961914 -44.91845703 50.21142578 C-50.207612 53.28133145 -55.5112338 56.32607492 -60.8125 59.375 C-69.74870174 64.51662348 -78.63905613 69.72979462 -87.5 75 C-101.66438366 83.42297534 -115.93880244 91.64825698 -130.22949219 99.85449219 C-143.46279521 107.45694279 -156.6400289 115.14181918 -169.75366211 122.94897461 C-177.78778114 127.7197564 -185.8763065 132.38438402 -194 137 C-206.81994991 144.28461547 -219.51375793 151.76756343 -232.17114258 159.33105469 C-233.10466553 159.88180664 -234.03818848 160.43255859 -235 161 C-236.61406738 162.08087891 -236.61406738 162.08087891 -238.26074219 163.18359375 C-242.56555344 165.62189707 -246.5868053 165.50991445 -251.43359375 165.390625 C-252.31153091 165.38496521 -253.18946808 165.37930542 -254.0940094 165.37347412 C-256.8757468 165.35122853 -259.65615732 165.30105591 -262.4375 165.25 C-264.33266358 165.22991965 -266.22784752 165.21167158 -268.12304688 165.1953125 C-272.74920284 165.1514027 -277.37437709 165.08245882 -282 165 C-278.55123895 162.11597604 -275.07583543 159.77005286 -271.16015625 157.56640625 C-269.45907715 156.60323486 -269.45907715 156.60323486 -267.72363281 155.62060547 C-267.12699829 155.28526794 -266.53036377 154.94993042 -265.91564941 154.60443115 C-262.74687266 152.82279002 -259.58664372 151.02610177 -256.42578125 149.23046875 C-255.79034393 148.86987366 -255.15490662 148.50927856 -254.50021362 148.13775635 C-248.88076207 144.9439797 -243.3067295 141.6766983 -237.75 138.375 C-230.22572953 133.90718431 -222.68594451 129.46801766 -215.125 125.0625 C-214.12331787 124.47879639 -213.12163574 123.89509277 -212.08959961 123.29370117 C-210.06325998 122.11325699 -208.03681134 120.93299991 -206.01025391 119.75292969 C-192.16173212 111.68866477 -178.3230783 103.60778892 -164.5 95.5 C-152.65008551 88.54955067 -140.78874751 81.61894228 -128.91943359 74.70166016 C-123.94548821 71.80247975 -118.97280372 68.90113805 -114 66 C-108.05919266 62.5341278 -102.11817575 59.06861915 -96.17578125 55.60546875 C-85.27520956 49.25165958 -74.38323043 42.88345043 -63.5 36.5 C-52.64700396 30.13428325 -41.78601821 23.78252199 -30.9140625 17.44921875 C-26.67562827 14.97954048 -22.44219843 12.50147866 -18.2109375 10.01953125 C-17.09887939 9.36815186 -15.98682129 8.71677246 -14.84106445 8.0456543 C-12.69275374 6.7871272 -10.54541822 5.52693362 -8.39916992 4.26489258 C-7.44373291 3.70568115 -6.4882959 3.14646973 -5.50390625 2.5703125 C-4.23268921 1.82418701 -4.23268921 1.82418701 -2.93579102 1.06298828 C-1 0 -1 0 0 0 Z " fill="#020202" transform="translate(600,435)"/>
<path d="M0 0 C0.77550962 4.99772867 0.77550962 4.99772867 0 8 C-1.59521484 9.49145508 -1.59521484 9.49145508 -3.7734375 10.83203125 C-5.00453247 11.59821777 -5.00453247 11.59821777 -6.26049805 12.37988281 C-7.16453369 12.91452148 -8.06856934 13.44916016 -9 14 C-9.93175049 14.55268555 -10.86350098 15.10537109 -11.82348633 15.67480469 C-14.93302475 17.49200431 -18.05795449 19.27999232 -21.1875 21.0625 C-23.51876302 22.39882176 -25.84960095 23.73585017 -28.1796875 25.07421875 C-29.05192711 25.57480804 -29.05192711 25.57480804 -29.94178772 26.08551025 C-35.25732094 29.13966189 -40.53994642 32.24739801 -45.8125 35.375 C-54.35953209 40.44326776 -62.92501879 45.47922992 -71.5 50.5 C-80.00984066 55.48343505 -88.51361955 60.47667166 -97 65.5 C-106.11275928 70.89409966 -115.2464719 76.25201516 -124.38427734 81.60351562 C-132.26571213 86.21963816 -140.13999759 90.84744252 -148 95.5 C-157.11275928 100.89409966 -166.2464719 106.25201516 -175.38427734 111.60351562 C-183.26571213 116.21963816 -191.13999759 120.84744252 -199 125.5 C-208.11275928 130.89409966 -217.2464719 136.25201516 -226.38427734 141.60351562 C-234.26571245 146.21963835 -242.13995128 150.84752041 -250 155.5 C-258.34227071 160.43702507 -266.69884253 165.34932757 -275.0625 170.25 C-275.67070587 170.6063855 -276.27891174 170.962771 -276.9055481 171.32995605 C-281.89834093 174.25532466 -286.8917276 177.1796791 -291.88513184 180.10400391 C-296.23619339 182.65220484 -300.58702961 185.20078989 -304.9375 187.75 C-305.54626984 188.10670776 -306.15503967 188.46341553 -306.78225708 188.83093262 C-315.40460451 193.88397183 -324.0147601 198.9572476 -332.61499023 204.04785156 C-340.85752496 208.92348331 -349.1205614 213.76392038 -357.38427734 218.60351562 C-365.26571213 223.21963816 -373.13999759 227.84744252 -381 232.5 C-390.11275928 237.89409966 -399.2464719 243.25201516 -408.38427734 248.60351562 C-416.26571251 253.21963838 -424.13994532 257.84753034 -432 262.5 C-440.24407308 267.3787616 -448.49982475 272.23738883 -456.76269531 277.08422852 C-458.08053229 277.85728399 -459.39824204 278.6305564 -460.71582031 279.40405273 C-462.55494195 280.48358809 -464.39457564 281.56224515 -466.234375 282.640625 C-467.29881836 283.26485352 -468.36326172 283.88908203 -469.45996094 284.53222656 C-473.85168174 287.07000294 -477.12879554 287.11858865 -482.125 287.0625 C-482.87910156 287.05798828 -483.63320313 287.05347656 -484.41015625 287.04882812 C-486.27347127 287.03703499 -488.13674555 287.01909942 -490 287 C-486.67798768 284.23609475 -483.35262839 281.91975811 -479.59765625 279.78515625 C-478.03277466 278.89014404 -478.03277466 278.89014404 -476.4362793 277.97705078 C-475.32293213 277.34524902 -474.20958496 276.71344727 -473.0625 276.0625 C-470.6940718 274.70919509 -468.32752702 273.35261086 -465.9609375 271.99609375 C-465.36707748 271.65618408 -464.77321747 271.31627441 -464.16136169 270.96606445 C-458.80865972 267.8992556 -453.49248003 264.77343145 -448.1875 261.625 C-439.78462383 256.64297529 -431.36646988 251.68769957 -422.9375 246.75 C-422.32723969 246.39246643 -421.71697937 246.03493286 -421.08822632 245.66656494 C-417.97154708 243.84063579 -414.85471432 242.01496894 -411.73779297 240.18945312 C-406.25942013 236.98070463 -400.78247753 233.7695165 -395.30545044 230.55847168 C-392.2870278 228.78887734 -389.26850895 227.01944712 -386.25 225.25 C-385.04166621 224.54166745 -383.83333287 223.83333412 -382.625 223.125 C-375.37500003 218.87500002 -375.37500003 218.87500002 -373.56257629 217.81254578 C-372.35398742 217.10406194 -371.14539978 216.39557602 -369.93681335 215.68708801 C-366.91989977 213.91854021 -363.90296506 212.15002846 -360.88598633 210.3815918 C-355.40168127 207.16685549 -349.91754356 203.95183523 -344.43417358 200.73550415 C-331.65986363 193.24262006 -318.88046149 185.75877459 -306.08544922 178.30126953 C-298.32129262 173.7744281 -290.56537163 169.23362914 -282.8125 164.6875 C-282.20717438 164.33255463 -281.60184875 163.97760925 -280.97817993 163.61190796 C-276.65190198 161.0749769 -272.32591863 158.53754371 -268 156 C-263.06269995 153.10382563 -258.12527352 150.20786706 -253.1875 147.3125 C-252.58177155 146.95731293 -251.97604309 146.60212585 -251.35195923 146.23617554 C-242.27063679 140.9116271 -233.18052813 135.60228805 -224.08544922 130.30126953 C-212.61341025 123.6125712 -201.1600251 116.8920788 -189.70556641 110.17333984 C-184.24015517 106.96765731 -178.77377869 103.76362141 -173.3074646 100.55947876 C-170.28826922 98.78972162 -167.26913789 97.01985522 -164.25 95.25 C-163.04166697 94.54166614 -161.83333364 93.83333281 -160.625 93.125 C-160.026875 92.774375 -159.42875 92.42375 -158.8125 92.0625 C-153.37500006 88.87500003 -153.37500006 88.87500003 -151.56257629 87.81254578 C-150.35398742 87.10406194 -149.14539978 86.39557602 -147.93681335 85.68708801 C-144.91989977 83.91854021 -141.90296506 82.15002846 -138.88598633 80.3815918 C-133.40168127 77.16685549 -127.91754356 73.95183523 -122.43417358 70.73550415 C-109.65986363 63.24262006 -96.88046149 55.75877459 -84.08544922 48.30126953 C-73.25548495 41.98692872 -62.44231237 35.64400865 -51.62927246 29.30075073 C-47.16716188 26.68352032 -42.70304366 24.06973471 -38.23828125 21.45703125 C-36.32555248 20.3373652 -34.41287817 19.21760621 -32.50024414 18.09777832 C-31.25783655 17.37046603 -30.01532483 16.64333159 -28.77270508 15.91638184 C-20.61926081 11.1457263 -12.50085636 6.32474157 -4.45703125 1.37109375 C-2 0 -2 0 0 0 Z " fill="#070707" transform="translate(600,313)"/>
</svg>
