<?xml version="1.0" encoding="UTF-8"?>
<svg version="1.1" xmlns="http://www.w3.org/2000/svg" width="600" height="600">
<path d="M0 0 C198 0 396 0 600 0 C600 198 600 396 600 600 C402 600 204 600 0 600 C0 402 0 204 0 0 Z " fill="#FEFEFE" transform="translate(0,0)"/>
<path d="M0 0 C1.27617187 0.04253906 2.55234375 0.08507812 3.8671875 0.12890625 C20.99575034 0.79638147 38.07720269 2.95302902 54.9375 6 C55.82542236 6.15380127 56.71334473 6.30760254 57.62817383 6.46606445 C58.4405249 6.62163818 59.25287598 6.77721191 60.08984375 6.9375 C61.15513306 7.13666016 61.15513306 7.13666016 62.24194336 7.33984375 C64 8 64 8 66 11 C72.02089041 42.15525042 61.79401749 67.93987114 46 94 C52.91990301 92.39538481 57.49094199 89.37451694 62.8359375 84.7421875 C65 83 65 83 68 82 C68.7159552 80.69247165 69.37097234 79.35149784 70 78 C71.38955282 75.95299347 72.80025508 73.9408571 74.25 71.9375 C74.89884155 71.02991943 74.89884155 71.02991943 75.56079102 70.10400391 C78.11612403 66.54646562 80.72413717 63.03660507 83.38671875 59.55859375 C91.33809489 49.10645257 98.00435299 38.45803494 103.98535156 26.76147461 C105 25 105 25 107 23 C113.92999487 23.11896987 128.95753635 26.95753635 134 32 C134.09870816 34.32567453 134.13179688 36.62163687 134.12304783 38.94783878 C134.12420167 39.68681193 134.12535552 40.42578507 134.12654433 41.18715134 C134.129218 43.69494431 134.12468271 46.20267469 134.12025452 48.71046448 C134.12069007 50.51386545 134.12156467 52.31726635 134.12284368 54.12066692 C134.12509185 59.10090333 134.12106298 64.08111844 134.11606562 69.06135213 C134.1117659 74.42266617 134.1132072 79.78397891 134.1139679 85.14529419 C134.11449344 94.44231516 134.11134351 103.73932913 134.10573006 113.03634834 C134.09761911 126.47844502 134.09500025 139.9205383 134.09374207 153.36263715 C134.09155091 175.1690875 134.08488909 196.97553411 134.07543945 218.78198242 C134.06626698 239.97078432 134.05919681 261.1595852 134.05493164 282.34838867 C134.05466364 283.6667695 134.05439565 284.98515032 134.05411953 286.34348208 C134.05204023 296.65336973 134.05008326 306.9632574 134.04816496 317.27314508 C134.03872331 367.84876681 134.0186069 418.42437921 134 469 C-8.56 469 -151.12 469 -298 469 C-290.36806022 461.36806022 -282.41213652 454.25765305 -274.015625 447.48046875 C-270.45329778 444.55031618 -266.97529204 441.53237122 -263.5 438.5 C-259.21797219 434.76581042 -254.91667953 431.07540724 -250.5 427.5 C-245.46651459 423.42242873 -240.57666691 419.19494085 -235.69189453 414.94189453 C-230.03580629 410.01987908 -224.32231652 405.16927867 -218.58837891 400.33837891 C-215.91091047 398.08232573 -213.23627043 395.82293394 -210.5625 393.5625 C-209.76392578 392.88767578 -209.76392578 392.88767578 -208.94921875 392.19921875 C-205.50770229 389.28716636 -202.08310044 386.35615553 -198.66577148 383.41577148 C-193.98600755 379.38932429 -189.2922906 375.39285776 -184.5 371.5 C-177.8895251 366.12838423 -171.45217378 360.55957367 -165 355 C-156.39373848 347.59210832 -147.74721451 340.2412838 -139 333 C-134.46899957 334.57833427 -132.19703641 338.15385022 -129.375 341.8125 C-128.84503418 342.48756592 -128.31506836 343.16263184 -127.76904297 343.8581543 C-126.17081203 345.89895384 -124.58368559 347.94790036 -123 350 C-122.56880859 350.556875 -122.13761719 351.11375 -121.69335938 351.6875 C-119.69403988 354.27143473 -117.7041927 356.86241864 -115.71875 359.45703125 C-112.37626087 363.82182423 -109.00027766 368.16054453 -105.625 372.5 C-105.02961426 373.26610596 -104.43422852 374.03221191 -103.82080078 374.8215332 C-103.25345215 375.55073975 -102.68610352 376.27994629 -102.1015625 377.03125 C-101.29960449 378.06378906 -101.29960449 378.06378906 -100.48144531 379.1171875 C-99.20899388 380.73438352 -97.9007828 382.32332945 -96.5859375 383.90625 C-95 386 -95 386 -95 388 C-89.21117134 383.91962221 -84.03233809 379.34715824 -78.83203125 374.546875 C-74.70661772 370.83684794 -70.38066694 367.40190622 -66 364 C-69.92519469 357.64738228 -74.43556004 351.86608826 -79.12207031 346.07177734 C-89.42338882 333.31611785 -99.18923285 320.13405404 -109 307 C-102.52338632 300.45472964 -95.72353932 294.35075067 -88.5625 288.5625 C-84.75912497 285.48663412 -81.09917348 282.31246834 -77.5 279 C-73.13230508 274.98394153 -68.63150764 271.20614546 -64.015625 267.48046875 C-60.4533015 264.55031924 -56.97521153 261.53245937 -53.5 258.5 C-49.11792637 254.67677716 -44.70940127 250.90845477 -40.1875 247.25 C-35.77514371 243.67559861 -31.53695822 239.94938669 -27.34375 236.12109375 C-25.20075688 234.18168497 -23.01655362 232.30670701 -20.8125 230.4375 C-17.45222394 227.51581419 -14.57542243 224.34551638 -11.703125 220.94921875 C-10.10910311 219.12486801 -8.44594218 217.47644646 -6.6875 215.8125 C3.14105104 206.02812223 14.16316769 192.40824575 14.625 177.9375 C13.9493488 168.14718156 12.88017457 159.25207589 6 152 C5.16339602 148.46767207 6.22446783 146.39074916 7.83203125 143.296875 C15.90119079 127.36781649 16.79965356 113.77896424 16 96 C15.86013672 96.61294922 15.72027344 97.22589844 15.57617188 97.85742188 C12.21049507 112.32658552 8.30401947 125.5439708 0 138 C-2.1875 138.5625 -2.1875 138.5625 -5 138 C-6.49609375 136.828125 -6.49609375 136.828125 -8.125 135.3125 C-18.30544544 125.9712236 -31.84284164 124.85905845 -45 124 C-46.54249859 119.12169147 -47.25469251 114.75640386 -47.625 109.625 C-48.48385347 100.74491823 -52.02580568 93.56685977 -56.1171875 85.74853516 C-57.22586998 83.55263251 -58.14106594 81.30391168 -59 79 C-59.845625 79.825 -60.69125 80.65 -61.5625 81.5 C-64.0049527 83.49267703 -65.03136115 84.00603099 -68.25 84.625 C-74.39272104 83.60121316 -79.75297705 81.63943445 -83.87890625 76.79296875 C-85.02462795 75.10495649 -86.14096638 73.3967078 -87.23046875 71.671875 C-89.686327 67.96369169 -92.65030075 64.84790056 -95.66015625 61.5859375 C-99.62168879 57.20774962 -103.30303536 52.60176669 -107 48 C-107.76699219 47.17113281 -108.53398437 46.34226563 -109.32421875 45.48828125 C-111 43 -111 43 -111.2265625 40.5078125 C-109.29666348 36.561968 -106.10105974 35.02826449 -102.375 32.875 C-101.58899414 32.40924561 -100.80298828 31.94349121 -99.99316406 31.46362305 C-93.38850074 27.63268766 -86.60958998 24.16166491 -79.75 20.8125 C-78.77466309 20.33087402 -77.79932617 19.84924805 -76.79443359 19.35302734 C-67.87412517 15.11994962 -67.87412517 15.11994962 -63 16 C-45.04144983 25.85336381 -33.84720089 62.28112463 -25 80 C-24.89453857 79.20416504 -24.78907715 78.40833008 -24.68041992 77.58837891 C-24.19114365 73.93274445 -23.68941211 70.27892014 -23.1875 66.625 C-23.02185547 65.37332031 -22.85621094 64.12164062 -22.68554688 62.83203125 C-21.79283519 56.39776965 -20.73574404 50.31445769 -18.58544922 44.17382812 C-15.85893694 34.05003108 -21.5467962 22.16136727 -25.89941406 13.13476562 C-27.70448617 9.33569464 -28.34789445 7.04368336 -27 3 C-17.80605281 0.88991376 -9.46216393 -0.4674081 0 0 Z " fill="#FEFEFE" transform="translate(466,131)"/>
<path d="M0 0 C37.61511209 -0.42341021 37.61511209 -0.42341021 53 2 C54.46493896 2.22526367 54.46493896 2.22526367 55.95947266 2.45507812 C59.14273564 2.95284422 62.32187818 3.47043584 65.5 4 C66.49926514 4.1659668 67.49853027 4.33193359 68.52807617 4.50292969 C69.45724854 4.66696289 70.3864209 4.83099609 71.34375 5 C72.58415039 5.2165625 72.58415039 5.2165625 73.84960938 5.4375 C76 6 76 6 79 8 C79.40405273 9.97680664 79.40405273 9.97680664 79.43359375 12.41015625 C79.45075439 13.75883789 79.45075439 13.75883789 79.46826172 15.13476562 C79.45811035 16.10091797 79.44795898 17.06707031 79.4375 18.0625 C79.42614014 19.5484668 79.42614014 19.5484668 79.41455078 21.06445312 C78.96346315 41.5181494 70.92597819 58.588089 60.25 75.625 C59.09609018 77.48566146 57.94488224 79.34796212 56.79486084 81.21102905 C55.76525147 82.8760928 54.72902618 84.53706029 53.69238281 86.19775391 C52.34269595 88.43256432 51.11579915 90.64292747 50 93 C75.79688089 83.77382142 90.55942915 68.01257162 106 46 C107.64603866 43.65663426 109.29221797 41.3133729 110.93994141 38.97119141 C111.94815986 37.5357029 112.95326603 36.09802117 113.95458984 34.65771484 C114.85937508 33.36430129 115.77382511 32.07757812 116.69921875 30.79882812 C117.55831013 29.61080536 118.39500106 28.40622008 119.20703125 27.18554688 C121.32821515 24.23178103 122.5573917 23.08688237 126.1640625 22.37890625 C131.24635835 23.20180344 135.65002905 24.93742185 140.375 26.9375 C141.28894531 27.31068359 142.20289063 27.68386719 143.14453125 28.06835938 C149.82148783 30.82148783 149.82148783 30.82148783 151 32 C151.12721212 33.89578904 151.18416123 35.79631048 151.21446228 37.69612122 C151.23606918 38.93386292 151.25767609 40.17160461 151.27993774 41.44685364 C151.29872978 42.83150966 151.31730771 44.2161686 151.33569336 45.60083008 C151.35831589 47.04947277 151.38118441 48.49811163 151.40428162 49.94674683 C151.60694725 63.21095711 151.71858875 76.47654155 151.80750179 89.74194813 C151.86857224 98.65896467 151.95595679 107.57406839 152.11108398 116.48999023 C152.24642178 124.26861287 152.33194955 132.04591224 152.35790926 139.82569808 C152.37323896 143.94119796 152.41236531 148.05319064 152.51078606 152.16761208 C153.12988302 179.17827104 153.12988302 179.17827104 148.03396606 185.53890991 C145.25269311 188.22986758 142.27374667 190.15326572 138.85386848 191.93511009 C135.54221737 193.83737225 132.82507898 196.45344981 130 199 C128.83581386 200.0028867 127.66943383 201.00323743 126.5 202 C125.9225 202.495 125.345 202.99 124.75 203.5 C118.33333333 209 111.91666667 214.5 105.5 220 C104.63362915 220.74262085 104.63362915 220.74262085 103.74975586 221.50024414 C102.58394896 222.49948396 101.41809614 223.49867023 100.25219727 224.49780273 C97.32199602 227.00899461 94.39261709 229.52113393 91.46484375 232.03515625 C85.29340193 237.3327656 79.10598459 242.61015999 72.89208984 247.85791016 C66.56575635 253.20478107 60.28390421 258.60339832 54 264 C46.65148932 270.31088314 39.29259683 276.6080438 31.89208984 282.85791016 C26.15831236 287.70396642 20.46176847 292.59313781 14.76611328 297.48388672 C11.26349055 300.49069999 7.75766627 303.49377971 4.25244141 306.49755859 C1.32218196 309.00885886 -1.60729587 311.52105919 -4.53515625 314.03515625 C-16.96121196 324.7020137 -16.96121196 324.7020137 -23.15625 329.8996582 C-25.99484555 332.28385236 -28.79692383 334.69924111 -31.5625 337.16796875 C-32.14829834 337.68351318 -32.73409668 338.19905762 -33.33764648 338.73022461 C-34.46341375 339.72214268 -35.58060798 340.72390108 -36.68774414 341.73657227 C-38.22265625 343.078125 -38.22265625 343.078125 -41 345 C-43.55747251 344.78750597 -44.69095518 344.30161278 -46.53295898 342.50390625 C-47.01579346 341.86324219 -47.49862793 341.22257812 -47.99609375 340.5625 C-48.54837646 339.84054443 -49.10065918 339.11858887 -49.66967773 338.37475586 C-50.25305908 337.59108643 -50.83644043 336.80741699 -51.4375 336 C-52.04859619 335.1963501 -52.65969238 334.3927002 -53.28930664 333.56469727 C-54.56553537 331.88499969 -55.83752719 330.20207529 -57.10546875 328.51611328 C-59.47684412 325.36670676 -61.87410203 322.23763025 -64.27294922 319.10913086 C-65.89593927 316.99172157 -67.51483002 314.87123709 -69.1328125 312.75 C-72.39432871 308.47850737 -75.68549769 304.23051022 -79 300 C-77.45427224 296.18371168 -75.11228755 294.02974257 -72.0625 291.3125 C-71.57595947 290.87752197 -71.08941895 290.44254395 -70.58813477 289.99438477 C-66.39103314 286.2725541 -62.04843797 282.73767546 -57.68359375 279.21484375 C-55.05291443 277.04367173 -52.52057576 274.79758643 -50 272.5 C-45.80270966 268.67829137 -41.46289769 265.08525811 -37.05078125 261.515625 C-33.47943252 258.57074845 -29.98791208 255.54276802 -26.5 252.5 C-21.31672 247.98144301 -16.07194689 243.56203669 -10.73046875 239.23046875 C-5.42381333 234.89556139 -0.21583741 230.44339532 5 226 C5.58749023 225.50032715 6.17498047 225.0006543 6.78027344 224.48583984 C10.32814748 221.46659712 13.86424814 218.43435677 17.38818359 215.38720703 C18.88212789 214.10144643 20.38785304 212.8294087 21.89453125 211.55859375 C32.94870781 202.0291312 42.52028493 186.67912718 44.24902344 171.86621094 C45.18682608 158.19526188 43.81386746 143.53008135 35.296875 132.2578125 C32.35125157 128.07983641 32.35125157 128.07983641 32.9375 124.6875 C33.58445408 121.35887675 34.59542685 118.6004921 36.03515625 115.5390625 C38.58039005 109.28075457 38.6065663 103.37173067 38.5 96.6875 C38.48936523 95.49213623 38.47873047 94.29677246 38.46777344 93.06518555 C38.28779832 84.72994542 37.54587478 77.6344855 34 70 C33.64164062 69.17371094 33.28328125 68.34742188 32.9140625 67.49609375 C31.23797777 63.55585244 31.23797777 63.55585244 28 61 C28.33 61.66 28.66 62.32 29 63 C31.03558942 77.56390783 27.14216636 97.78675046 19 110 C14.75340042 109.42967628 12.01757584 107.9337836 8.4375 105.625 C-1.93400465 99.44004174 -13.21522745 98.36845036 -25 97 C-25.12375 96.34257812 -25.2475 95.68515625 -25.375 95.0078125 C-26.84781636 88.21444703 -29.0602822 82.0923049 -31.875 75.75 C-32.20242188 75.00637207 -32.52984375 74.26274414 -32.8671875 73.49658203 C-35.18785958 68.39178333 -37.9197442 63.68300341 -41 59 C-43.89432759 59.56927768 -44.79531785 59.76708583 -46.8125 62.0625 C-49 64 -49 64 -52.375 64.4375 C-56.9747854 63.88235349 -60.31826378 63.05643141 -63.35546875 59.3425293 C-63.81566406 58.69711182 -64.27585937 58.05169434 -64.75 57.38671875 C-66.89066422 54.45731915 -69.1010797 51.64724403 -71.46484375 48.89453125 C-72.03654297 48.22099609 -72.60824219 47.54746094 -73.19726562 46.85351562 C-74.37474921 45.47251636 -75.56260037 44.10030097 -76.75976562 42.73632812 C-80.94740628 37.75241215 -80.94740628 37.75241215 -81.19140625 34.26171875 C-77.72538222 27.68195509 -68.98094928 24.59936218 -62.6875 21.3125 C-61.58470703 20.71888672 -60.48191406 20.12527344 -59.34570312 19.51367188 C-53.46122153 16.4326627 -48.67788352 14.21961371 -42 14 C-36.03519936 21.9464191 -31.34764407 30.41638461 -26.75 39.1875 C-26.00194404 40.60107417 -25.25373274 42.01456615 -24.50537109 43.42797852 C-19.49084678 52.94188651 -14.72370002 62.54721221 -10.31152344 72.3581543 C-9.91223633 73.22867432 -9.51294922 74.09919434 -9.1015625 74.99609375 C-8.76463379 75.75075928 -8.42770508 76.5054248 -8.08056641 77.28295898 C-7.0400566 79.33914148 -7.0400566 79.33914148 -4 80 C-3.94956543 79.30414795 -3.89913086 78.6082959 -3.84716797 77.89135742 C-3.21029073 69.65725135 -2.23749501 61.4948583 -1.125 53.3125 C-0.96386719 52.05888672 -0.80273438 50.80527344 -0.63671875 49.51367188 C0.1965294 43.37411867 1.15578428 37.61959038 3.37573242 31.81958008 C5.82434298 24.68250754 2.93717793 17.56468054 0.875 10.68359375 C-0.0070966 6.9701246 -0.06352764 3.79832874 0 0 Z " fill="#FEFEFE" transform="translate(449,145)"/>
<path d="M0 0 C1.27617187 0.04253906 2.55234375 0.08507812 3.8671875 0.12890625 C20.99575034 0.79638147 38.07720269 2.95302902 54.9375 6 C55.82542236 6.15380127 56.71334473 6.30760254 57.62817383 6.46606445 C58.4405249 6.62163818 59.25287598 6.77721191 60.08984375 6.9375 C61.15513306 7.13666016 61.15513306 7.13666016 62.24194336 7.33984375 C64 8 64 8 66 11 C72.02089041 42.15525042 61.79401749 67.93987114 46 94 C52.91990301 92.39538481 57.49094199 89.37451694 62.8359375 84.7421875 C65 83 65 83 68 82 C68.7159552 80.69247165 69.37097234 79.35149784 70 78 C71.38955282 75.95299347 72.80025508 73.9408571 74.25 71.9375 C74.89884155 71.02991943 74.89884155 71.02991943 75.56079102 70.10400391 C78.11612403 66.54646562 80.72413717 63.03660507 83.38671875 59.55859375 C91.33809489 49.10645257 98.00435299 38.45803494 103.98535156 26.76147461 C105 25 105 25 107 23 C113.92999487 23.11896987 128.95753635 26.95753635 134 32 C134.07271741 34.35313555 134.08370868 36.70833668 134.0625 39.0625 C134.05347656 40.35285156 134.04445313 41.64320313 134.03515625 42.97265625 C134.01775391 44.47119141 134.01775391 44.47119141 134 46 C131.43724147 45.04235345 128.87478711 44.0839064 126.3125 43.125 C125.59126953 42.85558594 124.87003906 42.58617187 124.12695312 42.30859375 C123.42119141 42.04433594 122.71542969 41.78007812 121.98828125 41.5078125 C121.29428223 41.25032227 120.6002832 40.99283203 119.88525391 40.72753906 C118.37279073 40.14386382 116.88915084 39.4857491 115.41796875 38.8046875 C112.05920798 37.68690928 109.51337522 37.56182395 106 38 C103.65136535 39.97014395 103.65136535 39.97014395 101.875 42.875 C101.11217977 43.97670143 100.34914513 45.07825441 99.5859375 46.1796875 C99.17698242 46.78780273 98.76802734 47.39591797 98.34667969 48.02246094 C95.81453941 51.74079601 93.14325044 55.36027701 90.5 59 C89.37983687 60.55181526 88.26003951 62.10389463 87.140625 63.65625 C67.77200022 90.4600027 67.77200022 90.4600027 53.1875 98.5 C52.51396484 98.87769531 51.84042969 99.25539063 51.14648438 99.64453125 C49.1066737 100.78057892 47.05656669 101.89460149 45 103 C43.93386475 103.58007812 43.93386475 103.58007812 42.84619141 104.171875 C42.15058105 104.53796875 41.4549707 104.9040625 40.73828125 105.28125 C40.11606689 105.61189453 39.49385254 105.94253906 38.8527832 106.28320312 C37 107 37 107 33 107 C34.37258822 103.32472534 36.04021542 100.05217283 38.046875 96.68359375 C38.645 95.67103516 39.243125 94.65847656 39.859375 93.61523438 C41.10369148 91.52380575 42.34847075 89.43265239 43.59375 87.34179688 C51.61702814 73.87646572 51.61702814 73.87646572 57.25 59.3125 C57.54390625 58.31863281 57.8378125 57.32476562 58.140625 56.30078125 C58.42421875 55.21152344 58.7078125 54.12226563 59 53 C59.18095215 52.34314209 59.3619043 51.68628418 59.54833984 51.00952148 C61.12825281 44.7798117 61.23515956 38.83946519 61.125 32.4375 C61.11146484 30.92446289 61.11146484 30.92446289 61.09765625 29.38085938 C61.07433356 26.92031543 61.04160763 24.46029104 61 22 C54.05097395 20.59496971 47.09512319 19.2339232 40.125 17.9375 C39.22136719 17.76412109 38.31773437 17.59074219 37.38671875 17.41210938 C24.74840567 15.07267695 12.06202139 14.76805447 -0.75 14.4375 C-2.33334171 14.39418522 -3.91667515 14.35056744 -5.5 14.30664062 C-9.33324729 14.20094127 -13.16658224 14.0993163 -17 14 C-16.52623932 16.24250486 -16.05062133 18.4846174 -15.57421875 20.7265625 C-15.30955811 21.97518066 -15.04489746 23.22379883 -14.7722168 24.51025391 C-14.18536068 27.16233145 -13.54113445 29.76077555 -12.8125 32.375 C-11.53594511 38.07039874 -11.32218521 42.19314502 -13.35546875 47.61328125 C-15.97811615 55.21187468 -16.60318174 63.31440219 -17.625 71.25 C-17.94915296 73.70623046 -18.27577558 76.16211687 -18.60360718 78.61785889 C-18.80553193 80.13675068 -19.00490934 81.65598405 -19.20132446 83.17559814 C-19.67707243 86.81601668 -20.22340768 90.41100272 -21 94 C-22.76733398 93.94067383 -22.76733398 93.94067383 -25 93 C-26.43782958 90.64876614 -27.59065094 88.44362015 -28.72265625 85.94921875 C-29.2357988 84.86630806 -29.2357988 84.86630806 -29.75930786 83.76152039 C-30.49203546 82.21262411 -31.21857977 80.6607906 -31.93954468 79.10638428 C-33.81188792 75.07329272 -35.73197179 71.06304515 -37.6484375 67.05078125 C-38.21207253 65.8667572 -38.21207253 65.8667572 -38.78709412 64.65881348 C-41.74574716 58.46640635 -44.85933889 52.37812055 -48.1875 46.375 C-48.59556885 45.63338623 -49.0036377 44.89177246 -49.42407227 44.12768555 C-52.35498154 38.90728732 -55.62490417 33.94264515 -59 29 C-65.8840717 29.42179861 -70.86160322 31.51766809 -76.9375 34.6875 C-77.77990234 35.10966797 -78.62230469 35.53183594 -79.49023438 35.96679688 C-83.77849842 38.15549515 -87.97015911 40.48885275 -92.06640625 43.01953125 C-92.79931885 43.47046143 -93.53223145 43.9213916 -94.28735352 44.38598633 C-96.56549969 46.53293206 -96.90594044 47.89159763 -97 51 C-95.93803063 53.13968437 -95.93803063 53.13968437 -94.17578125 55.03125 C-93.55896484 55.75957031 -92.94214844 56.48789063 -92.30664062 57.23828125 C-91.64857422 57.98464844 -90.99050781 58.73101562 -90.3125 59.5 C-89.03774614 60.98957111 -87.7630062 62.47915414 -86.48828125 63.96875 C-85.8845166 64.66613281 -85.28075195 65.36351562 -84.65869141 66.08203125 C-79 72.62525758 -79 72.62525758 -79 75 C-74.50514654 76.75408915 -70.82194702 77.61370235 -66 77 C-64.29413425 75.37347684 -62.6222454 73.70993434 -61 72 C-59.02734375 72.1015625 -59.02734375 72.1015625 -57 73 C-48.95011611 82.35467276 -42 98.69097779 -42 111 C-41.07960938 111.02578125 -40.15921875 111.0515625 -39.2109375 111.078125 C-25.91155355 111.67402408 -14.78574311 114.29226831 -3.42578125 121.609375 C-1.0322417 123.24867103 -1.0322417 123.24867103 2 123 C3.22161007 119.14491905 4.43225106 115.28718961 5.62109375 111.421875 C6.44575715 108.74560888 7.30956585 106.10196232 8.22265625 103.453125 C11.36734907 93.84997703 11.40735041 84.98008516 11 75 C14 76 14 76 15.53515625 78.66015625 C16.29119141 80.34431641 16.29119141 80.34431641 17.0625 82.0625 C17.82240234 83.71958984 17.82240234 83.71958984 18.59765625 85.41015625 C21.8693181 93.78524606 22.41777558 101.24555529 22.4375 110.1875 C22.44136719 111.39043701 22.44523437 112.59337402 22.44921875 113.83276367 C22.34828423 121.57791135 21.69664865 127.58395134 18.09375 134.51953125 C16.68971187 137.70368916 16.47970921 139.544402 17 143 C18.11206174 144.82169901 19.36898567 146.4612318 20.67724609 148.14697266 C28.56155538 159.19199065 29.7107185 174.98342009 28 188 C26.88811363 193.00095009 25.19918166 197.38225359 23 202 C22.71592285 202.62245605 22.4318457 203.24491211 22.13916016 203.88623047 C16.1987011 216.76849425 7.7670707 224.95581008 -3.28125 233.78515625 C-5.93501353 235.94705844 -8.47249141 238.19244864 -11 240.5 C-15.2430147 244.36214567 -19.62342866 248.00754309 -24.08203125 251.6171875 C-27.25417171 254.20755655 -30.38050208 256.84675011 -33.5 259.5 C-37.42388502 262.83625007 -41.3726169 266.13271339 -45.375 269.375 C-51.08015403 274.02027055 -56.62378615 278.84156796 -62.171875 283.671875 C-65.21393192 286.32021778 -68.26699143 288.95515746 -71.33032227 291.57885742 C-72.47797489 292.56184333 -73.62431529 293.54636352 -74.76928711 294.5324707 C-77.81380823 297.15043743 -80.88240904 299.732348 -83.98828125 302.27734375 C-84.63853271 302.81673584 -85.28878418 303.35612793 -85.95874023 303.91186523 C-87.20941805 304.94838698 -88.46777607 305.97573062 -89.73461914 306.99243164 C-91.63810488 308.53475961 -91.63810488 308.53475961 -94 311 C-94 315.2330843 -93.8660216 315.6645243 -91.39453125 318.73046875 C-90.82927734 319.44283691 -90.26402344 320.15520508 -89.68164062 320.88916016 C-89.06482422 321.6476123 -88.44800781 322.40606445 -87.8125 323.1875 C-86.52659738 324.80279153 -85.24145963 326.41869221 -83.95703125 328.03515625 C-82.97017334 329.26903076 -82.97017334 329.26903076 -81.96337891 330.52783203 C-78.92425917 334.35450779 -75.9604881 338.23737155 -73 342.125 C-72.48542236 342.79813232 -71.97084473 343.47126465 -71.44067383 344.16479492 C-67.93355336 348.75646263 -64.46005748 353.3727866 -61 358 C-57.89766669 357.41312897 -56.13103016 356.54374048 -53.78515625 354.4453125 C-52.88978149 353.6553186 -52.88978149 353.6553186 -51.97631836 352.84936523 C-51.3447583 352.28032471 -50.71319824 351.71128418 -50.0625 351.125 C-48.71154768 349.93029924 -47.35997474 348.73629995 -46.0078125 347.54296875 C-44.99509277 346.64457275 -44.99509277 346.64457275 -43.96191406 345.72802734 C-41.15528626 343.25598757 -38.3008978 340.84330344 -35.4375 338.4375 C-29.18345481 333.16543954 -22.97186585 327.84487294 -16.76611328 322.51611328 C-13.26349055 319.50930001 -9.75766627 316.50622029 -6.25244141 313.50244141 C-3.32218196 310.99114114 -0.39270413 308.47894081 2.53515625 305.96484375 C8.70659807 300.6672344 14.89401541 295.38984001 21.10791016 290.14208984 C27.43424365 284.79521893 33.71609579 279.39660168 40 274 C47.34851068 267.68911686 54.70740317 261.3919562 62.10791016 255.14208984 C67.84168764 250.29603358 73.53823153 245.40686219 79.23388672 240.51611328 C82.15442275 238.00899015 85.07732311 235.50462672 88 233 C89.16667816 232.00001341 90.33334482 231.0000134 91.5 230 C93.83333333 228 96.16666667 226 98.5 224 C99.07782227 223.50467773 99.65564453 223.00935547 100.25097656 222.49902344 C101.41420412 221.50206403 102.57761473 220.50531817 103.74121094 219.50878906 C106.71205617 216.96401463 109.67933698 214.41526744 112.640625 211.859375 C132.195081 195 132.195081 195 134 195 C134.45602775 199.34567617 134.56118733 201.30463699 131.76171875 204.7734375 C130.75478556 205.66123868 129.72870609 206.527654 128.6875 207.375 C128.14496582 207.84341309 127.60243164 208.31182617 127.04345703 208.79443359 C125.38040451 210.21970005 123.69530974 211.61333768 122 213 C121.04480469 213.78890625 120.08960938 214.5778125 119.10546875 215.390625 C117.29230367 216.87435951 115.47331072 218.35100197 113.6484375 219.8203125 C111.02724881 221.97757399 108.50845719 224.21311 106 226.5 C102.68010514 229.52282421 99.30235888 232.42512161 95.8125 235.25 C89.37451094 240.46386438 83.14836434 245.91041253 76.90087891 251.34912109 C68.95394318 258.25089085 60.93322101 265.06687286 52.8918457 271.8581543 C46.56552711 277.20486451 40.28381663 282.60347353 34 288 C26.65148932 294.31088314 19.29259683 300.6080438 11.89208984 306.85791016 C6.15831236 311.70396642 0.46176847 316.59313781 -5.23388672 321.48388672 C-8.73494192 324.48935434 -12.23888345 327.49145815 -15.74316406 330.49316406 C-18.70051252 333.02685208 -21.65529679 335.5634265 -24.60546875 338.10546875 C-29.93835322 342.69606553 -35.28185945 347.25761398 -40.75 351.6875 C-45.13151795 355.24267904 -49.31710681 358.96769537 -53.48828125 362.765625 C-56.00151232 365.00134533 -58.57311479 367.13377682 -61.1875 369.25 C-67.62711993 374.46518515 -73.85455403 379.91331752 -80.10351562 385.35351562 C-83.07855189 387.93637409 -86.0694406 390.50056914 -89.0625 393.0625 C-89.92258667 393.79883667 -89.92258667 393.79883667 -90.80004883 394.55004883 C-91.95530518 395.53885203 -93.11065976 396.52754049 -94.26611328 397.51611328 C-96.59452722 399.50880547 -98.92134289 401.50335862 -101.24804688 403.49804688 C-102.9972123 404.9976101 -104.74665271 406.49685209 -106.49609375 407.99609375 C-108.84341526 410.00799002 -111.18966417 412.02112758 -113.53515625 414.03515625 C-119.70659807 419.3327656 -125.89401541 424.61015999 -132.10791016 429.85791016 C-138.43424365 435.20478107 -144.71609579 440.60339832 -151 446 C-153.35371279 448.02136283 -155.70796181 450.04209872 -158.0625 452.0625 C-158.5670874 452.49618896 -159.0716748 452.92987793 -159.59155273 453.37670898 C-160.66750127 454.29993144 -161.75953031 455.20464236 -162.86436462 456.09309387 C-165.12959402 458.023398 -165.12959402 458.023398 -167.25125122 460.6885376 C-173.04235177 467.1586387 -178.3648604 469.6358038 -187.05633354 470.1704216 C-193.21705351 470.31095224 -199.35969309 470.21372216 -205.51953125 470.07421875 C-208.19148209 470.05367425 -210.86310728 470.03748837 -213.53507996 470.02705383 C-219.8184663 469.99306443 -226.09970998 469.9030836 -232.38215894 469.79220945 C-239.54284177 469.66861988 -246.7036351 469.60861996 -253.86512148 469.55355966 C-268.57783611 469.43903849 -283.28888044 469.24596107 -298 469 C-290.38875832 461.35862421 -282.40663223 454.2532103 -274.015625 447.48046875 C-270.45329778 444.55031618 -266.97529204 441.53237122 -263.5 438.5 C-259.21797219 434.76581042 -254.91667953 431.07540724 -250.5 427.5 C-245.46651459 423.42242873 -240.57666691 419.19494085 -235.69189453 414.94189453 C-230.03580629 410.01987908 -224.32231652 405.16927867 -218.58837891 400.33837891 C-215.91091047 398.08232573 -213.23627043 395.82293394 -210.5625 393.5625 C-209.76392578 392.88767578 -209.76392578 392.88767578 -208.94921875 392.19921875 C-205.50770229 389.28716636 -202.08310044 386.35615553 -198.66577148 383.41577148 C-193.98600755 379.38932429 -189.2922906 375.39285776 -184.5 371.5 C-177.8895251 366.12838423 -171.45217378 360.55957367 -165 355 C-156.39373848 347.59210832 -147.74721451 340.2412838 -139 333 C-134.46899957 334.57833427 -132.19703641 338.15385022 -129.375 341.8125 C-128.84503418 342.48756592 -128.31506836 343.16263184 -127.76904297 343.8581543 C-126.17081203 345.89895384 -124.58368559 347.94790036 -123 350 C-122.56880859 350.556875 -122.13761719 351.11375 -121.69335938 351.6875 C-119.69403988 354.27143473 -117.7041927 356.86241864 -115.71875 359.45703125 C-112.37626087 363.82182423 -109.00027766 368.16054453 -105.625 372.5 C-105.02961426 373.26610596 -104.43422852 374.03221191 -103.82080078 374.8215332 C-103.25345215 375.55073975 -102.68610352 376.27994629 -102.1015625 377.03125 C-101.29960449 378.06378906 -101.29960449 378.06378906 -100.48144531 379.1171875 C-99.20899388 380.73438352 -97.9007828 382.32332945 -96.5859375 383.90625 C-95 386 -95 386 -95 388 C-89.21117134 383.91962221 -84.03233809 379.34715824 -78.83203125 374.546875 C-74.70661772 370.83684794 -70.38066694 367.40190622 -66 364 C-69.92519469 357.64738228 -74.43556004 351.86608826 -79.12207031 346.07177734 C-89.42338882 333.31611785 -99.18923285 320.13405404 -109 307 C-102.52338632 300.45472964 -95.72353932 294.35075067 -88.5625 288.5625 C-84.75912497 285.48663412 -81.09917348 282.31246834 -77.5 279 C-73.13230508 274.98394153 -68.63150764 271.20614546 -64.015625 267.48046875 C-60.4533015 264.55031924 -56.97521153 261.53245937 -53.5 258.5 C-49.11792637 254.67677716 -44.70940127 250.90845477 -40.1875 247.25 C-35.77514371 243.67559861 -31.53695822 239.94938669 -27.34375 236.12109375 C-25.20075688 234.18168497 -23.01655362 232.30670701 -20.8125 230.4375 C-17.45222394 227.51581419 -14.57542243 224.34551638 -11.703125 220.94921875 C-10.10910311 219.12486801 -8.44594218 217.47644646 -6.6875 215.8125 C3.14105104 206.02812223 14.16316769 192.40824575 14.625 177.9375 C13.9493488 168.14718156 12.88017457 159.25207589 6 152 C5.16339602 148.46767207 6.22446783 146.39074916 7.83203125 143.296875 C15.90119079 127.36781649 16.79965356 113.77896424 16 96 C15.86013672 96.61294922 15.72027344 97.22589844 15.57617188 97.85742188 C12.21049507 112.32658552 8.30401947 125.5439708 0 138 C-2.1875 138.5625 -2.1875 138.5625 -5 138 C-6.49609375 136.828125 -6.49609375 136.828125 -8.125 135.3125 C-18.30544544 125.9712236 -31.84284164 124.85905845 -45 124 C-46.54249859 119.12169147 -47.25469251 114.75640386 -47.625 109.625 C-48.48385347 100.74491823 -52.02580568 93.56685977 -56.1171875 85.74853516 C-57.22586998 83.55263251 -58.14106594 81.30391168 -59 79 C-59.845625 79.825 -60.69125 80.65 -61.5625 81.5 C-64.0049527 83.49267703 -65.03136115 84.00603099 -68.25 84.625 C-74.39272104 83.60121316 -79.75297705 81.63943445 -83.87890625 76.79296875 C-85.02462795 75.10495649 -86.14096638 73.3967078 -87.23046875 71.671875 C-89.686327 67.96369169 -92.65030075 64.84790056 -95.66015625 61.5859375 C-99.62168879 57.20774962 -103.30303536 52.60176669 -107 48 C-107.76699219 47.17113281 -108.53398437 46.34226563 -109.32421875 45.48828125 C-111 43 -111 43 -111.2265625 40.5078125 C-109.29666348 36.561968 -106.10105974 35.02826449 -102.375 32.875 C-101.58899414 32.40924561 -100.80298828 31.94349121 -99.99316406 31.46362305 C-93.38850074 27.63268766 -86.60958998 24.16166491 -79.75 20.8125 C-78.77466309 20.33087402 -77.79932617 19.84924805 -76.79443359 19.35302734 C-67.87412517 15.11994962 -67.87412517 15.11994962 -63 16 C-45.04144983 25.85336381 -33.84720089 62.28112463 -25 80 C-24.89453857 79.20416504 -24.78907715 78.40833008 -24.68041992 77.58837891 C-24.19114365 73.93274445 -23.68941211 70.27892014 -23.1875 66.625 C-23.02185547 65.37332031 -22.85621094 64.12164062 -22.68554688 62.83203125 C-21.79283519 56.39776965 -20.73574404 50.31445769 -18.58544922 44.17382812 C-15.85893694 34.05003108 -21.5467962 22.16136727 -25.89941406 13.13476562 C-27.70448617 9.33569464 -28.34789445 7.04368336 -27 3 C-17.80605281 0.88991376 -9.46216393 -0.4674081 0 0 Z " fill="#060707" transform="translate(466,131)"/>
<path d="M0 0 C0 43.56 0 87.12 0 132 C-51.48 132 -102.96 132 -156 132 C-148.70717355 124.70717355 -141.06532828 117.99981298 -133.05078125 111.515625 C-129.47943501 108.57075051 -125.98785513 105.54283024 -122.5 102.5 C-118.21793708 98.76584832 -113.91668165 95.07540896 -109.5 91.5 C-103.17126255 86.37137869 -97.05294166 81.00725329 -90.90966797 75.65966797 C-83.86727609 69.5392154 -76.80997199 63.43969663 -69.5625 57.5625 C-63.21723119 52.40813208 -57.07490552 47.02637235 -50.90966797 41.65966797 C-43.86727609 35.5392154 -36.80997199 29.43969663 -29.5625 23.5625 C-23.78829198 18.87469852 -18.1840066 13.99962674 -12.578125 9.11328125 C-11.99095703 8.60361816 -11.40378906 8.09395508 -10.79882812 7.56884766 C-9.54652058 6.47664784 -8.30089709 5.37675645 -7.06054688 4.27099609 C-6.1256543 3.44656006 -6.1256543 3.44656006 -5.171875 2.60546875 C-4.61081055 2.1055542 -4.04974609 1.60563965 -3.47167969 1.09057617 C-2 0 -2 0 0 0 Z " fill="#7F7F7F" transform="translate(600,468)"/>
<path d="M0 0 C3.52750091 1.35532755 5.42817692 4.60613544 7.65454102 7.52978516 C8.18233154 8.2064624 8.71012207 8.88313965 9.25390625 9.58032227 C10.85594261 11.63918836 12.44401686 13.7081879 14.02954102 15.77978516 C14.90275974 16.91166542 15.77642361 18.04320247 16.65063477 19.17431641 C18.26898293 21.27428498 19.88361483 23.37712312 21.49438477 25.48291016 C25.94811751 31.29351488 30.49620778 37.03124283 35.02954102 42.77978516 C33.51101625 46.61923698 31.25151364 48.45469571 28.02954102 50.96728516 C24.2540307 53.97097891 20.58893106 57.0227151 17.02954102 60.27978516 C12.72962311 64.19869768 8.27034555 67.87149385 3.74829102 71.52978516 C1.10806372 73.71480085 -1.43775619 75.97149906 -3.97045898 78.27978516 C-8.27037689 82.19869768 -12.72965445 85.87149385 -17.25170898 89.52978516 C-20.74954049 92.42454227 -24.08831302 95.47568054 -27.44311523 98.53369141 C-30.04008291 100.84166113 -32.70449911 103.03534378 -35.40795898 105.21728516 C-40.37752821 109.23116799 -45.07968804 113.46383168 -49.75561523 117.81103516 C-53.73744756 121.35044166 -57.17636436 120.91578677 -62.27563477 120.89331055 C-63.13424103 120.89345657 -63.99284729 120.8936026 -64.87747192 120.89375305 C-67.72359722 120.89305479 -70.56965758 120.8852664 -73.41577148 120.87744141 C-75.38589441 120.87557692 -77.3560178 120.87415316 -79.32614136 120.87315369 C-84.51785557 120.86933092 -89.70954193 120.85950266 -94.90124512 120.84844971 C-100.19644799 120.83823043 -105.49165535 120.83365496 -110.78686523 120.82861328 C-121.18140874 120.8178802 -131.57593155 120.80080664 -141.97045898 120.77978516 C-139.16764466 117.18939705 -136.42918418 114.35079332 -132.84545898 111.52978516 C-129.11741201 108.54339209 -125.49678374 105.50192216 -121.97045898 102.27978516 C-118.65056412 99.25696095 -115.27281787 96.35466354 -111.78295898 93.52978516 C-105.34496993 88.31592078 -99.11882333 82.86937262 -92.87133789 77.43066406 C-84.92519767 70.52958518 -76.90592024 63.71343548 -68.86450195 56.92382812 C-64.88421768 53.56053009 -60.92384856 50.17463846 -56.97045898 46.77978516 C-51.95564311 42.47346424 -46.92112009 38.19164221 -41.86938477 33.92871094 C-37.84183427 30.52660959 -33.84145882 27.09384932 -29.84545898 23.65478516 C-24.82522289 19.33487062 -19.7354262 15.11688949 -14.57592773 10.96337891 C-10.94561114 7.92087969 -7.5464873 4.64660693 -4.16186523 1.33447266 C-1.97045898 -0.22021484 -1.97045898 -0.22021484 0 0 Z " fill="#FCFCFD" transform="translate(331.970458984375,479.22021484375)"/>
<path d="M0 0 C0.54527344 0.98097656 1.09054687 1.96195313 1.65234375 2.97265625 C2.41398587 4.33598031 3.17571116 5.69925791 3.9375 7.0625 C4.338479 7.78477783 4.73945801 8.50705566 5.15258789 9.2512207 C7.1847941 12.8838635 9.25883655 16.45705166 11.53125 19.9453125 C16.23971689 27.23146231 18.5319168 32.40760011 19.359375 41.2265625 C20.13377821 44.57916176 21.17170087 45.77595701 23.8125 47.9375 C26.66651852 49.66955834 27.46112337 50.09580029 30.8125 49.5 C31.8953125 48.7575 31.8953125 48.7575 33 48 C36 46 36 46 38.6875 46.375 C39.450625 46.58125 40.21375 46.7875 41 47 C45.26553158 63.9859561 44.24250187 80.67153646 43 98 C42.29617188 98.12375 41.59234375 98.2475 40.8671875 98.375 C31.69291061 100.29129805 21.76439888 104.23560112 15 111 C13.01171875 110.8828125 13.01171875 110.8828125 11 110 C9.83203125 108.2421875 9.83203125 108.2421875 8.8125 105.875 C-0.37675814 86.13511215 -12.30652131 69.78023419 -33 61.125 C-38.46331144 59.29997139 -44.30990654 58.73728345 -50 58 C-51.66851467 47.51219348 -42.38406927 37.93270356 -36.625 29.875 C-29.13919445 19.60224352 -21.88934041 10.7968234 -11 4 C-10.32453125 3.56558594 -9.6490625 3.13117188 -8.953125 2.68359375 C-5.61425455 0.63603858 -4.02232684 0 0 0 Z " fill="#FDFDFD" transform="translate(356,193)"/>
<path d="M0 0 C18.34869831 5.64575333 40.72300462 16.73083899 50.0625 34.3125 C52.58767954 39.75241846 54.75632903 45.32925331 56.875 50.9375 C57.34111694 52.16303589 57.34111694 52.16303589 57.81665039 53.41333008 C60.70024866 61.31202372 60.70024866 61.31202372 60 65 C58.56640625 66.8515625 58.56640625 66.8515625 56.5625 68.625 C53.2152528 71.75897127 50.25792864 74.99432516 47.375 78.5625 C46.61960937 79.49191406 45.86421875 80.42132813 45.0859375 81.37890625 C43.83589982 82.94964648 42.60487453 84.53624172 41.4140625 86.15234375 C38.42617774 90.05640312 35.67328909 92.32816511 30.875 93.625 C19.98225293 95.0457931 8.45139571 93.86688805 -1 88 C-7.19069869 83.03618523 -10.13666018 76.58833621 -12 69 C-12.61311399 63.19849907 -12.6773678 57.45397365 -12.625 51.625 C-12.62268372 50.8299707 -12.62036743 50.03494141 -12.61798096 49.21582031 C-12.51490546 31.31939265 -9.10030996 15.58670111 0 0 Z " fill="#FBFBFC" transform="translate(315,276)"/>
<path d="M0 0 C2.06668567 23.08084342 2.06668567 23.08084342 -1.24365234 29.35839844 C-4.51608277 33.25862599 -8.43910232 35.81334854 -13 38 C-13.66 38 -14.32 38 -15 38 C-15 38.66 -15 39.32 -15 40 C-16.46690559 41.3327188 -18.00322501 42.58913869 -19.5625 43.8125 C-25.06175026 48.20762618 -30.39249335 52.76453329 -35.69555664 57.39379883 C-37.46051801 58.93291318 -39.22975775 60.46696518 -41 62 C-41.56509277 62.49564453 -42.13018555 62.99128906 -42.71240234 63.50195312 C-46.77254747 67 -46.77254747 67 -49 67 C-49 67.66 -49 68.32 -49 69 C-50.46690559 70.3327188 -52.00322501 71.58913869 -53.5625 72.8125 C-59.06175026 77.20762618 -64.39249335 81.76453329 -69.69555664 86.39379883 C-71.46051801 87.93291318 -73.22975775 89.46696518 -75 91 C-75.56509277 91.49564453 -76.13018555 91.99128906 -76.71240234 92.50195312 C-80.77254747 96 -80.77254747 96 -83 96 C-83 96.66 -83 97.32 -83 98 C-84.6953125 99.5234375 -84.6953125 99.5234375 -87.125 101.375 C-91.42891391 104.73326522 -95.61667816 108.1865327 -99.75 111.75 C-100.33386475 112.25241211 -100.91772949 112.75482422 -101.51928711 113.27246094 C-103.34735253 114.8469664 -105.17386642 116.42325452 -107 118 C-109.5607575 120.21036513 -112.12356423 122.41832296 -114.6875 124.625 C-115.27563477 125.13385742 -115.86376953 125.64271484 -116.46972656 126.16699219 C-121.63491799 130.61202219 -124.52614969 132.29736262 -131.29296875 132.1953125 C-131.99899734 132.1924826 -132.70502594 132.18965271 -133.43244934 132.18673706 C-135.68430633 132.17555464 -137.93576352 132.1504542 -140.1875 132.125 C-141.71548904 132.11496767 -143.24348433 132.10584226 -144.77148438 132.09765625 C-148.51447663 132.07562172 -152.25717056 132.04110567 -156 132 C-148.7280088 124.69938485 -141.05914784 117.99481268 -133.05078125 111.515625 C-129.47943501 108.57075051 -125.98785513 105.54283024 -122.5 102.5 C-118.21793708 98.76584832 -113.91668165 95.07540896 -109.5 91.5 C-103.17126255 86.37137869 -97.05294166 81.00725329 -90.90966797 75.65966797 C-83.86727609 69.5392154 -76.80997199 63.43969663 -69.5625 57.5625 C-63.21723119 52.40813208 -57.07490552 47.02637235 -50.90966797 41.65966797 C-43.86727609 35.5392154 -36.80997199 29.43969663 -29.5625 23.5625 C-23.78829198 18.87469852 -18.1840066 13.99962674 -12.578125 9.11328125 C-11.99095703 8.60361816 -11.40378906 8.09395508 -10.79882812 7.56884766 C-9.54652058 6.47664784 -8.30089709 5.37675645 -7.06054688 4.27099609 C-6.1256543 3.44656006 -6.1256543 3.44656006 -5.171875 2.60546875 C-4.61081055 2.1055542 -4.04974609 1.60563965 -3.47167969 1.09057617 C-2 0 -2 0 0 0 Z " fill="#010202" transform="translate(600,468)"/>
<path d="M0 0 C1.27875 0.00257813 2.5575 0.00515625 3.875 0.0078125 C5.15375 0.00523437 6.4325 0.00265625 7.75 0 C10.875 0.1328125 10.875 0.1328125 11.875 1.1328125 C11.97075309 2.63832424 11.99688187 4.1483228 11.99525452 5.65687561 C11.99662918 6.63429214 11.99800385 7.61170868 11.99942017 8.6187439 C11.99582489 9.69983429 11.99222961 10.78092468 11.98852539 11.89477539 C11.98867142 13.0263356 11.98881744 14.15789581 11.9889679 15.32374573 C11.98826819 19.08433921 11.98047311 22.84488387 11.97265625 26.60546875 C11.97079227 29.20478793 11.96936828 31.80410747 11.96836853 34.40342712 C11.96493341 40.55869827 11.95704256 46.7139491 11.94701904 52.86921257 C11.93585694 59.87514596 11.93034721 66.88108017 11.92532361 73.88702023 C11.91485992 88.30229409 11.89706058 102.71755204 11.875 117.1328125 C15.835 117.1328125 19.795 117.1328125 23.875 117.1328125 C23.3167158 122.4675282 21.47308959 126.4631966 19.05859375 131.15625 C18.68267593 131.90242584 18.30675812 132.64860168 17.91944885 133.41738892 C16.72463212 135.78474706 15.51877506 138.14627581 14.3125 140.5078125 C13.49730982 142.11811667 12.68284869 143.72879014 11.86914062 145.33984375 C9.87950808 149.27515848 7.87995903 153.20528567 5.875 157.1328125 C3.63793945 157.09277344 3.63793945 157.09277344 0.875 156.1328125 C-0.78856945 153.66637088 -2.0591104 151.43245158 -3.33203125 148.7734375 C-3.70228928 148.03204529 -4.0725473 147.29065308 -4.45402527 146.52679443 C-5.23306436 144.95731754 -6.00331812 143.38345366 -6.76538086 141.80566406 C-7.93119473 139.39584594 -9.12603804 137.0022542 -10.32617188 134.609375 C-11.07989384 133.08160054 -11.83190453 131.5529804 -12.58203125 130.0234375 C-12.93820023 129.30867249 -13.2943692 128.59390747 -13.66133118 127.85748291 C-15.58322112 123.8437426 -16.125 121.72222203 -16.125 117.1328125 C-12.165 117.1328125 -8.205 117.1328125 -4.125 117.1328125 C-4.12722061 115.68177628 -4.12944122 114.23074005 -4.13172913 112.73573303 C-4.15195721 99.09417831 -4.1670305 85.45262513 -4.17681217 71.811059 C-4.18197498 64.79696616 -4.18901739 57.7828845 -4.20043945 50.76879883 C-4.21144688 44.00613182 -4.21727619 37.24347886 -4.21987724 30.48080254 C-4.22173203 27.8942897 -4.22535367 25.30777753 -4.23073006 22.72126961 C-4.23793651 19.11242395 -4.23899111 15.50362703 -4.23852539 11.89477539 C-4.24212067 10.813685 -4.24571594 9.7325946 -4.24942017 8.6187439 C-4.2480455 7.64132736 -4.24667084 6.66391083 -4.24525452 5.65687561 C-4.24617631 4.80237351 -4.2470981 3.94787142 -4.24804783 3.06747532 C-4.03917884 -0.21654085 -3.36232502 0.14289881 0 0 Z " fill="#020101" transform="translate(251.125,253.8671875)"/>
<path d="M0 0 C0.54527344 0.98097656 1.09054687 1.96195313 1.65234375 2.97265625 C2.41398587 4.33598031 3.17571116 5.69925791 3.9375 7.0625 C4.338479 7.78477783 4.73945801 8.50705566 5.15258789 9.2512207 C7.1847941 12.8838635 9.25883655 16.45705166 11.53125 19.9453125 C16.23971689 27.23146231 18.5319168 32.40760011 19.359375 41.2265625 C20.13377821 44.57916176 21.17170087 45.77595701 23.8125 47.9375 C26.66651852 49.66955834 27.46112337 50.09580029 30.8125 49.5 C31.8953125 48.7575 31.8953125 48.7575 33 48 C36 46 36 46 38.6875 46.375 C39.450625 46.58125 40.21375 46.7875 41 47 C45.26553158 63.9859561 44.24250187 80.67153646 43 98 C42.29617188 98.12375 41.59234375 98.2475 40.8671875 98.375 C31.69291061 100.29129805 21.76439888 104.23560112 15 111 C13.01171875 110.8828125 13.01171875 110.8828125 11 110 C9.83203125 108.2421875 9.83203125 108.2421875 8.8125 105.875 C-0.37675814 86.13511215 -12.30652131 69.78023419 -33 61.125 C-38.46331144 59.29997139 -44.30990654 58.73728345 -50 58 C-51.66851467 47.51219348 -42.38406927 37.93270356 -36.625 29.875 C-29.13919445 19.60224352 -21.88934041 10.7968234 -11 4 C-10.32453125 3.56558594 -9.6490625 3.13117188 -8.953125 2.68359375 C-5.61425455 0.63603858 -4.02232684 0 0 0 Z M-27.57055664 39.61572266 C-33.05141562 46.65760383 -33.05141562 46.65760383 -35 55 C-33.67548828 55.61875 -33.67548828 55.61875 -32.32421875 56.25 C-24.2401684 60.10752501 -17.04638228 64.40994474 -10 70 C-9.28199219 70.52980469 -8.56398438 71.05960938 -7.82421875 71.60546875 C-2.46002242 75.82391441 0.7555272 80.99040115 4.140625 86.81640625 C5.98443219 89.97334503 7.94590428 92.97793439 10 96 C15.73106827 95.36419582 20.29313973 93.10275477 25.34570312 90.52734375 C29.62465055 88.42525036 33.24486556 87.44176733 38 87 C38.05815112 82.60422239 38.09364767 78.20854402 38.125 73.8125 C38.15013672 71.94368164 38.15013672 71.94368164 38.17578125 70.03710938 C38.18222656 68.83505859 38.18867188 67.63300781 38.1953125 66.39453125 C38.20578613 65.28956299 38.21625977 64.18459473 38.22705078 63.04614258 C37.99727629 59.96345835 37.3081849 57.78159038 36 55 C35.40574219 55.17660156 34.81148438 55.35320312 34.19921875 55.53515625 C29.93484391 56.43047601 27.05013187 56.4733183 23.02734375 54.66015625 C16.70464723 50.22660997 14.23499662 46.23639633 12.875 38.875 C12.74802734 38.15143311 12.62105469 37.42786621 12.49023438 36.68237305 C11.43260643 30.99135729 9.56331635 26.4221653 6.625 21.4375 C6.07948486 20.46369385 6.07948486 20.46369385 5.52294922 19.47021484 C4.33119318 17.43299335 4.33119318 17.43299335 2 15 C-10.96838556 12.94979099 -21.10362638 30.59274869 -27.57055664 39.61572266 Z " fill="#070808" transform="translate(356,193)"/>
<path d="M0 0 C18.34869831 5.64575333 40.72300462 16.73083899 50.0625 34.3125 C52.58767954 39.75241846 54.75632903 45.32925331 56.875 50.9375 C57.34111694 52.16303589 57.34111694 52.16303589 57.81665039 53.41333008 C60.70024866 61.31202372 60.70024866 61.31202372 60 65 C58.56640625 66.8515625 58.56640625 66.8515625 56.5625 68.625 C53.2152528 71.75897127 50.25792864 74.99432516 47.375 78.5625 C46.61960937 79.49191406 45.86421875 80.42132813 45.0859375 81.37890625 C43.83589982 82.94964648 42.60487453 84.53624172 41.4140625 86.15234375 C38.42617774 90.05640312 35.67328909 92.32816511 30.875 93.625 C19.98225293 95.0457931 8.45139571 93.86688805 -1 88 C-7.19069869 83.03618523 -10.13666018 76.58833621 -12 69 C-12.61311399 63.19849907 -12.6773678 57.45397365 -12.625 51.625 C-12.62268372 50.8299707 -12.62036743 50.03494141 -12.61798096 49.21582031 C-12.51490546 31.31939265 -9.10030996 15.58670111 0 0 Z M9 11 C8.05435198 13.26771903 7.11855433 15.53879049 6.1875 17.8125 C5.92646484 18.43576172 5.66542969 19.05902344 5.39648438 19.70117188 C1.23718758 29.91969116 -0.47261878 39.13930385 -0.3125 50.1875 C-0.31572266 51.31091797 -0.31894531 52.43433594 -0.32226562 53.59179688 C-0.27177163 61.40918587 -0.12540311 69.63743062 5 76 C10.26765987 79.78453234 15.04443473 81.14359669 21.4375 81.25 C22.36433594 81.27578125 23.29117188 81.3015625 24.24609375 81.328125 C28.5965653 80.80977094 31.07584115 79.03852581 33.95703125 75.80078125 C34.56933594 74.97964844 35.18164062 74.15851563 35.8125 73.3125 C39.03001918 69.13825636 42.42635596 65.42314949 46.23828125 61.7890625 C50.13755735 57.89130899 50.13755735 57.89130899 51.0625 52.625 C48.75863417 39.51257211 41.92082878 29.13828762 31.25610352 21.43066406 C21.01297015 13.65129688 21.01297015 13.65129688 9 11 Z " fill="#050505" transform="translate(315,276)"/>
<path d="M0 0 C1.76171875 1.86328125 1.76171875 1.86328125 3.6875 4.3125 C4.33074219 5.11300781 4.97398437 5.91351563 5.63671875 6.73828125 C6.08660156 7.48464844 6.53648437 8.23101563 7 9 C5.76071219 12.71786343 4.32529278 13.55103725 1.25 15.9375 C-3.17713671 19.46429932 -7.37588774 23.12484667 -11.5 27 C-15.37407975 30.63013726 -19.28907218 34.11753941 -23.4375 37.4375 C-28.5039481 41.50252717 -33.24666335 45.85160866 -37.96655273 50.30834961 C-41.87780331 53.99600237 -45.88961495 57.53564339 -50 61 C-48.67855892 63.79108116 -47.19617639 66.25786389 -45.375 68.75 C-44.92898438 69.36359375 -44.48296875 69.9771875 -44.0234375 70.609375 C-43.68570313 71.06828125 -43.34796875 71.5271875 -43 72 C-47.43510036 72.99024813 -51.87344734 73.96513608 -56.3125 74.9375 C-57.55580078 75.21529297 -58.79910156 75.49308594 -60.08007812 75.77929688 C-67.38654832 77.37099511 -74.53132685 78.56100681 -82 79 C-77.93180498 66.55952496 -73.71516185 54.21106018 -69 42 C-66.33333333 44.66666667 -63.66666667 47.33333333 -61 50 C-55.97711876 48.504423 -53.03152151 45.5010805 -49.375 41.9375 C-45.17771199 37.93780892 -40.97163686 34.05948304 -36.4375 30.4375 C-31.70013035 26.64621298 -27.2765555 22.60242904 -22.85327148 18.45654297 C-18.53707497 14.43496958 -14.06557567 10.69669782 -9.4375 7.03515625 C-6.87734159 4.96773439 -6.87734159 4.96773439 -4.3125 2.24609375 C-2 0 -2 0 0 0 Z " fill="#1A181B" transform="translate(336,504)"/>
<path d="M0 0 C0.66 0.33 1.32 0.66 2 1 C1.67 39.94 1.34 78.88 1 119 C-2.96 119 -6.92 119 -11 119 C-7.61126953 127.91293829 -3.40250135 136.25318471 1.01757812 144.69335938 C1.54416016 145.72138672 2.07074219 146.74941406 2.61328125 147.80859375 C3.33704956 149.19776001 3.33704956 149.19776001 4.07543945 150.61499023 C5 153 5 153 4 156 C1.56606641 151.25588571 -0.85455717 146.5053041 -3.26318359 141.74829102 C-4.08411619 140.13154319 -4.90863273 138.51660992 -5.73681641 136.90356445 C-6.9278118 134.58233873 -8.10569243 132.25485547 -9.28125 129.92578125 C-9.65310425 129.20787918 -10.0249585 128.48997711 -10.40808105 127.75032043 C-10.74843384 127.06999252 -11.08878662 126.38966461 -11.43945312 125.6887207 C-11.7414563 125.09581741 -12.04345947 124.50291412 -12.35461426 123.89204407 C-13 122 -13 122 -13 117 C-9.04 117 -5.08 117 -1 117 C-1.00222061 115.54896378 -1.00444122 114.09792755 -1.00672913 112.60292053 C-1.02695721 98.96136581 -1.0420305 85.31981263 -1.05181217 71.6782465 C-1.05697498 64.66415366 -1.06401739 57.650072 -1.07543945 50.63598633 C-1.08644688 43.87331932 -1.09227619 37.11066636 -1.09487724 30.34799004 C-1.09673203 27.7614772 -1.10035367 25.17496503 -1.10573006 22.58845711 C-1.11293651 18.97961145 -1.11399111 15.37081453 -1.11352539 11.76196289 C-1.11712067 10.6808725 -1.12071594 9.5997821 -1.12442017 8.4859314 C-1.1230455 7.50851486 -1.12167084 6.53109833 -1.12025452 5.52406311 C-1.12117631 4.66956101 -1.1220981 3.81505892 -1.12304783 2.93466282 C-1 1 -1 1 0 0 Z " fill="#190C07" transform="translate(248,254)"/>
</svg>
